<svg width="33" height="31" viewBox="0 0 33 31" fill="none" xmlns="http://www.w3.org/2000/svg">
<mask id="mask0_729_725" style="mask-type:alpha" maskUnits="userSpaceOnUse" x="0" y="0" width="33" height="31">
<rect width="33" height="31" fill="#564AB4"/>
</mask>
<g mask="url(#mask0_729_725)">
<path d="M33.5 31.0946L0.5 -0.447327H33.5V31.0946Z" fill="#FFBB33"/>
</g>
<path d="M24.3444 5.20891C24.2794 5.08093 24.146 5 24 5C23.854 5 23.7206 5.08093 23.6556 5.20891L22.3191 7.84089L19.3297 8.26311C19.1845 8.28361 19.0638 8.38319 19.0187 8.51981C18.9735 8.65644 19.0117 8.80631 19.1171 8.90618L21.2787 10.9541L20.7685 13.8452C20.7436 13.9863 20.8027 14.129 20.9208 14.2134C21.039 14.2978 21.1959 14.3092 21.3255 14.243L24 12.8763L26.6745 14.243C26.8041 14.3092 26.961 14.2978 27.0792 14.2134C27.1973 14.129 27.2564 13.9863 27.2315 13.8452L26.7213 10.9541L28.8829 8.90618C28.9883 8.80631 29.0265 8.65644 28.9813 8.51981C28.9362 8.38319 28.8155 8.28361 28.6703 8.26311L25.6809 7.84089L24.3444 5.20891Z" fill="white"/>
</svg>
