<svg width="22" height="22" viewBox="0 0 22 22" fill="none" xmlns="http://www.w3.org/2000/svg">
<path d="M18.3333 10.9461V6.23337C18.3333 4.69323 18.3333 3.92316 18.0336 3.3349C17.7699 2.81745 17.3492 2.39676 16.8318 2.13311C16.2435 1.83337 15.4735 1.83337 13.9333 1.83337H8.06666C6.52651 1.83337 5.75644 1.83337 5.16818 2.13311C4.65074 2.39676 4.23004 2.81745 3.96639 3.3349C3.66666 3.92316 3.66666 4.69323 3.66666 6.23337V15.7667C3.66666 17.3069 3.66666 18.0769 3.96639 18.6652C4.23004 19.1826 4.65074 19.6033 5.16818 19.867C5.75644 20.1667 6.52651 20.1667 8.06666 20.1667H12.8333M12.8333 10.0834H7.33332M9.16666 13.75H7.33332M14.6667 6.41671H7.33332M13.75 15.5834H19.25" stroke="#ABA8A8" stroke-width="1.83333" stroke-linecap="round" stroke-linejoin="round"/>
</svg>
