<svg width="24" height="24" viewBox="0 0 24 24" fill="none" xmlns="http://www.w3.org/2000/svg">
<g opacity="0.1">
<path d="M12 2C6.49 2 2 6.49 2 12C2 17.51 6.49 22 12 22C17.51 22 22 17.51 22 12C22 6.49 17.51 2 12 2ZM16.78 9.7L11.11 15.37C10.97 15.51 10.78 15.59 10.58 15.59C10.38 15.59 10.19 15.51 10.05 15.37L7.22 12.54C6.93 12.25 6.93 11.77 7.22 11.48C7.51 11.19 7.99 11.19 8.28 11.48L10.58 13.78L15.72 8.64C16.01 8.35 16.49 8.35 16.78 8.64C17.07 8.93 17.07 9.4 16.78 9.7Z" fill="#2850E7"/>
</g>
<path d="M10.5799 15.58C10.3799 15.58 10.1899 15.5 10.0499 15.36L7.21994 12.53C6.92994 12.24 6.92994 11.76 7.21994 11.47C7.50994 11.18 7.98994 11.18 8.27994 11.47L10.5799 13.77L15.7199 8.63001C16.0099 8.34001 16.4899 8.34001 16.7799 8.63001C17.0699 8.92001 17.0699 9.40001 16.7799 9.69001L11.1099 15.36C10.9699 15.5 10.7799 15.58 10.5799 15.58Z" fill="#2850E7"/>
</svg>
