<svg width="19" height="19" viewBox="0 0 19 19" fill="none" xmlns="http://www.w3.org/2000/svg">
<path d="M17.0448 11.4552L15.4375 9.84794V7.71875C15.4357 6.24734 14.8883 4.82888 13.9013 3.73765C12.9142 2.64641 11.5576 1.95993 10.0938 1.81094V0.59375H8.90625V1.81094C7.4424 1.95993 6.0858 2.64641 5.09875 3.73765C4.11171 4.82888 3.56434 6.24734 3.5625 7.71875V9.84794L1.95522 11.4552C1.84386 11.5665 1.78128 11.7175 1.78125 11.875V13.6562C1.78125 13.8137 1.84381 13.9647 1.95516 14.0761C2.06651 14.1874 2.21753 14.25 2.375 14.25H6.53125V14.7113C6.51833 15.4646 6.78383 16.1961 7.27687 16.7657C7.76991 17.3354 8.45581 17.703 9.20312 17.7982C9.61589 17.8392 10.0326 17.7933 10.4266 17.6635C10.8206 17.5337 11.183 17.3228 11.4906 17.0446C11.7981 16.7663 12.0441 16.4267 12.2125 16.0477C12.381 15.6686 12.4683 15.2585 12.4688 14.8438V14.25H16.625C16.7825 14.25 16.9335 14.1874 17.0448 14.0761C17.1562 13.9647 17.2188 13.8137 17.2188 13.6562V11.875C17.2187 11.7175 17.1561 11.5665 17.0448 11.4552ZM11.2812 14.8438C11.2812 15.3162 11.0936 15.7692 10.7595 16.1033C10.4255 16.4373 9.97242 16.625 9.5 16.625C9.02758 16.625 8.57451 16.4373 8.24047 16.1033C7.90642 15.7692 7.71875 15.3162 7.71875 14.8438V14.25H11.2812V14.8438ZM16.0312 13.0625H2.96875V12.1208L4.57603 10.5135C4.68739 10.4022 4.74997 10.2512 4.75 10.0938V7.71875C4.75 6.45897 5.25044 5.25079 6.14124 4.35999C7.03204 3.4692 8.24022 2.96875 9.5 2.96875C10.7598 2.96875 11.968 3.4692 12.8588 4.35999C13.7496 5.25079 14.25 6.45897 14.25 7.71875V10.0938C14.25 10.2512 14.3126 10.4022 14.424 10.5135L16.0312 12.1208V13.0625Z" fill="#838383"/>
</svg>
