<svg width="18" height="19" viewBox="0 0 18 19" fill="none" xmlns="http://www.w3.org/2000/svg">
<path d="M10.8285 0C10.9682 4.45387e-06 11.1042 0.0448667 11.2171 0.128126C11.3299 0.211385 11.4138 0.328744 11.4565 0.463302L12.1821 2.7451C12.4869 2.89597 12.7784 3.06554 13.0568 3.25647L15.3735 2.75178C15.5101 2.72226 15.6524 2.73739 15.7799 2.79497C15.9075 2.85256 16.0137 2.94963 16.0832 3.07221L17.9118 6.27527C17.9816 6.39778 18.0112 6.53957 17.9962 6.68019C17.9813 6.82081 17.9226 6.95299 17.8286 7.05768L16.2389 8.83345C16.2621 9.17396 16.2621 9.51568 16.2389 9.85619L17.8286 11.6346C17.9226 11.7393 17.9813 11.8715 17.9962 12.0121C18.0112 12.1527 17.9816 12.2945 17.9118 12.417L16.0832 15.6214C16.0135 15.7438 15.9072 15.8406 15.7797 15.8979C15.6521 15.9552 15.5099 15.9702 15.3735 15.9405L13.0568 15.4358C12.7797 15.6254 12.4869 15.7963 12.1834 15.9472L11.4565 18.229C11.4138 18.3636 11.3299 18.4809 11.2171 18.5642C11.1042 18.6474 10.9682 18.6923 10.8285 18.6923H7.17147C7.03182 18.6923 6.89577 18.6474 6.78291 18.5642C6.67006 18.4809 6.58623 18.3636 6.54349 18.229L5.81921 15.9485C5.51527 15.7981 5.22211 15.6264 4.94188 15.4345L2.62654 15.9405C2.48995 15.97 2.34763 15.9549 2.22007 15.8973C2.09252 15.8397 1.98632 15.7427 1.91677 15.6201L0.0882411 12.417C0.0184174 12.2945 -0.0111578 12.1527 0.00378007 12.0121C0.0187179 11.8715 0.0773968 11.7393 0.171356 11.6346L1.76109 9.85619C1.73806 9.51656 1.73806 9.17574 1.76109 8.83612L0.171356 7.05768C0.0773968 6.95299 0.0187179 6.82081 0.00378007 6.68019C-0.0111578 6.53957 0.0184174 6.39778 0.0882411 6.27527L1.91677 3.07088C1.98651 2.94854 2.09279 2.85174 2.22033 2.79441C2.34787 2.73707 2.49009 2.72214 2.62654 2.75178L4.94188 3.2578C5.22157 3.06687 5.51445 2.89464 5.81921 2.74376L6.54481 0.463302C6.58741 0.329178 6.67084 0.212129 6.78317 0.12891C6.89549 0.0456912 7.03095 0.000568336 7.17015 0H10.8272H10.8285ZM10.3457 1.33516H7.65433L6.90498 3.6944L6.39969 3.94408C6.15129 4.0671 5.9115 4.20717 5.682 4.36332L5.21498 4.68376L2.81916 4.16037L1.47349 6.52095L3.116 8.3608L3.07642 8.92691C3.05746 9.20608 3.05746 9.48623 3.07642 9.7654L3.116 10.3315L1.47085 12.1714L2.81784 14.5319L5.21366 14.0099L5.68068 14.329C5.91019 14.4851 6.14998 14.6252 6.39837 14.7482L6.90366 14.9979L7.65433 17.3571H10.3483L11.1003 14.9966L11.6043 14.7482C11.8524 14.6255 12.0918 14.4854 12.3206 14.329L12.7863 14.0099L15.1835 14.5319L16.5292 12.1714L14.8853 10.3315L14.9249 9.7654C14.9439 9.48579 14.9439 9.20519 14.9249 8.92558L14.8853 8.35947L16.5305 6.52095L15.1835 4.16037L12.7863 4.68109L12.3206 4.36332C12.0918 4.20686 11.8524 4.06677 11.6043 3.94408L11.1003 3.69574L10.347 1.33516H10.3457ZM9 5.34066C10.0497 5.34066 11.0564 5.76267 11.7986 6.51384C12.5409 7.26502 12.9579 8.28383 12.9579 9.34615C12.9579 10.4085 12.5409 11.4273 11.7986 12.1785C11.0564 12.9296 10.0497 13.3516 9 13.3516C7.95031 13.3516 6.94362 12.9296 6.20138 12.1785C5.45914 11.4273 5.04215 10.4085 5.04215 9.34615C5.04215 8.28383 5.45914 7.26502 6.20138 6.51384C6.94362 5.76267 7.95031 5.34066 9 5.34066ZM9 6.67582C8.30021 6.67582 7.62908 6.95716 7.13425 7.45795C6.63942 7.95873 6.36143 8.63794 6.36143 9.34615C6.36143 10.0544 6.63942 10.7336 7.13425 11.2344C7.62908 11.7351 8.30021 12.0165 9 12.0165C9.69979 12.0165 10.3709 11.7351 10.8657 11.2344C11.3606 10.7336 11.6386 10.0544 11.6386 9.34615C11.6386 8.63794 11.3606 7.95873 10.8657 7.45795C10.3709 6.95716 9.69979 6.67582 9 6.67582Z" fill="#838383"/>
</svg>
