<svg width="22" height="22" viewBox="0 0 22 22" fill="none" xmlns="http://www.w3.org/2000/svg">
<path d="M8.25 9.625L10.0833 11.4583L14.2083 7.33333M18.3333 19.25V7.15C18.3333 5.60986 18.3333 4.83978 18.0336 4.25153C17.7699 3.73408 17.3493 3.31338 16.8318 3.04973C16.2435 2.75 15.4735 2.75 13.9333 2.75H8.06666C6.52652 2.75 5.75645 2.75 5.16819 3.04973C4.65074 3.31338 4.23005 3.73408 3.9664 4.25153C3.66666 4.83978 3.66666 5.60986 3.66666 7.15V19.25L6.1875 17.4167L8.47916 19.25L11 17.4167L13.5208 19.25L15.8125 17.4167L18.3333 19.25Z" stroke="#ABA8A8" stroke-width="1.83333" stroke-linecap="round" stroke-linejoin="round"/>
</svg>
