<svg width="20" height="20" viewBox="0 0 20 20" fill="none" xmlns="http://www.w3.org/2000/svg">
<path d="M15.8333 6.66663V1.66663M13.3333 4.16663H18.3333M18.3333 9.99996V14.3333C18.3333 15.7334 18.3333 16.4335 18.0609 16.9683C17.8212 17.4387 17.4387 17.8211 16.9683 18.0608C16.4335 18.3333 15.7335 18.3333 14.3333 18.3333H5.66667C4.26654 18.3333 3.56647 18.3333 3.0317 18.0608C2.56129 17.8211 2.17884 17.4387 1.93916 16.9683C1.66667 16.4335 1.66667 15.7334 1.66667 14.3333V5.66663C1.66667 4.26649 1.66667 3.56643 1.93916 3.03165C2.17884 2.56124 2.56129 2.17879 3.0317 1.93911C3.56647 1.66663 4.26654 1.66663 5.66667 1.66663H10M1.78812 16.6052C2.17907 15.1988 3.469 14.1666 5.00001 14.1666H10.8333C11.6078 14.1666 11.995 14.1666 12.317 14.2307C13.6393 14.4937 14.6729 15.5274 14.936 16.8497C15 17.1717 15 17.5589 15 18.3333M11.6667 7.91663C11.6667 9.75757 10.1743 11.25 8.33334 11.25C6.49239 11.25 5.00001 9.75757 5.00001 7.91663C5.00001 6.07568 6.49239 4.58329 8.33334 4.58329C10.1743 4.58329 11.6667 6.07568 11.6667 7.91663Z" stroke="#ABA8A8" stroke-width="1.66667" stroke-linecap="round" stroke-linejoin="round"/>
</svg>
