<svg width="18" height="13" viewBox="0 0 18 13" fill="none" xmlns="http://www.w3.org/2000/svg">
<mask id="path-1-inside-1_221_527" fill="white">
<path fill-rule="evenodd" clip-rule="evenodd" d="M12.7168 0H7.7168L12.0205 6.38467L7.71721 12.7687H12.7172L17.0181 6.38836H17.023L17.0205 6.38467L17.0234 6.38037H17.0176L12.7168 0Z"/>
</mask>
<path fill-rule="evenodd" clip-rule="evenodd" d="M12.7168 0H7.7168L12.0205 6.38467L7.71721 12.7687H12.7172L17.0181 6.38836H17.023L17.0205 6.38467L17.0234 6.38037H17.0176L12.7168 0Z" fill="white"/>
<path d="M7.7168 0V-0.4H6.96478L7.38512 0.223578L7.7168 0ZM12.7168 0L13.0485 -0.223578L12.9296 -0.4H12.7168V0ZM12.0205 6.38467L12.3522 6.60825L12.5029 6.38467L12.3522 6.16109L12.0205 6.38467ZM7.71721 12.7687L7.38552 12.5452L6.96518 13.1687H7.71721V12.7687ZM12.7172 12.7687V13.1687H12.93L13.0489 12.9923L12.7172 12.7687ZM17.0181 6.38836V5.98836H16.8053L16.6864 6.16478L17.0181 6.38836ZM17.023 6.38836V6.78836H17.775L17.3547 6.1648L17.023 6.38836ZM17.0205 6.38467L16.6888 6.16111L16.5382 6.38467L16.6888 6.60823L17.0205 6.38467ZM17.0234 6.38037L17.3551 6.60393L17.7754 5.98037H17.0234V6.38037ZM17.0176 6.38037L16.686 6.60395L16.8049 6.78037H17.0176V6.38037ZM7.7168 0.4H12.7168V-0.4H7.7168V0.4ZM12.3522 6.16109L8.04848 -0.223578L7.38512 0.223578L11.6889 6.60825L12.3522 6.16109ZM11.6889 6.16109L7.38552 12.5452L8.04889 12.9923L12.3522 6.60825L11.6889 6.16109ZM7.71721 13.1687H12.7172V12.3687H7.71721V13.1687ZM13.0489 12.9923L17.3497 6.61194L16.6864 6.16478L12.3855 12.5452L13.0489 12.9923ZM17.023 5.98836H17.0181V6.78836H17.023V5.98836ZM16.6888 6.60823L16.6913 6.61192L17.3547 6.1648L17.3522 6.16111L16.6888 6.60823ZM17.3522 6.60823L17.3551 6.60393L16.6917 6.15681L16.6888 6.16111L17.3522 6.60823ZM17.0234 5.98037H17.0176V6.78037H17.0234V5.98037ZM12.3851 0.223578L16.686 6.60395L17.3493 6.15679L13.0485 -0.223578L12.3851 0.223578Z" fill="black" mask="url(#path-1-inside-1_221_527)"/>
<mask id="path-3-inside-2_221_527" fill="white">
<path fill-rule="evenodd" clip-rule="evenodd" d="M5 0H0L4.30374 6.38467L0.000408173 12.7687H5.00041L9.30126 6.38836H9.30623L9.30374 6.38467L9.30664 6.38037H9.30085L5 0Z"/>
</mask>
<path fill-rule="evenodd" clip-rule="evenodd" d="M5 0H0L4.30374 6.38467L0.000408173 12.7687H5.00041L9.30126 6.38836H9.30623L9.30374 6.38467L9.30664 6.38037H9.30085L5 0Z" fill="white"/>
<path d="M0 0V-0.4H-0.75202L-0.331682 0.223578L0 0ZM5 0L5.33168 -0.223578L5.21276 -0.4H5V0ZM4.30374 6.38467L4.63543 6.60825L4.78613 6.38467L4.63543 6.16109L4.30374 6.38467ZM0.000408173 12.7687L-0.331274 12.5452L-0.751612 13.1687H0.000408173V12.7687ZM5.00041 12.7687V13.1687H5.21317L5.33209 12.9923L5.00041 12.7687ZM9.30126 6.38836V5.98836H9.0885L8.96957 6.16478L9.30126 6.38836ZM9.30623 6.38836V6.78836H10.0582L9.63793 6.1648L9.30623 6.38836ZM9.30374 6.38467L8.97205 6.16111L8.82137 6.38467L8.97205 6.60823L9.30374 6.38467ZM9.30664 6.38037L9.63834 6.60393L10.0586 5.98037H9.30664V6.38037ZM9.30085 6.38037L8.96917 6.60395L9.08809 6.78037H9.30085V6.38037ZM0 0.4H5V-0.4H0V0.4ZM4.63543 6.16109L0.331682 -0.223578L-0.331682 0.223578L3.97206 6.60825L4.63543 6.16109ZM3.97206 6.16109L-0.331274 12.5452L0.33209 12.9923L4.63543 6.60825L3.97206 6.16109ZM0.000408173 13.1687H5.00041V12.3687H0.000408173V13.1687ZM5.33209 12.9923L9.63294 6.61194L8.96957 6.16478L4.66873 12.5452L5.33209 12.9923ZM9.30623 5.98836H9.30126V6.78836H9.30623V5.98836ZM8.97205 6.60823L8.97454 6.61192L9.63793 6.1648L9.63544 6.16111L8.97205 6.60823ZM9.63544 6.60823L9.63834 6.60393L8.97495 6.15681L8.97205 6.16111L9.63544 6.60823ZM9.30664 5.98037H9.30085V6.78037H9.30664V5.98037ZM4.66832 0.223578L8.96917 6.60395L9.63253 6.15679L5.33168 -0.223578L4.66832 0.223578Z" fill="black" mask="url(#path-3-inside-2_221_527)"/>
</svg>
