<svg width="267" height="158" viewBox="0 0 267 158" fill="none" xmlns="http://www.w3.org/2000/svg">
<g clip-path="url(#clip0_294_1319)">
<path d="M20.8204 157.808C20.8204 157.808 -16.6311 124.626 8.9346 99.1233C33.5136 74.5981 24.0946 61.0617 20.0041 41.1384C14.1105 12.4419 29.6743 -9.53566 63.6004 12.4419C93.768 31.9885 101.124 32.0603 122.106 28.2209C143.087 24.3816 152.928 -2.13504 180.108 0.134478C211.218 2.72693 198.83 51.0955 233.142 58.3167C275.608 67.2513 275.204 105.77 247.485 157.494L20.8204 157.808Z" fill="#A2C3F2"/>
<path d="M15.2228 157.826C15.2228 157.826 -1.7134 132.727 3.85724 128.484C9.41891 124.24 27.0727 146.981 27.0727 146.981C27.0727 146.981 16.685 124.025 18.8558 110.946C21.0356 97.8674 37.8462 128.519 41.9009 143.563C41.9009 143.563 40.8782 122.375 50.5573 113.754C60.2275 105.133 56.6842 148.407 56.6842 148.407C56.6842 148.407 62.7571 123.496 69.3594 122.303C75.9616 121.11 67.3769 157.646 67.3769 157.646L15.2228 157.826Z" fill="#60BF60"/>
<path d="M24.3637 157.951C24.3278 157.951 24.3009 157.934 24.2829 157.907L7.43645 133.704C7.40056 133.66 7.41851 133.597 7.46336 133.561C7.50821 133.525 7.571 133.543 7.60689 133.588L24.4534 157.799C24.4893 157.844 24.4713 157.907 24.4265 157.942C24.4085 157.951 24.3816 157.951 24.3637 157.951Z" fill="#339E33"/>
<path d="M38.5728 157.844C38.528 157.844 38.4921 157.817 38.4741 157.781L22.2646 113.261C22.2466 113.207 22.2735 113.153 22.3274 113.135C22.3812 113.117 22.435 113.144 22.4529 113.198L38.6715 157.7C38.6894 157.754 38.6625 157.808 38.6087 157.826C38.5997 157.835 38.5818 157.844 38.5728 157.844Z" fill="#339E33"/>
<path d="M46.5386 157.808C46.5296 157.808 46.5296 157.808 46.5386 157.808C46.4758 157.808 46.431 157.754 46.4399 157.7C47.5792 141.518 52.2438 119.172 52.2887 118.948C52.2976 118.894 52.3514 118.858 52.4053 118.867C52.4591 118.876 52.495 118.93 52.486 118.984C52.4411 119.208 47.7765 141.536 46.6373 157.709C46.6373 157.772 46.5924 157.808 46.5386 157.808Z" fill="#339E33"/>
<path d="M59.8956 157.808C59.8866 157.808 59.8776 157.808 59.8776 157.808C59.8238 157.799 59.7879 157.745 59.7969 157.691C61.3219 150.443 67.969 127.219 68.0318 126.986C68.0497 126.932 68.1035 126.905 68.1574 126.914C68.2112 126.932 68.2381 126.986 68.2291 127.039C68.1663 127.273 61.5192 150.488 59.9943 157.736C59.9853 157.781 59.9494 157.808 59.8956 157.808Z" fill="#5AA85A"/>
<path d="M251.746 157.826C251.746 157.826 268.683 132.727 263.112 128.484C257.55 124.24 239.896 146.981 239.896 146.981C239.896 146.981 250.284 124.025 248.113 110.946C245.942 97.8674 229.123 128.519 225.068 143.563C225.068 143.563 226.091 122.375 216.412 113.754C206.742 105.133 210.285 148.407 210.285 148.407C210.285 148.407 204.212 123.496 197.61 122.303C191.007 121.11 199.592 157.646 199.592 157.646L251.746 157.826Z" fill="#60BF60"/>
<path d="M242.596 157.951C242.579 157.951 242.561 157.942 242.543 157.933C242.498 157.898 242.489 157.835 242.516 157.79L259.362 133.579C259.398 133.534 259.461 133.525 259.506 133.552C259.551 133.588 259.56 133.65 259.533 133.695L242.686 157.906C242.659 157.942 242.632 157.951 242.596 157.951Z" fill="#339E33"/>
<path d="M228.396 157.844C228.387 157.844 228.369 157.844 228.36 157.835C228.307 157.817 228.28 157.754 228.298 157.7L244.507 113.18C244.525 113.126 244.588 113.099 244.642 113.117C244.696 113.135 244.722 113.198 244.705 113.243L228.495 157.763C228.477 157.817 228.432 157.844 228.396 157.844Z" fill="#339E33"/>
<path d="M220.431 157.808C220.377 157.808 220.332 157.763 220.332 157.709C219.193 141.545 214.528 119.208 214.483 118.984C214.474 118.93 214.51 118.876 214.564 118.867C214.618 118.858 214.671 118.894 214.68 118.948C214.725 119.172 219.39 141.518 220.529 157.7C220.538 157.754 220.493 157.808 220.431 157.808Z" fill="#339E33"/>
<path d="M207.065 157.808C207.02 157.808 206.975 157.772 206.966 157.727C205.441 150.479 198.803 127.264 198.731 127.03C198.713 126.977 198.749 126.923 198.803 126.905C198.857 126.887 198.91 126.923 198.928 126.977C198.991 127.21 205.638 150.434 207.163 157.682C207.172 157.736 207.136 157.79 207.082 157.799C207.082 157.808 207.074 157.808 207.065 157.808Z" fill="#5AA85A"/>
<path d="M55.518 157.629V51.5711C55.518 47.9291 58.4693 44.9689 62.1202 44.9689H204.786C208.428 44.9689 211.388 47.9201 211.388 51.5711V157.629H55.518Z" fill="#333647"/>
<path d="M203.145 53.2036H63.7529V149.394H203.145V53.2036Z" fill="#BBD8FC"/>
<path d="M233.823 157.628H33.065C30.7955 157.628 28.9476 155.781 28.9476 153.511C28.9476 151.241 30.7955 149.394 33.065 149.394H233.823C236.093 149.394 237.941 151.241 237.941 153.511C237.941 155.789 236.102 157.628 233.823 157.628Z" fill="#333647"/>
<path d="M171.936 21.5111H84.5912V140.665H171.936V21.5111Z" fill="#99A7D8"/>
<path d="M168.456 24.9917H81.1107V144.146H168.456V24.9917Z" fill="#F1F3F2"/>
<path d="M131.776 137.454C126.941 137.454 123.012 133.525 123.012 128.69C123.012 123.855 126.941 119.926 131.776 119.926C136.611 119.926 140.54 123.855 140.54 128.69C140.54 133.525 136.602 137.454 131.776 137.454ZM131.776 120.733C127.389 120.733 123.819 124.303 123.819 128.69C123.819 133.076 127.389 136.647 131.776 136.647C136.162 136.647 139.732 133.076 139.732 128.69C139.732 124.303 136.162 120.733 131.776 120.733Z" fill="#3E8EDD"/>
<path d="M160.05 59.8866H89.6146V112.453H160.05V59.8866Z" fill="#3E8EDD"/>
<path d="M160.05 67.6013H89.6146C89.4173 67.6013 89.2558 67.4398 89.2558 67.2425C89.2558 67.0451 89.4173 66.8837 89.6146 66.8837H160.05C160.248 66.8837 160.409 67.0451 160.409 67.2425C160.409 67.4398 160.248 67.6013 160.05 67.6013Z" fill="#305777"/>
<path d="M160.05 73.5755H89.6146C89.5249 73.5755 89.4621 73.5037 89.4621 73.423C89.4621 73.3333 89.5339 73.2705 89.6146 73.2705H160.05C160.14 73.2705 160.203 73.3423 160.203 73.423C160.203 73.5037 160.14 73.5755 160.05 73.5755Z" fill="#305777"/>
<path d="M160.05 80.1419H89.6146C89.5249 80.1419 89.4621 80.0701 89.4621 79.9894C89.4621 79.8997 89.5339 79.8369 89.6146 79.8369H160.05C160.14 79.8369 160.203 79.9087 160.203 79.9894C160.203 80.0701 160.14 80.1419 160.05 80.1419Z" fill="#305777"/>
<path d="M160.05 106.425H89.6146C89.5249 106.425 89.4621 106.354 89.4621 106.273C89.4621 106.183 89.5339 106.12 89.6146 106.12H160.05C160.14 106.12 160.203 106.192 160.203 106.273C160.203 106.354 160.14 106.425 160.05 106.425Z" fill="#305777"/>
<path d="M160.05 99.8499H89.6146C89.5249 99.8499 89.4621 99.7782 89.4621 99.6974C89.4621 99.6167 89.5339 99.5449 89.6146 99.5449H160.05C160.14 99.5449 160.203 99.6167 160.203 99.6974C160.203 99.7782 160.14 99.8499 160.05 99.8499Z" fill="#305777"/>
<path d="M160.05 93.2836H89.6146C89.5249 93.2836 89.4621 93.2119 89.4621 93.1311C89.4621 93.0504 89.5339 92.9786 89.6146 92.9786H160.05C160.14 92.9786 160.203 93.0504 160.203 93.1311C160.203 93.2119 160.14 93.2836 160.05 93.2836Z" fill="#305777"/>
<path d="M160.05 86.7083H89.6146C89.5249 86.7083 89.4621 86.6366 89.4621 86.5558C89.4621 86.4751 89.5339 86.4033 89.6146 86.4033H160.05C160.14 86.4033 160.203 86.4751 160.203 86.5558C160.203 86.6366 160.14 86.7083 160.05 86.7083Z" fill="#305777"/>
<path d="M144.397 112.803C144.2 112.803 144.038 112.642 144.038 112.444V59.8776C144.038 59.6803 144.2 59.5188 144.397 59.5188C144.594 59.5188 144.756 59.6803 144.756 59.8776V112.444C144.765 112.642 144.603 112.803 144.397 112.803Z" fill="#305777"/>
<path d="M99.9844 41.2101H98.0468C97.9033 41.2101 97.7867 41.3267 97.7867 41.4702V51.0507C97.7867 51.1942 97.9033 51.3108 98.0468 51.3108H99.9844C100.128 51.3108 100.245 51.1942 100.245 51.0507V41.4702C100.245 41.3267 100.128 41.2101 99.9844 41.2101Z" fill="#FF593A"/>
<path d="M109.457 41.2101H107.663C107.52 41.2101 107.403 41.3267 107.403 41.4702V46.9601L103.958 41.3357C103.913 41.2549 103.833 41.2101 103.743 41.2101H101.859C101.716 41.2101 101.599 41.3267 101.599 41.4702V51.0507C101.599 51.1942 101.716 51.3108 101.859 51.3108H103.653C103.797 51.3108 103.913 51.1942 103.913 51.0507V45.7043L107.304 51.1852C107.349 51.257 107.43 51.3108 107.52 51.3108H109.457C109.601 51.3108 109.717 51.1942 109.717 51.0507V41.4702C109.708 41.3267 109.592 41.2101 109.457 41.2101Z" fill="#FF593A"/>
<path d="M119.441 41.2101H117.387C117.279 41.2101 117.181 41.2818 117.145 41.3895L115.037 47.7585L112.857 41.3895C112.821 41.2818 112.722 41.2191 112.615 41.2191H110.516C110.435 41.2191 110.354 41.2639 110.309 41.3267C110.265 41.3985 110.247 41.4792 110.274 41.5599L113.7 51.1404C113.736 51.239 113.835 51.3108 113.942 51.3108H116.006C116.113 51.3108 116.212 51.239 116.248 51.1404L119.684 41.5599C119.71 41.4792 119.702 41.3895 119.648 41.3267C119.603 41.2549 119.522 41.2101 119.441 41.2101Z" fill="#FF593A"/>
<path d="M124.671 41.0487C123.864 41.0487 123.128 41.1833 122.509 41.4434C122.034 41.6408 121.585 41.9547 121.182 42.3674C120.787 42.771 120.464 43.2465 120.24 43.7578C119.935 44.4485 119.782 45.3097 119.782 46.3233C119.782 47.9111 120.231 49.1759 121.119 50.0909C122.007 51.0059 123.209 51.4724 124.707 51.4724C126.178 51.4724 127.38 51.0059 128.268 50.0819C129.156 49.167 129.605 47.8842 129.605 46.2695C129.605 44.6458 129.156 43.3541 128.259 42.4391C127.353 41.5152 126.151 41.0487 124.671 41.0487ZM127.075 46.2336C127.075 47.2742 126.851 48.0546 126.402 48.5659C125.954 49.0683 125.398 49.3105 124.698 49.3105C123.998 49.3105 123.433 49.0593 122.985 48.557C122.527 48.0456 122.303 47.2742 122.303 46.2605C122.303 45.2289 122.527 44.4575 122.967 43.9551C123.406 43.4618 123.971 43.2196 124.707 43.2196C125.434 43.2196 125.999 43.4528 126.429 43.9462C126.851 44.4306 127.075 45.202 127.075 46.2336Z" fill="#FF593A"/>
<path d="M132.718 41.2101H130.78C130.636 41.2101 130.52 41.3267 130.52 41.4702V51.0507C130.52 51.1942 130.636 51.3108 130.78 51.3108H132.718C132.861 51.3108 132.978 51.1942 132.978 51.0507V41.4702C132.978 41.3267 132.861 41.2101 132.718 41.2101Z" fill="#FF593A"/>
<path d="M142.648 47.8752L140.773 47.2832C140.701 47.2652 140.63 47.2652 140.567 47.3011C140.504 47.337 140.459 47.3998 140.441 47.4626C140.289 48.1084 140.055 48.5839 139.723 48.8709C139.401 49.158 139.024 49.2925 138.566 49.2925C137.938 49.2925 137.454 49.0683 137.059 48.6108C136.665 48.1443 136.467 47.328 136.467 46.1888C136.467 45.1123 136.674 44.3409 137.068 43.8834C137.463 43.4259 137.965 43.2106 138.602 43.2106C139.06 43.2106 139.436 43.3362 139.75 43.5873C140.064 43.8385 140.271 44.1794 140.369 44.6189C140.387 44.6817 140.423 44.7445 140.486 44.7804C140.549 44.8163 140.612 44.8253 140.683 44.8163L142.603 44.3588C142.675 44.3409 142.729 44.296 142.764 44.2422C142.8 44.1884 142.809 44.1076 142.791 44.0448C142.558 43.2375 142.208 42.6006 141.742 42.161C140.961 41.4255 139.948 41.0487 138.71 41.0487C137.301 41.0487 136.144 41.5241 135.274 42.4571C134.404 43.381 133.973 44.6907 133.973 46.3502C133.973 47.9201 134.413 49.1759 135.274 50.0909C136.144 51.0059 137.257 51.4724 138.602 51.4724C139.688 51.4724 140.594 51.1943 141.302 50.656C142.011 50.1178 142.531 49.2836 142.827 48.1892C142.854 48.0636 142.773 47.9201 142.648 47.8752Z" fill="#FF593A"/>
<path d="M151.52 49.1848H146.424V47.0947H150.981C151.125 47.0947 151.242 46.9781 151.242 46.8345V45.2199C151.242 45.0763 151.125 44.9597 150.981 44.9597H146.424V43.354H151.34C151.484 43.354 151.6 43.2374 151.6 43.0939V41.4702C151.6 41.3267 151.484 41.2101 151.34 41.2101H144.236C144.092 41.2101 143.975 41.3267 143.975 41.4702V51.0507C143.975 51.1942 144.092 51.3108 144.236 51.3108H151.52C151.663 51.3108 151.78 51.1942 151.78 51.0507V49.436C151.771 49.2924 151.654 49.1848 151.52 49.1848Z" fill="#FF593A"/>
<path d="M131.776 133.92C128.887 133.92 126.546 131.569 126.546 128.69C126.546 125.801 128.896 123.46 131.776 123.46C134.664 123.46 137.005 125.81 137.005 128.69C137.005 131.569 134.655 133.92 131.776 133.92ZM131.776 124.267C129.336 124.267 127.353 126.25 127.353 128.69C127.353 131.13 129.336 133.112 131.776 133.112C134.216 133.112 136.198 131.13 136.198 128.69C136.198 126.25 134.216 124.267 131.776 124.267Z" fill="#3E8EDD"/>
<path d="M130.61 129.91C130.529 129.91 130.457 129.883 130.394 129.82C130.269 129.704 130.269 129.506 130.385 129.381C130.403 129.363 131.444 128.25 132.431 126.645C132.17 126.106 131.946 125.469 131.776 124.716C131.211 122.168 131.847 119.585 132.789 118.76C133.175 118.419 133.516 118.481 133.686 118.544C134.189 118.733 134.53 119.423 134.7 120.616C135.014 122.769 134.144 124.976 133.148 126.68C133.83 127.909 134.691 128.457 135.256 128.699C136.144 129.085 137.104 129.067 137.813 128.645C138.207 128.412 138.495 127.972 138.674 127.452C137.894 126.815 137.382 126.044 137.122 125.326C136.808 124.474 136.835 123.693 137.185 123.281C137.391 123.038 137.696 122.94 138.037 123.012C138.746 123.155 139.257 123.882 139.454 125.021C139.571 125.703 139.553 126.492 139.383 127.21C139.966 127.604 140.692 127.918 141.571 128.062C142.989 128.286 143.769 127.82 144.2 127.246C143.069 126.528 142.522 125.398 142.388 124.483C142.262 123.657 142.459 122.931 142.89 122.59C143.195 122.348 143.59 122.312 144.002 122.482C145.088 122.931 145.689 124.886 145.231 126.519C145.195 126.654 145.133 126.824 145.061 127.003C145.106 127.021 145.151 127.039 145.195 127.057C146.559 127.586 147.931 126.914 148.837 126.053C148.048 125.29 147.913 124.375 147.896 123.9C147.86 122.68 148.488 121.505 149.286 121.28C149.519 121.217 150.093 121.146 150.542 121.908C151.197 123.021 150.883 124.608 149.743 125.981C150.084 126.187 150.515 126.367 151.053 126.492C151.869 126.68 152.614 126.546 153.305 126.079C155.718 124.465 156.588 119.477 156.597 119.432C156.624 119.262 156.785 119.154 156.956 119.181C157.126 119.208 157.234 119.37 157.207 119.54C157.171 119.755 156.292 124.833 153.655 126.6C152.82 127.156 151.905 127.326 150.919 127.102C150.246 126.95 149.726 126.725 149.322 126.447C148.272 127.47 146.64 128.277 144.971 127.64C144.899 127.613 144.828 127.586 144.756 127.551C144.245 128.277 143.276 128.968 141.473 128.681C140.576 128.537 139.813 128.232 139.194 127.838C138.97 128.421 138.62 128.905 138.136 129.192C137.257 129.712 136.081 129.748 135.014 129.282C134.422 129.022 133.525 128.466 132.789 127.29C131.856 128.753 130.923 129.73 130.843 129.82C130.771 129.874 130.69 129.91 130.61 129.91ZM137.822 123.613C137.732 123.613 137.678 123.648 137.651 123.693C137.481 123.891 137.445 124.438 137.696 125.12C137.902 125.676 138.279 126.268 138.835 126.788C138.925 126.241 138.925 125.658 138.835 125.129C138.692 124.285 138.333 123.711 137.911 123.622C137.876 123.613 137.849 123.613 137.822 123.613ZM143.5 122.994C143.365 122.994 143.294 123.047 143.267 123.074C143.016 123.272 142.908 123.801 142.998 124.393C143.114 125.164 143.572 126.097 144.514 126.707C144.568 126.582 144.612 126.456 144.639 126.349C145.034 124.931 144.496 123.352 143.769 123.056C143.653 123.012 143.572 122.994 143.5 122.994ZM133.417 119.118C133.354 119.118 133.274 119.154 133.193 119.235C132.493 119.845 131.847 122.177 132.377 124.59C132.493 125.12 132.646 125.586 132.807 125.99C133.659 124.429 134.35 122.527 134.081 120.706C133.884 119.343 133.534 119.154 133.462 119.127C133.453 119.118 133.435 119.118 133.417 119.118ZM149.546 121.845C149.501 121.845 149.465 121.854 149.447 121.863C148.981 121.998 148.479 122.886 148.506 123.873C148.515 124.339 148.658 125.021 149.25 125.595C150.21 124.438 150.515 123.083 150.004 122.204C149.815 121.908 149.654 121.845 149.546 121.845Z" fill="#FF593A"/>
<path d="M56.6483 24.0946C56.3612 24.0946 56.0831 24.1215 55.805 24.1663C55.832 23.96 55.8499 23.7447 55.8499 23.5294C55.8499 20.6948 53.5535 18.3983 50.7188 18.3983C48.9337 18.3983 47.3549 19.3133 46.4399 20.6948C46.0632 18.2279 43.9372 16.3441 41.3626 16.3441C38.528 16.3441 36.2316 18.6405 36.2316 21.4752C36.2316 21.9955 36.3123 22.4889 36.4558 22.9643C36.3841 22.9643 36.3123 22.9553 36.2316 22.9553C33.3969 22.9553 31.1005 25.2518 31.1005 28.0864C31.1005 30.9211 33.3969 33.2175 36.2316 33.2175C37.3349 33.2175 38.3665 32.8677 39.2008 32.2666C40.34 34.6528 42.771 36.2944 45.5877 36.2944C48.6018 36.2944 51.1763 34.4106 52.19 31.7553C53.0691 33.3072 54.7376 34.3568 56.6572 34.3568C59.4919 34.3568 61.7883 32.0603 61.7883 29.2257C61.7883 26.391 59.4829 24.0946 56.6483 24.0946Z" fill="#FDFFFE"/>
<path d="M232.361 31.8181C232.63 31.8271 232.899 31.863 233.16 31.9168C233.142 31.7195 233.133 31.5131 233.142 31.3068C233.24 28.6157 235.51 26.5166 238.201 26.6153C239.896 26.6781 241.359 27.602 242.184 28.9476C242.632 26.6243 244.714 24.9019 247.153 24.9916C249.845 25.0903 251.944 27.3598 251.845 30.051C251.827 30.5443 251.737 31.0108 251.585 31.4593C251.657 31.4593 251.728 31.4593 251.791 31.4593C254.482 31.558 256.581 33.8275 256.483 36.5186C256.384 39.2098 254.115 41.3089 251.423 41.2102C250.374 41.1743 249.414 40.7975 248.634 40.2055C247.467 42.4302 245.099 43.9013 242.426 43.8026C239.565 43.695 237.196 41.8112 236.317 39.2636C235.42 40.7078 233.805 41.6408 231.984 41.569C229.293 41.4703 227.194 39.2008 227.293 36.5097C227.41 33.8185 229.67 31.7195 232.361 31.8181Z" fill="#A2C3F2"/>
<path d="M215.398 61.7345C215.586 61.7075 215.811 61.5999 215.99 61.5192C217.058 61.0527 217.605 60.0211 217.129 58.9536L209.146 40.7885C208.796 39.9901 207.997 39.4878 207.127 39.5237L192.873 40.0529C191.707 40.0978 190.792 41.0755 190.837 42.2507C190.882 43.4168 191.86 44.3318 193.035 44.287L205.854 43.8115L213.254 60.658C213.649 61.5461 214.483 61.869 215.398 61.7345Z" fill="#F69D85"/>
<path d="M187.213 35.9354C187.213 35.9354 188.065 44.242 192.227 45.8298C196.39 47.4176 204.714 45.1301 204.714 45.1301L210.617 58.2718C210.617 58.2718 214.743 57.6977 216.753 55.9933C216.062 53.2932 213.209 41.9277 209.657 39.2007C206.993 37.1644 201.53 37.1913 196.874 36.6082C193.761 36.2135 187.213 35.9354 187.213 35.9354Z" fill="#3E8EDD"/>
<path d="M218.825 58.559L219.121 59.5906C219.148 59.6804 219.184 59.7611 219.237 59.8418C219.291 59.9226 219.354 59.9943 219.426 60.0481L220.798 59.2677C220.395 58.2002 219.112 58.4783 218.825 58.559Z" fill="#404660"/>
<path d="M213.344 61.878C213.407 61.9767 213.487 62.0574 213.577 62.1202C213.801 62.2817 214.097 62.3355 214.376 62.2458L220.762 60.0749C221.076 59.9673 221.256 59.6982 221.301 59.4111C221.31 59.3214 221.31 59.2317 221.292 59.151C221.247 58.8908 221.085 58.6397 220.798 58.5141L219.641 58.0117L218.403 57.4735C215.604 58.9267 212.501 59.0972 212.501 59.0972L212.904 60.5145L213.218 61.5999C213.254 61.7076 213.29 61.7973 213.344 61.878Z" fill="#404D7F"/>
<path d="M219.094 57.7784C219.094 57.7784 217.336 57.007 216.842 56.8545C216.349 56.693 215.47 57.4017 215.721 57.7695C215.972 58.1373 216.878 58.5499 216.878 58.5499L219.094 57.7784Z" fill="#404D7F"/>
<path d="M220.789 60.1288L214.402 62.2997C213.999 62.4342 213.541 62.2728 213.299 61.9139C213.29 61.896 213.29 61.8781 213.29 61.8601C213.299 61.8422 213.308 61.8332 213.326 61.8242L221.283 59.0972C221.301 59.0883 221.319 59.0972 221.328 59.1062C221.345 59.1152 221.354 59.1331 221.354 59.1421C221.417 59.5009 221.265 59.9674 220.789 60.1288Z" fill="#606A97"/>
<path d="M219.641 58.0117C219.641 58.0117 221.238 58.3257 221.345 59.133L218.888 59.9493C218.888 59.9493 218.645 58.7652 219.641 58.0117Z" fill="#606A97"/>
<path d="M212.913 60.5234C212.913 60.5234 214.313 60.0121 215.066 61.2231L213.29 61.9049C213.299 61.9049 213.021 61.2949 212.913 60.5234Z" fill="#606A97"/>
<path d="M199.511 68.7584C199.691 68.8032 199.96 68.7853 200.157 68.7763C201.323 68.7315 202.194 67.978 202.158 66.8028L201.422 46.9692C201.386 46.0991 200.83 45.3366 200.014 45.0495L186.567 40.2952C185.464 39.9095 184.253 40.4836 183.867 41.5869C183.472 42.6903 184.055 43.9013 185.159 44.287L197.251 48.5659L197.933 66.9553C197.951 67.9331 198.605 68.5431 199.511 68.7584Z" fill="#F69D85"/>
<path d="M180.826 35.5677C180.826 35.5677 178.386 41.4972 181.777 45.193C184.782 48.4762 196.13 49.4271 196.13 49.4271L196.408 63.8067C196.408 63.8067 200.4 64.7486 202.893 63.9054C203.252 61.1425 205.001 49.1938 202.857 45.2648C201.664 43.076 195.977 38.0526 192.317 36.5007L180.826 35.5677Z" fill="#3E8EDD"/>
<path d="M197.547 68.1305C197.574 68.2471 197.619 68.3458 197.673 68.4445C197.825 68.6777 198.076 68.8391 198.372 68.8571L205.109 69.198C205.441 69.2159 205.71 69.0365 205.845 68.7853C205.889 68.7046 205.916 68.6239 205.934 68.5342C205.988 68.274 205.925 67.987 205.71 67.7627L204.822 66.8746L203.862 65.9148C200.722 66.2377 197.78 65.251 197.78 65.251L197.637 66.7221L197.529 67.8434C197.52 67.9331 197.529 68.0318 197.547 68.1305Z" fill="#404D7F"/>
<path d="M204.409 66.444C204.409 66.444 203.064 65.0804 202.66 64.7575C202.256 64.4256 201.189 64.7665 201.279 65.1971C201.377 65.6276 202.068 66.3453 202.068 66.3453L204.409 66.444Z" fill="#404D7F"/>
<path d="M197.493 68.1124C197.493 68.1304 197.493 68.1304 197.493 68.1304C197.583 68.5609 197.942 68.8749 198.372 68.9018L201.18 69.0453L205.109 69.2427C205.27 69.2517 205.414 69.2158 205.54 69.153C205.791 69.0274 205.952 68.7762 205.997 68.534C205.997 68.5161 205.997 68.4981 205.988 68.4892C205.979 68.4802 205.97 68.4712 205.952 68.4712H205.943L205.773 68.4623L203.414 68.3546L201.548 68.2649L201.072 68.238L199.341 68.1573L198.345 68.1124L197.538 68.0765H197.529C197.52 68.0765 197.502 68.0855 197.493 68.0945C197.502 68.0945 197.493 68.1034 197.493 68.1124Z" fill="#606A97"/>
<path d="M204.831 66.8656C204.831 66.8656 206.194 67.7447 206.006 68.5341L203.414 68.3906C203.414 68.3906 203.62 67.2065 204.831 66.8656Z" fill="#606A97"/>
<path d="M197.646 66.7131C197.646 66.7131 199.117 66.8746 199.35 68.1574L197.493 68.1394C197.493 68.1394 197.493 67.6191 197.646 66.7131Z" fill="#606A97"/>
<path d="M194.73 16.8105C194.73 16.8105 192.38 29.109 194.013 32.5985C195.385 35.5408 207.405 37.927 207.405 37.927C207.405 37.927 207.02 36.3212 207.836 34.0158C207.836 34.0158 204.831 31.5849 201.261 29.6293C201.261 29.6383 200.48 18.1471 194.73 16.8105Z" fill="#60BF60"/>
<path d="M190.793 12.0354L190.198 17.4116L193.631 17.7912L194.225 12.415L190.793 12.0354Z" fill="#F69D85"/>
<path d="M191.133 14.7832C192.497 15.6713 193.86 15.6713 193.86 15.6713L193.977 14.6307L191.133 14.7832Z" fill="#D1836B"/>
<path d="M189.725 36.3931L189.931 36.42C193.098 36.7698 195.95 34.4824 196.3 31.3158L196.318 26.2744C196.668 23.1078 195.34 16.5056 192.165 16.1558L191.958 16.1288C188.792 15.779 185.939 18.0665 185.589 21.233L184.621 30.0151C184.271 33.1906 186.558 36.0432 189.725 36.3931Z" fill="#F69D85"/>
<path d="M194.73 16.8106C194.73 16.8106 192.003 18.8379 189.5 16.0302C189.5 16.0302 186.128 16.6132 184.037 21.0446C180.234 29.136 180.279 35.5409 180.279 35.5409C180.279 35.5409 182.557 36.7608 188.2 36.2226C192.748 35.7831 196.865 36.5994 196.865 36.5994C196.865 36.5994 197.52 31.8092 197.628 26.6422C197.726 21.9058 196.39 19.2595 194.73 16.8106Z" fill="#60BF60"/>
<path d="M190.407 15.474C190.407 15.474 191.914 16.7478 192.793 16.8465C193.582 16.9362 193.806 16.1647 193.806 16.1647L194.73 16.8106L193.761 18.8469L192.855 17.4923L191.994 18.7751L189.509 16.0302L190.407 15.474Z" fill="#F1F3F2"/>
<path d="M188.191 9.99311C188.11 10.5224 188.469 11.0157 188.998 11.0965C189.527 11.1772 190.021 10.8184 190.101 10.2891C190.182 9.75988 189.823 9.2665 189.294 9.18577C188.765 9.114 188.272 9.47282 188.191 9.99311Z" fill="#F69D85"/>
<path d="M189.016 10.7556H189.025C189.052 10.7646 189.088 10.7466 189.097 10.7107C189.186 10.3519 188.962 10.2263 188.819 10.1366C188.756 10.1007 188.693 10.0649 188.684 10.02C188.675 10.0021 188.684 9.96619 188.711 9.93031C188.89 9.63428 189.285 9.70605 189.303 9.71502C189.33 9.72399 189.366 9.70605 189.366 9.67016C189.375 9.64325 189.357 9.60737 189.321 9.60737C189.303 9.60737 188.828 9.5087 188.612 9.87648C188.577 9.93928 188.559 10.0021 188.576 10.0559C188.603 10.1456 188.684 10.1904 188.765 10.2353C188.908 10.316 189.061 10.4057 188.989 10.6838C188.98 10.7197 188.989 10.7466 189.016 10.7556Z" fill="#AF5945"/>
<path d="M196.022 11.3475C195.941 11.8767 196.3 12.3701 196.829 12.4509C197.359 12.5316 197.852 12.1728 197.933 11.6435C198.013 11.1143 197.655 10.6209 197.125 10.5401C196.596 10.4594 196.103 10.8182 196.022 11.3475Z" fill="#F69D85"/>
<path d="M196.973 12.1281C196.982 12.1281 196.982 12.1281 196.991 12.137C197.018 12.137 197.045 12.1191 197.054 12.0832C197.071 11.7962 197.242 11.7693 197.412 11.7334C197.511 11.7154 197.601 11.6975 197.655 11.6257C197.681 11.5809 197.69 11.5181 197.673 11.4463C197.583 11.0247 197.107 10.9619 197.089 10.9619C197.063 10.9619 197.027 10.9799 197.027 11.0068C197.027 11.0337 197.045 11.0696 197.071 11.0696C197.089 11.0696 197.484 11.1234 197.556 11.4643C197.565 11.5091 197.565 11.536 197.547 11.554C197.52 11.5898 197.457 11.5988 197.377 11.6168C197.206 11.6526 196.955 11.6975 196.928 12.0653C196.937 12.0922 196.946 12.1191 196.973 12.1281Z" fill="#AF5945"/>
<path d="M192.38 14.9536C194.362 15.2676 196.219 13.9131 196.524 11.9306L196.811 10.0737C197.125 8.09125 195.771 6.23437 193.788 5.92937C191.806 5.61541 189.949 6.96994 189.644 8.95241L189.357 10.8093C189.043 12.7828 190.398 14.6397 192.38 14.9536Z" fill="#F69D85"/>
<path d="M191.662 12.1281C191.635 12.3434 191.743 12.6574 192.039 12.9175C192.443 13.2763 193.331 13.4288 193.761 13.2584C193.995 13.1687 194.165 12.9893 194.237 12.8099C194.3 12.6574 194.291 12.5138 194.174 12.4421C193.932 12.2806 193.187 12.3703 192.73 12.1371C192.236 11.8949 191.878 11.7603 191.725 11.9397C191.698 11.9846 191.671 12.0474 191.662 12.1281Z" fill="#D1836B"/>
<path d="M191.662 12.1281C192.658 12.756 194.084 12.8099 194.246 12.8099C194.309 12.6574 194.3 12.5138 194.183 12.4421C193.941 12.2806 193.196 12.3703 192.739 12.1371C192.245 11.8949 191.887 11.7603 191.734 11.9397C191.698 11.9846 191.671 12.0474 191.662 12.1281Z" fill="white"/>
<path d="M192.003 12.9621C191.671 12.6661 191.582 12.3342 191.608 12.1189C191.617 12.0292 191.653 11.9574 191.698 11.9036C191.878 11.7062 192.245 11.8318 192.775 12.092C193.008 12.2086 193.331 12.2445 193.618 12.2714C193.878 12.2983 194.102 12.3162 194.228 12.397C194.353 12.4777 194.389 12.6481 194.309 12.8365C194.219 13.0428 194.03 13.2222 193.797 13.312C193.429 13.4555 192.811 13.3837 192.353 13.1684C192.21 13.1146 192.093 13.0428 192.003 12.9621ZM193.6 12.379C193.304 12.3521 192.972 12.3162 192.721 12.1906C192.317 11.9843 191.922 11.8229 191.779 11.9754C191.743 12.0112 191.725 12.0651 191.716 12.1279C191.698 12.3073 191.779 12.6033 192.075 12.8724C192.452 13.2043 193.313 13.3747 193.743 13.2043C193.986 13.1146 194.129 12.9262 194.192 12.7917C194.21 12.7378 194.273 12.5764 194.147 12.4956C194.138 12.4867 194.12 12.4777 194.111 12.4777C194.004 12.4239 193.806 12.397 193.6 12.379Z" fill="#AF5945"/>
<path d="M191.043 10.6031C190.981 10.7915 191.097 10.9889 191.304 11.0517C191.51 11.1145 191.716 11.0248 191.779 10.8364C191.842 10.648 191.725 10.4507 191.519 10.3879C191.321 10.3161 191.106 10.4148 191.043 10.6031Z" fill="#D1836B"/>
<path d="M194.91 11.5359C194.847 11.7243 194.963 11.9216 195.17 11.9844C195.376 12.0472 195.582 11.9575 195.645 11.7691C195.708 11.5807 195.591 11.3834 195.385 11.3206C195.179 11.2578 194.972 11.3565 194.91 11.5359Z" fill="#D1836B"/>
<path d="M191.465 5.32838C191.465 5.32838 191.187 4.06355 191.887 3.63297C192.604 3.19342 193.456 3.93797 193.788 4.53002C193.788 4.53002 194.031 4.00076 194.461 3.55224C195.206 2.76284 196.856 3.51636 195.573 5.14898C195.573 5.14898 196.201 4.36855 197.412 4.82604C198.623 5.28353 197.843 6.63807 196.731 6.77262C196.731 6.77262 198.085 6.64704 198.363 7.79525C198.489 8.34245 198.202 8.68333 197.699 8.81788C197.61 9.25744 197.377 10.0827 196.731 10.5761C196.731 10.5761 196.74 9.46376 196.345 8.75509C196.085 8.68333 195.825 8.58465 195.564 8.45907C194.102 7.72349 193.412 6.79057 193.412 6.79057C193.412 6.79057 193.044 7.53511 192.192 7.71452C191.77 7.80422 191.33 7.77731 190.927 7.65173L190.945 7.66967C190.945 7.66967 190.173 8.20789 189.59 9.31126C189.59 9.31126 188.738 7.85805 189.886 6.96997C189.321 6.28822 189.913 4.70942 191.465 5.32838Z" fill="#5E3628"/>
<path d="M193.277 11.5988C193.286 11.5988 193.295 11.6078 193.304 11.6078C193.358 11.6078 193.824 11.5719 193.842 11.3297C193.86 11.1234 193.708 10.1725 193.699 10.1277C193.69 10.1008 193.663 10.0738 193.636 10.0828C193.609 10.0918 193.582 10.1187 193.591 10.1456C193.636 10.4147 193.743 11.1593 193.726 11.3118C193.717 11.4284 193.429 11.4732 193.295 11.4822C193.268 11.4822 193.241 11.5091 193.241 11.545C193.25 11.5719 193.259 11.5898 193.277 11.5988Z" fill="#AF5945"/>
<path d="M194.892 10.3339C194.838 10.594 194.676 10.7914 194.542 10.7555C194.407 10.7286 194.344 10.4864 194.407 10.2262C194.461 9.9661 194.623 9.76875 194.757 9.80464C194.892 9.83155 194.954 10.0737 194.892 10.3339Z" fill="#30313C"/>
<path d="M192.9 9.96609C192.846 10.2262 192.685 10.4236 192.55 10.3877C192.416 10.3608 192.353 10.1186 192.416 9.85845C192.479 9.59831 192.631 9.40096 192.766 9.43684C192.891 9.46375 192.954 9.69698 192.9 9.96609Z" fill="#30313C"/>
<path d="M194.416 9.07803C194.425 9.087 194.443 9.087 194.461 9.087C195.062 9.06906 195.555 9.51758 195.555 9.51758C195.591 9.55346 195.654 9.55346 195.69 9.50861C195.726 9.47272 195.726 9.40993 195.681 9.37405C195.663 9.35611 195.125 8.87171 194.452 8.88965C194.398 8.88965 194.362 8.9345 194.362 8.98832C194.362 9.03317 194.389 9.06905 194.416 9.07803Z" fill="#AF5945"/>
<path d="M191.824 8.8089C191.842 8.81787 191.869 8.81787 191.896 8.8089C192.64 8.53081 193.008 8.84478 193.017 8.85375C193.053 8.88963 193.116 8.88066 193.151 8.84478C193.187 8.8089 193.178 8.7461 193.142 8.71022C193.125 8.69228 192.676 8.31552 191.833 8.62949C191.788 8.64743 191.761 8.70125 191.779 8.75507C191.788 8.78198 191.806 8.79993 191.824 8.8089Z" fill="#AF5945"/>
<path d="M190.46 30.7327C190.46 30.7327 190.631 33.5673 188.343 34.9667C188.343 34.9667 187.635 31.6477 190.46 30.7327Z" fill="#339E33"/>
<path d="M190.03 10.047C189.967 9.49977 189.653 8.9436 189.653 8.9436C189.653 8.9436 188.55 12.5138 190.353 14.2451C191.698 15.5279 194.649 15.806 195.995 13.689C196.919 12.2268 196.74 10.2533 196.74 10.2533C196.74 10.2533 196.497 10.7915 196.327 11.1862C196.148 11.5809 196.049 12.1371 195.654 12.6484L195.286 12.2716C195.008 12.0474 194.667 11.9038 194.309 11.8769H194.3C193.869 11.859 193.133 11.7603 192.407 11.3746C192.272 11.3028 192.129 11.258 191.976 11.2221C191.716 11.1683 191.447 11.1952 191.196 11.258L190.541 11.5091C190.541 11.5271 190.164 11.3208 190.03 10.047ZM191.707 11.554C191.833 11.5181 191.958 11.5361 192.075 11.5899C193.08 12.0743 193.878 12.1819 194.273 12.1999C194.524 12.2088 194.748 12.3972 194.766 12.6484C194.775 12.7202 194.757 12.8009 194.721 12.8727C194.515 13.3212 194.022 13.7518 192.784 13.4916C191.617 13.2494 191.187 12.2447 191.304 11.8949C191.357 11.6975 191.555 11.5989 191.707 11.554Z" fill="#5E3628"/>
<path d="M178.691 30.356L190.46 34.8681C191.232 35.1641 192.102 34.7784 192.398 34.007C192.694 33.2355 192.308 32.3654 191.537 32.0693L181.642 28.2749L187.993 20.022C188.496 19.3672 188.379 18.4253 187.724 17.923C187.069 17.4206 186.128 17.5372 185.625 18.1921L178.054 28.0326C177.767 28.4094 177.668 28.8938 177.803 29.3513C177.911 29.8178 178.252 30.1856 178.691 30.356Z" fill="#F69D85"/>
<path d="M189.536 34.5092C189.536 34.5092 190.595 35.0923 191.976 35.1551C193.268 35.2179 193.717 34.895 194.12 34.5003C194.524 34.1056 192.73 32.6075 191.887 32.446C191.043 32.2935 189.985 33.3072 189.536 34.5092Z" fill="#F69D85"/>
<path d="M191.887 35.155C192.559 35.2178 193.196 35.4062 193.761 35.783C194.013 35.9534 194.443 36.5006 194.784 36.1418C195.206 35.6125 192.828 34.1145 192.362 33.9261C191.187 33.2353 190.72 35.155 191.887 35.155Z" fill="#F69D85"/>
<path d="M192.497 34.7605C193.151 34.7874 193.797 35.0027 194.38 35.3077C194.712 35.4154 195.116 35.9895 195.43 35.5858C195.708 35.1463 194.461 34.4466 194.147 34.2133C193.672 33.9352 193.16 33.693 192.613 33.5854C191.842 33.5047 191.725 34.6798 192.497 34.7605Z" fill="#F69D85"/>
<path d="M192.631 34.2131C193.645 34.1862 194.676 34.5092 195.484 35.1192C195.78 35.3434 196.157 34.9039 195.896 34.6527C195.591 34.3208 195.233 34.0337 194.847 33.8005C194.174 33.4058 193.421 33.1187 192.64 33.029C191.779 32.9663 191.779 34.2759 192.631 34.2131Z" fill="#F69D85"/>
<path d="M191.644 33.1727C192.703 33.1368 193.806 33.3072 194.766 33.7647C195.08 33.9172 195.376 34.1146 195.645 34.3478C195.771 34.4644 195.977 34.4554 196.094 34.3209C196.524 33.7288 194.497 32.7062 194.04 32.5447C193.25 32.2397 192.29 32.0603 191.447 32.0065C190.604 31.9796 190.801 33.2714 191.644 33.1727Z" fill="#F69D85"/>
<path d="M194.309 35.2988C194.318 35.2988 194.336 35.2988 194.344 35.2898C194.362 35.2719 194.362 35.245 194.344 35.236C194.336 35.236 193.86 34.7965 193.089 34.4825C193.071 34.4735 193.044 34.4825 193.035 34.5094C193.026 34.5273 193.035 34.5543 193.062 34.5632C193.815 34.8682 194.291 35.2988 194.291 35.3078C194.291 35.2898 194.3 35.2988 194.309 35.2988Z" fill="#AF5945"/>
<path d="M194.892 34.7872C194.91 34.7872 194.919 34.7872 194.928 34.7693C194.945 34.7513 194.937 34.7244 194.919 34.7155C194.91 34.7155 194.353 34.258 193.519 33.8812C193.501 33.8722 193.474 33.8812 193.465 33.8991C193.456 33.9171 193.465 33.944 193.483 33.953C194.309 34.3297 194.856 34.7693 194.865 34.7782C194.874 34.7782 194.883 34.7782 194.892 34.7872Z" fill="#AF5945"/>
<path d="M195.152 34.0428C195.17 34.0428 195.179 34.0338 195.188 34.0249C195.197 34.0069 195.197 33.98 195.179 33.971C195.17 33.971 194.497 33.5405 193.869 33.2713C193.851 33.2624 193.824 33.2713 193.815 33.2893C193.806 33.3072 193.815 33.3341 193.833 33.3431C194.461 33.6032 195.125 34.0338 195.125 34.0338C195.143 34.0428 195.152 34.0428 195.152 34.0428Z" fill="#AF5945"/>
<path d="M189.5 16.0302C189.5 16.0302 186.28 15.0524 182.755 18.5688C179.229 22.0852 175.632 26.705 176.35 29.6114C177.094 32.6524 188.343 34.9578 188.343 34.9578C188.343 34.9578 188.11 32.7241 190.46 30.7237L184.002 27.8083C183.993 27.8173 191.77 18.9276 189.5 16.0302Z" fill="#60BF60"/>
<path d="M202.983 45.5967C202.992 45.5967 203.001 45.5967 203.01 45.5967C203.037 45.5878 203.055 45.5519 203.046 45.516C201.763 42.3764 196.148 38.7074 196.094 38.6716C196.067 38.6536 196.031 38.6626 196.013 38.6895C195.995 38.7164 196.004 38.7523 196.031 38.7702C196.085 38.8061 201.673 42.4571 202.938 45.5609C202.938 45.5878 202.956 45.5967 202.983 45.5967Z" fill="#305777"/>
<path d="M210.061 57.1059H210.07C213.272 56.8996 216.457 54.9171 216.493 54.8991C216.519 54.8812 216.528 54.8453 216.51 54.8184C216.493 54.7915 216.457 54.7825 216.43 54.8005C216.394 54.8184 213.236 56.7829 210.07 56.9893C210.034 56.9893 210.007 57.0162 210.016 57.0521C210.007 57.079 210.034 57.1059 210.061 57.1059Z" fill="#305777"/>
<path d="M209.63 56.1459H209.639C212.958 55.7871 216.17 53.8495 216.205 53.8315C216.232 53.8136 216.241 53.7777 216.223 53.7508C216.205 53.7239 216.17 53.7149 216.143 53.7328C216.107 53.7508 212.922 55.6794 209.63 56.0382C209.594 56.0382 209.576 56.0741 209.576 56.101C209.576 56.128 209.603 56.1459 209.63 56.1459Z" fill="#305777"/>
<path d="M198.417 63.098C201.117 63.3581 203.01 62.9724 203.037 62.9634C203.073 62.9545 203.091 62.9276 203.082 62.8917C203.073 62.8558 203.046 62.8378 203.01 62.8468C202.983 62.8558 200.104 63.4389 196.39 62.6674C196.354 62.6584 196.327 62.6853 196.318 62.7123C196.309 62.7481 196.336 62.7751 196.363 62.784C197.08 62.9365 197.771 63.0352 198.417 63.098Z" fill="#305777"/>
<path d="M198.498 62.0933C201.001 62.3355 203.109 61.8601 203.136 61.8511C203.171 61.8421 203.189 61.8063 203.18 61.7793C203.171 61.7435 203.145 61.7255 203.109 61.7345C203.073 61.7435 199.655 62.5149 196.372 61.582C196.336 61.573 196.309 61.591 196.3 61.6269C196.291 61.6627 196.309 61.6896 196.345 61.6986C197.063 61.9049 197.798 62.0216 198.498 62.0933Z" fill="#305777"/>
<path d="M190.451 30.7955C190.478 30.7955 190.505 30.7865 190.514 30.7596C190.532 30.7327 190.514 30.6968 190.487 30.6788L184.091 27.7904C184.504 27.2252 187.626 22.9553 188.837 21.0177C188.855 20.9908 188.846 20.9549 188.819 20.9369C188.792 20.919 188.756 20.928 188.738 20.9549C187.446 23.0271 183.984 27.7365 183.957 27.7814C183.948 27.7993 183.939 27.8173 183.948 27.8352C183.957 27.8532 183.966 27.8711 183.984 27.8711L190.442 30.7865C190.442 30.7955 190.442 30.7955 190.451 30.7955Z" fill="#339E33"/>
<path d="M197.323 32.3834C197.359 32.3834 197.385 32.3654 197.385 32.3295C198.112 26.1489 196.444 21.7355 196.435 21.6906C196.426 21.6547 196.39 21.6458 196.354 21.6547C196.318 21.6637 196.309 21.6996 196.318 21.7355C196.336 21.7803 197.987 26.1669 197.269 32.3206C197.269 32.3475 197.287 32.3834 197.323 32.3834Z" fill="#339E33"/>
<path d="M195.502 37.3348L210.204 38.9585L213.191 30.5263C213.452 29.7997 212.958 29.0103 212.187 28.9295L199.942 27.575C199.386 27.5122 198.866 27.8441 198.677 28.3644L195.663 36.8684L195.502 37.3348Z" fill="#404660"/>
<path d="M196.605 37.4605L210.195 38.9675L213.182 30.5353C213.443 29.8087 212.949 29.0193 212.178 28.9386L201.036 27.7096C200.48 27.6468 199.96 27.9787 199.772 28.499L196.605 37.4605Z" fill="#606A97"/>
<path d="M188.058 35.5498L187.953 36.5038L196.173 37.4127L196.279 36.4588L188.058 35.5498Z" fill="#404660"/>
<path d="M188.343 35.0295C188.37 35.0295 188.406 35.0116 188.406 34.9757C188.415 34.9398 188.388 34.9129 188.361 34.9039C188.316 34.8949 184.262 34.1145 180.53 32.5716C180.503 32.5626 180.467 32.5716 180.449 32.6075C180.44 32.6344 180.449 32.6703 180.485 32.6882C184.217 34.2311 188.289 35.0205 188.343 35.0295C188.334 35.0295 188.334 35.0295 188.343 35.0295Z" fill="#339E33"/>
<path d="M76.9125 84.062C76.9125 84.062 79.2627 84.08 80.7249 85.9189C80.7249 85.9189 78.3926 86.502 76.9125 84.062Z" fill="#997243"/>
<path d="M58.1912 80.8774C58.1912 80.8774 56.747 81.8732 55.7602 84.3939C55.0516 86.2238 53.2126 89.2379 52.4501 90.9961C49.3733 98.0917 52.0644 101.805 61.5193 101.518C65.9865 101.384 67.0002 97.9302 66.2646 94.8982C65.538 91.8842 64.6499 88.9778 65.3855 85.6587C65.3855 85.6587 64.6589 82.7074 62.9186 82.1602C61.1784 81.613 58.1912 80.8774 58.1912 80.8774Z" fill="#B74F2A"/>
<path d="M62.3787 87.5157L58.9902 87.6403L59.1856 92.956L62.574 92.8315L62.3787 87.5157Z" fill="#F69D85"/>
<path d="M60.057 90.4938C60.057 90.4938 61.1335 91.3012 62.5149 91.0231L62.4431 89.1752L60.057 90.4938Z" fill="#D1836B"/>
<path d="M61.5192 90.7269C63.4837 90.6283 64.9997 88.9508 64.9011 86.9863L64.8114 85.1384C64.7127 83.1738 63.0352 81.6578 61.0707 81.7565C59.1062 81.8552 57.5901 83.5327 57.6888 85.4972L57.7785 87.3451C57.8772 89.3096 59.5547 90.8256 61.5192 90.7269Z" fill="#F69D85"/>
<path d="M60.99 112.193C64.1206 112.077 68.7404 111.054 67.3679 106.802C66.6593 104.613 65.7712 101.662 66.2556 97.6881C66.6413 94.5753 64.1206 91.4626 60.9272 91.4805L60.7208 91.4895C57.6709 91.651 56.2805 94.7548 56.7111 97.8585C57.2762 101.859 56.4419 104.685 55.6795 106.73C53.6073 112.319 60.99 112.193 60.99 112.193Z" fill="#F69D85"/>
<path d="M61.887 94.6022C61.7345 93.454 62.5419 92.4044 63.6901 92.252L73.0732 91.0051L78.2312 83.0573C78.59 82.5011 79.3166 82.2768 79.9355 82.5639C80.6083 82.8778 80.9044 83.6762 80.5904 84.358L76.141 93.9653C75.8809 94.5125 75.3606 94.9251 74.7237 95.0148L64.2552 96.4053C63.098 96.5578 62.0395 95.7504 61.887 94.6022Z" fill="#F69D85"/>
<path d="M60.7478 85.9547C60.7568 86.2238 60.6581 86.4391 60.5235 86.448C60.389 86.457 60.2634 86.2417 60.2544 85.9816C60.2454 85.7125 60.3441 85.4972 60.4787 85.4882C60.6132 85.4792 60.7298 85.6855 60.7478 85.9547Z" fill="#30313C"/>
<path d="M62.5419 91.7138C62.5419 91.7138 66.2736 90.9154 72.6516 90.6553C72.6516 90.6553 75.2709 86.3136 76.9125 84.062C76.9125 84.062 78.3568 85.7933 80.7249 85.9189C80.7249 85.9189 77.9262 94.3511 75.5759 95.3199C73.2257 96.2887 66.462 97.2486 66.462 97.2486L62.5419 91.7138Z" fill="#FFB12A"/>
<path d="M62.8917 85.8471C62.9007 86.1162 62.802 86.3315 62.6674 86.3405C62.5329 86.3495 62.4073 86.1342 62.3983 85.874C62.3894 85.6049 62.488 85.3896 62.6226 85.3807C62.7661 85.3717 62.8827 85.578 62.8917 85.8471Z" fill="#30313C"/>
<path d="M59.2587 86.9774C59.2408 87.1658 59.3933 87.3362 59.5996 87.3631C59.8059 87.39 59.9943 87.2465 60.0122 87.0581C60.0302 86.8697 59.8777 86.6993 59.6713 86.6724C59.465 86.6544 59.2766 86.789 59.2587 86.9774Z" fill="#E58A76"/>
<path d="M63.2685 86.9324C63.2505 87.1208 63.403 87.2913 63.6093 87.3182C63.8157 87.3451 64.004 87.2016 64.022 87.0132C64.0399 86.8248 63.8874 86.6544 63.6811 86.6275C63.4748 86.6095 63.2954 86.7441 63.2685 86.9324Z" fill="#E58A76"/>
<path d="M62.5418 91.7136C62.5418 91.7136 64.2462 92.0276 65.9955 94.4855C66.4709 95.1583 67.5743 96.9613 67.6191 98.0468C67.664 99.2219 66.4888 99.9305 66.5696 102.048C66.6503 104.156 68.2381 105.447 67.3769 106.793C66.8746 107.582 59.0254 108.928 55.6346 106.919C53.7508 105.797 56.8366 103.268 55.9037 97.4996C55.195 93.104 57.6081 92.3146 59.151 91.8392C59.151 91.8392 60.4697 95.1493 61.6358 95.0506C62.8289 94.943 62.5418 91.7136 62.5418 91.7136Z" fill="#FFB12A"/>
<path d="M56.6034 86.6545C56.6304 87.1747 57.0789 87.5784 57.5992 87.5515C58.1194 87.5246 58.5231 87.0761 58.4962 86.5558C58.4693 86.0355 58.0208 85.6318 57.5005 85.6587C56.9802 85.6857 56.5765 86.1252 56.6034 86.6545Z" fill="#F69D85"/>
<path d="M62.4432 81.0029C62.4432 81.0029 64.0848 80.4468 65.224 81.9807C66.2197 83.3263 65.8161 84.7974 65.2061 86.1699C65.2061 86.1699 62.9276 83.1738 62.4432 81.0029Z" fill="#B74F2A"/>
<path d="M63.9233 86.4391C63.9502 86.9594 64.3988 87.3631 64.919 87.3362C65.4393 87.3093 65.843 86.8607 65.8161 86.3405C65.7892 85.8202 65.3406 85.4165 64.8204 85.4434C64.3001 85.4703 63.9054 85.9188 63.9233 86.4391Z" fill="#F69D85"/>
<path d="M61.1694 88.2601C61.1694 88.5202 61.4116 88.7266 61.7166 88.7266C62.0126 88.7266 62.2548 88.5113 62.2548 88.2511C62.2548 88.1883 62.2369 88.1345 62.2189 88.0807C62.1382 87.9013 61.9408 87.7847 61.7076 87.7847C61.5013 87.7847 61.3308 87.8833 61.2411 88.0269C61.1963 88.0986 61.1694 88.1794 61.1694 88.2601Z" fill="#D1836B"/>
<path d="M61.2411 88.0358C61.8781 88.3139 62.2189 88.0896 62.2189 88.0896C62.1382 87.9102 61.9408 87.7936 61.7076 87.7936C61.5013 87.7936 61.3309 87.8923 61.2411 88.0358Z" fill="white"/>
<path d="M64.919 86.9504C64.946 86.9414 64.9639 86.9235 64.9639 86.8966C64.946 86.6185 65.1074 86.5647 65.2599 86.5108C65.3496 86.475 65.4393 86.4481 65.4752 86.3673C65.5021 86.3225 65.4932 86.2597 65.4752 86.1879C65.3317 85.7932 64.8652 85.7932 64.8383 85.7932C64.8114 85.7932 64.7845 85.8201 64.7845 85.847C64.7845 85.8739 64.8114 85.9009 64.8383 85.9009C64.8562 85.9009 65.2509 85.9009 65.3676 86.2238C65.3855 86.2686 65.3855 86.2956 65.3765 86.3135C65.3586 86.3494 65.2958 86.3763 65.224 86.3942C65.0626 86.4481 64.8293 86.5288 64.8473 86.8966C64.8562 86.9235 64.8832 86.9504 64.919 86.9504Z" fill="#AF5945"/>
<path d="M57.5902 87.1479C57.6171 87.1389 57.635 87.1209 57.635 87.103C57.6709 86.7442 57.4287 86.6545 57.2762 86.5917C57.2044 86.5648 57.1416 86.5379 57.1237 86.502C57.1147 86.484 57.1147 86.4482 57.1327 86.4123C57.2582 86.0983 57.6619 86.1073 57.6709 86.1073C57.6978 86.1073 57.7247 86.0893 57.7247 86.0535C57.7247 86.0266 57.7068 85.9996 57.6709 85.9996C57.6529 85.9996 57.1775 85.9817 57.025 86.3674C56.9981 86.4392 56.9981 86.493 57.016 86.5468C57.0519 86.6276 57.1416 86.6635 57.2313 86.6993C57.3838 86.7621 57.5453 86.816 57.5184 87.094C57.5184 87.1209 57.5363 87.1479 57.5722 87.1568C57.5722 87.1479 57.5812 87.1479 57.5902 87.1479Z" fill="#AF5945"/>
<path d="M63.726 82.0526C63.726 82.0526 62.9904 83.9992 61.0438 84.044C58.7564 84.0979 57.8145 87.0133 57.8145 87.0133C57.8145 87.0133 56.4958 84.8245 56.8726 83.2457C57.7427 79.6575 61.4565 78.7605 63.726 82.0526Z" fill="#B74F2A"/>
<path d="M63.1698 84.8783C63.1788 84.8783 63.1967 84.8693 63.2057 84.8604C63.2505 84.8334 63.2595 84.7706 63.2326 84.7348C63.2236 84.7258 63.0083 84.4118 62.6674 84.367C62.4701 84.3401 62.2638 84.4118 62.0754 84.5733C62.0395 84.6092 62.0305 84.663 62.0664 84.7079C62.1023 84.7437 62.1561 84.7527 62.201 84.7168C62.3535 84.5912 62.497 84.5284 62.6405 84.5464C62.9007 84.5823 63.0711 84.8334 63.0711 84.8334C63.098 84.8693 63.1339 84.8873 63.1698 84.8783Z" fill="#AF5945"/>
<path d="M61.0259 84.8065C61.0438 84.8065 61.0617 84.7976 61.0707 84.7796C61.1066 84.7437 61.1066 84.6899 61.0797 84.6451C61.0707 84.6361 60.8644 84.4118 60.5594 84.4208C60.3441 84.4298 60.1378 84.5464 59.9494 84.7706C59.9135 84.8065 59.9225 84.8693 59.9584 84.9052C59.9943 84.9411 60.0571 84.9321 60.0929 84.8962C60.2454 84.7168 60.3979 84.6181 60.5594 84.6092C60.7747 84.6002 60.9362 84.7706 60.9362 84.7706C60.9631 84.8065 60.99 84.8155 61.0259 84.8065Z" fill="#AF5945"/>
<path d="M61.7166 87.426C61.7704 87.408 62.201 87.2376 62.1472 87.0044C62.1023 86.807 61.6807 85.9548 61.6628 85.9189C61.6448 85.892 61.6179 85.8831 61.591 85.892C61.5641 85.91 61.5551 85.9369 61.5641 85.9638C61.6807 86.206 62.0036 86.8698 62.0395 87.0223C62.0664 87.13 61.8063 87.2645 61.6807 87.3094C61.6538 87.3183 61.6359 87.3542 61.6448 87.3811C61.6628 87.417 61.6897 87.4349 61.7166 87.426Z" fill="#AF5945"/>
<path d="M65.6367 100.577C66.4889 100.406 67.0002 99.9486 67.0271 99.9217C67.054 99.9038 67.054 99.8679 67.0271 99.841C67.0091 99.8141 66.9733 99.8141 66.9464 99.841C66.9374 99.85 66.1121 100.594 64.7934 100.523C64.7665 100.523 64.7396 100.541 64.7307 100.577C64.7307 100.603 64.7486 100.63 64.7845 100.639C65.1074 100.657 65.3855 100.63 65.6367 100.577Z" fill="#DBBFB2"/>
<path d="M61.0259 100.801C61.1156 100.783 61.1694 100.765 61.1694 100.765C61.1963 100.756 61.2142 100.729 61.2053 100.693C61.1963 100.666 61.1694 100.648 61.1335 100.657C61.1156 100.657 59.7072 101.043 57.7696 100.478C57.7427 100.469 57.7068 100.487 57.6978 100.514C57.6889 100.541 57.7068 100.576 57.7337 100.585C59.3574 101.061 60.6132 100.881 61.0259 100.801Z" fill="#997243"/>
<path d="M78.2042 83.4788C78.2042 83.4788 78.9936 82.1871 80.1777 81.7745C81.3618 81.3708 81.918 81.4784 82.3665 81.7655C82.815 82.0525 81.3798 83.8107 80.6083 84.1337C79.8458 84.4566 78.8322 84.5104 78.2042 83.4788Z" fill="#F69D85"/>
<path d="M78.1325 83.2008L78.1684 83.1291C78.1773 83.1021 78.1863 83.0932 78.1953 83.0752C78.2042 83.0573 78.2132 83.0393 78.2222 83.0304C78.2401 82.9945 78.2581 82.9676 78.276 82.9407C78.3119 82.8779 78.3478 82.8151 78.3926 82.7613C78.4285 82.6985 78.4733 82.6446 78.5092 82.5819L78.6348 82.4114C78.7963 82.1872 78.9757 81.9719 79.1641 81.7655C79.3525 81.5592 79.5588 81.3708 79.7741 81.1914L79.9355 81.0569L80.106 80.9313L80.1957 80.8685L80.2854 80.8147L80.4648 80.707C80.5993 80.6263 80.7788 80.6442 80.8864 80.7698C81.003 80.9044 80.994 81.1107 80.8505 81.2273L80.8326 81.2453L80.698 81.3619L80.6263 81.4247L80.5635 81.4875L80.4379 81.613L80.3571 81.7027C80.402 81.6758 80.4558 81.6579 80.5007 81.631C80.6083 81.5772 80.707 81.5144 80.8146 81.4605C81.021 81.3439 81.2183 81.2094 81.4156 81.0658C81.5143 80.9941 81.604 80.9223 81.7027 80.8506L81.8462 80.7339L81.918 80.6801L81.9808 80.6173C82.1602 80.4648 82.3306 80.2854 82.4921 80.115L82.5011 80.106C82.5998 79.9984 82.7612 79.9804 82.8868 80.0612C83.0214 80.1509 83.0662 80.3392 82.9765 80.4738C82.833 80.6981 82.6805 80.9223 82.51 81.1197L82.4472 81.2004L82.3845 81.2722L82.3396 81.326C82.3575 81.317 82.3665 81.308 82.3845 81.2991L82.528 81.1914L82.5997 81.1376L82.6715 81.0838C82.8689 80.9313 83.0393 80.7698 83.2187 80.5994L83.2277 80.5904C83.3264 80.4917 83.4878 80.4738 83.6134 80.5635C83.748 80.6622 83.7749 80.8506 83.6762 80.9851C83.5147 81.2004 83.3533 81.4157 83.1739 81.613L83.1111 81.6848L83.1649 81.6489L83.3174 81.5413L83.3891 81.4875L83.4609 81.4336L83.6044 81.317L83.6224 81.2991C83.73 81.2094 83.9005 81.2094 84.0081 81.3081C84.1337 81.4157 84.1427 81.6041 84.035 81.7297L83.8915 81.8911L83.8197 81.9719L83.748 82.0436L83.5955 82.1961L83.434 82.3397C83.3533 82.4114 83.2636 82.4832 83.1739 82.5549L83.3084 82.4742L83.3981 82.4114L83.4878 82.3486L83.6583 82.2141L83.6762 82.1961C83.7928 82.1064 83.9633 82.1154 84.0709 82.223C84.1875 82.3396 84.1875 82.528 84.0799 82.6446L83.9005 82.8241L83.8108 82.9138L83.7121 82.9945L83.5237 83.1649L83.3174 83.3174C83.2815 83.3443 83.2456 83.3712 83.2187 83.3892L83.1111 83.461C83.0393 83.5058 82.9675 83.5596 82.8958 83.5955L82.6715 83.7211C82.5997 83.7659 82.519 83.8018 82.4472 83.8377C82.1423 83.9902 81.8283 84.1158 81.5054 84.2145L81.2632 84.2862C81.1824 84.3042 81.1017 84.3311 81.012 84.349C80.9312 84.367 80.8415 84.3849 80.7608 84.4029C80.716 84.4118 80.6711 84.4208 80.6352 84.4298C80.6173 84.4298 80.5904 84.4387 80.5635 84.4387C80.5365 84.4387 80.5186 84.4477 80.4827 84.4477L80.411 84.4567C80.3751 84.4567 80.3302 84.4567 80.2854 84.4567C79.9714 84.4208 79.7472 84.1337 79.783 83.8287C79.8189 83.5148 80.106 83.2905 80.411 83.3264C80.4199 83.3264 80.4289 83.3264 80.4468 83.3264C80.4199 83.2726 80.411 83.2098 80.402 83.147C80.402 83.0842 80.402 83.0214 80.4199 82.9586C80.411 82.9407 80.402 82.9227 80.402 82.8958C80.1329 82.9227 79.8817 82.7613 79.792 82.4921C79.783 82.4652 79.783 82.4473 79.7741 82.4204C79.6664 82.5908 79.5588 82.7613 79.4691 82.9407L79.3883 83.1021C79.3614 83.156 79.3345 83.2098 79.3166 83.2636C79.2897 83.3174 79.2717 83.3713 79.2448 83.4251C79.2358 83.452 79.2269 83.4789 79.2089 83.5058C79.2 83.5238 79.2 83.5327 79.191 83.5417C79.182 83.5507 79.182 83.5686 79.182 83.5776C79.173 83.6224 79.1551 83.6673 79.1372 83.7121C78.9936 83.9992 78.6528 84.1068 78.3657 83.9723C78.1145 83.8287 77.9979 83.4879 78.1325 83.2008Z" fill="#F69D85"/>
<path d="M81.8911 83.4341H81.9C82.5997 83.138 83.1828 82.6178 83.1828 82.6178C83.2097 82.5998 83.2097 82.5639 83.1828 82.537C83.1649 82.5101 83.129 82.5101 83.1021 82.537C83.0931 82.546 82.528 83.0483 81.8462 83.3354C81.8193 83.3444 81.8014 83.3803 81.8193 83.4072C81.8372 83.4251 81.8642 83.4341 81.8911 83.4341Z" fill="#AF5945"/>
<path d="M81.7924 82.7164C81.8014 82.7164 81.8014 82.7164 81.8103 82.7074C82.5728 82.214 83.0931 81.6937 83.0931 81.6848C83.1111 81.6668 83.1111 81.6309 83.0931 81.604C83.0752 81.5861 83.0393 81.5861 83.0124 81.604C83.0034 81.613 82.5011 82.1243 81.7476 82.6087C81.7206 82.6267 81.7117 82.6625 81.7296 82.6895C81.7476 82.7074 81.7745 82.7164 81.7924 82.7164Z" fill="#AF5945"/>
<path d="M81.2721 82.2589C81.281 82.2589 81.29 82.2589 81.29 82.25C81.7655 81.936 82.2768 81.3798 82.2947 81.3619C82.3127 81.335 82.3127 81.3081 82.2947 81.2812C82.2678 81.2632 82.2409 81.2632 82.214 81.2812C82.205 81.2901 81.6847 81.8463 81.2272 82.1513C81.2003 82.1692 81.1913 82.2051 81.2093 82.232C81.2272 82.25 81.2452 82.2589 81.2721 82.2589Z" fill="#AF5945"/>
<path d="M80.6711 83.2905C80.6891 83.2905 80.707 83.2726 80.707 83.2636C80.716 83.2367 80.707 83.2008 80.6801 83.1919C80.4469 83.0842 80.1329 83.0663 79.9714 83.0573C80.2047 82.7075 80.2854 82.25 80.2854 82.232C80.2944 82.2051 80.2675 82.1692 80.2406 82.1692C80.2136 82.1603 80.1778 82.1872 80.1778 82.2141C80.1778 82.2231 80.0881 82.7523 79.8189 83.0842C79.801 83.1022 79.801 83.1291 79.81 83.147C79.8189 83.165 79.8369 83.1829 79.8638 83.1739C79.8728 83.1739 80.3303 83.147 80.6353 83.2905C80.6442 83.2995 80.6532 83.2995 80.6711 83.2905Z" fill="#AF5945"/>
<path d="M67.4128 97.1588H67.4218C67.4487 97.1498 67.4577 97.1139 67.4487 97.087C67.4397 97.078 66.8656 95.876 65.843 94.7547C65.825 94.7278 65.7892 94.7278 65.7622 94.7547C65.7353 94.7726 65.7353 94.8085 65.7622 94.8354C66.7669 95.9388 67.341 97.1318 67.35 97.1408C67.359 97.1498 67.3859 97.1588 67.4128 97.1588Z" fill="#997243"/>
<path d="M80.384 86.9772C80.4109 86.9683 80.4289 86.9503 80.4289 86.9234C80.4289 86.8965 80.4109 86.8696 80.3751 86.8606C80.3481 86.8606 77.7198 86.6902 76.3563 84.8782C76.3384 84.8513 76.3025 84.8513 76.2756 84.8692C76.2487 84.8871 76.2487 84.923 76.2666 84.9499C77.666 86.8068 80.3392 86.9772 80.3661 86.9772C80.3751 86.9772 80.3751 86.9772 80.384 86.9772Z" fill="#997243"/>
<path d="M62.488 112.104L59.169 128.134L59.0972 128.502C59.0793 128.573 59.0613 128.645 59.0344 128.708L53.1947 143.563C52.7731 144.639 51.5621 145.169 50.4856 144.747C49.4091 144.325 48.8799 143.114 49.3015 142.038L55.1413 127.165L54.7914 111.368C54.7645 109.224 56.4599 108.246 58.6038 108.219C60.7478 108.193 62.5419 109.116 62.5688 111.26C62.5778 111.547 62.5419 111.843 62.488 112.104Z" fill="#F69D85"/>
<path d="M67.341 111.7L67.9779 128.053L67.9959 128.421C67.9959 128.493 67.9959 128.564 67.9869 128.627L65.8878 144.469C65.7353 145.617 64.6858 146.415 63.5375 146.263C62.3893 146.11 61.591 145.061 61.7435 143.913L63.8336 128.071L59.6982 112.821C59.151 110.74 60.3979 108.614 62.479 108.076C64.5602 107.529 66.6862 108.776 67.2244 110.857C67.2872 111.135 67.3231 111.431 67.341 111.7Z" fill="#F69D85"/>
<path d="M69.6913 149.528L64.6499 149.465L63.5914 147.205L63.1339 149.448L61.6807 149.43C60.3531 146.649 61.7794 143.168 61.7794 143.168C61.7794 143.168 63.8874 143.599 66.4171 143.249L66.3543 145.509L70.1129 148.245C70.678 148.658 70.382 149.537 69.6913 149.528Z" fill="#404D7F"/>
<path d="M62.4073 146.371C62.3535 146.371 62.2996 146.362 62.2458 146.335C62.1382 146.29 62.0574 146.209 62.0126 146.102C61.9677 145.994 61.9677 145.877 62.0126 145.77C62.0574 145.662 62.1382 145.581 62.2458 145.536C62.3535 145.492 62.4701 145.492 62.5777 145.536C62.6854 145.581 62.7661 145.662 62.811 145.77C62.9007 145.985 62.793 146.236 62.5777 146.326C62.5239 146.362 62.4611 146.371 62.4073 146.371ZM62.4163 145.626C62.3714 145.626 62.3355 145.635 62.2907 145.653C62.2099 145.689 62.1471 145.743 62.1202 145.823C62.0843 145.904 62.0843 145.985 62.1202 146.066C62.1561 146.146 62.2099 146.209 62.2907 146.236C62.3714 146.272 62.4521 146.272 62.5329 146.236C62.6943 146.173 62.7751 145.985 62.7033 145.823C62.6674 145.743 62.6136 145.68 62.5329 145.653C62.497 145.635 62.4521 145.626 62.4163 145.626Z" fill="#606A97"/>
<path d="M70.5793 125.425C69.3952 114.05 66.1659 107.349 66.1659 107.349C66.1659 107.349 65.0805 107.538 63.5375 107.672C63.1518 107.708 59.0792 108.013 55.9216 106.946C55.9216 106.946 52.8448 109.592 52.7999 115.674C52.773 119.719 53.078 126.977 53.078 126.977L48.0994 139.257C57.7965 143.841 68.7225 141.85 68.7225 141.85C68.7225 141.85 71.1086 130.511 70.5793 125.425Z" fill="#FF593A"/>
<path d="M55.6795 149.394L50.7996 148.12L50.3152 145.671L49.3284 147.743L47.9201 147.375C47.3011 144.352 49.5168 141.32 49.5168 141.32C49.5168 141.32 51.4544 142.244 54.002 142.513L53.401 144.693L56.3881 148.254C56.8456 148.784 56.3523 149.564 55.6795 149.394Z" fill="#404D7F"/>
<path d="M49.3732 144.577C49.3194 144.559 49.2656 144.541 49.2207 144.505C49.131 144.433 49.0682 144.334 49.0503 144.227C49.0324 144.11 49.0593 144.002 49.131 143.904C49.2028 143.814 49.3015 143.751 49.4091 143.733C49.5257 143.715 49.6334 143.742 49.7321 143.814C49.8218 143.886 49.8846 143.984 49.9025 144.092C49.9384 144.325 49.7769 144.541 49.5437 144.577C49.4809 144.594 49.4271 144.585 49.3732 144.577ZM49.5527 143.85C49.5078 143.841 49.4719 143.841 49.4271 143.841C49.3463 143.85 49.2656 143.895 49.2207 143.967C49.1669 144.038 49.149 144.119 49.158 144.2C49.1669 144.28 49.2118 144.361 49.2835 144.406C49.3553 144.46 49.436 144.478 49.5168 144.469C49.6872 144.442 49.8128 144.28 49.7859 144.11C49.7769 144.029 49.7321 143.949 49.6603 143.904C49.6334 143.877 49.5975 143.859 49.5527 143.85Z" fill="#606A97"/>
<path d="M61.4833 98.6569L65.5559 98.6927C65.5559 98.3698 65.3047 98.1097 64.9818 98.1097L62.0664 98.0828C61.7435 98.0828 61.4833 98.3429 61.4833 98.6569Z" fill="#3E8EDD"/>
<path d="M60.0032 109.816L66.6324 109.879C67.2065 109.888 67.6819 109.421 67.6819 108.847L67.7716 99.7422C67.7806 99.1681 67.3141 98.6927 66.74 98.6927L60.1109 98.6299C59.5368 98.6209 59.0613 99.0874 59.0613 99.6615L58.9716 108.766C58.9627 109.332 59.4201 109.807 60.0032 109.816Z" fill="#606A97"/>
<path d="M50.8983 104.209L54.011 95.8401C54.4147 94.7547 55.6167 94.2075 56.7021 94.6022C57.7876 95.0058 58.3348 96.2079 57.9401 97.2933L55.7513 103.178L63.8875 104.604C64.5423 104.721 65.0267 105.304 64.9998 105.986C64.9729 106.73 64.3449 107.313 63.6004 107.286L52.6834 106.892C52.4771 106.883 52.2618 106.847 52.0644 106.766C51.0418 106.389 50.5125 105.241 50.8983 104.209Z" fill="#F69D85"/>
<path d="M62.1561 105.071C62.1561 105.071 63.5375 104.434 64.7486 104.757C65.9596 105.08 66.3632 105.483 66.5785 105.968C66.7938 106.452 64.623 107.116 63.7977 106.955C62.9814 106.802 62.1023 106.282 62.1561 105.071Z" fill="#F69D85"/>
<path d="M62.9366 105.717C63.5645 105.259 64.3001 104.927 65.0536 104.757C65.1523 104.739 65.3137 104.703 65.4124 104.694C65.6456 104.694 65.9417 104.595 65.9058 104.308C65.843 103.887 65.2599 104.039 64.9639 104.021C64.022 104.093 63.098 104.362 62.2638 104.811C61.5372 105.241 62.3176 106.291 62.9366 105.717Z" fill="#F69D85"/>
<path d="M64.6589 105.878C65.7353 105.86 66.8118 105.645 67.7896 105.214C68.1215 105.08 67.9421 104.559 67.6012 104.649C67.3321 104.712 67.063 104.766 66.7938 104.793C66.1211 104.864 65.4303 104.864 64.7576 104.748C63.8874 104.533 63.7529 105.932 64.6589 105.878Z" fill="#F69D85"/>
<path d="M64.91 106.551C65.9955 106.578 67.0809 106.416 68.0945 106.04C68.4354 105.923 68.2829 105.394 67.942 105.466C67.637 105.519 67.332 105.564 67.0271 105.573C66.3722 105.609 65.6994 105.564 65.0625 105.43C64.2014 105.188 64.013 106.551 64.91 106.551Z" fill="#F69D85"/>
<path d="M64.6051 106.883C65.7084 107.143 66.8746 107.17 67.969 106.856C68.3278 106.766 68.2022 106.201 67.8434 106.273C67.7806 106.282 67.6281 106.291 67.5653 106.3C66.6862 106.336 65.7892 106.156 64.9729 105.815C64.1835 105.385 63.717 106.712 64.6051 106.883Z" fill="#F69D85"/>
<path d="M63.5196 107.143C64.4436 107.574 65.4842 107.807 66.5068 107.771C66.8297 107.762 67.1975 107.708 67.5115 107.627C67.8703 107.565 67.7896 107.008 67.4307 107.035C67.4218 107.035 67.1975 107.053 67.1796 107.053C66.3005 107.098 65.4214 106.856 64.632 106.479C64.4436 106.381 64.2552 106.282 64.0848 106.165C63.403 105.627 62.7123 106.802 63.5196 107.143Z" fill="#F69D85"/>
<path d="M66.7848 107.134C66.8118 107.125 66.8297 107.098 66.8297 107.071C66.8297 107.044 66.7938 107.017 66.7669 107.026C66.7579 107.026 66.0134 107.134 65.2778 106.99C65.2509 106.981 65.215 107.008 65.215 107.035C65.206 107.062 65.233 107.098 65.2599 107.098C66.0044 107.242 66.7759 107.134 66.7848 107.134Z" fill="#AF5945"/>
<path d="M67.2244 106.309C67.2603 106.3 67.2782 106.273 67.2693 106.246C67.2603 106.219 67.2334 106.201 67.2065 106.201C67.1616 106.21 66.4619 106.345 65.5918 106.336C65.5649 106.336 65.538 106.363 65.538 106.389C65.538 106.416 65.5649 106.443 65.5918 106.443C66.4619 106.461 67.1706 106.318 67.2244 106.309Z" fill="#AF5945"/>
<path d="M66.5247 105.636C66.6414 105.609 66.7221 105.591 66.7311 105.591C66.758 105.582 66.7759 105.555 66.7759 105.528C66.7669 105.501 66.74 105.483 66.7131 105.483C66.7041 105.483 65.9596 105.663 65.4034 105.663C65.3765 105.663 65.3496 105.69 65.3496 105.717C65.3496 105.744 65.3765 105.77 65.4034 105.77C65.7981 105.77 66.2646 105.69 66.5247 105.636Z" fill="#AF5945"/>
<path d="M59.1421 91.8392C59.1421 91.8392 54.926 91.7585 52.8 96.2796C50.674 100.792 49.8308 104.568 50.5932 106.317C51.562 108.524 61.4206 108.336 61.4206 108.336C61.4206 108.336 62.5419 106.667 61.9498 103.806C61.9498 103.806 58.7294 103.106 56.5496 102.936C56.5586 102.945 59.5726 95.248 59.1421 91.8392Z" fill="#FFB12A"/>
<path d="M59.0344 103.313C59.0613 103.304 59.0793 103.286 59.0793 103.268C59.0793 103.241 59.0613 103.214 59.0344 103.205C58.254 103.097 56.9623 102.936 56.6393 102.9C57.3749 101.124 58.4334 96.9346 58.4424 96.8897C58.4514 96.8628 58.4334 96.8269 58.3975 96.818C58.3706 96.809 58.3347 96.8269 58.3258 96.8628C58.3168 96.9077 57.2404 101.196 56.5048 102.927C56.4958 102.945 56.4958 102.963 56.5048 102.981C56.5137 102.999 56.5317 103.008 56.5496 103.008C56.5676 103.008 58.1195 103.205 59.0165 103.322C59.0165 103.322 59.0255 103.322 59.0344 103.313Z" fill="#997243"/>
<path d="M60.2903 108.399C60.3082 108.399 60.3172 108.39 60.3262 108.372C61.3488 106.425 60.8734 103.608 60.8644 103.582C60.8554 103.555 60.8285 103.528 60.8016 103.537C60.7747 103.546 60.7478 103.573 60.7568 103.599C60.7657 103.626 61.2322 106.407 60.2275 108.318C60.2096 108.345 60.2275 108.381 60.2544 108.39C60.2723 108.399 60.2813 108.399 60.2903 108.399Z" fill="#997243"/>
<path d="M61.8242 95.6877C62.1292 95.6249 62.3804 95.4635 62.5867 95.1944C63.403 94.1089 63.0801 91.7228 63.0711 91.6241C63.0711 91.5972 63.0352 91.5703 63.0083 91.5793C62.9814 91.5793 62.9545 91.6152 62.9635 91.6421C62.9635 91.669 63.2954 94.091 62.506 95.1316C62.3086 95.3917 62.0485 95.5532 61.7435 95.598C60.0122 95.8402 58.7205 91.9112 58.7115 91.8663C58.7025 91.8394 58.6756 91.8215 58.6397 91.8304C58.6128 91.8394 58.5949 91.8753 58.6038 91.9022C58.6577 92.0637 59.9315 95.9658 61.7525 95.7057C61.7704 95.6967 61.7973 95.6877 61.8242 95.6877Z" fill="#997243"/>
<path d="M61.7166 88.7804C61.5551 88.7804 61.4116 88.7266 61.2949 88.6369C61.1783 88.5382 61.1155 88.4037 61.1155 88.2691C61.1155 88.1794 61.1425 88.0897 61.1963 88.009C61.3039 87.8475 61.5013 87.7399 61.7166 87.7399C61.9677 87.7399 62.183 87.8655 62.2727 88.0718C62.2996 88.1346 62.3176 88.1974 62.3176 88.2602C62.3176 88.5113 62.1202 88.7266 61.8511 88.7715C61.7973 88.7804 61.7614 88.7804 61.7166 88.7804ZM61.286 88.0628C61.2501 88.1256 61.2232 88.1884 61.2232 88.2602C61.2232 88.3678 61.277 88.4754 61.3667 88.5472C61.4564 88.6279 61.582 88.6728 61.7166 88.6728C61.9857 88.6728 62.201 88.4844 62.201 88.2602C62.201 88.2063 62.192 88.1615 62.1651 88.1166C62.0933 87.9552 61.9049 87.8475 61.7076 87.8475C61.6717 87.8475 61.6358 87.8475 61.5999 87.8565C61.4654 87.8834 61.3488 87.9552 61.286 88.0628Z" fill="#AF5945"/>
<path d="M63.403 141.078C59.9494 141.078 56.9084 140.567 54.6568 140.037C50.979 139.167 48.6018 138.046 48.5839 138.037C48.548 138.019 48.539 137.983 48.548 137.947C48.5659 137.911 48.6018 137.902 48.6377 137.911C48.6646 137.92 51.0238 139.033 54.6927 139.903C58.0746 140.701 63.3043 141.446 68.9647 140.468C69.0006 140.459 69.0365 140.486 69.0454 140.522C69.0544 140.558 69.0275 140.594 68.9916 140.603C67.054 140.943 65.1792 141.078 63.403 141.078Z" fill="#9B453A"/>
<path d="M231.353 103.687C237.183 97.8582 237.183 88.4072 231.353 82.5779C225.524 76.7487 216.073 76.7487 210.244 82.578C204.415 88.4072 204.415 97.8582 210.244 103.687C216.073 109.517 225.524 109.517 231.353 103.687Z" fill="#FFB12A"/>
<path d="M216.573 105.25C210.348 103.088 206.706 96.459 208.356 89.9555C210.106 83.0931 217.112 78.9308 223.974 80.68C230.836 82.4293 234.999 89.4352 233.249 96.2976C231.5 103.16 224.494 107.322 217.632 105.573C217.273 105.483 216.914 105.376 216.573 105.25ZM224.844 81.5502C224.512 81.4336 224.171 81.3349 223.83 81.2452C217.273 79.5767 210.581 83.5506 208.913 90.108C207.334 96.3155 210.814 102.649 216.762 104.721C217.094 104.837 217.434 104.936 217.775 105.026C224.333 106.694 231.025 102.72 232.693 96.163C234.272 89.9465 230.782 83.6134 224.844 81.5502Z" fill="#FACE6C"/>
<path d="M225.248 97.6791C225.813 95.4724 224.898 93.7052 222.395 91.965C220.565 90.6822 219.812 90.0274 220.063 89.0316C220.269 88.2333 221.184 87.704 222.718 88.0987C223.454 88.2871 224.064 88.5562 224.566 88.8253C225.284 89.22 226.19 88.9689 226.602 88.2512C227.015 87.5246 226.764 86.5827 226.019 86.188C225.508 85.9099 224.916 85.6588 224.216 85.4345L224.225 85.4166C224.431 84.6092 223.947 83.7929 223.14 83.5866C222.332 83.3803 221.516 83.8647 221.31 84.672L221.238 84.9501C218.726 84.9949 216.932 86.3405 216.403 88.4217C215.82 90.7091 217.165 92.557 219.534 94.1448C221.238 95.284 221.839 96.0376 221.597 96.9974C221.337 98.029 220.305 98.4775 218.681 98.0649C217.82 97.8496 217.013 97.4728 216.331 97.0602C215.578 96.6027 214.591 96.8718 214.178 97.6522C213.792 98.3788 214.053 99.2849 214.761 99.6975C215.452 100.101 216.304 100.496 217.21 100.774V100.792C217.004 101.599 217.488 102.416 218.296 102.622C219.103 102.828 219.919 102.344 220.126 101.536L220.197 101.258C223.005 101.249 224.718 99.7423 225.248 97.6791Z" fill="#FACE6C"/>
<path d="M191.123 117.142C195.902 116.063 198.901 111.313 197.821 106.534C196.741 101.754 191.991 98.7555 187.212 99.8354C182.433 100.915 179.434 105.665 180.514 110.444C181.594 115.223 186.344 118.222 191.123 117.142Z" fill="#FFB12A"/>
<path d="M189.429 116.113C185.509 116.248 182.064 113.359 181.589 109.394C181.086 105.214 184.073 101.402 188.254 100.899C192.434 100.397 196.246 103.384 196.749 107.565C197.251 111.745 194.264 115.557 190.084 116.06C189.868 116.095 189.644 116.104 189.429 116.113ZM188.926 101.196C188.72 101.204 188.505 101.222 188.298 101.24C184.307 101.725 181.445 105.367 181.929 109.359C182.387 113.144 185.679 115.907 189.42 115.772C189.626 115.763 189.841 115.746 190.048 115.728C194.04 115.243 196.901 111.601 196.417 107.609C195.95 103.824 192.667 101.061 188.926 101.196Z" fill="#FACE6C"/>
<path d="M192.613 110.049C192.452 108.704 191.564 107.923 189.805 107.493C188.514 107.179 187.958 106.972 187.886 106.371C187.823 105.887 188.218 105.394 189.16 105.286C189.608 105.232 190.003 105.25 190.344 105.295C190.828 105.358 191.277 105.026 191.348 104.541C191.42 104.048 191.079 103.582 190.586 103.519C190.245 103.474 189.859 103.465 189.42 103.492V103.483C189.357 102.99 188.917 102.64 188.424 102.702C187.931 102.765 187.581 103.205 187.644 103.698L187.662 103.869C186.28 104.434 185.571 105.564 185.724 106.829C185.894 108.219 187.034 108.964 188.693 109.332C189.877 109.592 190.38 109.888 190.451 110.471C190.523 111.099 190.057 111.574 189.061 111.691C188.541 111.754 188.011 111.718 187.545 111.637C187.025 111.547 186.54 111.906 186.477 112.426C186.415 112.911 186.756 113.359 187.24 113.44C187.706 113.521 188.263 113.548 188.828 113.512V113.521C188.891 114.014 189.33 114.364 189.823 114.301C190.317 114.238 190.667 113.799 190.604 113.306L190.586 113.135C192.138 112.516 192.766 111.305 192.613 110.049Z" fill="#FACE6C"/>
<path d="M217.901 141.5H182.306C181.239 141.5 180.369 140.63 180.369 139.562V139.419C180.369 138.351 181.239 137.481 182.306 137.481H217.901C218.968 137.481 219.838 138.351 219.838 139.419V139.562C219.838 140.63 218.968 141.5 217.901 141.5Z" fill="#FFB12A"/>
<path d="M183.777 137.481H183.32V141.5H183.777V137.481Z" fill="#FACE6C"/>
<path d="M186.531 137.481H186.074V141.5H186.531V137.481Z" fill="#FACE6C"/>
<path d="M189.294 137.481H188.837V141.5H189.294V137.481Z" fill="#FACE6C"/>
<path d="M192.048 137.481H191.591V141.5H192.048V137.481Z" fill="#FACE6C"/>
<path d="M194.811 137.481H194.354V141.5H194.811V137.481Z" fill="#FACE6C"/>
<path d="M197.574 137.481H197.116V141.5H197.574V137.481Z" fill="#FACE6C"/>
<path d="M200.328 137.481H199.87V141.5H200.328V137.481Z" fill="#FACE6C"/>
<path d="M203.091 137.481H202.633V141.5H203.091V137.481Z" fill="#FACE6C"/>
<path d="M205.845 137.481H205.387V141.5H205.845V137.481Z" fill="#FACE6C"/>
<path d="M208.608 137.481H208.15V141.5H208.608V137.481Z" fill="#FACE6C"/>
<path d="M211.361 137.481H210.904V141.5H211.361V137.481Z" fill="#FACE6C"/>
<path d="M214.124 137.481H213.667V141.5H214.124V137.481Z" fill="#FACE6C"/>
<path d="M216.887 137.481H216.43V141.5H216.887V137.481Z" fill="#FACE6C"/>
<path d="M216.537 137.481H180.943C179.875 137.481 179.005 136.611 179.005 135.543V135.4C179.005 134.332 179.875 133.462 180.943 133.462H216.537C217.605 133.462 218.475 134.332 218.475 135.4V135.543C218.475 136.611 217.614 137.481 216.537 137.481Z" fill="#FFB12A"/>
<path d="M182.414 133.462H181.956V137.481H182.414V133.462Z" fill="#FACE6C"/>
<path d="M185.177 133.462H184.719V137.481H185.177V133.462Z" fill="#FACE6C"/>
<path d="M187.931 133.462H187.473V137.481H187.931V133.462Z" fill="#FACE6C"/>
<path d="M190.694 133.462H190.236V137.481H190.694V133.462Z" fill="#FACE6C"/>
<path d="M193.447 133.462H192.99V137.481H193.447V133.462Z" fill="#FACE6C"/>
<path d="M196.21 133.462H195.753V137.481H196.21V133.462Z" fill="#FACE6C"/>
<path d="M198.964 133.462H198.507V137.481H198.964V133.462Z" fill="#FACE6C"/>
<path d="M201.727 133.462H201.27V137.481H201.727V133.462Z" fill="#FACE6C"/>
<path d="M204.49 133.462H204.033V137.481H204.49V133.462Z" fill="#FACE6C"/>
<path d="M207.244 133.462H206.786V137.481H207.244V133.462Z" fill="#FACE6C"/>
<path d="M210.007 133.462H209.549V137.481H210.007V133.462Z" fill="#FACE6C"/>
<path d="M212.761 133.462H212.303V137.481H212.761V133.462Z" fill="#FACE6C"/>
<path d="M215.524 133.462H215.066V137.481H215.524V133.462Z" fill="#FACE6C"/>
<path d="M217.901 149.528H182.306C181.239 149.528 180.369 148.658 180.369 147.591V147.447C180.369 146.38 181.239 145.51 182.306 145.51H217.901C218.968 145.51 219.838 146.38 219.838 147.447V147.591C219.838 148.667 218.968 149.528 217.901 149.528Z" fill="#FFB12A"/>
<path d="M183.777 145.51H183.32V149.528H183.777V145.51Z" fill="#FACE6C"/>
<path d="M186.531 145.51H186.074V149.528H186.531V145.51Z" fill="#FACE6C"/>
<path d="M189.294 145.51H188.837V149.528H189.294V145.51Z" fill="#FACE6C"/>
<path d="M192.048 145.51H191.591V149.528H192.048V145.51Z" fill="#FACE6C"/>
<path d="M194.811 145.51H194.354V149.528H194.811V145.51Z" fill="#FACE6C"/>
<path d="M197.574 145.51H197.116V149.528H197.574V145.51Z" fill="#FACE6C"/>
<path d="M200.328 145.51H199.87V149.528H200.328V145.51Z" fill="#FACE6C"/>
<path d="M203.091 145.51H202.633V149.528H203.091V145.51Z" fill="#FACE6C"/>
<path d="M205.845 145.51H205.387V149.528H205.845V145.51Z" fill="#FACE6C"/>
<path d="M208.608 145.51H208.15V149.528H208.608V145.51Z" fill="#FACE6C"/>
<path d="M211.361 145.51H210.904V149.528H211.361V145.51Z" fill="#FACE6C"/>
<path d="M214.124 145.51H213.667V149.528H214.124V145.51Z" fill="#FACE6C"/>
<path d="M216.887 145.51H216.43V149.528H216.887V145.51Z" fill="#FACE6C"/>
<path d="M213.783 145.509H178.189C177.121 145.509 176.251 144.639 176.251 143.572V143.428C176.251 142.361 177.121 141.491 178.189 141.491H213.783C214.851 141.491 215.721 142.361 215.721 143.428V143.572C215.721 144.648 214.851 145.509 213.783 145.509Z" fill="#FFB12A"/>
<path d="M179.651 141.5H179.193V145.518H179.651V141.5Z" fill="#FACE6C"/>
<path d="M182.414 141.5H181.956V145.518H182.414V141.5Z" fill="#FACE6C"/>
<path d="M185.177 141.5H184.719V145.518H185.177V141.5Z" fill="#FACE6C"/>
<path d="M187.931 141.5H187.473V145.518H187.931V141.5Z" fill="#FACE6C"/>
<path d="M190.694 141.5H190.236V145.518H190.694V141.5Z" fill="#FACE6C"/>
<path d="M193.447 141.5H192.99V145.518H193.447V141.5Z" fill="#FACE6C"/>
<path d="M196.21 141.5H195.753V145.518H196.21V141.5Z" fill="#FACE6C"/>
<path d="M198.964 141.5H198.507V145.518H198.964V141.5Z" fill="#FACE6C"/>
<path d="M201.727 141.5H201.27V145.518H201.727V141.5Z" fill="#FACE6C"/>
<path d="M204.49 141.5H204.033V145.518H204.49V141.5Z" fill="#FACE6C"/>
<path d="M207.244 141.5H206.786V145.518H207.244V141.5Z" fill="#FACE6C"/>
<path d="M210.007 141.5H209.549V145.518H210.007V141.5Z" fill="#FACE6C"/>
<path d="M212.761 141.5H212.303V145.518H212.761V141.5Z" fill="#FACE6C"/>
<path d="M212.447 133.462H176.852C175.785 133.462 174.915 132.592 174.915 131.524V131.381C174.915 130.313 175.785 129.443 176.852 129.443H212.447C213.514 129.443 214.384 130.313 214.384 131.381V131.524C214.384 132.592 213.514 133.462 212.447 133.462Z" fill="#FFB12A"/>
<path d="M178.323 129.443H177.866V133.462H178.323V129.443Z" fill="#FACE6C"/>
<path d="M181.077 129.443H180.62V133.462H181.077V129.443Z" fill="#FACE6C"/>
<path d="M183.84 129.443H183.383V133.462H183.84V129.443Z" fill="#FACE6C"/>
<path d="M186.594 129.443H186.137V133.462H186.594V129.443Z" fill="#FACE6C"/>
<path d="M189.357 129.443H188.899V133.462H189.357V129.443Z" fill="#FACE6C"/>
<path d="M192.111 129.443H191.653V133.462H192.111V129.443Z" fill="#FACE6C"/>
<path d="M194.874 129.443H194.416V133.462H194.874V129.443Z" fill="#FACE6C"/>
<path d="M197.637 129.443H197.179V133.462H197.637V129.443Z" fill="#FACE6C"/>
<path d="M200.391 129.443H199.933V133.462H200.391V129.443Z" fill="#FACE6C"/>
<path d="M203.153 129.443H202.696V133.462H203.153V129.443Z" fill="#FACE6C"/>
<path d="M205.907 129.443H205.45V133.462H205.907V129.443Z" fill="#FACE6C"/>
<path d="M208.67 129.443H208.213V133.462H208.67V129.443Z" fill="#FACE6C"/>
<path d="M211.424 129.443H210.967V133.462H211.424V129.443Z" fill="#FACE6C"/>
<path d="M214.178 129.479H178.583C177.516 129.479 176.646 128.609 176.646 127.542V127.398C176.646 126.331 177.516 125.461 178.583 125.461H214.178C215.246 125.461 216.116 126.331 216.116 127.398V127.542C216.116 128.609 215.246 129.479 214.178 129.479Z" fill="#FFB12A"/>
<path d="M180.055 125.461H179.597V129.479H180.055V125.461Z" fill="#FACE6C"/>
<path d="M182.809 125.461H182.351V129.479H182.809V125.461Z" fill="#FACE6C"/>
<path d="M185.571 125.461H185.114V129.479H185.571V125.461Z" fill="#FACE6C"/>
<path d="M188.325 125.461H187.868V129.479H188.325V125.461Z" fill="#FACE6C"/>
<path d="M191.088 125.461H190.631V129.479H191.088V125.461Z" fill="#FACE6C"/>
<path d="M193.842 125.461H193.385V129.479H193.842V125.461Z" fill="#FACE6C"/>
<path d="M196.605 125.461H196.148V129.479H196.605V125.461Z" fill="#FACE6C"/>
<path d="M199.368 125.461H198.91V129.479H199.368V125.461Z" fill="#FACE6C"/>
<path d="M202.122 125.461H201.664V129.479H202.122V125.461Z" fill="#FACE6C"/>
<path d="M204.885 125.461H204.427V129.479H204.885V125.461Z" fill="#FACE6C"/>
<path d="M207.639 125.461H207.181V129.479H207.639V125.461Z" fill="#FACE6C"/>
<path d="M210.402 125.461H209.944V129.479H210.402V125.461Z" fill="#FACE6C"/>
<path d="M213.155 125.461H212.698V129.479H213.155V125.461Z" fill="#FACE6C"/>
<path d="M101.788 149.537H80.6801C78.2402 149.537 76.2577 147.555 76.2577 145.115V121.971C76.2577 119.531 78.2402 117.549 80.6801 117.549H101.788C104.228 117.549 106.21 119.531 106.21 121.971V145.115C106.219 147.564 104.236 149.537 101.788 149.537Z" fill="#606A97"/>
<path d="M99.7334 127.084H82.7344C80.6263 127.084 78.913 125.371 78.913 123.263C78.913 121.155 80.6263 119.441 82.7344 119.441H99.7423C101.85 119.441 103.564 121.155 103.564 123.263C103.555 125.371 101.85 127.084 99.7334 127.084Z" fill="#A2C3F2"/>
<path d="M82.0885 134.198C80.7519 134.198 79.6754 133.121 79.6754 131.785C79.6754 130.448 80.7519 129.372 82.0885 129.372C83.4251 129.372 84.5015 130.448 84.5015 131.785C84.5015 133.112 83.4161 134.198 82.0885 134.198Z" fill="#404660"/>
<path d="M88.4395 134.198C87.1029 134.198 86.0265 133.121 86.0265 131.785C86.0265 130.448 87.1029 129.372 88.4395 129.372C89.7761 129.372 90.8526 130.448 90.8526 131.785C90.8526 133.112 89.7672 134.198 88.4395 134.198Z" fill="#404660"/>
<path d="M94.7906 134.198C93.454 134.198 92.3776 133.121 92.3776 131.785C92.3776 130.448 93.454 129.372 94.7906 129.372C96.1272 129.372 97.2037 130.448 97.2037 131.785C97.2037 133.112 96.1272 134.198 94.7906 134.198Z" fill="#404660"/>
<path d="M82.0885 140.917C80.7519 140.917 79.6754 139.84 79.6754 138.504C79.6754 137.167 80.7519 136.09 82.0885 136.09C83.4251 136.09 84.5015 137.167 84.5015 138.504C84.5015 139.84 83.4161 140.917 82.0885 140.917Z" fill="#404660"/>
<path d="M88.4395 140.917C87.1029 140.917 86.0265 139.84 86.0265 138.504C86.0265 137.167 87.1029 136.09 88.4395 136.09C89.7761 136.09 90.8526 137.167 90.8526 138.504C90.8526 139.84 89.7672 140.917 88.4395 140.917Z" fill="#404660"/>
<path d="M101.142 140.917C99.8051 140.917 98.7286 139.84 98.7286 138.504V131.776C98.7286 130.439 99.8051 129.363 101.142 129.363C102.478 129.363 103.555 130.439 103.555 131.776V138.504C103.555 139.84 102.478 140.917 101.142 140.917Z" fill="#404660"/>
<path d="M94.7906 140.917C93.454 140.917 92.3776 139.84 92.3776 138.504C92.3776 137.167 93.454 136.09 94.7906 136.09C96.1272 136.09 97.2037 137.167 97.2037 138.504C97.2037 139.84 96.1272 140.917 94.7906 140.917Z" fill="#404660"/>
<path d="M82.0885 147.644C80.7519 147.644 79.6754 146.568 79.6754 145.231C79.6754 143.895 80.7519 142.818 82.0885 142.818C83.4251 142.818 84.5015 143.895 84.5015 145.231C84.5015 146.559 83.4161 147.644 82.0885 147.644Z" fill="#404660"/>
<path d="M88.4395 147.644C87.1029 147.644 86.0265 146.568 86.0265 145.231C86.0265 143.895 87.1029 142.818 88.4395 142.818C89.7761 142.818 90.8526 143.895 90.8526 145.231C90.8526 146.559 89.7672 147.644 88.4395 147.644Z" fill="#404660"/>
<path d="M101.142 147.644C99.8051 147.644 98.7286 146.568 98.7286 145.231C98.7286 143.895 99.8051 142.818 101.142 142.818C102.478 142.818 103.555 143.895 103.555 145.231C103.555 146.559 102.478 147.644 101.142 147.644Z" fill="#FF593A"/>
<path d="M94.7906 147.644C93.454 147.644 92.3776 146.568 92.3776 145.231C92.3776 143.895 93.454 142.818 94.7906 142.818C96.1272 142.818 97.2037 143.895 97.2037 145.231C97.2037 146.559 96.1272 147.644 94.7906 147.644Z" fill="#404660"/>
<path d="M263.031 157.933H3.85724C3.6868 157.933 3.55225 157.799 3.55225 157.628C3.55225 157.458 3.6868 157.323 3.85724 157.323H263.031C263.202 157.323 263.336 157.458 263.336 157.628C263.336 157.799 263.202 157.933 263.031 157.933Z" fill="#30313C"/>
</g>
<defs>
<clipPath id="clip0_294_1319">
<rect width="266.897" height="157.951" fill="white"/>
</clipPath>
</defs>
</svg>
