<svg width="298" height="220" viewBox="0 0 298 220" fill="none" xmlns="http://www.w3.org/2000/svg">
<g clip-path="url(#clip0_294_1592)">
<path d="M21.9514 143.87C17.9999 143.87 14.1984 141.677 12.3334 137.897C9.71091 132.587 11.8903 126.164 17.1995 123.541L247.203 9.97539C252.513 7.35294 258.937 9.53236 261.559 14.8416C264.181 20.1508 262.002 26.5747 256.693 29.1972L26.689 142.763C25.1669 143.513 23.5449 143.87 21.9514 143.87Z" fill="#E2EAFC"/>
<path d="M21.9514 148.158C19.1932 148.158 16.4921 147.4 14.1341 145.964C11.7046 144.485 9.75379 142.356 8.48902 139.79C6.7169 136.196 6.44536 132.123 7.73158 128.329C9.01779 124.534 11.7046 121.462 15.2988 119.69L245.303 6.13101C248.897 4.3589 252.963 4.08736 256.764 5.37358C260.559 6.65979 263.631 9.34655 265.403 12.9408C267.176 16.5351 267.447 20.6081 266.161 24.4024C264.875 28.1968 262.188 31.2694 258.594 33.0415L28.5897 146.607C26.5032 147.636 24.2666 148.158 21.9514 148.158ZM251.941 13.1552C250.969 13.1552 249.997 13.3767 249.097 13.8197L19.1003 127.385C17.5568 128.143 16.4064 129.458 15.8562 131.087C15.306 132.716 15.4203 134.46 16.1777 135.996C17.271 138.211 19.4862 139.583 21.9514 139.583C22.9375 139.583 23.895 139.361 24.7882 138.918L254.792 25.3528C256.336 24.5953 257.486 23.2806 258.036 21.6513C258.586 20.0221 258.472 18.2786 257.715 16.7423C256.957 15.1988 255.642 14.0484 254.013 13.4982C253.334 13.2695 252.634 13.1552 251.941 13.1552Z" fill="#E2EAFB"/>
<path d="M15.0201 188.674C11.0686 188.674 7.2671 186.48 5.40208 182.7C2.77963 177.391 4.95905 170.967 10.2683 168.344L240.272 54.7785C245.581 52.156 252.005 54.3355 254.628 59.6447C257.25 64.9539 255.071 71.3778 249.762 74.0003L19.7577 187.566C18.2357 188.316 16.6136 188.674 15.0201 188.674Z" fill="#E2EAFC"/>
<path d="M15.0201 192.961C12.2619 192.961 9.56086 192.203 7.2028 190.767C4.77328 189.288 2.82252 187.159 1.55774 184.593C-0.214377 181.006 -0.485912 176.933 0.800304 173.139C2.08652 169.345 4.77328 166.272 8.36754 164.5L238.371 50.9341C241.966 49.162 246.032 48.8905 249.833 50.1767C253.627 51.4629 256.7 54.1497 258.472 57.7439C260.244 61.3382 260.516 65.4112 259.23 69.2055C257.943 72.9999 255.257 76.0725 251.662 77.8446L21.6584 191.41C19.5719 192.439 17.3353 192.961 15.0201 192.961ZM245.01 57.9583C244.038 57.9583 243.066 58.1798 242.166 58.6228L12.169 172.188C10.6256 172.946 9.47511 174.261 8.9249 175.89C8.37468 177.519 8.48901 179.263 9.24645 180.799C10.3397 183.014 12.5477 184.386 15.0201 184.386C16.0062 184.386 16.9637 184.165 17.8569 183.722L247.861 70.1559C249.404 69.3984 250.555 68.0837 251.105 66.4544C251.655 64.8252 251.541 63.0817 250.783 61.5454C250.026 60.0019 248.711 58.8515 247.082 58.3013C246.403 58.0726 245.703 57.9583 245.01 57.9583Z" fill="#E2EAFB"/>
<path d="M52.2489 209.81C48.2974 209.81 44.4959 207.617 42.6309 203.837C40.0084 198.527 42.1878 192.103 47.4971 189.481L277.501 75.9153C282.81 73.2929 289.234 75.4723 291.857 80.7815C294.479 86.0907 292.3 92.5147 286.99 95.1371L56.9793 208.703C55.4573 209.453 53.8352 209.81 52.2489 209.81Z" fill="#E2EAFC"/>
<path d="M52.2489 214.098C49.4907 214.098 46.7896 213.34 44.4316 211.904C42.0021 210.425 40.0513 208.295 38.7865 205.73C37.0144 202.136 36.7429 198.063 38.0291 194.269C39.3153 190.474 42.0021 187.402 45.5963 185.629L275.6 72.0638C279.194 70.2916 283.267 70.0201 287.062 71.3063C290.856 72.5925 293.929 75.2793 295.701 78.8736C297.473 82.4678 297.745 86.5408 296.458 90.3352C295.172 94.1295 292.485 97.2021 288.891 98.9742L58.8801 212.547C56.7935 213.576 54.5641 214.098 52.2489 214.098ZM282.231 79.0951C281.26 79.0951 280.288 79.3166 279.387 79.7596L49.3907 193.325C47.8472 194.083 46.6968 195.398 46.1465 197.027C45.5963 198.656 45.7107 200.399 46.4681 201.936C47.5614 204.151 49.7694 205.523 52.2418 205.523C53.2279 205.523 54.1854 205.301 55.0786 204.858L285.082 91.2927C286.626 90.5352 287.776 89.2204 288.327 87.5912C288.877 85.962 288.762 84.2185 288.005 82.6822C287.248 81.1387 285.933 79.9883 284.304 79.4381C283.625 79.2094 282.932 79.0951 282.231 79.0951Z" fill="#E2EAFB"/>
<path d="M148.601 204.058C201.009 204.058 243.495 161.573 243.495 109.164C243.495 56.7554 201.009 14.2699 148.601 14.2699C96.1922 14.2699 53.7066 56.7554 53.7066 109.164C53.7066 161.573 96.1922 204.058 148.601 204.058Z" fill="#ABC4FF"/>
<g opacity="0.79">
<path d="M220.85 192.468L220.715 191.682L189.374 10.7685L188.759 7.20995L187.902 2.27945C187.423 -0.493056 184.772 3.49421 182.964 5.6522L182.685 5.98804C181.649 7.22424 179.87 7.5315 178.477 6.7169L174.368 4.30881C172.975 3.49421 171.195 3.80147 170.159 5.03767L167.108 8.68909C166.072 9.92529 164.293 10.2397 162.899 9.41795L158.805 7.00272C157.411 6.18812 155.632 6.49538 154.596 7.73158L151.545 11.383C150.509 12.6192 148.729 12.9336 147.336 12.1119L143.242 9.70377C141.848 8.88203 140.069 9.19643 139.033 10.4326L135.982 14.0769C134.945 15.3131 133.166 15.6275 131.773 14.8058L127.671 12.3977C126.278 11.5759 124.498 11.8903 123.462 13.1265L120.411 16.7708C119.375 18.007 117.596 18.3214 116.202 17.4997L112.101 15.0916C110.707 14.277 108.928 14.5842 107.892 15.8204L104.841 19.4647C103.805 20.7009 102.025 21.0153 100.632 20.1936L96.5376 17.7855C95.1442 16.9637 93.3649 17.2782 92.3288 18.5143L89.2776 22.1586C88.2415 23.3948 86.4622 23.7092 85.0688 22.8875L84.7044 22.6731C82.282 21.2511 78.4377 18.3857 78.9236 21.1582L79.7739 26.0887L80.3884 29.6473L111.729 210.561L111.865 211.347L113.201 219.05C113.68 221.822 116.331 217.835 118.139 215.677L118.418 215.341C119.454 214.105 121.233 213.798 122.626 214.612L126.735 217.02C128.128 217.835 129.908 217.528 130.944 216.291L133.995 212.64C135.031 211.404 136.81 211.089 138.204 211.911L142.305 214.319C143.699 215.134 145.478 214.827 146.514 213.59L149.565 209.939C150.602 208.703 152.381 208.388 153.774 209.21L157.869 211.618C159.262 212.44 161.041 212.125 162.077 210.889L165.129 207.238C166.165 206.002 167.944 205.687 169.337 206.509L173.439 208.917C174.832 209.739 176.612 209.424 177.648 208.188L180.699 204.544C181.735 203.308 183.514 202.993 184.908 203.815L189.009 206.223C190.403 207.038 192.182 206.731 193.218 205.494L196.269 201.85C197.305 200.614 199.085 200.299 200.478 201.121L204.573 203.529C205.966 204.351 207.745 204.037 208.781 202.8L211.833 199.156C212.869 197.92 214.648 197.606 216.041 198.427L216.406 198.642C218.828 200.064 221.815 197.999 221.336 195.226L220.85 192.468Z" fill="#E2EAFC"/>
</g>
<path d="M218.785 191.139L218.649 190.353L187.309 9.43937L186.694 5.88084L185.837 0.950351C185.358 -1.82216 182.707 2.16511 180.899 4.32309L180.62 4.65894C179.584 5.89514 177.805 6.2024 176.412 5.38779L172.303 2.97971C170.909 2.16511 169.13 2.47237 168.094 3.70857L165.043 7.35999C164.007 8.59619 162.227 8.9106 160.834 8.08885L156.732 5.68077C155.339 4.86616 153.56 5.17343 152.524 6.40962L149.473 10.061C148.436 11.2972 146.657 11.6116 145.264 10.7899L141.169 8.38182C139.776 7.56007 137.997 7.87448 136.96 9.11067L133.909 12.7621C132.873 13.9983 131.094 14.3127 129.701 13.491L125.599 11.0829C124.206 10.2611 122.426 10.5755 121.39 11.8117L118.339 15.456C117.303 16.6922 115.524 17.0066 114.13 16.1849L110.029 13.7768C108.635 12.9622 106.856 13.2694 105.82 14.5056L102.769 18.1499C101.732 19.3861 99.9532 19.7005 98.5598 18.8788L94.4654 16.4707C93.072 15.6489 91.2927 15.9633 90.2566 17.1995L87.2054 20.8438C86.1693 22.08 84.39 22.3944 82.9966 21.5727L82.6322 21.3583C80.2098 19.9363 76.3655 17.0709 76.8514 19.8434L77.7017 24.7739L78.3162 28.3325L109.671 209.224L109.807 210.01L111.143 217.713C111.622 220.486 114.273 216.499 116.081 214.341L116.36 214.005C117.396 212.769 119.175 212.461 120.568 213.276L124.677 215.684C126.071 216.499 127.85 216.191 128.886 214.955L131.937 211.304C132.973 210.068 134.752 209.753 136.146 210.575L140.247 212.983C141.641 213.798 143.42 213.49 144.456 212.254L147.507 208.603C148.544 207.367 150.323 207.052 151.716 207.874L155.811 210.282C157.204 211.104 158.983 210.789 160.019 209.553L163.071 205.902C164.107 204.665 165.886 204.351 167.279 205.173L171.381 207.581C172.774 208.403 174.554 208.088 175.59 206.852L178.641 203.208C179.677 201.972 181.456 201.657 182.85 202.479L186.951 204.887C188.345 205.702 190.124 205.394 191.16 204.158L194.211 200.514C195.247 199.278 197.027 198.963 198.42 199.785L202.515 202.193C203.908 203.015 205.687 202.7 206.723 201.464L209.775 197.82C210.811 196.584 212.59 196.269 213.983 197.091L214.348 197.305C216.77 198.727 219.757 196.662 219.278 193.89L218.785 191.139Z" fill="#EDF2FB"/>
<path d="M100.575 147.272C100.575 147.264 100.946 147.186 101.661 147.057" stroke="#ABC3FB" stroke-width="1.1433" stroke-linecap="round" stroke-linejoin="round"/>
<path d="M103.869 146.657C111.358 145.307 130.801 141.905 153.61 137.954C177.641 133.788 197.949 130.308 204.48 129.236" stroke="#ABC3FB" stroke-width="1.1433" stroke-linecap="round" stroke-linejoin="round" stroke-dasharray="2.24 2.24"/>
<path d="M205.587 129.05C206.302 128.936 206.681 128.879 206.681 128.886" stroke="#ABC3FB" stroke-width="1.1433" stroke-linecap="round" stroke-linejoin="round"/>
<path d="M169.159 193.268L171.545 192.868L171.145 190.489L168.759 190.882L166.379 191.282L166.779 193.668L169.159 193.268Z" fill="#25291C"/>
<path d="M156.857 192.882L154.475 193.281L154.874 195.663L157.256 195.264L156.857 192.882Z" fill="#25291C"/>
<path d="M180.645 174.496L178.263 174.894L178.661 177.277L181.043 176.878L180.645 174.496Z" fill="#25291C"/>
<path d="M159.233 192.482L161.62 192.082L162.013 194.462L164.4 194.061L164 191.682L166.379 191.282L165.979 188.902L165.586 186.523L167.965 186.123L167.565 183.743L165.186 184.136L164.786 181.757L162.406 182.157L160.019 182.557L160.42 184.936L162.799 184.536L163.199 186.916L163.599 189.302L161.22 189.703L158.833 190.096L156.454 190.496L156.854 192.875L159.233 192.482Z" fill="#25291C"/>
<path d="M153.674 188.516L154.074 190.896L156.454 190.496L156.054 188.116L155.661 185.729L153.274 186.13L153.674 188.516Z" fill="#25291C"/>
<path d="M171.024 174.59L170.809 173.31L168.43 173.711L168.644 174.99L168.859 176.269L171.238 175.869L171.024 174.59Z" fill="#25291C"/>
<path d="M157.642 182.957L155.26 183.356L155.659 185.738L158.041 185.339L157.642 182.957Z" fill="#25291C"/>
<path d="M164.381 164.692L161.999 165.091L162.398 167.473L164.78 167.074L164.381 164.692Z" fill="#25291C"/>
<path d="M137.784 166.693L135.402 167.092L135.801 169.474L138.183 169.075L137.784 166.693Z" fill="#25291C"/>
<path d="M155.325 183.329L152.945 183.75L152.517 181.378L150.144 181.799L149.715 179.427L152.095 178.998L151.666 176.619L154.046 176.197L154.153 176.819L154.36 177.977L155.003 181.671H155.025L155.325 183.329Z" fill="#25291C"/>
<path d="M178.62 162.599L178.219 160.22L175.84 160.62L176.24 162.999L176.64 165.386L179.02 164.986L178.62 162.599Z" fill="#25291C"/>
<path d="M138.578 171.46L136.196 171.858L136.594 174.241L138.976 173.842L138.578 171.46Z" fill="#25291C"/>
<path d="M152.881 169.688L155.253 169.259L155.682 171.638L158.062 171.21L158.483 173.589L156.111 174.011L153.731 174.439L154.16 176.819L151.781 177.24L151.352 174.868L150.93 172.489L153.303 172.06L152.881 169.688Z" fill="#25291C"/>
<path d="M150.718 156.218L148.336 156.616L148.735 158.998L151.117 158.6L150.718 156.218Z" fill="#25291C"/>
<path d="M166.761 178.912L164.378 179.311L164.777 181.693L167.159 181.295L166.761 178.912Z" fill="#25291C"/>
<path d="M148.501 172.239L146.121 172.639L145.721 170.259L143.342 170.659L142.941 168.273L142.541 165.893L140.162 166.293L140.562 168.673L138.175 169.073L138.575 171.452L140.962 171.052L141.355 173.439L143.742 173.039L144.135 175.418L146.521 175.018L146.922 177.405L149.301 177.005L148.901 174.625L148.501 172.239Z" fill="#25291C"/>
<path d="M165.171 169.452L162.792 169.852L162.392 167.465L160.012 167.865L160.412 170.245L160.813 172.631L163.192 172.231L163.592 174.611L165.972 174.211L165.572 171.831L165.171 169.452Z" fill="#25291C"/>
<path d="M173.482 161.013L171.102 161.413L171.495 163.792L171.896 166.179L169.516 166.572L169.916 168.959L172.296 168.558L172.696 170.938L175.075 170.538L175.475 172.924L175.876 175.304L178.255 174.904L177.855 172.524L177.455 170.145L177.062 167.758L174.675 168.158L174.275 165.779L176.662 165.379L176.262 162.999L173.882 163.399L173.482 161.013Z" fill="#25291C"/>
<path d="M139.376 176.219L136.996 176.619L137.389 178.998L137.789 181.378L140.169 180.978L140.569 183.364L142.949 182.964L142.556 180.585L142.155 178.198L139.776 178.598L139.376 176.219Z" fill="#25291C"/>
<path d="M144.144 175.425L141.762 175.823L142.161 178.206L144.543 177.807L144.144 175.425Z" fill="#25291C"/>
<path d="M149.88 165.915L149.451 163.542L151.831 163.114L154.203 162.692L156.582 162.263L157.011 164.643L157.433 167.015L155.06 167.444L154.632 165.064L152.252 165.493L152.681 167.865L150.301 168.294L150.73 170.674L148.351 171.095L147.929 168.723L145.55 169.145L145.128 166.772L147.5 166.343L149.88 165.915Z" fill="#25291C"/>
<path d="M146.923 177.404L144.541 177.803L144.94 180.185L147.322 179.786L146.923 177.404Z" fill="#25291C"/>
<path d="M167.158 166.672L169.537 166.272L169.137 163.892L168.744 161.506L166.358 161.906L165.957 159.526L165.564 157.14L163.178 157.54L163.578 159.927L163.978 162.306L164.378 164.686L166.758 164.285L167.158 166.672Z" fill="#25291C"/>
<path d="M157.865 155.023L155.483 155.422L155.881 157.804L158.263 157.406L157.865 155.023Z" fill="#25291C"/>
<path d="M169.847 168.729L167.465 169.128L167.864 171.51L170.246 171.111L169.847 168.729Z" fill="#25291C"/>
<path d="M151.073 158.347L151.473 160.727L151.873 163.106L154.253 162.706L153.853 160.327L156.232 159.927L155.839 157.547L153.453 157.947L151.073 158.347Z" fill="#25291C"/>
<path d="M160.801 157.947L158.419 158.345L158.818 160.728L161.2 160.329L160.801 157.947Z" fill="#25291C"/>
<path d="M162.385 152.781L161.985 150.394L159.605 150.794L159.998 153.174L160.398 155.561L160.798 157.94L163.178 157.54L162.785 155.16L162.385 152.781Z" fill="#25291C"/>
<path d="M152.174 149.565L152.602 151.945L150.223 152.367L147.843 152.795L147.422 150.416L149.794 149.994L152.174 149.565Z" fill="#25291C"/>
<path d="M163.974 147.62L161.592 148.019L161.99 150.401L164.372 150.003L163.974 147.62Z" fill="#25291C"/>
<path d="M180.67 188.888L181.071 191.275L183.45 190.874L185.83 190.474L185.437 188.095L183.05 188.495L180.67 188.888Z" fill="#25291C"/>
<path d="M144.914 150.809L133.002 152.802L134.995 164.714L146.907 162.72L144.914 150.809ZM144.821 161.227L136.482 162.62L135.088 154.282L143.427 152.888L144.821 161.227Z" fill="#25291C"/>
<path d="M141.941 154.977L137.177 155.774L137.974 160.539L142.739 159.741L141.941 154.977Z" fill="#25291C"/>
<path d="M166.351 147.215L168.344 159.126L180.256 157.133L178.262 145.221L166.351 147.215ZM178.162 155.646L169.823 157.04L168.43 148.701L176.769 147.307L178.162 155.646Z" fill="#25291C"/>
<path d="M175.291 149.395L170.526 150.193L171.324 154.957L176.088 154.16L175.291 149.395Z" fill="#25291C"/>
<path d="M140.59 198.106L152.502 196.112L150.509 184.2L138.597 186.194L140.59 198.106ZM140.683 187.68L149.022 186.287L150.416 194.626L142.077 196.019L140.683 187.68Z" fill="#25291C"/>
<path d="M147.536 188.376L142.772 189.173L143.57 193.938L148.334 193.14L147.536 188.376Z" fill="#25291C"/>
<path d="M159.222 148.428L156.84 148.826L157.239 151.208L159.621 150.81L159.222 148.428Z" fill="#25291C"/>
<path d="M151.376 152.134L148.999 152.56L149.425 154.937L151.802 154.511L151.376 152.134Z" fill="#25291C"/>
<path d="M158.826 175.433L159.212 177.769V177.776L159.219 177.819L156.84 178.212L156.833 178.219V178.198L156.725 177.576L156.432 175.833L158.826 175.433Z" fill="#25291C"/>
<path d="M182.214 169.337L181.821 166.958L179.434 167.351L179.834 169.738L180.234 172.117L180.635 174.497L183.014 174.104L182.614 171.717L182.214 169.337Z" fill="#25291C"/>
<path d="M175.814 175.25L173.436 175.676L173.862 178.053L176.24 177.627L175.814 175.25Z" fill="#25291C"/>
<path d="M177.498 184.536L177.098 182.15L174.718 182.55L172.339 182.95L169.959 183.35L170.352 185.729L170.752 188.109L173.132 187.716L172.739 185.329L175.118 184.936L175.518 187.316L177.898 186.916L178.298 189.295L180.678 188.902L180.277 186.516L182.664 186.115L182.264 183.736L179.884 184.136L177.498 184.536Z" fill="#25291C"/>
<path d="M173.825 177.805L174.254 180.185L174.675 182.557L172.303 182.986L171.874 180.606L169.502 181.035L169.073 178.655L171.452 178.234L173.825 177.805Z" fill="#25291C"/>
<path d="M156.711 177.533L156.818 178.169V178.155L156.711 177.533Z" fill="#25291C"/>
<path d="M161.606 177.426L161.213 175.047L158.826 175.44L159.226 177.826L159.626 180.206L160.027 182.585L162.406 182.192L162.006 179.806L161.606 177.426Z" fill="#25291C"/>
<path d="M183.411 176.49L181.028 176.888L181.427 179.27L183.809 178.872L183.411 176.49Z" fill="#25291C"/>
<path d="M184.246 180.956L181.864 181.355L182.263 183.737L184.645 183.338L184.246 180.956Z" fill="#25291C"/>
<path d="M178.294 189.302L175.912 189.701L176.31 192.083L178.693 191.684L178.294 189.302Z" fill="#25291C"/>
<path d="M159.328 164.249L156.946 164.648L157.345 167.03L159.727 166.631L159.328 164.249Z" fill="#25291C"/>
<path d="M164.746 152.258L162.364 152.657L162.762 155.039L165.145 154.64L164.746 152.258Z" fill="#25291C"/>
<path d="M154.441 149.192L152.059 149.591L152.458 151.973L154.84 151.575L154.441 149.192Z" fill="#25291C"/>
<path d="M147.296 179.737L144.919 180.163L145.345 182.54L147.722 182.115L147.296 179.737Z" fill="#25291C"/>
<path d="M163.959 176.919L161.577 177.318L161.976 179.7L164.358 179.301L163.959 176.919Z" fill="#25291C"/>
<path d="M180.581 159.825L178.199 160.224L178.597 162.606L180.979 162.207L180.581 159.825Z" fill="#25291C"/>
<path d="M160.844 187.308L158.462 187.707L158.861 190.089L161.243 189.69L160.844 187.308Z" fill="#25291C"/>
<path d="M157.214 151.179L154.832 151.578L155.231 153.96L157.613 153.562L157.214 151.179Z" fill="#25291C"/>
<path d="M156.444 175.829L154.055 176.229L154.454 178.611L156.843 178.211L156.444 175.829Z" fill="#25291C"/>
<path d="M110.893 32.9914C111.929 32.8128 112.787 32.9628 113.48 33.4344C114.173 33.9061 114.602 34.6492 114.78 35.6639C114.909 36.4213 114.852 37.0859 114.602 37.6575C114.352 38.2292 113.937 38.6722 113.351 38.9866C113.551 39.1009 113.744 39.2867 113.93 39.5368L116.095 42.3665C116.331 42.6738 116.274 42.8524 115.931 42.9096L115.073 43.0596C114.752 43.1168 114.516 43.1311 114.38 43.0954C114.245 43.0668 114.116 42.9596 113.994 42.7881L112.322 40.4943C112.051 40.1156 111.786 39.8798 111.529 39.7798C111.272 39.6797 110.886 39.6797 110.386 39.7655L109.293 39.9513L109.893 43.4312C109.929 43.617 109.914 43.7528 109.85 43.8385C109.786 43.9242 109.664 43.9814 109.478 44.0171L108.635 44.1601C108.449 44.1958 108.306 44.1815 108.221 44.1172C108.128 44.06 108.071 43.9314 108.035 43.7456L106.391 34.2705C106.356 34.0847 106.377 33.9489 106.441 33.856C106.506 33.7703 106.634 33.706 106.82 33.6774L110.893 32.9914ZM112.615 37.2002C112.844 36.8929 112.908 36.4928 112.823 35.9997C112.737 35.5067 112.537 35.1565 112.229 34.9422C111.922 34.7278 111.515 34.6635 111.008 34.7492L108.457 35.1923L108.985 38.2292L111.536 37.7861C112.029 37.7004 112.387 37.5075 112.615 37.2002Z" fill="#25291C"/>
<path d="M122.283 31.0193C122.469 30.9835 122.612 30.9978 122.698 31.0621C122.791 31.1193 122.848 31.2479 122.884 31.4337L123.012 32.1554C123.048 32.3412 123.027 32.477 122.962 32.5699C122.898 32.6556 122.769 32.7199 122.583 32.7485L118.067 33.5274L118.518 36.107L122.341 35.4424C122.526 35.4067 122.662 35.421 122.748 35.4853C122.834 35.5496 122.891 35.6711 122.926 35.8569L123.055 36.5786C123.091 36.7644 123.077 36.9001 123.012 36.9859C122.948 37.0716 122.826 37.1288 122.641 37.1645L118.818 37.8291L119.289 40.5444L123.97 39.7369C124.156 39.7012 124.291 39.7155 124.377 39.7798C124.463 39.8441 124.52 39.9656 124.556 40.1514L124.684 40.8731C124.72 41.0589 124.706 41.1947 124.641 41.2804C124.577 41.3662 124.456 41.4233 124.27 41.459L118.246 42.5023C118.06 42.538 117.917 42.5237 117.832 42.4594C117.739 42.4023 117.682 42.2736 117.646 42.0879L116.002 32.6127C115.967 32.427 115.988 32.2912 116.052 32.1983C116.117 32.1125 116.245 32.0482 116.431 32.0197L122.283 31.0193Z" fill="#25291C"/>
<path d="M124.691 34.3205C124.484 33.1272 124.691 32.1268 125.306 31.3194C125.92 30.5119 126.899 29.9831 128.25 29.7545C130.344 29.39 131.823 29.9831 132.687 31.5266C132.859 31.8196 132.795 32.0554 132.487 32.2269L131.723 32.6484C131.558 32.7413 131.423 32.7699 131.33 32.7413C131.237 32.7128 131.137 32.6127 131.037 32.4484C130.558 31.598 129.722 31.2765 128.543 31.4837C127.786 31.6123 127.235 31.8982 126.885 32.3269C126.542 32.7556 126.428 33.313 126.542 33.9918L127.107 37.2502C127.221 37.9291 127.521 38.415 127.993 38.708C128.464 39.0009 129.079 39.0795 129.836 38.9509C131.008 38.7508 131.68 38.1577 131.859 37.1859C131.901 36.9859 131.966 36.8572 132.051 36.7929C132.13 36.7358 132.266 36.7215 132.459 36.7643L133.302 36.9073C133.645 36.9716 133.795 37.1645 133.738 37.5003C133.445 39.251 132.244 40.3157 130.136 40.6801C128.786 40.916 127.693 40.7516 126.835 40.1942C125.985 39.6369 125.456 38.758 125.249 37.5575L124.691 34.3205Z" fill="#25291C"/>
<path d="M140.183 27.9181C140.369 27.8823 140.512 27.8966 140.598 27.9609C140.691 28.0181 140.748 28.1467 140.783 28.3325L140.912 29.0542C140.948 29.24 140.926 29.3758 140.862 29.4687C140.798 29.5544 140.669 29.6187 140.483 29.6473L135.967 30.4262L136.417 33.0058L140.24 32.3412C140.426 32.3055 140.562 32.3198 140.648 32.3841C140.733 32.4484 140.791 32.5699 140.826 32.7557L140.955 33.4774C140.991 33.6632 140.976 33.7989 140.912 33.8847C140.848 33.9704 140.726 34.0276 140.54 34.0633L136.718 34.7279L137.189 37.4432L141.87 36.6357C142.055 36.6 142.191 36.6143 142.277 36.6786C142.363 36.7429 142.42 36.8644 142.455 37.0502L142.584 37.7719C142.62 37.9577 142.606 38.0935 142.541 38.1792C142.477 38.265 142.355 38.3221 142.17 38.3578L136.146 39.4011C135.96 39.4368 135.817 39.4225 135.731 39.3582C135.639 39.3011 135.581 39.1724 135.546 38.9867L133.902 29.5115C133.866 29.3258 133.888 29.19 133.952 29.0971C134.016 29.0113 134.145 28.947 134.331 28.9185L140.183 27.9181Z" fill="#25291C"/>
<path d="M142.434 28.0396C142.398 27.8538 142.42 27.718 142.484 27.6251C142.548 27.5394 142.677 27.4751 142.863 27.4465L143.706 27.3036C143.892 27.2678 144.028 27.2821 144.113 27.3464C144.199 27.4107 144.256 27.5322 144.292 27.718L145.935 37.1931C145.971 37.3789 145.957 37.5147 145.893 37.6004C145.828 37.6862 145.707 37.7433 145.521 37.7791L144.678 37.922C144.492 37.9577 144.349 37.9434 144.263 37.8791C144.17 37.8219 144.113 37.6933 144.078 37.5075L142.434 28.0396Z" fill="#25291C"/>
<path d="M150.673 26.0959C151.745 25.9101 152.645 26.0673 153.374 26.5675C154.103 27.0677 154.56 27.8537 154.746 28.9112C154.932 29.9759 154.76 30.862 154.246 31.5766C153.724 32.2911 152.931 32.7413 151.859 32.9271L149.294 33.3701L149.837 36.5142C149.873 36.7 149.858 36.8358 149.794 36.9215C149.73 37.0073 149.608 37.0644 149.422 37.1001L148.579 37.2431C148.394 37.2788 148.251 37.2645 148.165 37.2002C148.072 37.143 148.015 37.0144 147.979 36.8286L146.336 27.3535C146.3 27.1677 146.321 27.0319 146.386 26.939C146.45 26.8533 146.579 26.789 146.764 26.7604L150.673 26.0959ZM151.38 31.2336C151.923 31.1407 152.316 30.9192 152.567 30.569C152.817 30.2189 152.895 29.783 152.802 29.2542C152.709 28.7255 152.488 28.3324 152.138 28.0823C151.788 27.8323 151.338 27.7536 150.802 27.8537L148.408 28.2681L148.994 31.648L151.38 31.2336Z" fill="#25291C"/>
<path d="M162.192 24.1023C162.378 24.0665 162.513 24.0808 162.599 24.1451C162.685 24.2095 162.742 24.3309 162.778 24.5167L162.906 25.2384C162.942 25.4242 162.928 25.56 162.863 25.6457C162.799 25.7315 162.678 25.7886 162.492 25.8244L159.955 26.2674L161.384 34.5135C161.42 34.6993 161.406 34.835 161.341 34.9208C161.277 35.0065 161.156 35.0637 160.97 35.0994L160.112 35.2495C159.927 35.2852 159.791 35.2709 159.705 35.2066C159.619 35.1423 159.562 35.0208 159.526 34.835L158.097 26.589L155.561 27.032C155.375 27.0677 155.239 27.0534 155.153 26.9891C155.068 26.9248 155.01 26.8033 154.975 26.6175L154.846 25.8958C154.81 25.71 154.825 25.5743 154.889 25.4885C154.953 25.4028 155.075 25.3456 155.26 25.3099L162.192 24.1023Z" fill="#25291C"/>
<path d="M129.215 129.779C129.307 129.765 129.372 129.772 129.422 129.801C129.465 129.829 129.5 129.893 129.515 129.986L129.579 130.358C129.593 130.451 129.586 130.515 129.558 130.565C129.529 130.608 129.465 130.644 129.372 130.658L127.535 130.972L128.536 136.739C128.55 136.832 128.543 136.896 128.514 136.939C128.486 136.982 128.421 137.018 128.329 137.032L127.9 137.103C127.8 137.118 127.735 137.111 127.693 137.082C127.65 137.046 127.621 136.989 127.607 136.896L126.606 131.13L124.77 131.444C124.67 131.458 124.606 131.451 124.563 131.423C124.52 131.387 124.491 131.33 124.477 131.237L124.413 130.865C124.398 130.772 124.406 130.708 124.434 130.665C124.463 130.622 124.527 130.587 124.62 130.572L129.215 129.779Z" fill="#25291C"/>
<path d="M135.26 128.736C135.36 128.722 135.424 128.729 135.467 128.757C135.51 128.793 135.538 128.85 135.553 128.943L136.66 135.331C136.675 135.424 136.668 135.489 136.639 135.531C136.61 135.574 136.546 135.61 136.453 135.624L136.024 135.696C135.924 135.71 135.86 135.703 135.817 135.674C135.774 135.639 135.746 135.581 135.731 135.489L135.246 132.687L131.93 133.259L132.416 136.06C132.43 136.153 132.423 136.217 132.394 136.267C132.366 136.31 132.294 136.346 132.201 136.36L131.773 136.432C131.68 136.446 131.616 136.439 131.566 136.41C131.523 136.382 131.487 136.317 131.473 136.225L130.365 129.836C130.351 129.743 130.358 129.679 130.386 129.629C130.415 129.586 130.479 129.551 130.572 129.536L131.001 129.465C131.101 129.45 131.173 129.458 131.215 129.486C131.258 129.515 131.294 129.579 131.308 129.672L131.78 132.38L135.095 131.809L134.624 129.1C134.61 129.007 134.617 128.943 134.645 128.9C134.674 128.857 134.738 128.822 134.831 128.807L135.26 128.736Z" fill="#25291C"/>
<path d="M143.556 134.131C143.642 134.288 143.599 134.381 143.427 134.417L143.049 134.481C142.891 134.51 142.784 134.51 142.713 134.495C142.648 134.474 142.591 134.424 142.541 134.338L141.662 132.859L138.79 133.359L138.461 135.045C138.447 135.138 138.411 135.21 138.354 135.253C138.297 135.296 138.19 135.324 138.039 135.353L137.696 135.41C137.525 135.438 137.446 135.367 137.475 135.188L138.883 128.307C138.904 128.157 138.997 128.064 139.168 128.036L139.554 127.971C139.726 127.943 139.84 127.993 139.912 128.121L143.556 134.131ZM139.862 129.751C139.683 129.429 139.576 129.136 139.526 128.872L139.469 128.879L139.483 129.015C139.49 129.1 139.497 129.222 139.497 129.372C139.497 129.522 139.483 129.672 139.461 129.808L138.926 132.537L141.276 132.13L139.862 129.751Z" fill="#25291C"/>
<path d="M148.279 126.478C148.372 126.464 148.436 126.471 148.486 126.499C148.529 126.528 148.565 126.592 148.579 126.685L149.687 133.073C149.701 133.166 149.694 133.23 149.665 133.28C149.637 133.323 149.573 133.359 149.48 133.373L149.051 133.445C148.937 133.466 148.837 133.438 148.765 133.366L145.299 129.815C145.107 129.608 144.885 129.336 144.642 128.993C144.399 128.65 144.27 128.471 144.256 128.457L144.206 128.464C144.206 128.479 144.278 128.693 144.406 129.122C144.535 129.543 144.628 129.922 144.685 130.244L145.307 133.831C145.321 133.924 145.314 133.988 145.285 134.038C145.257 134.081 145.185 134.117 145.092 134.131L144.692 134.202C144.599 134.217 144.535 134.209 144.485 134.181C144.442 134.152 144.406 134.088 144.392 133.995L143.284 127.607C143.27 127.514 143.277 127.45 143.306 127.4C143.334 127.357 143.399 127.321 143.492 127.307L143.92 127.235C144.035 127.214 144.128 127.242 144.192 127.321L147.607 130.808C147.829 131.037 148.065 131.323 148.315 131.673C148.565 132.016 148.701 132.202 148.715 132.216L148.765 132.209C148.765 132.187 148.694 131.966 148.565 131.53C148.436 131.094 148.343 130.708 148.286 130.365L147.679 126.849C147.665 126.757 147.672 126.692 147.7 126.649C147.729 126.606 147.793 126.571 147.886 126.556L148.279 126.478Z" fill="#25291C"/>
<path d="M156.204 131.93C156.325 132.087 156.297 132.187 156.111 132.216L155.682 132.287C155.525 132.316 155.41 132.316 155.339 132.302C155.268 132.287 155.196 132.237 155.139 132.152L153.753 130.251C153.553 129.986 153.353 129.815 153.16 129.736C152.96 129.658 152.688 129.651 152.331 129.708L151.573 129.836L152.059 132.652C152.073 132.745 152.066 132.809 152.038 132.859C152.009 132.902 151.938 132.938 151.845 132.952L151.416 133.023C151.323 133.038 151.259 133.03 151.209 133.002C151.166 132.973 151.13 132.909 151.116 132.816L150.008 126.428C149.994 126.335 150.001 126.271 150.03 126.221C150.058 126.178 150.123 126.142 150.216 126.128L150.644 126.056C150.744 126.042 150.816 126.049 150.859 126.078C150.902 126.106 150.937 126.171 150.952 126.264L151.423 128.979L152.102 128.865L152.274 128.836L153.86 125.72C153.917 125.62 153.974 125.549 154.031 125.513C154.089 125.478 154.189 125.449 154.339 125.42L154.817 125.335C154.903 125.32 154.96 125.335 154.996 125.385C155.032 125.435 155.025 125.492 154.989 125.556L153.253 128.857C153.738 128.936 154.174 129.236 154.56 129.758L156.204 131.93Z" fill="#25291C"/>
<path d="M162.992 123.927C163.178 123.891 163.242 123.97 163.171 124.156L161.377 128.464L161.813 130.965C161.827 131.058 161.82 131.123 161.792 131.165C161.763 131.208 161.699 131.244 161.606 131.258L161.177 131.33C161.077 131.344 161.013 131.337 160.97 131.308C160.927 131.273 160.898 131.215 160.884 131.123L160.448 128.6L157.311 125.163C157.254 125.106 157.233 125.049 157.247 124.992C157.261 124.934 157.311 124.899 157.404 124.884L157.926 124.791C158.083 124.763 158.19 124.756 158.254 124.77C158.319 124.784 158.383 124.834 158.462 124.927L160.755 127.557L162.049 124.306C162.092 124.191 162.135 124.12 162.185 124.084C162.235 124.055 162.342 124.02 162.506 123.991L162.992 123.927Z" fill="#25291C"/>
<path d="M163.9 126.178C163.764 125.399 163.892 124.756 164.293 124.234C164.686 123.712 165.322 123.377 166.186 123.227C167.051 123.077 167.758 123.184 168.308 123.541C168.859 123.898 169.202 124.463 169.33 125.242L169.716 127.457C169.852 128.236 169.723 128.879 169.323 129.4C168.93 129.922 168.294 130.258 167.43 130.408C166.565 130.558 165.857 130.451 165.307 130.094C164.757 129.736 164.414 129.172 164.285 128.393L163.9 126.178ZM168.394 125.399C168.301 124.884 168.08 124.513 167.73 124.284C167.372 124.063 166.915 123.998 166.343 124.091C165.772 124.191 165.357 124.406 165.1 124.734C164.843 125.063 164.757 125.492 164.843 126.006L165.229 128.221C165.322 128.736 165.543 129.107 165.893 129.336C166.25 129.558 166.708 129.622 167.279 129.529C167.851 129.429 168.266 129.215 168.523 128.886C168.78 128.557 168.866 128.129 168.78 127.614L168.394 125.399Z" fill="#25291C"/>
<path d="M171.831 127.071C171.917 127.585 172.131 127.957 172.474 128.186C172.817 128.421 173.267 128.486 173.832 128.393C174.396 128.293 174.797 128.078 175.04 127.743C175.283 127.407 175.361 126.985 175.268 126.471L174.525 122.183C174.511 122.09 174.518 122.026 174.547 121.976C174.575 121.933 174.647 121.897 174.739 121.883L175.168 121.812C175.261 121.797 175.325 121.805 175.375 121.833C175.418 121.862 175.454 121.926 175.468 122.019L176.211 126.299C176.347 127.078 176.226 127.728 175.847 128.25C175.468 128.772 174.854 129.115 173.982 129.265C173.125 129.415 172.424 129.307 171.895 128.936C171.367 128.571 171.031 127.993 170.895 127.221L170.152 122.941C170.138 122.848 170.145 122.784 170.173 122.741C170.202 122.698 170.266 122.662 170.359 122.648L170.788 122.576C170.888 122.562 170.952 122.569 170.995 122.598C171.038 122.633 171.067 122.691 171.081 122.784L171.831 127.071Z" fill="#25291C"/>
<path d="M178.219 127.357C178.405 127.321 178.541 127.335 178.627 127.4C178.712 127.457 178.77 127.578 178.798 127.771L178.812 127.85C178.848 128.036 178.834 128.171 178.77 128.25C178.712 128.329 178.584 128.386 178.398 128.421L178.341 128.429C178.155 128.464 178.019 128.45 177.934 128.393C177.848 128.336 177.791 128.214 177.762 128.028L177.748 127.95C177.712 127.764 177.726 127.628 177.791 127.543C177.848 127.457 177.969 127.4 178.162 127.371L178.219 127.357ZM177.34 121.14C177.433 121.126 177.498 121.133 177.541 121.162C177.583 121.19 177.605 121.247 177.612 121.333L178.362 126.278C178.369 126.371 178.362 126.435 178.334 126.471C178.305 126.506 178.248 126.535 178.169 126.549L177.934 126.592C177.848 126.606 177.791 126.599 177.748 126.571C177.712 126.542 177.676 126.485 177.655 126.399L176.705 121.483C176.683 121.397 176.69 121.34 176.719 121.297C176.747 121.254 176.805 121.226 176.897 121.212L177.34 121.14Z" fill="#25291C"/>
<path d="M143.32 56.9937L95.3014 65.3112C94.058 65.5256 92.8719 64.6896 92.6575 63.4462C92.4431 62.2029 93.2792 61.0167 94.5225 60.8024L142.541 52.4848C143.785 52.2705 144.971 53.1065 145.185 54.3498C145.399 55.5932 144.563 56.7794 143.32 56.9937Z" fill="#CCDBFD"/>
<path d="M181.899 50.3054L172.11 51.9989C170.867 52.2133 169.68 51.3772 169.466 50.1339C169.252 48.8905 170.088 47.7044 171.331 47.49L181.121 45.7965C182.364 45.5821 183.55 46.4181 183.764 47.6615C183.979 48.912 183.143 50.091 181.899 50.3054Z" fill="#CCDBFD"/>
<path d="M145.149 67.5549L97.1307 75.8724C95.8873 76.0868 94.7011 75.2507 94.4868 74.0074C94.2724 72.764 95.1084 71.5779 96.3518 71.3635L144.37 63.046C145.614 62.8316 146.8 63.6677 147.014 64.911C147.229 66.1543 146.393 67.3405 145.149 67.5549Z" fill="#CCDBFD"/>
<path d="M183.729 60.8666L173.939 62.5602C172.696 62.7745 171.51 61.9385 171.295 60.6952C171.081 59.4518 171.917 58.2656 173.16 58.0513L182.95 56.3577C184.193 56.1434 185.379 56.9794 185.594 58.2228C185.808 59.4661 184.972 60.6523 183.729 60.8666Z" fill="#CCDBFD"/>
<path d="M146.979 78.1162L98.9599 86.4337C97.7166 86.6481 96.5304 85.812 96.3161 84.5687C96.1017 83.3253 96.9377 82.1392 98.1811 81.9248L146.2 73.6073C147.443 73.3929 148.629 74.2289 148.844 75.4723C149.058 76.7156 148.222 77.9018 146.979 78.1162Z" fill="#CCDBFD"/>
<path d="M185.558 71.4278L175.768 73.1213C174.525 73.3357 173.339 72.4997 173.125 71.2563C172.91 70.013 173.746 68.8268 174.99 68.6124L184.779 66.9189C186.022 66.7045 187.209 67.5406 187.423 68.7839C187.637 70.0273 186.801 71.2134 185.558 71.4278Z" fill="#CCDBFD"/>
<path d="M148.808 88.6774L100.789 96.995C99.5459 97.2093 98.3597 96.3733 98.1453 95.13C97.931 93.8866 98.767 92.7004 100.01 92.4861L148.029 84.1685C149.272 83.9542 150.459 84.7902 150.673 86.0335C150.887 87.2769 150.051 88.4631 148.808 88.6774Z" fill="#CCDBFD"/>
<path d="M187.387 81.9891L177.598 83.6826C176.354 83.897 175.168 83.0609 174.954 81.8176C174.739 80.5742 175.576 79.3881 176.819 79.1737L186.608 77.4802C187.852 77.2658 189.038 78.1019 189.252 79.3452C189.467 80.5885 188.638 81.7747 187.387 81.9891Z" fill="#CCDBFD"/>
<path d="M150.637 99.2387L102.619 107.556C101.375 107.771 100.189 106.935 99.9746 105.691C99.7603 104.448 100.596 103.262 101.84 103.047L149.858 94.7298C151.102 94.5154 152.288 95.3515 152.502 96.5948C152.717 97.8382 151.881 99.0244 150.637 99.2387Z" fill="#CCDBFD"/>
<path d="M189.217 92.5504L179.427 94.2439C178.184 94.4583 176.998 93.6222 176.783 92.3789C176.569 91.1355 177.405 89.9494 178.648 89.735L188.438 88.0415C189.681 87.8271 190.867 88.6631 191.082 89.9065C191.296 91.1498 190.467 92.336 189.217 92.5504Z" fill="#CCDBFD"/>
<path d="M152.467 109.8L104.448 118.118C103.204 118.332 102.018 117.496 101.804 116.253C101.59 115.009 102.426 113.823 103.669 113.609L151.688 105.291C152.931 105.077 154.117 105.913 154.332 107.156C154.546 108.399 153.71 109.586 152.467 109.8Z" fill="#CCDBFD"/>
<path d="M191.053 103.112L181.263 104.805C180.02 105.02 178.834 104.183 178.62 102.94C178.405 101.697 179.241 100.511 180.485 100.296L190.274 98.6027C191.517 98.3884 192.704 99.2244 192.918 100.468C193.125 101.711 192.296 102.897 191.053 103.112Z" fill="#CCDBFD"/>
<path d="M279.016 50.3554C274.443 50.3554 270.727 46.6396 270.727 42.0664C270.727 37.4932 274.443 33.7775 279.016 33.7775C283.589 33.7775 287.305 37.4932 287.305 42.0664C287.305 46.6396 283.589 50.3554 279.016 50.3554ZM279.016 35.2066C275.236 35.2066 272.156 38.2864 272.156 42.0664C272.156 45.8465 275.236 48.9262 279.016 48.9262C282.796 48.9262 285.876 45.8465 285.876 42.0664C285.876 38.2864 282.803 35.2066 279.016 35.2066Z" fill="#ABC3FB"/>
<path d="M46.9397 17.514C47.2756 19.6219 45.8464 21.6013 43.7385 21.9371C41.6305 22.273 39.6512 20.8438 39.3153 18.7359C38.9795 16.6279 40.4086 14.6486 42.5166 14.3127C44.6174 13.9697 46.6039 15.406 46.9397 17.514Z" fill="#ABC3FB"/>
<path d="M39.9727 56.1862C38.365 56.1862 36.8072 55.686 35.4781 54.7213C33.8132 53.5137 32.7199 51.7345 32.3983 49.7122C31.7267 45.5249 34.5921 41.5734 38.7723 40.9088C42.9596 40.2371 46.9111 43.1025 47.5757 47.2827C48.2474 51.4701 45.382 55.4216 41.2018 56.0862C40.7945 56.1576 40.38 56.1862 39.9727 56.1862ZM39.9942 42.2379C39.6655 42.2379 39.3368 42.2665 39.0009 42.3165C35.5924 42.8596 33.263 46.0751 33.8132 49.4836C34.0776 51.1342 34.9708 52.5848 36.3213 53.5637C37.679 54.5427 39.3296 54.9357 40.9803 54.6713C44.3887 54.1283 46.7182 50.9127 46.168 47.5042C45.6749 44.4316 43.0096 42.2379 39.9942 42.2379Z" fill="#ABC3FB"/>
<path d="M265.646 174.625C265.646 177.705 263.095 180.199 259.951 180.199C256.807 180.199 254.256 177.705 254.256 174.625C254.256 171.545 256.807 169.052 259.951 169.052C263.095 169.052 265.646 171.545 265.646 174.625Z" fill="#ABC3FB"/>
<path d="M89.9279 217.513C87.5198 217.513 85.5691 215.555 85.5691 213.147C85.5691 210.739 87.527 208.788 89.9279 208.788C92.336 208.788 94.2867 210.746 94.2867 213.147C94.2939 215.555 92.336 217.513 89.9279 217.513ZM89.9279 209.932C88.1558 209.932 86.7124 211.375 86.7124 213.147C86.7124 214.919 88.1558 216.37 89.9279 216.37C91.7 216.37 93.1434 214.927 93.1434 213.147C93.1506 211.375 91.7072 209.932 89.9279 209.932Z" fill="#ABC3FB"/>
</g>
<defs>
<clipPath id="clip0_294_1592">
<rect width="297.251" height="220" fill="white"/>
</clipPath>
</defs>
</svg>
