<svg width="236" height="182" viewBox="0 0 236 182" fill="none" xmlns="http://www.w3.org/2000/svg">
<g clip-path="url(#clip0_294_1016)">
<path d="M154.537 162.342C205.832 135.664 232.748 85.8341 214.654 51.0424C196.56 16.2507 140.309 9.67241 89.0127 36.3495C37.7169 63.0266 10.8014 112.857 28.8953 147.649C46.9892 182.44 103.241 189.019 154.537 162.342Z" fill="#E1F0FA"/>
<path d="M129.149 157.493L120.996 140.749C122.258 134.343 125.218 127.451 130.945 120.656L142.836 141.817L136.43 114.977C140.312 111.434 145.02 107.988 150.796 104.688L160.648 122.209L155.795 101.97C160.794 99.4465 166.424 97.0197 172.83 94.7386L176.616 106.969L176.276 93.5738C183.944 91.0015 192.632 88.6233 202.387 86.5364C202.387 86.5364 202.387 97.3595 199.718 111.289L182.1 112.065L198.747 115.9C197.485 121.627 195.738 127.693 193.409 133.712L172.733 130.363L191.273 138.808C188.215 145.457 184.381 151.766 179.431 157.154L153.125 151.96L174.674 161.764C169.287 166.326 162.881 169.772 155.212 171.617L136.381 164.337L147.787 172.83C141.283 173.412 134.003 172.879 125.801 170.986C125.801 170.986 119.831 161.182 120.171 147.932L129.149 157.493Z" fill="#7FB8DB"/>
<path d="M128.761 168.025C131.091 164.434 133.566 160.891 136.09 157.396C138.662 153.95 141.283 150.504 143.952 147.107C149.291 140.361 154.97 133.857 160.794 127.499C166.666 121.19 172.685 115.026 178.945 109.105C182.1 106.144 185.255 103.232 188.458 100.369C191.71 97.5536 194.913 94.6901 198.262 91.9722L189.089 101.048C186.031 104.057 182.974 107.066 179.965 110.172C173.946 116.288 167.977 122.452 162.153 128.761C156.329 135.07 150.65 141.477 145.069 148.029C142.302 151.281 139.536 154.63 136.866 157.979L132.838 163.026C131.43 164.628 130.12 166.326 128.761 168.025Z" fill="white"/>
<path d="M61.2015 166.472L50.7181 167.977C47.3208 166.084 43.8748 163.172 40.8657 158.658L54.3582 155.892L38.4875 154.533C37.0801 151.718 35.8182 148.417 34.7504 144.583L45.9133 142.302L33.9253 141.283C33.1973 138.031 32.6149 134.391 32.2752 130.363L39.6524 130.508L32.081 128.13C31.7413 123.325 31.5957 118.035 31.7898 112.162C31.7898 112.162 37.8081 114.152 45.2338 118.229L43.1954 128.276L47.6605 119.637C50.6696 121.432 53.8243 123.519 56.8335 125.946L52.0771 136.963L59.4058 128.082C62.7061 130.994 65.6667 134.343 67.9963 138.128L61.3957 151.912L69.8891 141.623C71.6849 145.505 72.7041 149.728 72.6556 154.387L65.9579 163.609L72.2673 158.755C71.6849 162.541 70.3745 166.521 68.1419 170.743C68.1419 170.743 61.8325 172.296 54.4553 169.627L61.2015 166.472Z" fill="#B5D6EA"/>
<path d="M67.0256 168.608C65.3269 166.618 63.7253 164.579 62.0751 162.541C60.4735 160.454 58.969 158.367 57.4159 156.231C54.4068 151.96 51.5918 147.592 48.8253 143.176C46.156 138.711 43.5351 134.197 41.1084 129.586C39.895 127.257 38.7302 124.975 37.5654 122.646C36.4491 120.316 35.2843 117.938 34.2166 115.56L38.0022 122.403C39.2641 124.684 40.526 126.965 41.8364 129.198C44.4087 133.712 46.981 138.225 49.7475 142.642C52.4169 147.107 55.2318 151.475 58.0953 155.795C59.5514 157.979 61.0074 160.114 62.512 162.25L64.7445 165.453L67.0256 168.608Z" fill="white"/>
<path d="M144.535 162.686L146.33 152.106C149.679 148.854 154.193 145.602 160.405 142.933L159.095 156.62L165.987 140.846C169.724 139.633 173.995 138.614 178.8 137.837L177.732 149.145L182.925 137.255C186.954 136.769 191.322 136.478 196.126 136.381L193.506 143.71L198.699 136.332C204.377 136.332 210.541 136.575 217.287 137.206C217.287 137.206 212.919 143.079 205.736 150.213L194.816 147.447L203.358 152.543C200.3 155.455 196.806 158.415 192.972 161.279L181.857 155.698L189.671 163.657C185.158 166.715 180.304 169.481 175.16 171.52L161.376 163.948L170.452 173.17C165.356 174.674 160.114 175.402 154.775 175.014L146.379 167.637L149.825 174.286C145.651 173.412 141.477 171.811 137.303 169.287C137.303 169.287 137.643 162.881 143.176 155.698L144.535 162.686Z" fill="#B5D6EA"/>
<path d="M140.07 168.316C142.933 166.763 145.845 165.259 148.709 163.803C151.621 162.347 154.581 160.988 157.542 159.629C163.463 156.911 169.481 154.436 175.499 152.009C181.566 149.679 187.682 147.398 193.845 145.311C196.952 144.292 200.009 143.273 203.115 142.254C206.222 141.283 209.328 140.361 212.482 139.487L203.31 142.787C200.252 143.904 197.194 144.971 194.137 146.136C188.021 148.417 181.954 150.65 175.936 153.077C169.869 155.406 163.851 157.93 157.882 160.454C154.872 161.716 151.912 163.026 148.951 164.337L144.486 166.326L140.07 168.316Z" fill="white"/>
<path d="M62.9488 160.842L61.9296 150.601C59.1631 147.592 55.2804 144.68 49.9416 142.399L50.3784 155.698L45.0882 140.652C41.8364 139.633 38.1478 138.856 33.9254 138.371L34.3136 149.388L30.3338 138.031C26.7908 137.788 22.9566 137.691 18.7342 137.837L20.6755 144.874L16.5016 137.934C11.4541 138.225 6.01823 138.808 0 139.778C0 139.778 3.54299 145.311 9.56123 151.863L19.3651 148.612L11.5511 154.047C14.1234 156.717 17.0355 159.483 20.2873 162.056L30.4309 156.037L23.1022 164.191C26.9364 166.957 31.1104 169.384 35.527 171.083L48.0973 162.978L39.6039 172.442C44.0205 173.655 48.6312 174.092 53.3876 173.412L61.2015 165.793L57.8042 172.49C61.5413 171.423 65.327 169.627 69.1126 166.957C69.1126 166.957 69.1611 160.697 64.6475 153.999L62.9488 160.842Z" fill="#7FB8DB"/>
<path d="M66.5888 166.132L62.7546 164.385L58.9204 162.686C56.3481 161.522 53.8243 160.405 51.2035 159.338C46.0589 157.154 40.8657 155.018 35.624 153.077C30.4309 151.038 25.1407 149.145 19.899 147.253C17.2781 146.33 14.6088 145.408 11.9879 144.486L4.02832 141.72C6.74623 142.399 9.41561 143.224 12.1335 143.952C14.8029 144.777 17.4723 145.602 20.1902 146.428C25.5289 148.175 30.8192 150.068 36.0609 152.057C41.3025 154.096 46.4957 156.231 51.5918 158.561C54.1156 159.726 56.6879 160.939 59.1631 162.201C61.6383 163.463 64.1136 164.773 66.5888 166.132Z" fill="white"/>
<path d="M84.8377 123.18C83.1875 123.18 81.4888 123.083 79.7416 122.84L79.9358 121.481C82.411 121.821 84.7892 121.918 87.0217 121.724L87.1188 123.083C86.3423 123.18 85.6143 123.18 84.8377 123.18ZM94.3504 121.627L93.8651 120.365C96.0976 119.54 98.1361 118.375 99.8833 116.87L100.757 117.889C98.9126 119.491 96.7771 120.753 94.3504 121.627ZM72.5586 121.335C70.326 120.704 67.9964 119.879 65.6667 118.909L66.2006 117.647C68.4817 118.617 70.7628 119.394 72.9468 120.025L72.5586 121.335ZM59.1146 115.754C57.0276 114.638 54.8921 113.376 52.8537 112.065L53.5817 110.949C55.6202 112.259 57.7071 113.473 59.7455 114.589L59.1146 115.754ZM105.368 112.017L104.154 111.386C105.174 109.396 105.95 107.163 106.387 104.737L107.697 104.979C107.26 107.6 106.484 109.93 105.368 112.017ZM46.884 107.843C44.9912 106.387 43.0983 104.882 41.254 103.281L42.1277 102.261C43.972 103.863 45.8163 105.368 47.7091 106.775L46.884 107.843ZM35.8668 98.3302C34.8475 97.3109 33.8283 96.2432 32.8091 95.1754C32.1296 94.4474 31.4987 93.768 30.8677 93.0399L31.887 92.1178C32.5179 92.8458 33.1488 93.5253 33.8283 94.2533C34.799 95.321 35.8182 96.3403 36.8374 97.3595L35.8668 98.3302ZM106.921 97.6992C106.824 95.4666 106.581 93.0885 106.096 90.6132L107.406 90.3706C107.891 92.8943 108.183 95.321 108.231 97.6507L106.921 97.6992ZM26.2085 87.4585C24.7039 85.5171 23.2479 83.5758 21.9375 81.5859L23.0537 80.8093C24.3642 82.7507 25.8202 84.6921 27.2762 86.6334L26.2085 87.4585ZM104.3 83.7214C103.572 81.5373 102.747 79.2562 101.776 77.0237L103.038 76.4898C104.009 78.7709 104.882 81.052 105.61 83.3331L104.3 83.7214ZM18.0547 75.422C16.7928 73.2865 15.6766 71.1025 14.6573 68.967L15.8707 68.3846C16.8899 70.4716 18.0062 72.6071 19.2195 74.7426L18.0547 75.422ZM98.6214 70.5686C97.5051 68.4817 96.2918 66.4432 94.9813 64.3563L96.1462 63.6283C97.4566 65.7152 98.7185 67.8022 99.8347 69.8892L98.6214 70.5686ZM11.7938 62.2693C10.9202 59.8911 10.1922 57.5615 9.65833 55.2804L10.9687 54.9406C11.5026 57.1732 12.2306 59.4543 13.0557 61.784L11.7938 62.2693ZM90.9045 58.4836C89.497 56.5908 87.9924 54.698 86.4393 52.8537L87.4585 51.9801C89.0116 53.8243 90.5647 55.7657 91.9722 57.6586L90.9045 58.4836ZM81.6344 47.5149C79.9843 45.7677 78.2371 44.1175 76.4898 42.5159L77.412 41.4967C79.1592 43.0983 80.955 44.8455 82.6051 46.5928L81.6344 47.5149ZM71.054 37.8081C69.1612 36.3035 67.2198 34.8475 65.2784 33.5371L66.055 32.4208C68.0449 33.7798 69.9863 35.2358 71.8791 36.7889L71.054 37.8081ZM59.2117 29.6543C57.1247 28.441 54.9892 27.3247 52.8537 26.3055L53.4361 25.0921C55.5716 26.1114 57.7557 27.2276 59.8912 28.4895L59.2117 29.6543ZM46.2531 23.6361C43.9234 22.811 41.5938 22.1801 39.3612 21.7433L39.6039 20.4329C41.885 20.8697 44.2632 21.5491 46.6413 22.3742L46.2531 23.6361Z" fill="#81CDF2"/>
<path d="M64.8902 181.421H153.999C156.62 181.421 158.804 179.285 158.804 176.616V4.80488C158.804 2.18404 156.668 0 153.999 0H64.8902C62.2694 0 60.0853 2.1355 60.0853 4.80488V176.616C60.1339 179.285 62.2694 181.421 64.8902 181.421Z" fill="#265173"/>
<path d="M64.0166 170.937V6.69767C64.0166 5.14458 65.2785 3.88269 66.8316 3.88269H152.106C153.659 3.88269 154.921 5.14458 154.921 6.69767V170.889C154.921 172.442 153.659 173.704 152.106 173.704H66.8316C65.2785 173.752 64.0166 172.49 64.0166 170.937Z" fill="#E6F9FF"/>
<path d="M145.845 73.7234H73.0924V77.9944H145.845V73.7234Z" fill="#81CDF2"/>
<path d="M143.515 109.687H75.422C74.1602 109.687 73.0924 108.668 73.0924 107.358V91.1471C73.0924 89.8853 74.1116 88.8175 75.422 88.8175H143.515C144.777 88.8175 145.845 89.8367 145.845 91.1471V107.358C145.797 108.619 144.777 109.687 143.515 109.687Z" fill="#B0E7FF"/>
<path d="M144.535 19.1225H74.3543C73.6263 19.1225 73.0924 18.5401 73.0924 17.8606V10.5805C73.0924 9.85248 73.6748 9.3186 74.3543 9.3186H144.535C145.263 9.3186 145.797 9.90101 145.797 10.5805V17.8606C145.797 18.5401 145.263 19.1225 144.535 19.1225Z" fill="#B0E7FF"/>
<path d="M143.515 137.206H75.422C74.1602 137.206 73.0924 136.187 73.0924 134.876V118.666C73.0924 117.404 74.1116 116.336 75.422 116.336H143.515C144.777 116.336 145.845 117.356 145.845 118.666V134.876C145.797 136.138 144.777 137.206 143.515 137.206Z" fill="#B0E7FF"/>
<path d="M143.515 164.725H75.422C74.1602 164.725 73.0924 163.706 73.0924 162.395V146.185C73.0924 144.923 74.1116 143.855 75.422 143.855H143.515C144.777 143.855 145.845 144.874 145.845 146.185V162.395C145.797 163.706 144.777 164.725 143.515 164.725Z" fill="#B0E7FF"/>
<path d="M127.16 40.1863H109.833C109.056 40.1863 108.474 39.5553 108.474 38.8273V30.1397C108.474 29.3632 109.105 28.7808 109.833 28.7808H127.16C127.936 28.7808 128.518 29.4117 128.518 30.1397V38.7788C128.518 39.5553 127.888 40.1863 127.16 40.1863Z" fill="#81CDF2"/>
<path d="M144.438 60.0367H109.784C109.008 60.0367 108.425 59.4058 108.425 58.6778V49.9902C108.425 49.2136 109.056 48.6312 109.784 48.6312H144.438C145.214 48.6312 145.797 49.2622 145.797 49.9902V58.6293C145.797 59.4058 145.214 60.0367 144.438 60.0367Z" fill="#B0E7FF"/>
<path d="M138.225 39.2641C136.235 39.167 135.022 38.3419 134.731 36.7403L135.944 36.4976C136.041 37.08 136.332 37.4683 136.672 37.7595C137.06 38.0507 137.546 38.1963 138.225 38.2449V34.7504C137.4 34.5563 136.818 34.3621 136.478 34.168C136.138 34.0224 135.896 33.8283 135.702 33.5856C135.507 33.3915 135.362 33.1488 135.265 32.9061C135.168 32.6634 135.119 32.3722 135.119 32.0325C135.119 31.3045 135.362 30.7221 135.896 30.3338C136.43 29.897 137.158 29.7029 138.177 29.6543V28.7322H139.05V29.6058C139.924 29.6543 140.603 29.8485 141.089 30.1882C141.574 30.5279 141.914 31.1103 142.108 31.8384L140.895 32.081C140.798 31.6442 140.603 31.3045 140.312 31.0618C140.021 30.8191 139.584 30.6735 139.05 30.625V33.7797C139.875 33.9739 140.506 34.168 140.846 34.3136C141.186 34.4592 141.477 34.6533 141.671 34.896C141.865 35.0902 142.059 35.3328 142.157 35.624C142.254 35.9152 142.302 36.255 142.302 36.6432C142.302 37.4198 142.011 38.0507 141.429 38.5361C140.846 39.0214 140.07 39.2641 139.002 39.3126V40.4774H138.128V39.2641H138.225ZM136.381 31.984C136.381 32.2752 136.43 32.5178 136.575 32.712C136.672 32.9061 136.866 33.0517 137.109 33.1973C137.352 33.3429 137.74 33.44 138.225 33.5856V30.5765C137.012 30.6735 136.381 31.1104 136.381 31.984ZM141.186 36.5947C141.186 36.3035 141.137 36.0123 140.992 35.8182C140.846 35.624 140.701 35.4784 140.458 35.3328C140.215 35.1872 139.778 35.0416 139.099 34.896V38.1963C139.778 38.1478 140.264 38.0022 140.652 37.711C140.992 37.4683 141.186 37.0801 141.186 36.5947Z" fill="#81CDF2"/>
<path d="M74.9853 35.4785C65.5697 49.6505 80.8094 64.8416 94.9329 55.426C95.7094 54.9407 96.3403 54.2612 96.8742 53.4847C106.29 39.3127 91.0501 24.1215 76.9267 33.5371C76.1501 34.071 75.5192 34.7019 74.9853 35.4785Z" fill="#008EB0"/>
<path d="M85.5172 53.4361L77.9944 42.8557L81.1006 40.6716L85.323 46.5443L90.7103 37.9537L93.9136 39.9922L85.5172 53.4361Z" fill="white"/>
<path d="M169.287 155.455C166.812 70.8113 134.44 75.2764 134.44 75.2764H77.5576C77.5576 75.2764 103.96 70.8113 106.435 155.406H169.287V155.455Z" fill="white"/>
<path d="M141.186 84.4979H103.523C102.698 83.3331 101.873 82.2653 101.097 81.3917H138.225C139.196 82.2653 140.215 83.2846 141.186 84.4979Z" fill="#81CDF2"/>
<path d="M147.253 94.0106H108.522C107.794 92.2149 107.066 90.6133 106.29 89.1572H144.535C145.457 90.6133 146.379 92.2149 147.253 94.0106Z" fill="#81CDF2"/>
<path d="M134.148 105.95H112.454C112.017 104.251 111.58 102.601 111.095 101.097H132.498C133.081 102.601 133.615 104.251 134.148 105.95Z" fill="#81CDF2"/>
<path d="M151.912 105.95H137.788C137.255 104.251 136.721 102.601 136.138 101.097H150.262C150.844 102.601 151.378 104.251 151.912 105.95Z" fill="#81CDF2"/>
<path d="M131.236 115.997C128.421 115.997 125.606 115.997 122.743 115.997C123.422 118.812 124.005 121.627 124.49 124.49C127.305 124.49 130.12 124.49 132.984 124.49C132.498 121.627 131.916 118.812 131.236 115.997ZM131.673 123.374C129.586 123.374 127.499 123.374 125.412 123.374C125.024 121.287 124.587 119.2 124.102 117.113C126.189 117.113 128.276 117.113 130.363 117.113C130.848 119.2 131.285 121.287 131.673 123.374Z" fill="#81CDF2"/>
<path d="M129.149 118.714C128.13 118.714 127.111 118.714 126.092 118.714C126.334 119.734 126.529 120.753 126.723 121.772C127.742 121.772 128.761 121.772 129.78 121.772C129.538 120.753 129.344 119.734 129.149 118.714Z" fill="#81CDF2"/>
<path d="M126.383 141.283C129.198 141.283 132.013 141.283 134.876 141.283C134.731 138.468 134.488 135.653 134.197 132.789C131.382 132.789 128.567 132.789 125.703 132.789C125.995 135.653 126.237 138.468 126.383 141.283ZM126.917 133.954C129.004 133.954 131.091 133.954 133.178 133.954C133.372 136.041 133.566 138.128 133.663 140.215C131.576 140.215 129.489 140.215 127.402 140.215C127.305 138.128 127.16 136.041 126.917 133.954Z" fill="#81CDF2"/>
<path d="M128.907 138.613C129.926 138.613 130.945 138.613 131.964 138.613C131.916 137.594 131.819 136.575 131.722 135.556C130.702 135.556 129.683 135.556 128.664 135.556C128.761 136.575 128.858 137.594 128.907 138.613Z" fill="#81CDF2"/>
<path d="M139.584 115.997C140.264 118.812 140.846 121.627 141.332 124.49C144.147 124.49 146.961 124.49 149.825 124.49C149.34 121.675 148.757 118.812 148.078 115.997C145.214 115.997 142.399 115.997 139.584 115.997ZM148.466 123.374C146.379 123.374 144.292 123.374 142.205 123.374C141.817 121.287 141.38 119.2 140.895 117.113C142.982 117.113 145.069 117.113 147.156 117.113C147.689 119.2 148.078 121.287 148.466 123.374Z" fill="#81CDF2"/>
<path d="M145.942 118.714C144.923 118.714 143.904 118.714 142.885 118.714C143.127 119.734 143.321 120.753 143.516 121.772C144.535 121.772 145.554 121.772 146.573 121.772C146.379 120.753 146.185 119.734 145.942 118.714Z" fill="#81CDF2"/>
<path d="M124.878 126.965C124.975 127.645 125.073 128.324 125.17 129.004C125.849 129.004 126.529 129.004 127.208 129.004C127.111 128.324 127.014 127.645 126.917 126.965C126.237 126.965 125.558 126.965 124.878 126.965Z" fill="#81CDF2"/>
<path d="M127.499 131.091C128.179 131.091 128.858 131.091 129.538 131.091C129.441 130.411 129.344 129.732 129.246 129.052C128.567 129.052 127.887 129.052 127.208 129.052C127.354 129.732 127.402 130.411 127.499 131.091Z" fill="#81CDF2"/>
<path d="M129.004 126.965C129.101 127.645 129.198 128.324 129.295 129.004C129.975 129.004 130.654 129.004 131.333 129.004C131.236 128.324 131.139 127.645 131.042 126.965C130.363 126.965 129.683 126.965 129.004 126.965Z" fill="#81CDF2"/>
<path d="M140.312 131.091C139.633 131.091 138.953 131.091 138.274 131.091C138.371 131.77 138.419 132.45 138.517 133.129C139.196 133.129 139.875 133.129 140.555 133.129C140.458 132.45 140.409 131.77 140.312 131.091Z" fill="#81CDF2"/>
<path d="M142.788 135.216C142.739 134.537 142.642 133.857 142.593 133.178C141.914 133.178 141.234 133.178 140.555 133.178C140.652 133.857 140.701 134.537 140.749 135.216C141.429 135.216 142.108 135.216 142.788 135.216Z" fill="#81CDF2"/>
<path d="M140.943 137.254C140.895 136.575 140.846 135.896 140.749 135.216C140.07 135.216 139.39 135.216 138.711 135.216C138.662 134.537 138.565 133.857 138.517 133.178C137.837 133.178 137.158 133.178 136.478 133.178C136.721 135.216 136.866 137.303 137.012 139.341C137.691 139.341 138.371 139.341 139.05 139.341C139.002 138.662 138.953 137.982 138.905 137.303C139.584 137.254 140.264 137.254 140.943 137.254Z" fill="#81CDF2"/>
<path d="M141.768 126.965C141.865 127.645 141.962 128.324 142.06 129.004C143.418 129.004 144.777 129.004 146.185 129.004C146.088 128.324 145.991 127.645 145.894 126.965C144.535 126.965 143.127 126.965 141.768 126.965Z" fill="#81CDF2"/>
<path d="M146.476 131.091C147.156 131.091 147.835 131.091 148.515 131.091C148.418 130.411 148.32 129.732 148.223 129.052C147.544 129.052 146.864 129.052 146.185 129.052C146.282 129.732 146.379 130.411 146.476 131.091Z" fill="#81CDF2"/>
<path d="M148.223 129.004C148.903 129.004 149.582 129.004 150.262 129.004C150.165 128.324 150.068 127.645 149.971 126.965C149.291 126.965 148.612 126.965 147.932 126.965C148.029 127.645 148.126 128.324 148.223 129.004Z" fill="#81CDF2"/>
<path d="M139.147 141.331C141.186 141.331 143.273 141.331 145.311 141.331C145.263 140.652 145.263 139.972 145.214 139.293C143.176 139.293 141.089 139.293 139.05 139.293C139.05 139.972 139.099 140.652 139.147 141.331Z" fill="#81CDF2"/>
<path d="M148.951 135.216C149.631 135.216 150.31 135.216 150.99 135.216C150.941 134.537 150.844 133.857 150.796 133.178C150.699 132.498 150.65 131.819 150.553 131.139C149.873 131.139 149.194 131.139 148.515 131.139C148.612 131.819 148.66 132.498 148.757 133.178C148.854 133.809 148.903 134.488 148.951 135.216Z" fill="#81CDF2"/>
<path d="M146.864 134.634C146.816 134.148 146.767 133.614 146.719 133.129C146.622 132.45 146.573 131.77 146.476 131.091C145.797 131.091 145.117 131.091 144.438 131.091C143.758 131.091 143.079 131.091 142.399 131.091C142.496 131.77 142.545 132.45 142.642 133.129C143.321 133.129 144.001 133.129 144.68 133.129C144.729 133.614 144.777 134.148 144.826 134.634C144.826 134.828 144.874 135.022 144.874 135.216C144.195 135.216 143.516 135.216 142.836 135.216C142.885 135.896 142.982 136.575 143.03 137.255C143.71 137.255 144.389 137.255 145.069 137.255C145.117 137.934 145.166 138.613 145.214 139.293C145.894 139.293 146.573 139.293 147.253 139.293C147.204 138.613 147.156 137.934 147.107 137.255C147.787 137.255 148.466 137.255 149.145 137.255C149.097 136.575 149.048 135.896 148.951 135.216C148.272 135.216 147.592 135.216 146.913 135.216C146.913 135.022 146.864 134.828 146.864 134.634Z" fill="#81CDF2"/>
<path d="M151.475 141.331C151.427 139.973 151.33 138.614 151.232 137.206C150.553 137.206 149.874 137.206 149.194 137.206C149.291 138.565 149.388 139.924 149.437 141.331C150.116 141.331 150.796 141.331 151.475 141.331Z" fill="#81CDF2"/>
<path d="M140.021 129.004C139.924 128.324 139.827 127.645 139.73 126.965C139.05 126.965 138.371 126.965 137.691 126.965C137.594 126.334 137.497 125.703 137.4 125.072C138.08 125.072 138.759 125.072 139.439 125.072C139.147 123.471 138.856 121.869 138.517 120.268C137.837 120.268 137.158 120.268 136.478 120.268C136.624 120.947 136.769 121.627 136.866 122.306C136.187 122.306 135.507 122.306 134.828 122.306C135.265 124.539 135.604 126.771 135.944 129.004C134.44 129.004 132.887 129.004 131.382 129.004C131.479 129.683 131.576 130.363 131.673 131.042C133.857 131.042 136.09 131.042 138.274 131.042C138.177 130.363 138.08 129.683 137.983 129.004C138.662 129.004 139.342 129.004 140.021 129.004Z" fill="#81CDF2"/>
<path d="M138.08 118.229C137.934 117.55 137.789 116.87 137.594 116.191C136.915 116.191 136.235 116.191 135.556 116.191C134.876 116.191 134.197 116.191 133.518 116.191C133.857 117.55 134.148 118.909 134.44 120.268C135.119 120.268 135.799 120.268 136.478 120.268C136.332 119.588 136.187 118.909 136.041 118.229C136.721 118.229 137.4 118.229 138.08 118.229Z" fill="#81CDF2"/>
<path d="M9.65828 46.7384C7.37717 45.0398 5.53287 42.7586 4.31952 40.0407C0.43679 31.4017 4.27099 21.2095 12.9101 17.2782C17.084 15.3854 21.7433 15.2398 26.0628 16.8899C30.3338 18.4916 33.7797 21.6948 35.6726 25.9173C37.5654 30.0912 37.711 34.7505 36.0608 39.0701C34.4592 43.3411 31.256 46.787 27.0335 48.6798C22.8596 50.5726 18.2003 50.7182 13.8807 49.0681C12.3277 48.4857 10.9202 47.7091 9.65828 46.7384ZM29.7029 20.0447C28.4895 19.1225 27.1306 18.3945 25.7231 17.8606C21.6947 16.3075 17.2781 16.4531 13.3469 18.2489C5.19314 21.9375 1.55308 31.5473 5.19314 39.6525C6.9889 43.5837 10.1922 46.5928 14.2205 48.1459C18.2488 49.699 22.6654 49.5534 26.5967 47.7577C30.528 45.9619 33.5371 42.7586 35.0902 38.7303C36.6433 34.702 36.4977 30.2854 34.7019 26.3541C33.5856 23.8303 31.8869 21.6948 29.7029 20.0447Z" fill="#81CDF2"/>
<path d="M8.29932 35.6728C8.44492 35.7699 8.63906 35.7699 8.73613 35.6243L9.75534 34.2653C9.85241 34.1197 9.85241 33.9256 9.70681 33.8285C9.56121 33.7314 9.36707 33.7314 9.27 33.8771L8.25079 35.236C8.15372 35.3816 8.20225 35.5757 8.29932 35.6728Z" fill="#81CDF2"/>
<path d="M10.4834 37.323C10.629 37.42 10.8231 37.42 10.9202 37.2744L11.9394 35.9155C12.0365 35.7699 12.0365 35.5757 11.8909 35.4787C11.7453 35.3816 11.5511 35.3816 11.4541 35.5272L10.4348 36.8862C10.3378 37.0318 10.3378 37.2259 10.4834 37.323Z" fill="#81CDF2"/>
<path d="M12.6675 38.9245C12.8131 39.0216 13.0072 39.0216 13.1043 38.876L14.1235 37.517C14.2205 37.3714 14.2205 37.1773 14.0749 37.0802C13.9293 36.9832 13.7352 36.9832 13.6381 37.1288L12.6189 38.5362C12.5219 38.6333 12.5219 38.8275 12.6675 38.9245Z" fill="#81CDF2"/>
<path d="M14.8515 40.5747C14.9971 40.6717 15.1913 40.6717 15.2883 40.5261L16.3076 39.1672C16.4046 39.0216 16.3561 38.8274 16.259 38.7304C16.1134 38.6333 15.9193 38.6333 15.8222 38.7789L14.803 40.1379C14.7059 40.2835 14.7059 40.4776 14.8515 40.5747Z" fill="#81CDF2"/>
<path d="M17.0355 42.1764C17.1811 42.2734 17.3752 42.2734 17.4723 42.1278L18.4915 40.7689C18.5886 40.6233 18.5886 40.4291 18.443 40.3321C18.2974 40.235 18.1032 40.235 18.0062 40.3806L16.987 41.7881C16.8899 41.9337 16.8899 42.0793 17.0355 42.1764Z" fill="#81CDF2"/>
<path d="M19.2196 43.8265C19.3652 43.9236 19.5593 43.9236 19.6564 43.778L20.6756 42.419C20.7727 42.2734 20.7727 42.0793 20.6271 41.9822C20.4815 41.8851 20.2873 41.8851 20.1903 42.0307L19.171 43.3897C19.0254 43.5353 19.074 43.7294 19.2196 43.8265Z" fill="#81CDF2"/>
<path d="M21.4035 45.4766C21.5491 45.5737 21.7433 45.5737 21.8403 45.4281L22.8596 44.0692C22.9566 43.9236 22.9081 43.7294 22.811 43.6323C22.6654 43.5353 22.4713 43.5353 22.3742 43.6809L21.355 45.0398C21.2094 45.1854 21.2579 45.3796 21.4035 45.4766Z" fill="#81CDF2"/>
<path d="M10.7745 29.8487C10.6289 29.7516 10.4348 29.7516 10.3377 29.8972L9.31851 31.2561C9.22144 31.4018 9.22144 31.5959 9.36704 31.693C9.51264 31.79 9.70678 31.79 9.80385 31.6444L10.8231 30.2855C10.9201 30.1399 10.9201 29.9457 10.7745 29.8487Z" fill="#81CDF2"/>
<path d="M12.9586 31.4988C12.813 31.4017 12.6189 31.4017 12.5218 31.5473L11.5026 32.9063C11.4055 33.0519 11.4055 33.246 11.5511 33.3431C11.6967 33.4402 11.8909 33.4402 11.9879 33.2946L13.0071 31.9356C13.1042 31.79 13.0557 31.5959 12.9586 31.4988Z" fill="#81CDF2"/>
<path d="M15.1427 33.1489C14.9971 33.0519 14.803 33.0519 14.7059 33.1975L13.6867 34.5564C13.5896 34.702 13.5896 34.8962 13.7352 34.9932C13.8808 35.0903 14.0749 35.0903 14.172 34.9447L15.1912 33.5858C15.2883 33.3916 15.2398 33.246 15.1427 33.1489Z" fill="#81CDF2"/>
<path d="M17.3267 34.7506C17.1811 34.6536 16.9869 34.6536 16.8898 34.7992L15.8706 36.1581C15.7736 36.3037 15.7736 36.4979 15.9192 36.5949C16.0648 36.692 16.2589 36.692 16.356 36.5464L17.3752 35.1874C17.4723 35.0418 17.4237 34.8477 17.3267 34.7506Z" fill="#81CDF2"/>
<path d="M19.4622 36.4008C19.3166 36.3037 19.1224 36.3037 19.0254 36.4493L18.0062 37.8083C17.9091 37.9539 17.9576 38.148 18.0547 38.2451C18.2003 38.3421 18.3944 38.3421 18.4915 38.1965L19.5107 36.8376C19.6563 36.692 19.6078 36.4978 19.4622 36.4008Z" fill="#81CDF2"/>
<path d="M21.6462 38.0023C21.5006 37.9053 21.3065 37.9053 21.2094 38.0509L20.1902 39.4098C20.0931 39.5554 20.0931 39.7496 20.2387 39.8466C20.3843 39.9437 20.5785 39.9437 20.6756 39.7981L21.6948 38.4391C21.8404 38.2935 21.7918 38.0994 21.6462 38.0023Z" fill="#81CDF2"/>
<path d="M23.8303 39.6526C23.6847 39.5555 23.4906 39.5555 23.3935 39.7011L22.3743 41.0601C22.2772 41.2057 22.2772 41.3998 22.4228 41.4969C22.5684 41.594 22.7626 41.594 22.8596 41.4484L23.8789 40.0894C23.9759 39.9438 23.9759 39.7497 23.8303 39.6526Z" fill="#81CDF2"/>
<path d="M28.1983 41.9822L30.4795 38.9245L14.3176 26.791L12.0365 29.8487L9.6583 28.1014L7.3772 31.1591L8.59055 32.0812L6.30945 35.0904L22.4713 47.2239L24.7524 44.1662L23.5391 43.2441L25.8202 40.1864L28.1983 41.9822ZM22.4228 46.6415L6.89186 34.9933L8.68762 32.6151L24.17 44.2148L22.4228 46.6415ZM9.75537 28.6838L25.2863 40.332L23.4905 42.7102L7.95961 31.062L9.75537 28.6838ZM14.3661 27.422L29.8485 39.0216L28.0527 41.3998L12.6189 29.8001L14.3661 27.422Z" fill="#81CDF2"/>
<path d="M15.4338 28.5868C15.2882 28.4898 15.0941 28.5383 14.997 28.6354L13.9778 29.9943C13.8807 30.1399 13.8807 30.3341 14.0263 30.4311C14.1719 30.5282 14.3661 30.5282 14.4631 30.3826L15.4824 29.0237C15.5794 28.878 15.5309 28.6839 15.4338 28.5868Z" fill="#81CDF2"/>
<path d="M17.6179 30.2369C17.4723 30.1398 17.2782 30.1883 17.1811 30.2854L16.1619 31.6444C16.0648 31.79 16.0648 31.9841 16.2104 32.0812C16.356 32.1782 16.5502 32.1782 16.6472 32.0326L17.6664 30.6737C17.7635 30.5281 17.715 30.3339 17.6179 30.2369Z" fill="#81CDF2"/>
<path d="M19.7534 31.8386C19.6078 31.7415 19.4137 31.79 19.3166 31.8871L18.2974 33.246C18.2003 33.3916 18.2003 33.5858 18.3459 33.6829C18.4915 33.7799 18.6857 33.7799 18.7827 33.6343L19.8019 32.2754C19.9475 32.1298 19.899 31.9356 19.7534 31.8386Z" fill="#81CDF2"/>
<path d="M21.9374 33.4887C21.7918 33.3916 21.5977 33.4402 21.5006 33.5372L20.4814 34.9447C20.3843 35.0903 20.4328 35.2845 20.5299 35.3815C20.6755 35.4786 20.8697 35.4786 20.9667 35.333L21.9859 33.974C22.083 33.7799 22.083 33.5858 21.9374 33.4887Z" fill="#81CDF2"/>
<path d="M24.1215 35.1388C23.9759 35.0418 23.7817 35.0903 23.6846 35.1874L22.6654 36.5463C22.5684 36.6919 22.5684 36.8861 22.714 36.9831C22.8596 37.0802 23.0537 37.0802 23.1508 36.9346L24.17 35.5757C24.2671 35.3815 24.2671 35.1874 24.1215 35.1388Z" fill="#81CDF2"/>
<path d="M26.3055 36.7405C26.1599 36.6435 25.9658 36.692 25.8687 36.7891L24.8495 38.148C24.7524 38.2936 24.7524 38.4878 24.898 38.5848C25.0436 38.6819 25.2378 38.6819 25.3349 38.5363L26.3541 37.1773C26.4511 37.0317 26.4511 36.8376 26.3055 36.7405Z" fill="#81CDF2"/>
<path d="M28.4895 38.3907C28.3439 38.2936 28.1498 38.3421 28.0527 38.4392L27.0335 39.7982C26.9364 39.9438 26.985 40.1379 27.082 40.235C27.2276 40.332 27.4218 40.332 27.5188 40.1864L28.5381 38.8275C28.6351 38.6819 28.6351 38.4877 28.4895 38.3907Z" fill="#81CDF2"/>
<path d="M33.2944 28.4411L14.2205 21.7434L12.9586 25.3349L32.0325 32.0326L33.2944 28.4411ZM32.7605 28.6838L31.7899 31.4988L13.4925 25.0437L14.4632 22.2287L32.7605 28.6838Z" fill="#81CDF2"/>
<path d="M14.8514 24.8496C14.8029 24.9952 14.8514 25.0923 14.9485 25.1894C14.9485 25.1894 14.997 25.2379 15.0456 25.2379C15.1912 25.2865 15.3853 25.1894 15.4338 25.0438L16.0163 23.4422C16.0648 23.2966 15.9677 23.1024 15.8221 23.0539C15.6765 23.0053 15.4824 23.0539 15.4338 23.248L14.8514 24.8496Z" fill="#81CDF2"/>
<path d="M17.4237 25.7717C17.3752 25.9173 17.4237 26.0629 17.5208 26.1115C17.5693 26.1115 17.5693 26.16 17.6178 26.16C17.7634 26.2085 17.9576 26.1115 18.0061 25.9659L18.5885 24.3157C18.6371 24.1701 18.54 23.976 18.3944 23.9274C18.2488 23.8789 18.0546 23.976 18.0061 24.1216L17.4237 25.7717Z" fill="#81CDF2"/>
<path d="M19.9961 26.6938C19.9476 26.8394 19.9961 26.9365 20.0932 27.0336C20.0932 27.0336 20.1417 27.0821 20.1902 27.0821C20.3358 27.1306 20.53 27.0336 20.5785 26.888L21.1609 25.2378C21.2094 25.0922 21.1609 24.8981 20.9668 24.8495C20.8212 24.801 20.627 24.8981 20.5785 25.0437L19.9961 26.6938Z" fill="#81CDF2"/>
<path d="M22.5684 27.5675C22.5198 27.7131 22.5684 27.8102 22.6654 27.9072C22.6654 27.9072 22.714 27.9558 22.7625 27.9558C22.9081 28.0043 23.1022 27.9072 23.1508 27.7616L23.7332 26.1115C23.7817 25.9659 23.6846 25.7717 23.539 25.7232C23.3934 25.6747 23.1993 25.7232 23.1508 25.9173L22.5684 27.5675Z" fill="#81CDF2"/>
<path d="M25.1407 28.4897C25.0922 28.6353 25.1407 28.7323 25.2378 28.8294C25.2863 28.8294 25.2863 28.8779 25.3349 28.8779C25.4805 28.9265 25.6746 28.8779 25.7232 28.6838L26.3056 27.0822C26.3541 26.9366 26.257 26.7424 26.1114 26.6939C25.9658 26.6454 25.7717 26.7424 25.7232 26.888L25.1407 28.4897Z" fill="#81CDF2"/>
<path d="M27.713 29.4119C27.6645 29.5089 27.713 29.6545 27.8101 29.7516C27.8101 29.7516 27.8586 29.8001 27.9071 29.8001C28.0527 29.8487 28.2469 29.7516 28.2954 29.606L28.8778 27.9558C28.9264 27.8102 28.8778 27.6161 28.6837 27.5676C28.5381 27.519 28.344 27.6161 28.2954 27.7617L27.713 29.4119Z" fill="#81CDF2"/>
<path d="M30.2853 30.2854C30.2367 30.431 30.2853 30.5281 30.3823 30.6251C30.3823 30.6251 30.4309 30.6737 30.4794 30.6737C30.625 30.7222 30.8191 30.6251 30.8677 30.4795L31.4501 28.8294C31.4986 28.6838 31.4016 28.4896 31.256 28.4411C31.1104 28.3926 30.9162 28.4411 30.8677 28.6352L30.2853 30.2854Z" fill="#81CDF2"/>
<path d="M24.8981 180.984H84.6436L82.6052 129.538L26.888 129.586L24.8981 180.984Z" fill="#ED9D22"/>
<path d="M70.1804 143.321C70.1318 143.321 70.0833 143.37 70.0348 143.37C69.695 143.418 69.4038 143.127 69.3553 142.787C68.2875 129.052 63.5797 93.4767 54.7465 93.4767C47.1267 93.4767 42.1276 120.073 40.1377 142.836C40.0892 143.176 39.798 143.418 39.4583 143.418C39.1185 143.37 38.8759 143.079 38.8759 142.739C39.8951 130.897 44.1175 92.2634 54.7465 92.2148C66.5403 92.2148 70.4716 140.652 70.6172 142.69C70.6172 142.982 70.423 143.224 70.1804 143.321Z" fill="#81CDF2"/>
<path d="M97.9419 181.421H47.6605L54.5038 141.671H91.1471L97.9419 181.421Z" fill="#00685D"/>
<path d="M64.8901 151.96V151.912C64.8901 137.255 67.3168 120.171 72.6556 114.929C73.869 113.716 75.2279 113.133 76.6839 113.182C78.14 113.23 79.3533 113.764 80.2755 114.783C83.4787 118.375 82.6051 127.742 81.683 137.594C81.2461 142.448 80.7608 147.495 80.7608 151.96C80.7608 152.203 80.5667 152.446 80.2755 152.446C80.0328 152.446 79.7901 152.252 79.7901 151.96C79.7901 147.447 80.2755 142.399 80.7123 137.497C81.6344 127.839 82.508 118.715 79.5474 115.414C78.8194 114.589 77.8488 114.152 76.6354 114.152C75.4706 114.104 74.3058 114.638 73.2865 115.657C68.0934 120.704 65.8123 137.546 65.8123 152.009C65.8123 152.252 65.6182 152.494 65.3269 152.494C65.1328 152.349 64.9387 152.203 64.8901 151.96Z" fill="#008EB0"/>
<path d="M190.691 141.72C188.458 162.395 183.944 178.945 180.887 180.207C179.091 164.24 178.363 152.543 177.926 140.167C182.683 141.768 188.313 141.817 190.691 141.72Z" fill="#CA5C47"/>
<path d="M174.48 180.062V181.421H183.459C183.459 181.13 183.459 180.304 183.459 180.062H174.48Z" fill="#ED9D22"/>
<path d="M179.625 177.247C178.703 178.412 177.15 179.673 174.48 180.062H183.459C183.411 179.382 183.313 178.897 183.216 178.412C181.663 178.12 180.304 177.538 179.625 177.247Z" fill="#265173"/>
<path d="M201.902 180.45C199.961 164.579 196.272 153.319 193.797 141.72C197.874 141.72 203.649 140.264 206.95 139.293C207.435 157.493 206.853 174.141 201.902 180.45Z" fill="#CA5C47"/>
<path d="M197.388 180.062L197.194 181.421H203.455C203.504 181.13 203.601 180.304 203.601 180.062H197.388Z" fill="#ED9D22"/>
<path d="M200.64 177.247C199.864 178.412 198.844 179.334 197.437 180.062H203.698C203.746 179.382 203.746 178.897 203.746 178.412C202.873 178.266 201.514 176.713 200.64 177.247Z" fill="#265173"/>
<path d="M180.693 69.8407C180.159 70.9084 181.081 76.9267 178.412 88.8176C178.412 88.8176 171.228 83.0905 169.433 80.3726C169.433 80.3726 166.666 78.8681 166.666 82.7993C166.715 85.6628 173.364 98.1846 178.023 97.5052C184.964 96.4374 184.964 76.1016 180.693 69.8407Z" fill="#9C2622"/>
<path d="M176.955 140.167C176.373 121.724 179.528 102.261 179.528 102.261L192.535 104.931C192.632 116.288 192.923 129.538 191.661 142.011C189.332 142.108 181.712 141.914 176.955 140.167Z" fill="#265173"/>
<path d="M188.167 111.968L192.486 114.492C192.292 121.578 192.486 133.226 191.855 140.555C188.264 129.974 188.167 111.968 188.167 111.968Z" fill="#22365B"/>
<path d="M201.417 98.8641C204.232 101.339 207.144 119.637 207.629 139.293C204.329 140.361 197.485 142.06 193.409 142.06C190.108 124.927 187.73 112.405 187.682 106.047L201.417 98.8641Z" fill="#265173"/>
<path d="M177.878 108.959C177.878 108.959 197.874 111.629 205.494 107.794C204.523 94.7872 203.698 71.1511 198.699 67.7052C198.699 67.7052 186.177 67.2198 180.45 69.7436C177.975 73.141 177.829 93.4283 177.878 108.959Z" fill="#C93B38"/>
<path d="M185.643 68.3847C185.497 69.9863 185.497 73.6264 187.924 73.1896C190.448 72.7528 192.147 69.1127 192.729 67.7538C190.497 67.8509 187.973 68.045 185.643 68.3847Z" fill="#9C2622"/>
<path d="M193.02 98.4273C198.505 94.8358 201.902 85.0804 201.708 76.8781L196.709 70.4231C196.709 70.4231 189.671 81.7801 188.701 86.0025C188.701 86.0025 182.731 83.4302 178.412 81.0521C178.314 84.6921 177.878 89.5455 177.926 93.8165C180.984 96.1947 188.798 101.194 193.02 98.4273Z" fill="#9C2622"/>
<path d="M198.747 67.7538C196.563 68.4818 194.525 77.5091 189.623 89.3515C189.623 89.3515 176.616 82.2655 173.315 79.499C173.315 79.499 170.161 79.9359 170.889 82.7994C171.617 85.6629 183.119 98.4759 191.467 97.5052C197.583 96.7287 206.464 73.9662 198.747 67.7538Z" fill="#C93B38"/>
<path d="M169.19 80.7609C169.19 80.7609 167.977 78.8681 167.443 78.4313C166.909 77.9945 165.065 77.2179 161.716 77.8974C161.716 77.8974 163.317 81.586 166.763 80.8094L167.346 82.3625C168.608 82.6537 169.287 82.2169 169.19 80.7609Z" fill="#AB4B38"/>
<path d="M166.229 80.6153L169.093 80.2756C169.384 80.227 169.384 79.9844 169.19 79.7417L164.385 73.6264C164.191 73.3352 163.803 73.1896 163.512 73.1896L160.648 73.5293C160.357 73.5778 160.357 73.8205 160.551 74.0632L165.356 80.1785C165.599 80.4697 165.987 80.6638 166.229 80.6153Z" fill="#265173"/>
<path d="M164.337 76.0045C165.113 76.6355 166.084 78.5768 164.288 80.6638C164.288 80.6638 162.395 79.8873 161.716 77.9459C161.425 77.1693 163.754 75.5192 164.337 76.0045Z" fill="#CA5C47"/>
<path d="M164.531 75.9074C164.385 76.5383 164.919 78.0914 166.666 78.7224C168.414 79.3533 169.578 79.8872 169.578 79.8872L171.326 82.2168C171.326 82.2168 173.898 82.3624 173.218 79.9357C170.112 78.3341 168.899 73.7234 166.424 75.5191C166.424 75.4706 164.676 75.4221 164.531 75.9074Z" fill="#CA5C47"/>
<path d="M191.855 67.7537C191.855 67.7537 189.671 61.3957 184.575 53.4846C183.75 52.2227 178.12 54.9892 177.878 56.2511C177.635 57.513 180.547 65.424 182.488 66.5403C182.488 66.5403 184.478 66.3462 185.255 65.5696C185.255 65.5696 185.74 67.8022 185.886 68.5787C187.293 76.9266 191.855 67.7537 191.855 67.7537Z" fill="#CA5C47"/>
<path d="M188.749 60.7163C188.749 60.7163 187.051 60.0853 185.643 58.8234C186.759 57.0762 184.77 55.8143 184.333 57.6586C183.799 57.1248 183.313 56.5909 183.313 56.5909C183.313 56.5909 181.275 57.4645 179.722 57.8042C178.169 58.144 175.985 57.9984 175.888 55.9599C175.839 55.0378 177.247 54.1642 178.509 54.7951C178.509 54.7951 178.314 50.5726 181.955 53.0479C181.955 53.0479 181.906 51.058 184.187 51.1551C184.867 51.2036 186.371 52.7081 185.643 54.1156C186.42 54.2612 187.876 55.6687 187.245 56.9791C187.293 57.0277 188.555 57.1247 188.749 60.7163Z" fill="#22365B"/>
<path d="M212.046 12.2791H167.685C166.86 12.2791 166.181 11.5997 166.181 10.7746V1.50456C166.181 0.679478 166.86 0 167.685 0H212.046C212.871 0 213.55 0.679478 213.55 1.50456V10.8231C213.502 11.6482 212.871 12.2791 212.046 12.2791Z" fill="#ED9D22"/>
<path d="M171.762 2.28113L172.976 4.70783L175.645 5.09611L173.704 6.94041L174.14 9.60978L171.762 8.3479L169.384 9.60978L169.821 6.94041L167.928 5.09611L170.549 4.70783L171.762 2.28113Z" fill="white"/>
<path d="M180.79 2.28113L182.003 4.70783L184.672 5.09611L182.731 6.94041L183.168 9.60978L180.79 8.3479L178.411 9.60978L178.848 6.94041L176.955 5.09611L179.625 4.70783L180.79 2.28113Z" fill="white"/>
<path d="M189.817 2.28113L191.03 4.70783L193.7 5.09611L191.758 6.94041L192.244 9.60978L189.817 8.3479L187.439 9.60978L187.924 6.94041L185.983 5.09611L188.652 4.70783L189.817 2.28113Z" fill="white"/>
<path d="M198.893 2.28113L200.058 4.70783L202.727 5.09611L200.786 6.94041L201.271 9.60978L198.893 8.3479L196.466 9.60978L196.951 6.94041L195.01 5.09611L197.68 4.70783L198.893 2.28113Z" fill="white"/>
<path d="M207.92 2.28113L209.085 4.70783L211.754 5.09611L209.862 6.94041L210.298 9.60978L207.92 8.3479L205.542 9.60978L205.979 6.94041L204.038 5.09611L206.707 4.70783L207.92 2.28113Z" fill="white"/>
<path d="M222.675 34.7504H228.741C229.421 34.7504 230.052 34.2651 230.197 33.5856L231.362 28.0527C231.556 27.1306 230.828 26.257 229.906 26.257H226.654C226.654 26.257 227.965 24.2671 228.159 21.5491C228.208 21.1123 227.868 20.6755 227.431 20.5785L227.14 20.4814C226.654 20.3358 226.121 20.6755 225.975 21.1609C225.684 22.4228 224.859 24.6068 222.675 26.1114V34.7504Z" fill="#60C6FC"/>
<path d="M221.461 26.1599H218.792V34.7505H221.461V26.1599Z" fill="#60C6FC"/>
<path d="M232.867 38.4876H216.705C215.492 38.4876 214.472 37.5169 214.472 36.255V20.0932C214.472 18.8798 215.443 17.8606 216.705 17.8606H232.867C234.08 17.8606 235.099 18.8313 235.099 20.0932V36.255C235.051 37.4684 234.08 38.4876 232.867 38.4876ZM216.705 18.3945C215.783 18.3945 215.006 19.171 215.006 20.0932V36.255C215.006 37.1772 215.783 37.9537 216.705 37.9537H232.867C233.789 37.9537 234.566 37.1772 234.566 36.255V20.0932C234.566 19.171 233.789 18.3945 232.867 18.3945H216.705Z" fill="#60C6FC"/>
<path d="M201.708 27.7615L197.291 20.2872C197 19.8019 196.418 19.6563 195.981 19.9475L185.546 26.1113C185.158 26.354 184.915 26.6938 184.818 27.1306L183.556 32.712C183.459 33.1973 183.75 33.7312 184.236 33.8768L189.768 35.4784C190.205 35.5755 190.642 35.527 190.982 35.3328L201.417 29.169C201.805 28.8293 201.999 28.1983 201.708 27.7615ZM186.759 31.5472C187.002 31.9354 186.856 32.4693 186.468 32.712C186.08 32.9547 185.546 32.8091 185.303 32.4208C185.061 32.0325 185.206 31.4986 185.595 31.256C185.983 30.9648 186.517 31.1104 186.759 31.5472Z" fill="#81CDF2"/>
<path d="M193.894 23.6361L193.214 31.256L192.535 31.6928L193.214 24.0729L193.894 23.6361ZM197.777 26.7908C197.971 27.1306 198.068 27.5188 197.922 27.9556C197.825 28.3439 197.534 28.6837 197.049 28.9749C196.612 29.2175 196.175 29.3146 195.738 29.2661C195.301 29.2175 194.962 28.9749 194.719 28.5381C194.476 28.1012 194.428 27.713 194.573 27.2762C194.719 26.8879 195.01 26.5482 195.447 26.3055C195.884 26.0628 196.272 25.9657 196.709 26.0143C197.194 26.0628 197.534 26.3055 197.777 26.7908ZM196.806 28.5381C197 28.3925 197.146 28.2469 197.243 28.0042C197.291 27.81 197.243 27.5188 197 27.1306C196.806 26.7908 196.612 26.5967 196.369 26.5482C196.126 26.4996 195.932 26.5482 195.738 26.6452C195.544 26.7908 195.398 26.9364 195.301 27.1791C195.253 27.3732 195.301 27.6644 195.544 28.0527C195.738 28.3925 195.932 28.5866 196.175 28.6351C196.369 28.6837 196.612 28.6837 196.806 28.5381ZM191.661 26.7908C191.855 27.1791 191.953 27.5188 191.855 27.9556C191.758 28.3439 191.467 28.6837 190.982 28.9749C190.545 29.2175 190.108 29.3146 189.671 29.2661C189.235 29.2175 188.895 28.9749 188.652 28.5381C188.41 28.1012 188.361 27.713 188.507 27.2762C188.652 26.8879 188.943 26.5482 189.38 26.3055C189.817 26.0628 190.205 25.9657 190.642 26.0143C191.079 26.0628 191.419 26.3055 191.661 26.7908ZM190.691 28.5381C190.885 28.3925 191.03 28.2469 191.127 28.0042C191.176 27.81 191.127 27.5188 190.885 27.1306C190.691 26.7908 190.496 26.5967 190.254 26.5482C190.011 26.4996 189.817 26.5482 189.623 26.6452C189.38 26.7908 189.283 26.9364 189.186 27.1791C189.138 27.3732 189.186 27.6644 189.429 28.0527C189.623 28.3925 189.817 28.5866 190.06 28.6351C190.254 28.7322 190.496 28.6837 190.691 28.5381Z" fill="white"/>
</g>
<defs>
<clipPath id="clip0_294_1016">
<rect width="235.051" height="181.421" fill="white"/>
</clipPath>
</defs>
</svg>
