<svg width="48" height="43" viewBox="0 0 48 43" fill="none" xmlns="http://www.w3.org/2000/svg">
<rect opacity="0.5" x="0.4" y="0.4" width="47.2" height="42.2" stroke="black" stroke-width="0.8" stroke-dasharray="2 2"/>
<path opacity="0.2" d="M16.2786 16.6465C16.2786 17.7039 15.4386 18.5581 14.3988 18.5581C13.3591 18.5581 12.519 17.7039 12.519 16.6465V14.7349C12.519 11.5675 14.9921 9 18.1583 9C21.2717 9 23.7976 11.5675 23.7976 14.7349V15.2008C23.7976 16.4434 23.7271 17.6859 23.5861 18.9225L30.7762 16.7241C31.4459 16.521 32.1743 16.7122 32.6149 17.2259C33.1553 17.7397 33.3198 18.4864 33.1024 19.1615L32.0451 22.3276H36.956C37.9957 22.3276 38.8357 23.2356 38.8357 24.2392C38.8357 25.3503 37.9957 26.1508 36.956 26.1508H29.4369C28.8319 26.1508 28.2679 25.9119 27.9096 25.4101C27.5571 24.9143 27.4632 24.2691 27.6511 23.6896L28.3854 21.4494L22.8401 23.14C22.147 26.2942 20.9897 29.3229 19.4096 32.1306L18.593 33.5823C17.8352 34.9324 16.4254 35.7627 14.8981 35.7627C12.5484 35.7627 10.5864 33.8212 10.5864 31.4317V27.1365C10.5864 24.6036 12.2723 22.3694 14.6573 21.6466L19.6151 20.1292C19.8971 18.5043 19.9852 16.8556 19.9852 15.2008V14.7349C19.9852 13.6775 19.1981 12.8232 18.1055 12.8232C17.1186 12.8232 16.2257 13.6775 16.2257 14.7349L16.2786 16.6465ZM14.3988 27.1365V31.4317C14.3988 31.7125 14.622 31.9395 14.8981 31.9395C15.0743 31.9395 15.2447 31.8439 15.3328 31.6826L16.1493 30.231C17.1773 28.391 18.0056 26.4495 18.6165 24.4304L15.7381 25.2548C14.9451 25.5475 14.3988 26.2942 14.3988 27.1365ZM6.40982 29.072H8.75952V31.4317C8.75952 31.6049 8.76599 31.7722 8.7795 31.9395H6.40982C5.63148 31.9395 5 31.3003 5 30.5058C5 29.7112 5.63148 29.072 6.40982 29.072ZM41.1854 31.9395H21.6535C22.1352 31.0016 22.5758 30.0458 22.9693 29.072H41.1854C41.9667 29.072 42.5952 29.7112 42.5952 30.5058C42.5952 31.3003 41.9667 31.9395 41.1854 31.9395Z" fill="black"/>
</svg>
