<svg width="48" height="43" viewBox="0 0 48 43" fill="none" xmlns="http://www.w3.org/2000/svg">
<rect opacity="0.5" x="0.4" y="0.4" width="47.2" height="42.2" stroke="black" stroke-width="0.8" stroke-dasharray="2 2"/>
<g opacity="0.2">
<path fill-rule="evenodd" clip-rule="evenodd" d="M24 7.99996C20.6763 8.00041 17.4611 9.18334 14.9297 11.3372C12.3982 13.491 10.7156 16.4752 10.1829 19.7559C9.65012 23.0366 10.302 26.3999 12.0218 29.2441C13.7416 32.0883 16.4172 34.2278 19.57 35.28C20.27 35.41 20.57 34.98 20.57 34.61V32.23C16.68 33.07 15.86 30.35 15.86 30.35C15.5864 29.4928 15.0107 28.7642 14.24 28.3C12.97 27.44 14.34 27.45 14.34 27.45C14.7836 27.5126 15.207 27.6758 15.5779 27.9271C15.9488 28.1785 16.2573 28.5112 16.48 28.9C16.8673 29.5947 17.5147 30.1072 18.2798 30.3247C19.0449 30.5422 19.8651 30.447 20.56 30.06C20.6164 29.3504 20.9292 28.6857 21.44 28.19C18.34 27.83 15.07 26.63 15.07 21.27C15.0473 19.8779 15.5632 18.5308 16.51 17.51C16.0814 16.3042 16.1315 14.9799 16.65 13.81C16.65 13.81 17.82 13.43 20.5 15.24C22.7915 14.6149 25.2085 14.6149 27.5 15.24C30.17 13.43 31.34 13.81 31.34 13.81C31.8584 14.9799 31.9085 16.3042 31.48 17.51C32.4268 18.5308 32.9426 19.8779 32.92 21.27C32.92 26.65 29.65 27.83 26.53 28.18C26.8642 28.5187 27.1219 28.9252 27.2858 29.372C27.4497 29.8187 27.5159 30.2954 27.48 30.77V34.61C27.48 35.07 27.73 35.42 28.48 35.28C31.6369 34.2265 34.3153 32.0828 36.0348 29.2334C37.7544 26.384 38.4026 23.0152 37.8633 19.7311C37.324 16.4471 35.6324 13.4625 33.0918 11.3127C30.5513 9.16292 27.328 7.98846 24 7.99996Z" fill="black"/>
</g>
</svg>
