<svg width="48" height="43" viewBox="0 0 48 43" fill="none" xmlns="http://www.w3.org/2000/svg">
<rect opacity="0.5" x="0.4" y="0.4" width="47.2" height="42.2" stroke="black" stroke-width="0.8" stroke-dasharray="2 2"/>
<g opacity="0.2">
<path d="M10 10.7L12.7 8L15.4 10.025L18.1 8L20.8 10.025L23.5 8L26.2 10.025L28.9 8L31.6 10.025L34.3 8L37 10.7L34.975 13.4L37 16.1L34.975 18.8L37 21.5L34.975 24.2L37 26.9L34.975 29.6L37 32.3L34.3 35L31.6 32.975L28.9 35L26.2 32.975L23.5 35L20.8 32.975L18.1 35L15.4 32.975L12.7 35L10 32.3L12.025 29.6L10 26.9L12.025 24.2L10 21.5L12.025 18.8L10 16.1L12.025 13.4L10 10.7Z" stroke="black" stroke-width="2.84211" stroke-linecap="round" stroke-linejoin="round"/>
<path d="M23.5 27.8947C27.0317 27.8947 29.8948 25.0317 29.8948 21.5C29.8948 17.9682 27.0317 15.1052 23.5 15.1052C19.9683 15.1052 17.1053 17.9682 17.1053 21.5C17.1053 25.0317 19.9683 27.8947 23.5 27.8947Z" stroke="black" stroke-width="2.84211" stroke-linecap="round" stroke-linejoin="round"/>
</g>
</svg>
