<svg xmlns="http://www.w3.org/2000/svg" width="38" height="38" viewBox="0 0 38 38">
  <g id="contributor_goal_icon" transform="translate(-1237 -860)">
    <rect id="Rectangle_886" data-name="Rectangle 886" width="38" height="38" rx="17" transform="translate(1237 860)" fill="#0d0d0d"/>
    <g id="Group_11737" data-name="Group 11737" transform="translate(1220 553)">
      <g id="Group_11736" data-name="Group 11736" transform="translate(25 315)">
        <g id="Group_11734" data-name="Group 11734" transform="translate(0 0)">
          <g id="Group_11723" data-name="Group 11723" transform="translate(0 0)">
            <g id="Group_11722" data-name="Group 11722">
              <path id="Path_893" data-name="Path 893" d="M976.737,285.792a8.687,8.687,0,1,1-3.394.684,8.664,8.664,0,0,1,3.394-.684m0-2.363a11.084,11.084,0,1,0,11.084,11.084,11.084,11.084,0,0,0-11.084-11.084Z" transform="translate(-965.653 -283.429)" fill="#fff"/>
            </g>
          </g>
        </g>
      </g>
      <path id="Icon_awesome-user-circle" data-name="Icon awesome-user-circle" d="M6.6.563a6.6,6.6,0,1,0,6.6,6.6A6.594,6.594,0,0,0,6.6.563Zm0,2.553a2.34,2.34,0,1,1-2.34,2.34A2.34,2.34,0,0,1,6.6,3.115Zm0,9.148A5.1,5.1,0,0,1,2.7,10.45a2.965,2.965,0,0,1,2.619-1.59.651.651,0,0,1,.189.029A3.521,3.521,0,0,0,6.6,9.072a3.508,3.508,0,0,0,1.088-.183.651.651,0,0,1,.189-.029,2.965,2.965,0,0,1,2.619,1.59A5.1,5.1,0,0,1,6.6,12.263Z" transform="translate(29.489 318.926)" fill="#fff"/>
    </g>
  </g>
</svg>
