<svg width="21" height="19" viewBox="0 0 21 19" fill="none" xmlns="http://www.w3.org/2000/svg">
<path d="M3.79175 14.7498H7.85508C7.9812 14.7505 8.10623 14.7284 8.22299 14.6849C8.33975 14.6413 8.44595 14.5772 8.5355 14.4961L15.1672 8.43232L17.8888 5.99982C17.9787 5.91848 18.0499 5.82171 18.0986 5.71508C18.1473 5.60845 18.1723 5.49408 18.1723 5.37857C18.1723 5.26306 18.1473 5.1487 18.0986 5.04207C18.0499 4.93544 17.9787 4.83867 17.8888 4.75732L13.8255 1.00357C13.7364 0.921562 13.6304 0.856467 13.5136 0.812045C13.3969 0.767622 13.2716 0.744751 13.1451 0.744751C13.0186 0.744751 12.8933 0.767622 12.7765 0.812045C12.6597 0.856467 12.5538 0.921562 12.4647 1.00357L9.76217 3.47982L3.11133 9.54357C3.02251 9.62533 2.95224 9.7223 2.90455 9.82891C2.85686 9.93551 2.83269 10.0497 2.83341 10.1648V13.8748C2.83341 14.1069 2.93438 14.3294 3.1141 14.4935C3.29383 14.6576 3.53758 14.7498 3.79175 14.7498ZM13.1451 2.85857L15.8572 5.33482L14.4963 6.57732L11.7842 4.10107L13.1451 2.85857ZM4.75008 10.5236L10.433 5.33482L13.1451 7.81107L7.46216 12.9998H4.75008V10.5236ZM19.1251 16.4998H1.87508C1.62092 16.4998 1.37716 16.592 1.19744 16.7561C1.01771 16.9202 0.916748 17.1428 0.916748 17.3748C0.916748 17.6069 1.01771 17.8294 1.19744 17.9935C1.37716 18.1576 1.62092 18.2498 1.87508 18.2498H19.1251C19.3792 18.2498 19.623 18.1576 19.8027 17.9935C19.9824 17.8294 20.0834 17.6069 20.0834 17.3748C20.0834 17.1428 19.9824 16.9202 19.8027 16.7561C19.623 16.592 19.3792 16.4998 19.1251 16.4998Z" fill="#838383"/>
</svg>
