<svg width="28" height="28" viewBox="0 0 28 28" fill="none" xmlns="http://www.w3.org/2000/svg">
<path d="M7.00008 2.33325C6.38124 2.33325 5.78775 2.57908 5.35017 3.01667C4.91258 3.45425 4.66675 4.04775 4.66675 4.66659V23.3333C4.66675 23.9521 4.91258 24.5456 5.35017 24.9832C5.78775 25.4208 6.38124 25.6666 7.00008 25.6666H21.0001C21.6189 25.6666 22.2124 25.4208 22.65 24.9832C23.0876 24.5456 23.3334 23.9521 23.3334 23.3333V9.33325L16.3334 2.33325M15.1667 4.08325L21.5834 10.4999H15.1667M11.7251 13.0899L15.0267 16.3916L17.5001 13.9183V22.1666H9.25175L11.7251 19.6933L8.42341 16.3916" fill="#2850E7"/>
</svg>
