<svg width="47" height="52" viewBox="0 0 47 52" fill="none" xmlns="http://www.w3.org/2000/svg">
<path d="M37.3865 3.49839L34.2353 0H9.41993C7.62958 0 6.93762 1.32733 6.93762 2.36399V11.7016H10.418V4.25209C10.418 3.85595 10.7524 3.52154 11.1383 3.52154H28.8952C29.2862 3.52154 29.4817 3.59099 29.4817 3.91254V16.3112H42.1196C42.6161 16.3112 42.809 16.5685 42.809 16.944V47.2205C42.809 47.8533 42.5517 47.9485 42.1659 47.9485H11.1383C10.9469 47.9439 10.7649 47.8651 10.6305 47.7288C10.4961 47.5925 10.4199 47.4094 10.418 47.218V44.4501H6.96077V48.8103C6.91447 50.3537 7.73762 51.4469 9.41993 51.4469H43.8842C45.6849 51.4469 46.2997 50.1427 46.2997 48.9543V13.3428L45.3993 12.3653L37.3839 3.50096L37.3865 3.49839ZM33.0186 3.90997L34.0141 5.02636L40.6919 12.3653L41.0598 12.8103H34.2353C33.7209 12.8103 33.3942 12.7254 33.2579 12.553C33.1215 12.3858 33.0418 12.1157 33.0186 11.7479V3.90997V3.90997ZM30.2148 27.4392H41.9884V30.8707H30.2122V27.4392H30.2148ZM30.2148 20.5813H41.9884V24.0103H30.2122V20.5788L30.2148 20.5813ZM30.2148 34.2997H41.9884V37.7312H30.2122V34.2997H30.2148ZM0 14.472V41.9112H26.9196V14.472H0ZM13.4611 30.4308L11.8148 32.9466H13.4611V36.0128H5.18585L11.1897 26.9839L5.87009 18.8656H10.3151L13.4637 23.5884L16.6096 18.8656H21.0521L15.7222 26.9839L21.7338 36.0128H17.1215L13.4611 30.4308Z" fill="black"/>
</svg>
