<svg xmlns="http://www.w3.org/2000/svg" width="215.404" height="137.087" viewBox="0 0 215.404 137.087">
  <g id="empty-box_1_" data-name="empty-box (1)" transform="translate(-81.096 -100.775)">
    <path id="Path_1156" data-name="Path 1156" d="M296.5,153.751v-8.033a5.776,5.776,0,0,0-5.776-5.776H270.339a5.776,5.776,0,0,1-5.776-5.776v-8.033a5.776,5.776,0,0,1,5.776-5.776h.644a5.776,5.776,0,0,0,5.776-5.776V106.55a5.776,5.776,0,0,0-5.776-5.776H120a5.776,5.776,0,0,0-5.776,5.776v8.033A5.776,5.776,0,0,0,120,120.358h0a5.776,5.776,0,0,1,5.776,5.776v8.033A5.776,5.776,0,0,1,120,139.942H97.67a5.776,5.776,0,0,0-5.776,5.776v8.033a5.776,5.776,0,0,0,5.776,5.776h8.764a5.776,5.776,0,0,1,5.776,5.776v8.033a5.776,5.776,0,0,1-5.776,5.776h-.021a5.776,5.776,0,0,0-5.776,5.776v8.033a5.776,5.776,0,0,0,5.776,5.776h1.268a5.776,5.776,0,0,1,5.776,5.776V212.5a5.776,5.776,0,0,1-5.776,5.776H86.871a5.776,5.776,0,0,0-5.776,5.776v8.033a5.775,5.775,0,0,0,5.775,5.775H274.083a5.776,5.776,0,0,0,5.776-5.776v-8.033a5.776,5.776,0,0,0-5.776-5.776h-5.008A5.776,5.776,0,0,1,263.3,212.5V204.47a5.776,5.776,0,0,1,5.776-5.776h11.808a5.776,5.776,0,0,0,5.775-5.775v-8.033a5.776,5.776,0,0,0-5.776-5.776H277.3a5.776,5.776,0,0,1-5.776-5.776V165.3a5.776,5.776,0,0,1,5.775-5.775h13.424a5.776,5.776,0,0,0,5.775-5.776Z" fill="#eee"/>
    <rect id="Rectangle_939" data-name="Rectangle 939" width="70.581" height="64.223" transform="translate(141.356 158.631)" fill="#b1b1b1"/>
    <rect id="Rectangle_940" data-name="Rectangle 940" width="37.516" height="64.223" transform="translate(211.937 158.631)" fill="#878787"/>
    <path id="Path_1157" data-name="Path 1157" d="M414.917,209.306H377.4l12.85-17.528a1.325,1.325,0,0,1,1.068-.541h34.231a1.325,1.325,0,0,1,1.068,2.108Z" transform="translate(-165.464 -50.516)" fill="#777"/>
    <path id="Path_1158" data-name="Path 1158" d="M202.834,209.306H240.35L227.5,191.778a1.325,1.325,0,0,0-1.068-.541H192.2a1.325,1.325,0,0,0-1.068,2.108Z" transform="translate(-61.304 -50.516)" fill="#878787"/>
    <path id="Path_1159" data-name="Path 1159" d="M483.527,255.561l-21.165-23.4h0v25.594h20.162a1.325,1.325,0,0,0,1-2.19Z" transform="translate(-212.908 -73.367)" fill="#777"/>
    <path id="Path_1161" data-name="Path 1161" d="M239.158,257.751H172.076a1.325,1.325,0,0,1-1-2.19l20.189-23.4h70.581l-21.682,25.134A1.325,1.325,0,0,1,239.158,257.751Z" transform="translate(-50.066 -73.367)" fill="#cfcfcf"/>
    <path id="Path_1162" data-name="Path 1162" d="M271.521,216.714c1.673,0,1.673.883,3.347.883s1.673-.883,3.346-.883,1.674.883,3.348.883,1.674-.883,3.348-.883m-13.389,3.859c1.673,0,1.673.883,3.347.883s1.673-.883,3.346-.883,1.674.883,3.348.883,1.674-.883,3.348-.883m-13.389,3.859c1.673,0,1.673.883,3.347.883s1.673-.883,3.346-.883,1.674.883,3.348.883,1.674-.883,3.348-.883M111.183,196.306c1.673,0,1.673.883,3.347.883s1.673-.883,3.346-.883,1.674.883,3.348.883,1.674-.883,3.348-.883m-13.389,3.859c1.673,0,1.673.883,3.347.883s1.673-.883,3.346-.883,1.674.883,3.348.883,1.674-.883,3.348-.883m-13.389,3.859c1.673,0,1.673.883,3.347.883s1.673-.883,3.346-.883,1.674.883,3.348.883,1.674-.883,3.348-.883m61.115-83.481c1.673,0,1.673.883,3.347.883s1.673-.883,3.346-.883,1.674.883,3.348.883,1.674-.883,3.348-.883M185.686,124.4c1.673,0,1.673.883,3.347.883s1.673-.883,3.346-.883,1.674.883,3.348.883,1.674-.883,3.348-.883m-13.389,3.859c1.673,0,1.673.883,3.347.883s1.673-.883,3.346-.883,1.674.883,3.348.883,1.674-.883,3.348-.883" transform="translate(-16.801 -11.039)" fill="#d8d8d8" stroke="#c5c5c5" stroke-linecap="round" stroke-miterlimit="10" stroke-width="3"/>
    <circle id="Ellipse_251" data-name="Ellipse 251" cx="5.723" cy="5.723" r="5.723" transform="translate(120.683 223.301)" fill="#d8d8d8"/>
    <circle id="Ellipse_252" data-name="Ellipse 252" cx="2.967" cy="2.967" r="2.967" transform="translate(127.591 210.961)" fill="#d8d8d8"/>
    <circle id="Ellipse_253" data-name="Ellipse 253" cx="4.239" cy="4.239" r="4.239" transform="translate(138.071 225.42)" fill="#d8d8d8"/>
    <circle id="Ellipse_254" data-name="Ellipse 254" cx="6.809" cy="6.809" r="6.809" transform="translate(113.973 143.389)" fill="#d8d8d8"/>
    <circle id="Ellipse_255" data-name="Ellipse 255" cx="3.547" cy="3.547" r="3.547" transform="translate(104.224 141.802)" fill="#d8d8d8"/>
    <circle id="Ellipse_256" data-name="Ellipse 256" cx="2.046" cy="2.046" r="2.046" transform="translate(108.983 131.247)" fill="#d8d8d8"/>
    <circle id="Ellipse_257" data-name="Ellipse 257" cx="4.905" cy="4.905" r="4.905" transform="translate(117.449 129.835)" fill="#d8d8d8"/>
    <circle id="Ellipse_258" data-name="Ellipse 258" cx="6.809" cy="6.809" r="6.809" transform="translate(232.323 110.367)" fill="#d8d8d8"/>
    <circle id="Ellipse_259" data-name="Ellipse 259" cx="3.547" cy="3.547" r="3.547" transform="translate(246.42 104.944)" fill="#d8d8d8"/>
    <circle id="Ellipse_260" data-name="Ellipse 260" cx="3.07" cy="3.07" r="3.07" transform="translate(260.445 124.883)" fill="#d1d1d1"/>
    <circle id="Ellipse_261" data-name="Ellipse 261" cx="2.046" cy="2.046" r="2.046" transform="translate(256.602 115.423)" fill="#d1d1d1"/>
    <circle id="Ellipse_262" data-name="Ellipse 262" cx="4.905" cy="4.905" r="4.905" transform="translate(246.694 121.546)" fill="#d8d8d8"/>
  </g>
</svg>
