<svg width="220" height="188" viewBox="0 0 220 188" fill="none" xmlns="http://www.w3.org/2000/svg">
<path opacity="0.1" d="M218.991 129.316C212.983 99.0155 177.779 74.7984 170.913 43.2231C158.434 3.05074 117.302 -3.30058 90.5729 14.1462C48.2215 41.791 93.4017 48.6512 10.3642 114.057C-10.1396 130.207 -3.60615 201.497 60.8977 185.136C95.6108 176.331 106.163 175.096 121.778 173.646C161.134 169.992 229.078 180.179 218.991 129.316Z" fill="#367CFF"/>
<path d="M171.976 136.91L111.147 169.037L50.41 136.91V88.3962H171.976V136.91Z" fill="white"/>
<path d="M111.147 169.53C111.066 169.53 110.987 169.51 110.916 169.472L50.1813 137.345C50.1023 137.304 50.0362 137.241 49.9899 137.165C49.9437 137.089 49.9191 137.001 49.9188 136.912V88.3963C49.9188 88.2656 49.9707 88.1403 50.0631 88.0479C50.1555 87.9555 50.2808 87.9036 50.4115 87.9036H171.976C172.106 87.9036 172.232 87.9555 172.324 88.0479C172.416 88.1403 172.468 88.2656 172.468 88.3963V136.91C172.468 137 172.443 137.087 172.397 137.163C172.351 137.24 172.285 137.302 172.206 137.344L111.377 169.471C111.306 169.509 111.227 169.529 111.147 169.53ZM50.9027 136.614L111.147 168.48L171.483 136.613V88.8891H50.9027V136.614Z" fill="#262626"/>
<path d="M171.976 77.9865L111.147 45.8597L138.481 32.6844L199.31 64.8116L171.976 77.9865Z" fill="white"/>
<path d="M171.976 78.4789C171.895 78.4789 171.816 78.4594 171.745 78.4221L110.917 46.295C110.836 46.2523 110.769 46.1881 110.723 46.1096C110.676 46.0311 110.653 45.9412 110.654 45.8501C110.656 45.7589 110.683 45.67 110.732 45.5932C110.781 45.5164 110.851 45.4548 110.933 45.4151L138.267 32.2398C138.336 32.2061 138.413 32.1893 138.49 32.1908C138.567 32.1922 138.643 32.2118 138.711 32.2481L199.54 64.3753C199.62 64.4179 199.688 64.482 199.734 64.5605C199.78 64.639 199.804 64.7288 199.802 64.82C199.801 64.9111 199.774 65 199.725 65.0767C199.675 65.1535 199.606 65.2151 199.524 65.2547L172.19 78.43C172.123 78.4622 172.05 78.479 171.976 78.4789ZM112.24 45.8787L171.986 77.4335L198.217 64.7903L138.471 33.2364L112.24 45.8787Z" fill="#262626"/>
<path d="M50.4099 77.9865L111.239 45.8597L83.9045 32.6844L23.0758 64.8116L50.4099 77.9865Z" fill="white"/>
<path d="M50.41 78.4789C50.3358 78.4789 50.2627 78.4622 50.1959 78.43L22.8634 65.2547C22.7813 65.2151 22.7118 65.1535 22.6626 65.0767C22.6134 65 22.5865 64.9111 22.5848 64.82C22.5831 64.7288 22.6068 64.639 22.6531 64.5605C22.6994 64.482 22.7666 64.4179 22.8472 64.3753L83.6759 32.2481C83.7441 32.2118 83.8199 32.1922 83.8971 32.1908C83.9743 32.1893 84.0507 32.2061 84.1202 32.2398L111.454 45.4151C111.536 45.4548 111.606 45.5164 111.655 45.5932C111.704 45.67 111.731 45.7589 111.733 45.8501C111.734 45.9412 111.711 46.0311 111.665 46.1096C111.618 46.1881 111.551 46.2523 111.47 46.295L50.6417 78.4221C50.5703 78.4597 50.4907 78.4792 50.41 78.4789ZM24.169 64.7911L50.3997 77.4343L110.146 45.8795L83.9148 33.2364L24.169 64.7911Z" fill="#262626"/>
<path d="M50.4099 77.9863L111.239 110.113L79.9625 127.23L19.1338 95.1036L50.4099 77.9863Z" fill="white"/>
<path d="M79.9625 127.723C79.8822 127.723 79.8032 127.703 79.7323 127.666L18.9036 95.5386C18.825 95.497 18.7592 95.4348 18.7131 95.3588C18.667 95.2828 18.6423 95.1958 18.6417 95.1069C18.641 95.018 18.6644 94.9306 18.7094 94.8539C18.7544 94.7772 18.8193 94.7142 18.8972 94.6714L50.1733 77.5541C50.2448 77.5149 50.3248 77.4941 50.4063 77.4935C50.4878 77.493 50.5681 77.5127 50.6401 77.5509L111.469 109.678C111.547 109.72 111.613 109.782 111.659 109.858C111.705 109.934 111.73 110.021 111.731 110.11C111.731 110.199 111.708 110.286 111.663 110.363C111.618 110.439 111.553 110.503 111.475 110.545L80.199 127.663C80.1265 127.702 80.0451 127.723 79.9625 127.723ZM20.1744 95.0955L79.9582 126.671L110.198 110.121L50.4142 78.5455L20.1744 95.0955Z" fill="#262626"/>
<path d="M171.976 77.9863L111.147 110.113L142.423 127.23L203.252 95.1036L171.976 77.9863Z" fill="white"/>
<path d="M142.424 127.723C142.341 127.723 142.26 127.702 142.187 127.663L110.911 110.545C110.833 110.503 110.768 110.439 110.723 110.363C110.678 110.286 110.655 110.199 110.656 110.11C110.656 110.021 110.681 109.934 110.727 109.858C110.773 109.782 110.839 109.72 110.917 109.678L171.746 77.5509C171.818 77.5127 171.898 77.493 171.98 77.4935C172.061 77.4941 172.141 77.5149 172.213 77.5541L203.489 94.6714C203.567 94.7142 203.632 94.7772 203.677 94.8539C203.722 94.9306 203.745 95.018 203.745 95.1069C203.744 95.1958 203.719 95.2828 203.673 95.3588C203.627 95.4348 203.561 95.497 203.483 95.5386L142.654 127.666C142.583 127.703 142.504 127.723 142.424 127.723ZM112.189 110.121L142.428 126.671L202.213 95.0955L171.972 78.5455L112.189 110.121Z" fill="#262626"/>
<path d="M111.239 45.8593L50.41 77.986L111.147 110.113L171.976 77.986L111.239 45.8593Z" fill="#262626"/>
<path d="M111.64 110.113H110.654V169.037H111.64V110.113Z" fill="#262626"/>
<path d="M77.0658 75.0693C76.9842 75.0694 76.9047 75.0438 76.8383 74.9964C76.753 74.9359 76.6952 74.8441 76.6776 74.741C76.66 74.638 76.6841 74.5322 76.7445 74.4468C76.8175 74.344 83.9418 64.0444 75.9885 54.6545C74.5808 52.984 72.8248 51.6415 70.8436 50.7211C68.8624 49.8007 66.7038 49.3248 64.5193 49.3266H64.412C65.1673 51.9504 65.0325 54.2832 63.963 56.0729C63.5073 56.8816 62.8349 57.547 62.0214 57.9941C61.208 58.4412 60.2858 58.6523 59.3588 58.6036C58.5915 58.5408 57.8591 58.2555 57.2515 57.7828C56.6438 57.31 56.1872 56.6703 55.9376 55.942C55.0628 53.6604 55.977 51.4481 58.3863 50.0223C59.9126 49.1806 61.6086 48.6928 63.3489 48.5949C62.7828 47.094 62.0466 45.6628 61.1548 44.3293C58.283 39.9435 53.0493 36.9074 46.7949 35.9995C41.4945 35.2304 36.4149 36.1363 33.8522 38.3068C33.7724 38.3743 33.669 38.4074 33.5648 38.3987C33.4606 38.39 33.3641 38.3403 33.2966 38.2604C33.229 38.1806 33.196 38.0772 33.2047 37.973C33.2134 37.8688 33.2631 37.7724 33.3429 37.7048C36.07 35.3952 41.3944 34.4188 46.9081 35.2214C53.3859 36.1619 58.8188 39.3246 61.8147 43.8992C62.7859 45.3501 63.576 46.9143 64.1672 48.5571C66.5238 48.5005 68.8631 48.9733 71.0127 49.9407C73.1624 50.9081 75.0676 52.3454 76.588 54.1468C84.9423 64.0093 77.462 74.7969 77.3855 74.9049C77.3491 74.9557 77.3011 74.9971 77.2455 75.0257C77.1899 75.0542 77.1283 75.0692 77.0658 75.0693ZM63.6047 49.3553C61.9175 49.4273 60.2696 49.8879 58.7896 50.7011C56.7098 51.9318 55.9395 53.7396 56.6755 55.6602C56.8749 56.2486 57.2415 56.7662 57.7305 57.1496C58.2194 57.533 58.8095 57.7655 59.4286 57.8188C60.208 57.8537 60.9818 57.6711 61.6634 57.2914C62.345 56.9117 62.9076 56.3499 63.2882 55.6688C64.2697 54.025 64.3596 51.84 63.6035 49.3553H63.6047Z" fill="#292A2E"/>
<path d="M27.0487 44.6623C26.3788 44.8635 25.6568 44.7953 25.0365 44.4722C24.4161 44.1491 23.9464 43.5966 23.7274 42.9323C23.5083 42.268 23.5572 41.5445 23.8637 40.9157C24.1701 40.287 24.7099 39.8027 25.3681 39.566C26.0263 39.3293 26.7508 39.3588 27.3876 39.6484C28.0243 39.9379 28.5228 40.4646 28.777 41.1162C29.0312 41.7678 29.021 42.493 28.7486 43.1372C28.4761 43.7814 27.9629 44.2938 27.3183 44.5653C27.2303 44.6025 27.1403 44.6349 27.0487 44.6623ZM25.738 40.282C25.6741 40.3012 25.6114 40.3238 25.55 40.3498C25.0964 40.541 24.7354 40.9018 24.5439 41.3552C24.3524 41.8087 24.3455 42.319 24.5247 42.7774C24.7038 43.2359 25.0549 43.6063 25.5031 43.8097C25.9514 44.0132 26.4613 44.0336 26.9243 43.8666C27.3874 43.6997 27.767 43.3585 27.9822 42.9158C28.1974 42.4731 28.2313 41.9639 28.0767 41.4966C27.922 41.0293 27.591 40.6409 27.1542 40.414C26.7174 40.1871 26.2092 40.1397 25.738 40.282Z" fill="#292A2E"/>
<path d="M27.0439 38.4852C26.4103 38.6744 25.729 38.6227 25.1312 38.34C24.5333 38.0573 24.0611 37.5636 23.8052 36.9538C23.6001 36.4649 23.5445 35.9261 23.6456 35.4057C23.7467 34.8852 23.9998 34.4064 24.373 34.0298C24.7462 33.6532 25.2227 33.3957 25.7422 33.29C26.2618 33.1842 26.801 33.2349 27.2917 33.4356C27.7824 33.6363 28.2026 33.978 28.4991 34.4175C28.7957 34.857 28.9552 35.3746 28.9575 35.9048C28.9598 36.435 28.8049 36.954 28.5123 37.3961C28.2197 37.8382 27.8025 38.1836 27.3136 38.3886C27.2254 38.4255 27.1354 38.4577 27.0439 38.4852ZM25.7348 34.1045C25.6702 34.1239 25.6066 34.1466 25.5444 34.1727C25.082 34.3669 24.7156 34.7368 24.5257 35.2011C24.3359 35.6654 24.3382 36.1861 24.5321 36.6487C24.6735 36.9859 24.9096 37.2749 25.2118 37.4807C25.514 37.6866 25.8694 37.8005 26.235 37.8086C26.6006 37.8167 26.9606 37.7187 27.2717 37.5265C27.5828 37.3343 27.8315 37.0561 27.9877 36.7255C28.144 36.3949 28.2011 36.0261 28.1522 35.6637C28.1032 35.3013 27.9504 34.9609 27.712 34.6836C27.4737 34.4063 27.1601 34.204 26.8092 34.1011C26.4583 33.9983 26.0851 33.9993 25.7348 34.1041V34.1045Z" fill="#292A2E"/>
<path d="M26.2789 41.2731C28.2148 41.2731 29.7841 40.2249 29.7841 38.932C29.7841 37.639 28.2148 36.5908 26.2789 36.5908C24.343 36.5908 22.7737 37.639 22.7737 38.932C22.7737 40.2249 24.343 41.2731 26.2789 41.2731Z" fill="white"/>
<path d="M27.8304 41.4452C27.3279 41.5937 26.8064 41.6686 26.2824 41.6675C24.0954 41.6675 22.3798 40.4692 22.3798 38.9353C22.3798 37.4015 24.0902 36.1988 26.2765 36.1965C27.2296 36.1782 28.1674 36.4385 28.9748 36.9454C29.3374 37.1343 29.6413 37.419 29.8535 37.7685C30.0657 38.118 30.1781 38.5189 30.1785 38.9278C30.1788 39.3366 30.0671 39.7378 29.8556 40.0876C29.644 40.4375 29.3406 40.7227 28.9783 40.9123C28.6242 41.1457 28.2373 41.3253 27.8304 41.4452ZM24.9677 37.1725C23.9144 37.4879 23.1678 38.1686 23.1682 38.9334C23.1682 39.9886 24.594 40.8791 26.2824 40.8776C27.0799 40.8943 27.8651 40.6785 28.5419 40.2563C28.7958 40.1394 29.0108 39.9521 29.1614 39.7167C29.312 39.4813 29.3919 39.2076 29.3917 38.9281C29.3914 38.6486 29.311 38.3751 29.16 38.1399C29.0089 37.9047 28.7936 37.7178 28.5396 37.6014C27.8622 37.1801 27.0767 36.9656 26.2792 36.9841C25.8352 36.9829 25.3934 37.0464 24.9677 37.1725Z" fill="#292A2E"/>
<path d="M27.1386 41.2017L27.0558 36.6488L25.9237 36.603L25.8444 41.255L27.1386 41.2017Z" fill="#292A2E"/>
<path d="M21.6285 39.9225C21.8283 39.9225 21.9903 39.7605 21.9903 39.5606C21.9903 39.3607 21.8283 39.1987 21.6285 39.1987C21.4286 39.1987 21.2666 39.3607 21.2666 39.5606C21.2666 39.7605 21.4286 39.9225 21.6285 39.9225Z" fill="#292A2E"/>
<path d="M21.9112 37.9861C22.111 37.9861 22.2731 37.8241 22.2731 37.6242C22.2731 37.4243 22.111 37.2623 21.9112 37.2623C21.7113 37.2623 21.5493 37.4243 21.5493 37.6242C21.5493 37.8241 21.7113 37.9861 21.9112 37.9861Z" fill="#292A2E"/>
<path d="M139.004 52.3358C138.92 52.3358 138.838 52.3088 138.77 52.2586C138.702 52.2084 138.652 52.1378 138.627 52.0572C137.32 47.1745 136.971 42.0847 137.6 37.0693C138.619 29.7372 142.663 20.1145 156.139 15.9009C158.035 15.2912 159.98 14.8453 161.953 14.5681C162.588 10.6021 165.003 6.2998 170.406 3.33148C183.242 -3.72151 191.912 2.60655 191.998 2.6712C192.082 2.73393 192.137 2.82731 192.152 2.93081C192.167 3.03431 192.14 3.13944 192.077 3.22308C192.014 3.30672 191.921 3.36201 191.817 3.3768C191.714 3.39158 191.609 3.36465 191.525 3.30192C191.443 3.24042 183.157 -2.77544 170.786 4.02291C165.738 6.79688 163.427 10.7783 162.77 14.4743C168.714 13.8889 171.561 15.8717 172.838 17.3693C173.629 18.2698 174.137 19.3831 174.299 20.5703C174.461 21.7575 174.27 22.9662 173.75 24.0458C173.339 24.9184 172.674 25.6459 171.841 26.1321C171.008 26.6184 170.047 26.8406 169.085 26.7693C165.765 26.5746 163.018 23.7821 162.087 19.6548C161.78 18.2577 161.698 16.8204 161.845 15.3975C159.99 15.664 158.16 16.0848 156.375 16.6554C145.871 19.9394 139.819 26.8454 138.381 37.1801C137.764 42.0817 138.104 47.0562 139.381 51.8285C139.399 51.8875 139.403 51.9498 139.393 52.0106C139.382 52.0713 139.358 52.1288 139.321 52.1784C139.284 52.2279 139.237 52.2682 139.182 52.296C139.127 52.3237 139.066 52.3382 139.004 52.3382V52.3358ZM162.649 15.2989C162.485 16.6948 162.555 18.1083 162.856 19.481C163.708 23.2566 166.171 25.8083 169.131 25.9821C169.938 26.0399 170.743 25.8525 171.442 25.4445C172.14 25.0365 172.699 24.4269 173.045 23.6958C173.495 22.7543 173.659 21.7011 173.516 20.6673C173.372 19.6335 172.928 18.6647 172.237 17.8817C170.394 15.7188 167.03 14.8452 162.649 15.2989Z" fill="#292A2E"/>
<path d="M201.181 6.65526C200.65 6.65414 200.13 6.50292 199.681 6.21904C199.233 5.93515 198.873 5.53019 198.645 5.05087C198.417 4.57156 198.328 4.03743 198.391 3.51015C198.453 2.98286 198.663 2.48391 198.996 2.07087C199.33 1.65784 199.774 1.34756 200.276 1.17584C200.778 1.00413 201.319 0.97798 201.836 1.10041C202.352 1.22285 202.824 1.48888 203.196 1.86779C203.568 2.24671 203.825 2.72307 203.938 3.2419C204.026 3.65317 204.021 4.079 203.924 4.4882C203.826 4.89741 203.638 5.27963 203.374 5.60687C203.11 5.93411 202.776 6.1981 202.396 6.3795C202.017 6.5609 201.601 6.65512 201.181 6.65526ZM201.187 1.81293C200.767 1.81292 200.358 1.94295 200.016 2.18511C199.674 2.42726 199.415 2.76962 199.275 3.16499C199.136 3.56036 199.122 3.98928 199.237 4.39264C199.351 4.79599 199.588 5.15393 199.914 5.4171C200.241 5.68028 200.641 5.83575 201.059 5.86207C201.478 5.8884 201.894 5.78429 202.251 5.5641C202.608 5.3439 202.887 5.01846 203.051 4.63263C203.215 4.2468 203.256 3.81957 203.167 3.40982C203.071 2.95648 202.821 2.55013 202.461 2.25925C202.1 1.96837 201.65 1.81074 201.187 1.81293Z" fill="#292A2E"/>
<path d="M199.994 13.0891C199.271 13.0891 198.576 12.812 198.052 12.315C197.527 11.818 197.214 11.1389 197.175 10.4175C197.136 9.696 197.375 8.98713 197.843 8.43677C198.311 7.88641 198.973 7.53645 199.691 7.45893C200.409 7.38141 201.13 7.58224 201.705 8.02006C202.279 8.45789 202.664 9.09939 202.781 9.81251C202.897 10.5256 202.735 11.2561 202.328 11.8535C201.922 12.451 201.302 12.8699 200.596 13.0241C200.398 13.0673 200.196 13.0891 199.994 13.0891ZM200.004 8.24641C199.858 8.24647 199.712 8.26219 199.57 8.29331C199.066 8.40391 198.624 8.70328 198.335 9.12985C198.045 9.55642 197.93 10.0777 198.013 10.5865C198.097 11.0953 198.372 11.5529 198.782 11.8651C199.192 12.1773 199.706 12.3204 200.219 12.265C200.731 12.2095 201.203 11.9598 201.537 11.567C201.871 11.1743 202.042 10.6685 202.014 10.1537C201.987 9.63889 201.763 9.15423 201.389 8.79945C201.015 8.44467 200.519 8.24675 200.004 8.24641Z" fill="#292A2E"/>
<path d="M204.227 7.80709C204.476 6.46065 203.043 5.06757 201.027 4.69558C199.011 4.32359 197.175 5.11355 196.927 6.45999C196.679 7.80644 198.111 9.19951 200.127 9.5715C202.143 9.94349 203.979 9.15354 204.227 7.80709Z" fill="white"/>
<path d="M201.12 10.0581C200.763 10.0575 200.407 10.0245 200.056 9.95954C199.064 9.79506 198.142 9.34488 197.403 8.6642C197.079 8.38811 196.831 8.03489 196.68 7.6372C196.529 7.23951 196.48 6.81017 196.539 6.38889C196.635 5.97436 196.833 5.59056 197.116 5.27294C197.399 4.95532 197.757 4.71413 198.158 4.57163C199.096 4.21748 200.113 4.12643 201.098 4.30832C202.084 4.49022 203.001 4.93814 203.751 5.60365C204.074 5.87973 204.323 6.23295 204.474 6.63065C204.625 7.02834 204.673 7.45767 204.614 7.87896C204.519 8.29349 204.321 8.67729 204.038 8.99491C203.755 9.31252 203.396 9.55372 202.995 9.69621C202.401 9.9422 201.763 10.0653 201.12 10.0581ZM200.031 4.99737C199.496 4.99056 198.965 5.09206 198.47 5.29578C198.19 5.38954 197.937 5.55169 197.736 5.76754C197.534 5.98339 197.389 6.24613 197.315 6.53198C197.282 6.8256 197.324 7.12266 197.435 7.39626C197.546 7.66986 197.724 7.91137 197.952 8.09892C198.59 8.65545 199.366 9.03017 200.198 9.18379C201.03 9.33742 201.889 9.26429 202.683 8.97207C202.963 8.87831 203.215 8.71616 203.417 8.50031C203.619 8.28446 203.763 8.02171 203.838 7.73586C203.87 7.44223 203.829 7.1451 203.718 6.87146C203.606 6.59782 203.428 6.35634 203.2 6.16893C202.572 5.59646 201.792 5.21934 200.953 5.0837C200.65 5.02716 200.341 4.99826 200.033 4.99737H200.031Z" fill="#292A2E"/>
<path d="M200.122 4.60461L199.329 9.36101L200.499 9.62749L201.479 4.79895L200.122 4.60461Z" fill="#292A2E"/>
<path d="M204.874 9.72177C205.085 9.72177 205.257 9.55022 205.257 9.33861C205.257 9.12699 205.085 8.95544 204.874 8.95544C204.662 8.95544 204.491 9.12699 204.491 9.33861C204.491 9.55022 204.662 9.72177 204.874 9.72177Z" fill="#292A2E"/>
<path d="M205.542 7.76022C205.753 7.76022 205.925 7.58867 205.925 7.37706C205.925 7.16544 205.753 6.9939 205.542 6.9939C205.33 6.9939 205.159 7.16544 205.159 7.37706C205.159 7.58867 205.33 7.76022 205.542 7.76022Z" fill="#292A2E"/>
</svg>
