<svg width="25" height="36" viewBox="0 0 25 36" fill="none" xmlns="http://www.w3.org/2000/svg">
<path d="M24.6665 15.9297C24.1638 14.9498 23.1428 14.2828 21.968 14.2828H7.23887V9.07558C7.23887 5.93583 9.79376 3.38094 12.9335 3.38094H13.0977C16.2374 3.38094 18.7923 5.93583 18.7923 9.07558V10.2402H19.2951V11.0815H18.7923V12.359H21.1523V11.0815H20.6495V10.2402H21.1523V9.07558C21.1471 4.63273 17.5405 1.02612 13.0977 1.02612H12.9335C8.48553 1.02612 4.87892 4.63273 4.87892 9.07558V14.2828H4.05808C2.38046 14.2828 1.02606 15.6424 1.02606 17.3149V24.1279C1.02606 24.723 1.07223 25.3079 1.15432 25.8773C1.36466 27.319 1.83665 28.6734 2.51898 29.8944C3.47322 31.6079 4.83788 33.0546 6.47958 34.1115C8.32649 35.3017 10.5274 35.9892 12.8925 35.9892H13.1336C13.1798 35.9892 13.2311 35.9892 13.2772 35.9892C19.7158 35.9122 24.923 30.705 25 24.2664C25 24.2203 25 24.169 25 24.1228V17.3149C25 16.8172 24.882 16.3452 24.6665 15.9297Z" fill="#D1D3D4"/>
<path d="M19.6183 9.21404V10.0554H20.1211V11.3329H17.7611V10.0554H18.2639V9.21404H17.7611V8.04946C17.7611 4.90971 15.2063 2.35481 12.0665 2.35481H11.9023C8.76258 2.35481 6.20769 4.90971 6.20769 8.04946V15.4781H3.85287V8.04946C3.85287 3.60661 7.45948 0 11.9075 0H12.0716C16.5196 0 20.1211 3.60661 20.1211 8.04946V9.21404H19.6183Z" fill="#D1D3D4"/>
<path d="M19.6183 7.88531V11.338H18.269V7.88531C18.269 4.46853 15.4884 1.6879 12.0716 1.6879H11.9075C8.49068 1.6879 5.71005 4.46853 5.71005 7.88531V14.8112H4.36078V7.88531C4.36078 3.7195 7.74678 0.333496 11.9075 0.333496H12.0716C16.2323 0.333496 19.6183 3.7195 19.6183 7.88531Z" fill="#F1F2F2"/>
<path d="M19.6183 9.21411H18.269V10.0555H19.6183V9.21411Z" fill="#BCBEC0"/>
<path d="M23.9739 16.2888V23.1019C23.9739 23.1481 23.9739 23.1994 23.9739 23.2456C23.897 29.6841 18.6897 34.8914 12.2512 34.9683C12.205 34.9683 12.1537 34.9683 12.1075 34.9683H11.8664C9.50646 34.9683 7.30556 34.2808 5.45352 33.0906C3.81182 32.0338 2.44716 30.5819 1.49292 28.8735C0.810589 27.6525 0.343731 26.293 0.128258 24.8513C0.0461728 24.2819 0 23.697 0 23.1019V16.2888C0 14.6164 1.35953 13.2568 3.03201 13.2568H20.9419C22.1168 13.2568 23.1377 13.9289 23.6405 14.9037C23.8559 15.3192 23.9739 15.7912 23.9739 16.2888Z" fill="#FBC640"/>
<path d="M17.1096 13.2568L1.4929 28.8735C0.810566 27.6525 0.343708 26.293 0.128235 24.8513L11.7227 13.2568H17.1096Z" fill="#FCCC53"/>
<path d="M23.9739 16.2887V23.1018C23.9739 23.148 23.9739 23.1993 23.9739 23.2454L12.2512 34.9682C12.205 34.9682 12.1537 34.9682 12.1075 34.9682H11.8664C9.50647 34.9682 7.30556 34.2807 5.45352 33.0905L23.6405 14.9036C23.8559 15.3191 23.9739 15.7911 23.9739 16.2887Z" fill="#FCCC53"/>
<path d="M14.4367 21.7576C14.4367 20.3467 13.2413 19.2129 11.81 19.3155C10.5992 19.4028 9.61934 20.3826 9.54238 21.5934C9.47569 22.6451 10.0708 23.5686 10.9532 23.979L10.3991 28.4885C10.3735 28.7143 10.5479 28.9195 10.7788 28.9195H11.9844H13.19C13.4209 28.9195 13.5953 28.7194 13.5697 28.4885L13.0156 23.979C13.857 23.5891 14.4367 22.7426 14.4367 21.7576Z" fill="#FB9A40"/>
<path d="M10.7788 28.9195C10.7531 28.9195 10.7326 28.9041 10.7275 28.8938C10.7172 28.8835 10.7069 28.863 10.7121 28.8374L11.2918 24.1072L11.0866 24.0097C10.2811 23.6352 9.79375 22.8144 9.85532 21.9268C9.92201 20.8649 10.7736 20.0132 11.8356 19.9363C11.8869 19.9312 11.9382 19.9312 11.9895 19.9312C13.1695 19.9312 14.1289 20.8905 14.1289 22.0705C14.1289 22.9016 13.6415 23.6609 12.8925 24.0097L12.6872 24.1072L13.267 28.8374C13.2721 28.863 13.2618 28.8835 13.2516 28.8938C13.2413 28.9041 13.2259 28.9195 13.2003 28.9195H10.7788Z" fill="#854722"/>
<path d="M12.1075 33.8498H11.8664C5.315 33.8498 0 28.5399 0 21.9834V23.1018C0 29.6583 5.315 34.9682 11.8664 34.9682H12.1075C18.6641 34.9682 23.9739 29.6532 23.9739 23.1018V21.9834C23.9739 28.5399 18.6641 33.8498 12.1075 33.8498Z" fill="#FBB040"/>
</svg>
