<svg xmlns="http://www.w3.org/2000/svg" width="38" height="38" viewBox="0 0 38 38">
  <g id="Group_11853" data-name="Group 11853" transform="translate(-5031 -1572)">
    <rect id="Rectangle_925" data-name="Rectangle 925" width="38" height="38" rx="16" transform="translate(5031 1572)" fill="#00985a"/>
    <path id="Vector" d="M9.263,0l8.45,2.622a1.158,1.158,0,0,1,.588.417,1.145,1.145,0,0,1,.225.682V5.75h2.316a1.162,1.162,0,0,1,.819.337A1.146,1.146,0,0,1,22,6.9v9.2a1.146,1.146,0,0,1-.339.813,1.162,1.162,0,0,1-.819.337H17.114a6.912,6.912,0,0,1-1.621,1.529L9.263,23,3.034,18.782A6.887,6.887,0,0,1,0,13.08V3.72a1.145,1.145,0,0,1,.225-.681,1.158,1.158,0,0,1,.588-.416Zm0,2.408L2.316,4.565V13.08a4.589,4.589,0,0,0,1.8,3.644l.219.156,4.925,3.336,4.379-2.967H8.105a1.162,1.162,0,0,1-.819-.337,1.146,1.146,0,0,1-.339-.813V6.9a1.146,1.146,0,0,1,.339-.813,1.162,1.162,0,0,1,.819-.337h8.105V4.565Zm0,9.092v3.45H19.684V11.5Zm0-2.3H19.684V8.05H9.263Z" transform="translate(5040 1580)" fill="#fff"/>
  </g>
</svg>
