<svg xmlns="http://www.w3.org/2000/svg" width="385" height="246" viewBox="0 0 385 246">
  <g id="Group_11840" data-name="Group 11840" transform="translate(-1149 -885)">
    <rect id="Rectangle_958" data-name="Rectangle 958" width="385" height="246" transform="translate(1149 885)" fill="none"/>
    <g id="Group_11835" data-name="Group 11835" transform="translate(1134 783.361)">
      <g id="Group_1015" data-name="Group 1015" transform="translate(-240.877 78.37)">
        <g id="Group_926" data-name="Group 926" transform="translate(397.992 88.51)">
          <g id="Group_867" data-name="Group 867" transform="translate(0 3.484)">
            <path id="Path_1411" data-name="Path 1411" d="M474.935,107.506,466.21,94.59a8.045,8.045,0,0,1-1.38-4.507v-11.6H390.353v11.6a8.045,8.045,0,0,1-1.38,4.507l-8.725,12.916a8.049,8.049,0,0,0-1.38,4.507v88.229a20.416,20.416,0,0,0,20.416,20.416H455.9a20.416,20.416,0,0,0,20.416-20.416V112.012A8.049,8.049,0,0,0,474.935,107.506Z" transform="translate(-378.198 -77.813)" fill="#fff"/>
            <path id="Path_1412" data-name="Path 1412" d="M456.07,221.5H399.453a21.109,21.109,0,0,1-21.086-21.086V112.182a8.683,8.683,0,0,1,1.5-4.881l8.727-12.916a7.365,7.365,0,0,0,1.264-4.132v-11.6a.669.669,0,0,1,.669-.669H465a.67.67,0,0,1,.669.669v11.6a7.348,7.348,0,0,0,1.264,4.132L475.66,107.3a8.686,8.686,0,0,1,1.494,4.881V200.41A21.109,21.109,0,0,1,456.07,221.5ZM391.192,79.321V90.253a8.7,8.7,0,0,1-1.494,4.881l-8.727,12.916a7.356,7.356,0,0,0-1.265,4.132V200.41a19.768,19.768,0,0,0,19.747,19.747H456.07a19.768,19.768,0,0,0,19.745-19.747V112.182a7.351,7.351,0,0,0-1.264-4.132h0l-8.727-12.916a8.686,8.686,0,0,1-1.494-4.881V79.321Z" transform="translate(-378.367 -77.982)"/>
          </g>
          <rect id="Rectangle_926" data-name="Rectangle 926" width="78.299" height="10.543" rx="0.91" transform="translate(9.805 0.268)" fill="#17afb0"/>
          <g id="Group_912" data-name="Group 912" transform="translate(9.381 107.129)">
            <g id="Group_876" data-name="Group 876" transform="translate(13.379 5.298)">
              <path id="Path_1413" data-name="Path 1413" d="M431.974,164.3a73.219,73.219,0,0,0-26.805,0h-9.6v5.333c0,3.627,10.3,6.568,23.005,6.568s23-2.941,23-6.568V164.3Z" transform="translate(-395.299 -158.096)" fill="#f5bd22"/>
              <path id="Path_1414" data-name="Path 1414" d="M441.577,165.43c0,3.319-10.3,6.009-23,6.009s-23.005-2.69-23.005-6.009,10.3-6.01,23.005-6.01S441.577,162.111,441.577,165.43Z" transform="translate(-395.299 -159.33)" fill="#f5bd22"/>
              <g id="Group_868" data-name="Group 868" transform="translate(6.873 1.899)">
                <path id="Path_1415" data-name="Path 1415" d="M416.9,171.249a68.057,68.057,0,0,1-16.2-1.734.268.268,0,0,1,.134-.519,67.421,67.421,0,0,0,16.065,1.718c13.6,0,22.736-2.97,22.736-5.741,0-1.3-1.976-2.638-5.42-3.676a.268.268,0,1,1,.154-.513c3.8,1.145,5.8,2.593,5.8,4.189C440.173,168.492,429.951,171.249,416.9,171.249Z" transform="translate(-400.501 -160.771)"/>
              </g>
              <g id="Group_869" data-name="Group 869" transform="translate(1.494 7.965)">
                <path id="Path_1416" data-name="Path 1416" d="M396.751,170.521a.269.269,0,0,1-.268-.269V165.57a.268.268,0,1,1,.536,0v4.682A.268.268,0,0,1,396.751,170.521Z" transform="translate(-396.483 -165.302)"/>
              </g>
              <g id="Group_870" data-name="Group 870" transform="translate(0 6.252)">
                <path id="Path_1417" data-name="Path 1417" d="M395.635,169.241a.268.268,0,0,1-.268-.268v-4.682a.268.268,0,1,1,.536,0v4.682A.268.268,0,0,1,395.635,169.241Z" transform="translate(-395.367 -164.023)"/>
              </g>
              <g id="Group_871" data-name="Group 871" transform="translate(4.952 9.68)">
                <path id="Path_1418" data-name="Path 1418" d="M399.334,171.8a.268.268,0,0,1-.268-.268v-4.682a.268.268,0,1,1,.536,0v4.682A.267.267,0,0,1,399.334,171.8Z" transform="translate(-399.066 -166.583)"/>
              </g>
              <g id="Group_872" data-name="Group 872" transform="translate(9.887 10.934)">
                <path id="Path_1419" data-name="Path 1419" d="M403.02,172.738a.267.267,0,0,1-.268-.268v-4.682a.268.268,0,1,1,.536,0v4.682A.268.268,0,0,1,403.02,172.738Z" transform="translate(-402.752 -167.52)"/>
              </g>
              <g id="Group_873" data-name="Group 873" transform="translate(17.876 12.022)">
                <path id="Path_1420" data-name="Path 1420" d="M408.987,173.55a.269.269,0,0,1-.268-.268V168.6a.268.268,0,0,1,.537,0v4.682A.269.269,0,0,1,408.987,173.55Z" transform="translate(-408.719 -168.332)"/>
              </g>
              <g id="Group_874" data-name="Group 874" transform="translate(42.804 8.782)">
                <path id="Path_1421" data-name="Path 1421" d="M427.607,171.13a.269.269,0,0,1-.269-.268V166.18a.268.268,0,0,1,.537,0v4.682A.269.269,0,0,1,427.607,171.13Z" transform="translate(-427.338 -165.912)"/>
              </g>
              <g id="Group_875" data-name="Group 875" transform="translate(3.891)">
                <path id="Path_1422" data-name="Path 1422" d="M398.541,162.376a.268.268,0,0,1-.1-.518c5.068-1.953,13.556-2.5,13.64-2.505a.26.26,0,0,1,.284.252.266.266,0,0,1-.249.283c-.086.005-8.492.546-13.482,2.47A.269.269,0,0,1,398.541,162.376Z" transform="translate(-398.273 -159.353)"/>
              </g>
            </g>
            <g id="Group_888" data-name="Group 888" transform="translate(13.379)">
              <path id="Path_1423" data-name="Path 1423" d="M431.974,160.239a79.861,79.861,0,0,0-26.805,0h-9.6v4.877c0,3.318,10.3,6.009,23.005,6.009s23-2.691,23-6.009v-4.877Z" transform="translate(-395.299 -154.139)" fill="#f5bd22"/>
              <ellipse id="Ellipse_243" data-name="Ellipse 243" cx="23.004" cy="6.009" rx="23.004" ry="6.009" transform="translate(0.268 0.091)" fill="#f5bd22"/>
              <g id="Group_877" data-name="Group 877" transform="translate(6.873 1.9)">
                <path id="Path_1424" data-name="Path 1424" d="M416.9,167.291a68.058,68.058,0,0,1-16.2-1.734.268.268,0,0,1,.134-.519,67.421,67.421,0,0,0,16.065,1.718c13.6,0,22.736-2.97,22.736-5.741,0-1.3-1.976-2.638-5.42-3.676a.268.268,0,1,1,.154-.513c3.8,1.145,5.8,2.593,5.8,4.189C440.173,164.535,429.951,167.291,416.9,167.291Z" transform="translate(-400.501 -156.815)"/>
              </g>
              <g id="Group_878" data-name="Group 878" transform="translate(1.494 7.965)">
                <path id="Path_1425" data-name="Path 1425" d="M396.751,166.564a.269.269,0,0,1-.268-.269v-4.682a.268.268,0,1,1,.536,0v4.682A.268.268,0,0,1,396.751,166.564Z" transform="translate(-396.483 -161.345)"/>
              </g>
              <g id="Group_879" data-name="Group 879" transform="translate(0 6.253)">
                <path id="Path_1426" data-name="Path 1426" d="M395.635,165.284a.269.269,0,0,1-.268-.268v-4.682a.268.268,0,1,1,.536,0v4.682A.269.269,0,0,1,395.635,165.284Z" transform="translate(-395.367 -160.066)"/>
              </g>
              <g id="Group_880" data-name="Group 880" transform="translate(4.952 9.68)">
                <path id="Path_1427" data-name="Path 1427" d="M399.334,167.843a.268.268,0,0,1-.268-.268v-4.682a.268.268,0,1,1,.536,0v4.682A.267.267,0,0,1,399.334,167.843Z" transform="translate(-399.066 -162.626)"/>
              </g>
              <g id="Group_881" data-name="Group 881" transform="translate(9.887 10.935)">
                <path id="Path_1428" data-name="Path 1428" d="M403.02,168.781a.267.267,0,0,1-.268-.268v-4.682a.268.268,0,1,1,.536,0v4.682A.268.268,0,0,1,403.02,168.781Z" transform="translate(-402.752 -163.563)"/>
              </g>
              <g id="Group_882" data-name="Group 882" transform="translate(17.876 12.02)">
                <path id="Path_1429" data-name="Path 1429" d="M408.987,169.593a.269.269,0,0,1-.268-.268v-4.682a.268.268,0,1,1,.537,0v4.682A.269.269,0,0,1,408.987,169.593Z" transform="translate(-408.719 -164.374)"/>
              </g>
              <g id="Group_883" data-name="Group 883" transform="translate(27.37 12.02)">
                <path id="Path_1430" data-name="Path 1430" d="M416.078,168.3a.269.269,0,0,1-.268-.269v-3.391a.268.268,0,1,1,.536,0v3.391A.268.268,0,0,1,416.078,168.3Z" transform="translate(-415.81 -164.374)"/>
              </g>
              <g id="Group_884" data-name="Group 884" transform="translate(44.309 8.09)">
                <path id="Path_1431" data-name="Path 1431" d="M428.731,165.12a.269.269,0,0,1-.269-.269v-3.145a.268.268,0,0,1,.537,0v3.145A.269.269,0,0,1,428.731,165.12Z" transform="translate(-428.462 -161.438)"/>
              </g>
              <g id="Group_885" data-name="Group 885" transform="translate(39.543 10.181)">
                <path id="Path_1432" data-name="Path 1432" d="M425.17,168.218a.268.268,0,0,1-.268-.268v-4.682a.268.268,0,1,1,.536,0v4.682A.268.268,0,0,1,425.17,168.218Z" transform="translate(-424.902 -163)"/>
              </g>
              <g id="Group_886" data-name="Group 886" transform="translate(46.01 6.87)">
                <path id="Path_1433" data-name="Path 1433" d="M430,165.745a.269.269,0,0,1-.268-.268v-4.682a.268.268,0,1,1,.536,0v4.682A.268.268,0,0,1,430,165.745Z" transform="translate(-429.732 -160.527)"/>
              </g>
              <g id="Group_887" data-name="Group 887" transform="translate(3.891)">
                <path id="Path_1434" data-name="Path 1434" d="M398.541,158.419a.268.268,0,0,1-.1-.518c5.068-1.955,13.556-2.5,13.64-2.5a.255.255,0,0,1,.284.25.266.266,0,0,1-.249.284c-.086.005-8.492.546-13.482,2.47A.269.269,0,0,1,398.541,158.419Z" transform="translate(-398.273 -155.396)"/>
              </g>
            </g>
            <g id="Group_899" data-name="Group 899" transform="translate(0 15.57)">
              <path id="Path_1435" data-name="Path 1435" d="M417.623,171.367a66.669,66.669,0,0,0-23.6,0h-8.452V175.9c0,3.086,9.067,5.588,20.251,5.588s20.25-2.5,20.25-5.588v-4.536Z" transform="translate(-385.306 -165.91)" fill="#f5bd22"/>
              <ellipse id="Ellipse_244" data-name="Ellipse 244" cx="20.251" cy="5.29" rx="20.251" ry="5.29" transform="translate(0.268 0.112)" fill="#f5bd22"/>
              <g id="Group_889" data-name="Group 889" transform="translate(6.05 1.674)">
                <path id="Path_1436" data-name="Path 1436" d="M404.362,177.561a59.914,59.914,0,0,1-14.268-1.528.267.267,0,0,1,.133-.518,59.447,59.447,0,0,0,14.136,1.509c11.953,0,19.984-2.6,19.984-5.021,0-1.127-1.73-2.3-4.748-3.205a.268.268,0,0,1,.154-.513c3.355,1.011,5.129,2.3,5.129,3.718C424.881,175.119,415.868,177.561,404.362,177.561Z" transform="translate(-389.892 -168.275)"/>
              </g>
              <g id="Group_890" data-name="Group 890" transform="translate(1.315 7.012)">
                <path id="Path_1437" data-name="Path 1437" d="M386.624,176.92a.269.269,0,0,1-.268-.268V172.53a.268.268,0,1,1,.536,0v4.122A.268.268,0,0,1,386.624,176.92Z" transform="translate(-386.356 -172.262)"/>
              </g>
              <g id="Group_891" data-name="Group 891" transform="translate(0 5.504)">
                <path id="Path_1438" data-name="Path 1438" d="M385.642,175.794a.268.268,0,0,1-.268-.268V171.4a.268.268,0,1,1,.536,0v4.122A.269.269,0,0,1,385.642,175.794Z" transform="translate(-385.374 -171.136)"/>
              </g>
              <g id="Group_892" data-name="Group 892" transform="translate(4.358 8.522)">
                <path id="Path_1439" data-name="Path 1439" d="M388.9,178.048a.269.269,0,0,1-.269-.269v-4.121a.268.268,0,0,1,.537,0v4.121A.269.269,0,0,1,388.9,178.048Z" transform="translate(-388.629 -173.39)"/>
              </g>
              <g id="Group_893" data-name="Group 893" transform="translate(8.704 9.626)">
                <path id="Path_1440" data-name="Path 1440" d="M392.143,178.873a.268.268,0,0,1-.268-.268v-4.122a.268.268,0,1,1,.536,0v4.122A.269.269,0,0,1,392.143,178.873Z" transform="translate(-391.875 -174.215)"/>
              </g>
              <g id="Group_894" data-name="Group 894" transform="translate(15.736 10.582)">
                <path id="Path_1441" data-name="Path 1441" d="M397.4,179.587a.269.269,0,0,1-.269-.268V175.2a.268.268,0,0,1,.537,0v4.122A.269.269,0,0,1,397.4,179.587Z" transform="translate(-397.127 -174.929)"/>
              </g>
              <g id="Group_895" data-name="Group 895" transform="translate(24.094 10.582)">
                <path id="Path_1442" data-name="Path 1442" d="M403.638,179.587a.269.269,0,0,1-.268-.268V175.2a.268.268,0,1,1,.536,0v4.122A.269.269,0,0,1,403.638,179.587Z" transform="translate(-403.37 -174.929)"/>
              </g>
              <g id="Group_896" data-name="Group 896" transform="translate(34.809 8.962)">
                <path id="Path_1443" data-name="Path 1443" d="M411.641,178.377a.268.268,0,0,1-.268-.269v-4.121a.268.268,0,0,1,.536,0v4.121A.269.269,0,0,1,411.641,178.377Z" transform="translate(-411.373 -173.719)"/>
              </g>
              <g id="Group_897" data-name="Group 897" transform="translate(40.502 6.048)">
                <path id="Path_1444" data-name="Path 1444" d="M415.893,176.2a.268.268,0,0,1-.268-.268V171.81a.268.268,0,1,1,.536,0v4.122A.269.269,0,0,1,415.893,176.2Z" transform="translate(-415.625 -171.542)"/>
              </g>
              <g id="Group_898" data-name="Group 898" transform="translate(3.425)">
                <path id="Path_1445" data-name="Path 1445" d="M388.2,169.751a.268.268,0,0,1-.1-.518c4.465-1.722,11.943-2.2,12.018-2.208a.258.258,0,0,1,.284.252.269.269,0,0,1-.25.284c-.075,0-7.471.479-11.857,2.172A.254.254,0,0,1,388.2,169.751Z" transform="translate(-387.933 -167.025)"/>
              </g>
            </g>
            <g id="Group_911" data-name="Group 911" transform="translate(39.946 18.434)">
              <path id="Path_1446" data-name="Path 1446" d="M446.7,173.53a64.374,64.374,0,0,0-23.038,0h-8.253V178c0,3.045,8.852,5.512,19.771,5.512s19.771-2.467,19.771-5.512V173.53Z" transform="translate(-415.142 -168.037)" fill="#f5bd22"/>
              <path id="Path_1447" data-name="Path 1447" d="M454.953,174.525c0,2.852-8.851,5.164-19.771,5.164s-19.771-2.312-19.771-5.164,8.852-5.165,19.771-5.165S454.953,171.672,454.953,174.525Z" transform="translate(-415.142 -169.098)" fill="#f5bd22"/>
              <g id="Group_900" data-name="Group 900" transform="translate(5.908 1.78)">
                <path id="Path_1448" data-name="Path 1448" d="M433.755,179.573a58.533,58.533,0,0,1-13.931-1.49.268.268,0,0,1-.193-.327.266.266,0,0,1,.327-.193,57.969,57.969,0,0,0,13.8,1.474c11.667,0,19.5-2.532,19.5-4.9,0-1.1-1.688-2.236-4.631-3.124a.268.268,0,0,1,.154-.513c3.279.988,5.013,2.247,5.013,3.636C453.795,177.187,444.992,179.573,433.755,179.573Z" transform="translate(-419.623 -170.493)"/>
              </g>
              <g id="Group_901" data-name="Group 901" transform="translate(1.285 6.993)">
                <path id="Path_1449" data-name="Path 1449" d="M416.439,178.947a.269.269,0,0,1-.269-.268v-4.025a.268.268,0,0,1,.537,0v4.025A.269.269,0,0,1,416.439,178.947Z" transform="translate(-416.17 -174.387)"/>
              </g>
              <g id="Group_902" data-name="Group 902" transform="translate(0 5.521)">
                <path id="Path_1450" data-name="Path 1450" d="M415.479,177.848a.269.269,0,0,1-.269-.268v-4.025a.268.268,0,0,1,.537,0v4.025A.269.269,0,0,1,415.479,177.848Z" transform="translate(-415.21 -173.288)"/>
              </g>
              <g id="Group_903" data-name="Group 903" transform="translate(4.256 8.467)">
                <path id="Path_1451" data-name="Path 1451" d="M418.657,180.048a.269.269,0,0,1-.268-.268v-4.023a.268.268,0,1,1,.537,0v4.023A.269.269,0,0,1,418.657,180.048Z" transform="translate(-418.389 -175.488)"/>
              </g>
              <g id="Group_904" data-name="Group 904" transform="translate(8.499 9.545)">
                <path id="Path_1452" data-name="Path 1452" d="M421.826,180.853a.269.269,0,0,1-.268-.268v-4.023a.268.268,0,1,1,.537,0v4.023A.269.269,0,0,1,421.826,180.853Z" transform="translate(-421.558 -176.293)"/>
              </g>
              <g id="Group_905" data-name="Group 905" transform="translate(15.365 10.479)">
                <path id="Path_1453" data-name="Path 1453" d="M426.954,181.551a.269.269,0,0,1-.268-.268v-4.025a.268.268,0,0,1,.536,0v4.025A.268.268,0,0,1,426.954,181.551Z" transform="translate(-426.686 -176.991)"/>
              </g>
              <g id="Group_906" data-name="Group 906" transform="translate(23.525 10.479)">
                <path id="Path_1454" data-name="Path 1454" d="M433.049,181.551a.269.269,0,0,1-.268-.268v-4.025a.268.268,0,1,1,.536,0v4.025A.269.269,0,0,1,433.049,181.551Z" transform="translate(-432.781 -176.991)"/>
              </g>
              <g id="Group_907" data-name="Group 907" transform="translate(38.084 7.1)">
                <path id="Path_1455" data-name="Path 1455" d="M443.923,179.027a.269.269,0,0,1-.268-.268v-4.025a.268.268,0,1,1,.536,0v4.025A.269.269,0,0,1,443.923,179.027Z" transform="translate(-443.655 -174.467)"/>
              </g>
              <g id="Group_908" data-name="Group 908" transform="translate(33.985 8.898)">
                <path id="Path_1456" data-name="Path 1456" d="M440.862,180.369a.268.268,0,0,1-.268-.268v-4.023a.268.268,0,0,1,.537,0V180.1A.268.268,0,0,1,440.862,180.369Z" transform="translate(-440.594 -175.81)"/>
              </g>
              <g id="Group_909" data-name="Group 909" transform="translate(39.544 6.052)">
                <path id="Path_1457" data-name="Path 1457" d="M445.014,178.244a.268.268,0,0,1-.268-.268v-4.025a.268.268,0,0,1,.536,0v4.025A.269.269,0,0,1,445.014,178.244Z" transform="translate(-444.746 -173.684)"/>
              </g>
              <g id="Group_910" data-name="Group 910" transform="translate(3.345)">
                <path id="Path_1458" data-name="Path 1458" d="M417.977,171.985a.268.268,0,0,1-.1-.515c5.143-2.139,15.294-2.3,15.723-2.305h0a.268.268,0,0,1,0,.536c-.106,0-10.479.163-15.525,2.264A.263.263,0,0,1,417.977,171.985Z" transform="translate(-417.708 -169.164)"/>
              </g>
            </g>
          </g>
          <path id="Path_1459" data-name="Path 1459" d="M443.238,115.751c-4.262-4.583-13.318-6.417-21.613,3.2-8.3-9.621-17.353-7.787-21.614-3.2-4.442,4.776-5.294,12.949.932,19.822,6.333,6.991,20.683,21.924,20.683,21.924s14.348-14.932,20.681-21.924C448.532,128.7,447.68,120.526,443.238,115.751Z" transform="translate(-372.231 -62.967)" fill="#da1c26"/>
          <g id="Group_913" data-name="Group 913" transform="translate(12.605)">
            <path id="Path_1460" data-name="Path 1460" d="M388.05,86.459a.269.269,0,0,1-.268-.268V75.648a.268.268,0,0,1,.536,0V86.191A.269.269,0,0,1,388.05,86.459Z" transform="translate(-387.782 -75.38)" fill="#fff"/>
          </g>
          <g id="Group_914" data-name="Group 914" transform="translate(18.65)">
            <path id="Path_1461" data-name="Path 1461" d="M392.566,86.459a.269.269,0,0,1-.269-.268V75.648a.268.268,0,0,1,.537,0V86.191A.269.269,0,0,1,392.566,86.459Z" transform="translate(-392.297 -75.38)" fill="#fff"/>
          </g>
          <g id="Group_915" data-name="Group 915" transform="translate(24.696)">
            <path id="Path_1462" data-name="Path 1462" d="M397.081,86.459a.269.269,0,0,1-.268-.268V75.648a.268.268,0,0,1,.536,0V86.191A.268.268,0,0,1,397.081,86.459Z" transform="translate(-396.813 -75.38)" fill="#fff"/>
          </g>
          <g id="Group_916" data-name="Group 916" transform="translate(30.741)">
            <path id="Path_1463" data-name="Path 1463" d="M401.6,86.459a.269.269,0,0,1-.268-.268V75.648a.268.268,0,0,1,.536,0V86.191A.269.269,0,0,1,401.6,86.459Z" transform="translate(-401.328 -75.38)" fill="#fff"/>
          </g>
          <g id="Group_917" data-name="Group 917" transform="translate(36.786)">
            <path id="Path_1464" data-name="Path 1464" d="M406.112,86.459a.269.269,0,0,1-.269-.268V75.648a.268.268,0,0,1,.537,0V86.191A.269.269,0,0,1,406.112,86.459Z" transform="translate(-405.843 -75.38)" fill="#fff"/>
          </g>
          <g id="Group_918" data-name="Group 918" transform="translate(42.832)">
            <path id="Path_1465" data-name="Path 1465" d="M410.627,86.459a.269.269,0,0,1-.268-.268V75.648a.268.268,0,1,1,.536,0V86.191A.269.269,0,0,1,410.627,86.459Z" transform="translate(-410.359 -75.38)" fill="#fff"/>
          </g>
          <g id="Group_919" data-name="Group 919" transform="translate(48.879)">
            <path id="Path_1466" data-name="Path 1466" d="M415.143,86.459a.268.268,0,0,1-.268-.268V75.648a.268.268,0,1,1,.536,0V86.191A.269.269,0,0,1,415.143,86.459Z" transform="translate(-414.875 -75.38)" fill="#fff"/>
          </g>
          <g id="Group_920" data-name="Group 920" transform="translate(54.922)">
            <path id="Path_1467" data-name="Path 1467" d="M419.657,86.459a.269.269,0,0,1-.268-.268V75.648a.268.268,0,0,1,.537,0V86.191A.269.269,0,0,1,419.657,86.459Z" transform="translate(-419.389 -75.38)" fill="#fff"/>
          </g>
          <g id="Group_921" data-name="Group 921" transform="translate(60.969)">
            <path id="Path_1468" data-name="Path 1468" d="M424.173,86.459a.269.269,0,0,1-.268-.268V75.648a.268.268,0,1,1,.536,0V86.191A.269.269,0,0,1,424.173,86.459Z" transform="translate(-423.905 -75.38)" fill="#fff"/>
          </g>
          <g id="Group_922" data-name="Group 922" transform="translate(67.013)">
            <path id="Path_1469" data-name="Path 1469" d="M428.689,86.459a.269.269,0,0,1-.269-.268V75.648a.268.268,0,0,1,.537,0V86.191A.269.269,0,0,1,428.689,86.459Z" transform="translate(-428.42 -75.38)" fill="#fff"/>
          </g>
          <g id="Group_923" data-name="Group 923" transform="translate(73.058)">
            <path id="Path_1470" data-name="Path 1470" d="M433.2,86.459a.269.269,0,0,1-.268-.268V75.648a.268.268,0,0,1,.536,0V86.191A.268.268,0,0,1,433.2,86.459Z" transform="translate(-432.935 -75.38)" fill="#fff"/>
          </g>
          <g id="Group_924" data-name="Group 924" transform="translate(79.105)">
            <path id="Path_1471" data-name="Path 1471" d="M437.719,86.459a.269.269,0,0,1-.268-.268V75.648a.268.268,0,0,1,.536,0V86.191A.269.269,0,0,1,437.719,86.459Z" transform="translate(-437.451 -75.38)" fill="#fff"/>
          </g>
          <g id="Group_925" data-name="Group 925" transform="translate(85.15)">
            <path id="Path_1472" data-name="Path 1472" d="M442.235,86.459a.269.269,0,0,1-.269-.268V75.648a.268.268,0,0,1,.537,0V86.191A.269.269,0,0,1,442.235,86.459Z" transform="translate(-441.966 -75.38)" fill="#fff"/>
          </g>
        </g>
        <g id="Group_955" data-name="Group 955" transform="translate(457.186 36.63)">
          <g id="Group_927" data-name="Group 927" transform="translate(105.69 113.999)">
            <path id="Path_1473" data-name="Path 1473" d="M501.72,121.977c1.8,1.992,1.712,3.192,2.307,5.754.436,1.882.627,3.86,1.383,4.207.7.323,1.406-.3,1.107-1.453a4.949,4.949,0,0,1,.106-2.913,4.006,4.006,0,0,0,.179-1.686Z" transform="translate(-501.453 -121.709)" fill="#fff"/>
            <path id="Path_1474" data-name="Path 1474" d="M505.848,132.359a1.147,1.147,0,0,1-.482-.11c-.707-.325-.953-1.553-1.263-3.107-.084-.419-.17-.853-.269-1.283-.114-.49-.2-.932-.285-1.339a7.386,7.386,0,0,0-1.96-4.3.268.268,0,0,1,.4-.36,7.9,7.9,0,0,1,2.086,4.549c.082.4.17.838.283,1.324.1.435.189.874.273,1.3.246,1.236.5,2.514.96,2.725a.506.506,0,0,0,.558-.047,1.069,1.069,0,0,0,.179-1.1,5.184,5.184,0,0,1,.107-3.057,3.808,3.808,0,0,0,.173-1.562.268.268,0,0,1,.528-.091,4.256,4.256,0,0,1-.187,1.807,4.711,4.711,0,0,0-.1,2.77,1.572,1.572,0,0,1-.353,1.64A.994.994,0,0,1,505.848,132.359Z" transform="translate(-501.52 -121.777)"/>
          </g>
          <path id="Path_1475" data-name="Path 1475" d="M489.767,184.95a3.533,3.533,0,0,1-.266,1.716c-.362.568-1.34,1.083-1.7,2.577a8.206,8.206,0,0,0-.194,2.734s6.883.55,9.057-.054c.669-.186,2.062-1.34,2.114-1.8s-.568-6.132-.568-6.132Z" transform="translate(-400.559 13.302)" fill="#da1c26"/>
          <g id="Group_928" data-name="Group 928" transform="translate(86.779 201.637)">
            <path id="Path_1476" data-name="Path 1476" d="M493.362,189.752c-2.435,0-5.525-.163-5.713-.174a.268.268,0,0,1-.253-.281.273.273,0,0,1,.282-.253c.066,0,6.618.352,8.164.051a5.457,5.457,0,0,0,2.684-1.761.268.268,0,0,1,.418.336,5.918,5.918,0,0,1-3,1.951A16.9,16.9,0,0,1,493.362,189.752Z" transform="translate(-487.396 -187.235)"/>
          </g>
          <path id="Path_1477" data-name="Path 1477" d="M498.219,124.634s4.266,28.011,7.97,47.458c3.818,20.043,5.424,34.125,5.424,34.125a66.644,66.644,0,0,1-9.865.1c-4.167-.4-5.078-.517-5.078-.517s-5.161-25.573-8.338-37.714c-3.322-12.692-4.893-22.585-4.893-22.585l-8.467,22.566A64.092,64.092,0,0,1,481.9,187.3c1.891,10.715,2.576,20.5,2.576,20.5l-14.427-1.483s-10.616-33.71-10.814-37.876c-.558-11.732,10.094-44.056,9.733-43.156C468.964,125.285,484.343,119.872,498.219,124.634Z" transform="translate(-410.168 -7.474)" fill="#00baaa"/>
          <path id="Path_1478" data-name="Path 1478" d="M469.826,185.148s-9.4,2.994-9.8,3.788a5.1,5.1,0,0,0,0,2.513l20.592.023-.629-5.278Z" transform="translate(-409.949 13.695)" fill="#da1c26"/>
          <g id="Group_929" data-name="Group 929" transform="translate(83.267 118.258)">
            <path id="Path_1479" data-name="Path 1479" d="M499.727,205.9a.267.267,0,0,1-.262-.216c-.055-.282-5.547-28.353-8.953-44.412s-5.714-35.821-5.737-36.018a.267.267,0,1,1,.53-.062c.024.2,2.326,19.922,5.73,35.97s8.9,44.137,8.954,44.419a.268.268,0,0,1-.212.315A.327.327,0,0,1,499.727,205.9Z" transform="translate(-484.773 -124.958)" fill="#fff"/>
          </g>
          <g id="Group_930" data-name="Group 930" transform="translate(60.151 132.243)">
            <path id="Path_1480" data-name="Path 1480" d="M477.4,203.317a.267.267,0,0,1-.265-.233c-.017-.134-1.765-13.421-4.493-24.471a93.1,93.1,0,0,0-3.506-10.734c-.971-2.579-1.674-4.442-1.623-5.354.246-4.445,10.493-26.051,10.929-26.968a.269.269,0,0,1,.357-.127.266.266,0,0,1,.127.356c-.106.224-10.64,22.428-10.88,26.769-.044.8.677,2.713,1.589,5.136a95.306,95.306,0,0,1,3.527,10.8c2.735,11.079,4.486,24.4,4.5,24.529a.266.266,0,0,1-.232.3Z" transform="translate(-467.507 -135.404)" fill="#fff"/>
          </g>
          <g id="Group_931" data-name="Group 931" transform="translate(89.674 199.3)">
            <path id="Path_1481" data-name="Path 1481" d="M494.386,186.785a.246.246,0,0,1-.107-.024,8.647,8.647,0,0,0-2.976-.73,3.3,3.3,0,0,0-1.321.262.273.273,0,0,1-.37-.06.262.262,0,0,1,.042-.363,3.171,3.171,0,0,1,1.608-.374,8.574,8.574,0,0,1,3.233.774.268.268,0,0,1,.135.353A.265.265,0,0,1,494.386,186.785Z" transform="translate(-489.558 -185.489)"/>
          </g>
          <g id="Group_932" data-name="Group 932" transform="translate(56.474 199.299)">
            <path id="Path_1482" data-name="Path 1482" d="M466.6,187.629a.268.268,0,0,1-.248-.166,2.636,2.636,0,0,0-1.411-1.453.268.268,0,0,1,.175-.506,3.166,3.166,0,0,1,1.732,1.755.269.269,0,0,1-.249.37Z" transform="translate(-464.761 -185.489)"/>
          </g>
          <g id="Group_933" data-name="Group 933" transform="translate(69.997 125.632)">
            <path id="Path_1483" data-name="Path 1483" d="M478.133,143.13a.268.268,0,0,1-.244-.159c-.031-.067-3.029-6.827-3.029-12.237a.268.268,0,1,1,.536,0c0,5.3,2.951,11.952,2.982,12.019a.269.269,0,0,1-.245.378Z" transform="translate(-474.861 -130.466)" fill="#fff"/>
          </g>
          <g id="Group_934" data-name="Group 934" transform="translate(28.394 41.693)">
            <path id="Path_1484" data-name="Path 1484" d="M444.29,69.635c.633-.436,1.058.447,1.058.447s-.252-1.214.428-1.449c.656-.225,1.058.86,1.058.86s-.2-1.134.525-1.437c.663-.278,1.165.943,1.165.943s-.054-1.18.809-1.012c.969.189,1.028,3.577,1.621,5.568.574,1.931.1,2.164,1.117,4.184s8.143,16.6,8.779,17.192c.983.914,7.269,5.09,7.269,5.09l-.852,12.237s-12.279-9.155-14.012-12.5A86.531,86.531,0,0,1,447.981,83.6c-.637-3.375-1.763-5.076-2.627-7.206C444.31,73.822,443.531,70.159,444.29,69.635Z" transform="translate(-443.72 -67.703)" fill="#fff"/>
            <path id="Path_1485" data-name="Path 1485" d="M467.335,112.6a.268.268,0,0,1-.161-.055c-.5-.375-12.348-9.23-14.091-12.593a85.959,85.959,0,0,1-5.3-16.23,21.272,21.272,0,0,0-1.873-5.487c-.256-.552-.507-1.094-.74-1.668-.857-2.111-2.019-6.357-.968-7.081a.828.828,0,0,1,.7-.142.818.818,0,0,1,.206.086,1.06,1.06,0,0,1,.644-.977.858.858,0,0,1,.913.248,1.135,1.135,0,0,1,.653-.819.772.772,0,0,1,.605,0,1.369,1.369,0,0,1,.529.434.988.988,0,0,1,.248-.349.838.838,0,0,1,.746-.17c.815.158,1.051,1.588,1.35,3.4a20.732,20.732,0,0,0,.477,2.355,9.731,9.731,0,0,1,.357,1.759,6.037,6.037,0,0,0,.743,2.38c.171.343.518,1.047.981,1.983,1.972,3.992,7.21,14.6,7.74,15.134.957.889,7.171,5.021,7.234,5.064a.268.268,0,0,1,.119.241l-.85,12.237a.266.266,0,0,1-.155.225A.274.274,0,0,1,467.335,112.6ZM444.707,69.849a.352.352,0,0,0-.2.074h0c-.494.341-.021,3.525,1.161,6.44.229.565.477,1.1.73,1.645a21.7,21.7,0,0,1,1.913,5.611A87.009,87.009,0,0,0,453.558,99.7c1.513,2.92,11.434,10.519,13.544,12.115l.8-11.59c-.928-.619-6.25-4.175-7.171-5.031-.5-.461-4.069-7.619-7.856-15.288-.462-.935-.809-1.637-.98-1.98a6.579,6.579,0,0,1-.794-2.553,9.576,9.576,0,0,0-.339-1.674,20.821,20.821,0,0,1-.5-2.421c-.2-1.213-.471-2.873-.921-2.962a.316.316,0,0,0-.293.051,1.011,1.011,0,0,0-.2.687.272.272,0,0,1-.21.274.276.276,0,0,1-.305-.161,1.657,1.657,0,0,0-.62-.8.236.236,0,0,0-.193,0c-.517.217-.367,1.135-.365,1.145a.268.268,0,0,1-.516.139c0-.008-.323-.829-.719-.7-.379.131-.3.933-.253,1.142a.268.268,0,0,1-.177.307.265.265,0,0,1-.327-.135c-.044-.091-.214-.36-.407-.41A.2.2,0,0,0,444.707,69.849Zm-.351-.146h0Z" transform="translate(-443.787 -67.771)"/>
          </g>
          <g id="Group_935" data-name="Group 935" transform="translate(37.637 41.773)">
            <path id="Path_1486" data-name="Path 1486" d="M450.891,68.031s.042,1.619.146,2.64a9.514,9.514,0,0,0,.2,1.367Z" transform="translate(-450.623 -67.763)" fill="#fff"/>
            <path id="Path_1487" data-name="Path 1487" d="M451.306,72.374a.266.266,0,0,1-.257-.2,9.735,9.735,0,0,1-.212-1.412c-.1-1.02-.143-2.595-.146-2.66a.267.267,0,0,1,.261-.274h.007a.267.267,0,0,1,.268.261c0,.016.042,1.62.145,2.619a10.312,10.312,0,0,0,.191,1.324.266.266,0,0,1-.186.328A.261.261,0,0,1,451.306,72.374Z" transform="translate(-450.691 -67.831)"/>
          </g>
          <g id="Group_936" data-name="Group 936" transform="translate(31.202 43.147)">
            <path id="Path_1488" data-name="Path 1488" d="M446.084,69.057s.217,1.605.431,2.609a9.02,9.02,0,0,0,.329,1.28Z" transform="translate(-445.817 -68.79)" fill="#fff"/>
            <path id="Path_1489" data-name="Path 1489" d="M446.911,73.282a.268.268,0,0,1-.246-.165,9.381,9.381,0,0,1-.344-1.327c-.214-1-.424-2.564-.434-2.63a.268.268,0,0,1,.531-.072c0,.016.217,1.607.426,2.589a9.221,9.221,0,0,0,.316,1.234.267.267,0,0,1-.147.348A.248.248,0,0,1,446.911,73.282Z" transform="translate(-445.884 -68.857)"/>
          </g>
          <g id="Group_937" data-name="Group 937" transform="translate(32.919 42.739)">
            <path id="Path_1490" data-name="Path 1490" d="M447.368,68.752s.216,1.605.43,2.609a8.617,8.617,0,0,0,.324,1.26Z" transform="translate(-447.099 -68.485)" fill="#fff"/>
            <path id="Path_1491" data-name="Path 1491" d="M448.187,72.955a.266.266,0,0,1-.245-.162,8.793,8.793,0,0,1-.337-1.308c-.214-1-.426-2.564-.435-2.63a.268.268,0,1,1,.531-.071c0,.016.217,1.607.426,2.588a9.3,9.3,0,0,0,.309,1.214.268.268,0,0,1-.146.348A.272.272,0,0,1,448.187,72.955Z" transform="translate(-447.167 -68.553)"/>
          </g>
          <g id="Group_938" data-name="Group 938" transform="translate(86.502 86.966)">
            <path id="Path_1492" data-name="Path 1492" d="M508.174,131.459c-.821-2.352-10.9-14.107-11.652-14.541-1.41-.813-2.476-2.169-9.134-6.4l4.109-8.733s8.727,5.942,11.166,8.814a84.146,84.146,0,0,1,8.941,14.472c1.378,3.146,2.857,4.549,4.177,6.433,1.595,2.273,3.176,5.667,2.555,6.347-.519.568-1.131-.2-1.131-.2s.518,1.127-.094,1.509c-.589.366-1.222-.6-1.222-.6s.447,1.06-.19,1.518c-.584.419-1.346-.657-1.346-.657s.317,1.138-.561,1.167c-.988.033-1.806-3.256-2.83-5.062Z" transform="translate(-487.121 -101.519)" fill="#fff"/>
            <path id="Path_1493" data-name="Path 1493" d="M513.842,140.925c-.815,0-1.363-1.332-2.054-3.014a20.3,20.3,0,0,0-.991-2.185.267.267,0,0,1,.465-.264,20.516,20.516,0,0,1,1.022,2.245c.466,1.133,1.1,2.682,1.56,2.682h.007a.313.313,0,0,0,.273-.114,1.014,1.014,0,0,0,.039-.715.267.267,0,0,1,.143-.313.27.27,0,0,1,.333.087,1.661,1.661,0,0,0,.782.637.229.229,0,0,0,.189-.042c.45-.325.1-1.189.1-1.2a.267.267,0,0,1,.47-.25c0,.007.51.735.86.519.332-.208.1-.933-.009-1.17a.267.267,0,0,1,.1-.339.27.27,0,0,1,.349.059.846.846,0,0,0,.486.309.3.3,0,0,0,.238-.122c.406-.445-.77-3.441-2.576-6.014-.351-.5-.711-.965-1.078-1.439a21.583,21.583,0,0,1-3.125-5.041,83.522,83.522,0,0,0-8.9-14.406c-2.154-2.536-9.391-7.578-10.854-8.587l-3.875,8.235a85.082,85.082,0,0,1,7.33,5.12,14.231,14.231,0,0,0,1.593,1.145c.929.537,10.968,12.379,11.771,14.686a.267.267,0,1,1-.5.177c-.852-2.441-10.949-14.042-11.534-14.4a14.524,14.524,0,0,1-1.655-1.188,85.345,85.345,0,0,0-7.487-5.215.268.268,0,0,1-.1-.34l4.108-8.735a.261.261,0,0,1,.171-.145.267.267,0,0,1,.221.037c.357.244,8.784,5.994,11.221,8.862a84.4,84.4,0,0,1,8.982,14.537,21.193,21.193,0,0,0,3.055,4.927c.372.481.74.953,1.1,1.459,1.308,1.865,3.394,5.741,2.532,6.682a.86.86,0,0,1-.651.3.847.847,0,0,1-.22-.037,1.058,1.058,0,0,1-.41,1.1.861.861,0,0,1-.945-.036,1.131,1.131,0,0,1-.453.944.752.752,0,0,1-.59.135,1.374,1.374,0,0,1-.612-.3.962.962,0,0,1-.166.4.842.842,0,0,1-.685.333Z" transform="translate(-487.189 -101.586)"/>
          </g>
          <g id="Group_939" data-name="Group 939" transform="translate(114.673 119.162)">
            <path id="Path_1494" data-name="Path 1494" d="M510.074,129.505s-.572-1.516-1.005-2.446a9.489,9.489,0,0,0-.64-1.225Z" transform="translate(-508.162 -125.565)" fill="#fff"/>
            <path id="Path_1495" data-name="Path 1495" d="M510.142,129.841a.269.269,0,0,1-.252-.174c-.005-.015-.572-1.516-1-2.427a9.9,9.9,0,0,0-.616-1.185.268.268,0,0,1,.068-.372.263.263,0,0,1,.371.067,9.632,9.632,0,0,1,.663,1.264c.434.929.991,2.4,1.014,2.465a.268.268,0,0,1-.157.345A.29.29,0,0,1,510.142,129.841Z" transform="translate(-508.23 -125.633)"/>
          </g>
          <g id="Group_940" data-name="Group 940" transform="translate(113.44 120.18)">
            <path id="Path_1496" data-name="Path 1496" d="M509.122,130.213s-.572-1.516-1.005-2.446a8.947,8.947,0,0,0-.608-1.173Z" transform="translate(-507.241 -126.326)" fill="#fff"/>
            <path id="Path_1497" data-name="Path 1497" d="M509.189,130.549a.268.268,0,0,1-.25-.174c-.005-.015-.572-1.517-1-2.426a9.408,9.408,0,0,0-.585-1.133.268.268,0,0,1,.064-.372.265.265,0,0,1,.371.062,8.736,8.736,0,0,1,.636,1.217c.432.929.988,2.4,1.012,2.465a.268.268,0,0,1-.157.344A.265.265,0,0,1,509.189,130.549Z" transform="translate(-507.309 -126.394)"/>
          </g>
          <g id="Group_941" data-name="Group 941" transform="translate(111.868 120.981)">
            <path id="Path_1498" data-name="Path 1498" d="M507.938,130.794s-.572-1.516-1.005-2.446a8.781,8.781,0,0,0-.6-1.155Z" transform="translate(-506.067 -126.925)" fill="#fff"/>
            <path id="Path_1499" data-name="Path 1499" d="M508.005,131.129a.27.27,0,0,1-.252-.173c-.005-.016-.572-1.517-1-2.427a9.191,9.191,0,0,0-.573-1.113.272.272,0,0,1,.063-.374.268.268,0,0,1,.374.06,8.991,8.991,0,0,1,.623,1.2c.434.929.991,2.4,1.013,2.465a.266.266,0,0,1-.157.344A.257.257,0,0,1,508.005,131.129Z" transform="translate(-506.135 -126.992)"/>
          </g>
          <path id="Path_1500" data-name="Path 1500" d="M500.769,117.23l-4.816-3.461s-.27-.351.545,10.312a79.033,79.033,0,0,0,2.291,11.538c-4.181,2.5-28.8,4.268-29.512,2.161s-3.9-26.9-3.813-27.537-7.887-6.185-7.887-6.185a30.6,30.6,0,0,1,.379-6.75,22.356,22.356,0,0,1,2.71-7.053L473.67,97.1s1.1,5.795,5.191,5.665,6.917-4.561,6.917-4.561l9.835,3.184L505.125,107A64.685,64.685,0,0,1,500.769,117.23Z" transform="translate(-410.737 -18.46)" fill="#da1c26"/>
          <circle id="Ellipse_245" data-name="Ellipse 245" cx="20.247" cy="20.247" r="20.247" transform="translate(0 31.263) rotate(-50.539)" fill="#f5bd22"/>
          <g id="Group_942" data-name="Group 942" transform="translate(11.517 11.518)">
            <path id="Path_1501" data-name="Path 1501" d="M448.139,79.2A17,17,0,1,1,450,79.1l-.029-.265L450,79.1A17.1,17.1,0,0,1,448.139,79.2Zm.037-33.428A16.453,16.453,0,0,0,431.817,64a16.464,16.464,0,0,0,18.128,14.568h0a16.446,16.446,0,0,0-1.769-32.8Z" transform="translate(-431.182 -45.233)"/>
          </g>
          <g id="Group_944" data-name="Group 944" transform="translate(23.05 16.656)">
            <g id="Group_943" data-name="Group 943">
              <path id="Path_1502" data-name="Path 1502" d="M442.4,68.672q-.07-.645.79-.739a4.791,4.791,0,0,1,1.159.058,4.486,4.486,0,0,0,1.028.074,3.7,3.7,0,0,0,.593-.112q-.3-1.892-1.335-8.436-.1-.072-.675-.466t-.952-.664q-.379-.265-1.1-.854a8.088,8.088,0,0,1-1.074-1,4.12,4.12,0,0,1-1.023-2.093,2.75,2.75,0,0,1,.781-2.04,6.642,6.642,0,0,1,2.643-1.773,6.749,6.749,0,0,0-.124-.8.773.773,0,0,1,.09-.58.375.375,0,0,1,.3-.175,1.012,1.012,0,0,1,.4.051.807.807,0,0,1,.576.758l.033.319a14.336,14.336,0,0,1,2.083-.407,4.622,4.622,0,0,1,1.6.07,1.823,1.823,0,0,1,.984.529l-.6.586c-.261.028-.669.048-1.222.058s-1,.023-1.338.044l-.187.02a9.548,9.548,0,0,0-1.131.206l1.363,7.481q3.237,2.119,4.029,3.65a5.04,5.04,0,0,1,.494,1.763,4.064,4.064,0,0,1-.536,2.281,4.568,4.568,0,0,1-2.1,1.988l.186,1.7c.007.056.012.106.017.153a.962.962,0,0,1-.988,1.177c-.449.048-.7-.173-.754-.665l-.02-.189-.248-1.589q-.223.048-.708.1t-1.109.059a5.73,5.73,0,0,1-1.261-.123Q442.43,68.966,442.4,68.672Zm1.935-11.06q-.213-1.257-.914-5.795a3.723,3.723,0,0,0-1.39,1.138,1.928,1.928,0,0,0-.362,1.37Q441.825,55.781,444.332,57.612Zm3.239,9.44a3.969,3.969,0,0,0,.983-1.485,3.168,3.168,0,0,0,.253-1.407q-.173-1.587-2.367-3.331Z" transform="translate(-439.796 -49.071)"/>
            </g>
          </g>
          <g id="Group_945" data-name="Group 945" transform="translate(62.386 69.96)">
            <path id="Path_1503" data-name="Path 1503" d="M481.763,98.6a7.707,7.707,0,0,1-2.5-3.7,13.379,13.379,0,0,1,.368-5.812l-6.034.514a26.69,26.69,0,0,1-.809,5.224,6.17,6.17,0,0,1-3.409,3.938s2.085,4.452,5.322,4.452S481.763,98.6,481.763,98.6Z" transform="translate(-469.109 -88.816)" fill="#fff"/>
            <path id="Path_1504" data-name="Path 1504" d="M474.767,103.547c-3.37,0-5.477-4.417-5.564-4.606a.259.259,0,0,1-.007-.212.264.264,0,0,1,.149-.15,5.961,5.961,0,0,0,3.251-3.755,26.845,26.845,0,0,0,.8-5.167.269.269,0,0,1,.245-.258l6.033-.515a.292.292,0,0,1,.23.1.267.267,0,0,1,.048.248,13.189,13.189,0,0,0-.362,5.677A7.476,7.476,0,0,0,482,98.454a.27.27,0,0,1,.1.181.273.273,0,0,1-.06.2C481.879,99.027,478.091,103.547,474.767,103.547Zm-4.958-4.592c.483.905,2.352,4.055,4.958,4.055,2.7,0,5.911-3.442,6.685-4.318a7.619,7.619,0,0,1-2.384-3.67,13.06,13.06,0,0,1,.269-5.572l-5.418.463a28.1,28.1,0,0,1-.8,5.043A6.349,6.349,0,0,1,469.809,98.955Z" transform="translate(-469.177 -88.884)"/>
          </g>
          <g id="Group_946" data-name="Group 946" transform="translate(62.817 59.07)">
            <path id="Path_1505" data-name="Path 1505" d="M475.6,80.95s-4.856,7.737-5.511,9.47-.712,3.322,1.516,5.444,6.27-.722,7.959-4.276a50.519,50.519,0,0,0,2.692-7.136Z" transform="translate(-469.43 -80.683)" fill="#fff"/>
            <path id="Path_1506" data-name="Path 1506" d="M473.52,96.926a2.863,2.863,0,0,1-2.028-.8c-2.285-2.177-2.284-3.867-1.581-5.733.656-1.738,5.335-9.2,5.535-9.517a.267.267,0,0,1,.351-.1l6.655,3.5a.268.268,0,0,1,.134.309,51.222,51.222,0,0,1-2.707,7.179c-1.222,2.568-3.612,4.709-5.685,5.093A3.657,3.657,0,0,1,473.52,96.926Zm2.247-15.556c-.781,1.25-4.777,7.682-5.354,9.213-.647,1.714-.631,3.174,1.447,5.155a2.429,2.429,0,0,0,2.236.6c1.917-.355,4.145-2.372,5.3-4.8a50.773,50.773,0,0,0,2.616-6.886Z" transform="translate(-469.498 -80.75)"/>
          </g>
          <path id="Path_1507" data-name="Path 1507" d="M473.444,80.238c-.845,1.068-.868,3.44,1.569,4.9,1.7,1.024,4.262,1.014,4.319,1.884.056.854-1.886,3.96-.773,5.121s6.362-3.979,5.617-7.311S476.672,76.157,473.444,80.238Z" transform="translate(-405.52 -22.353)" fill="#f5bd22"/>
          <g id="Group_947" data-name="Group 947" transform="translate(71.926 69.52)">
            <path id="Path_1508" data-name="Path 1508" d="M477.348,88.761s1.375-.141,1.051,1.1a1.074,1.074,0,0,1-1.9.4C476.451,89.859,477.348,88.761,477.348,88.761Z" transform="translate(-476.235 -88.487)" fill="#fff"/>
            <path id="Path_1509" data-name="Path 1509" d="M477.439,91.022q-.054,0-.108,0c-.461-.029-.975-.266-1.024-.649-.06-.471.611-1.352.9-1.71a.267.267,0,0,1,.181-.1,1.457,1.457,0,0,1,1.174.38A1.112,1.112,0,0,1,478.725,90,1.273,1.273,0,0,1,477.439,91.022Zm.111-1.931a3.465,3.465,0,0,0-.712,1.209.946.946,0,0,0,.712.179.74.74,0,0,0,.657-.613.63.63,0,0,0-.051-.576A.856.856,0,0,0,477.55,89.092Z" transform="translate(-476.302 -88.555)"/>
          </g>
          <path id="Path_1510" data-name="Path 1510" d="M472.287,85.2s-6.222,8.309-1.9,11.511,7.174-1.34,8.178-2.767a16.1,16.1,0,0,0,1.3-2.055l-.909-.609s-1.682,1.793-2.524,1.451c-1.125-.458-1.186-1.64-2.3-2.7s-2.093-.677-2.746-1.118C470.382,88.233,472.287,85.2,472.287,85.2Z" transform="translate(-406.897 -20.173)" fill="#505050"/>
          <g id="Group_948" data-name="Group 948" transform="translate(66.37 64.834)">
            <path id="Path_1511" data-name="Path 1511" d="M474.919,85.255S472.4,88,472.356,88.19s1.086.905,1.086.905Z" transform="translate(-472.083 -84.988)" fill="#fff"/>
            <path id="Path_1512" data-name="Path 1512" d="M473.511,89.43a.267.267,0,0,1-.145-.042c-1.285-.818-1.236-1.042-1.2-1.189.017-.084.058-.258,2.627-3.058a.268.268,0,0,1,.395.363c-1.02,1.111-2.146,2.37-2.447,2.761a7.326,7.326,0,0,0,.916.671.268.268,0,0,1-.143.494Z" transform="translate(-472.152 -85.055)"/>
          </g>
          <path id="Path_1513" data-name="Path 1513" d="M475.267,87.243a.29.29,0,1,1-.112-.427A.313.313,0,0,1,475.267,87.243Z" transform="translate(-404.915 -19.633)"/>
          <path id="Path_1514" data-name="Path 1514" d="M472.952,85.586a.25.25,0,1,1-.1-.367A.271.271,0,0,1,472.952,85.586Z" transform="translate(-405.673 -20.173)"/>
          <g id="Group_949" data-name="Group 949" transform="translate(65.399 70.341)">
            <path id="Path_1515" data-name="Path 1515" d="M472.991,90.338a1.8,1.8,0,0,1-.641-.114,2.176,2.176,0,0,1-.869-.627.27.27,0,0,1,.051-.376.273.273,0,0,1,.376.051,1.605,1.605,0,0,0,.635.453,1.484,1.484,0,0,0,.833.031.268.268,0,0,1,.15.514A1.993,1.993,0,0,1,472.991,90.338Z" transform="translate(-471.426 -89.168)" fill="#fff"/>
          </g>
          <g id="Group_950" data-name="Group 950" transform="translate(34.05 44.077)">
            <path id="Path_1516" data-name="Path 1516" d="M452.288,80.473c-1.308-2.346-.953-3.5-.957-6.125,0-1.932.257-3.9-.4-4.41-.615-.473-1.437-.025-1.406,1.169a4.95,4.95,0,0,1-.755,2.814,4,4,0,0,0-.554,1.6Z" transform="translate(-447.944 -69.483)" fill="#fff"/>
            <path id="Path_1517" data-name="Path 1517" d="M452.357,80.809a.266.266,0,0,1-.233-.138,7.887,7.887,0,0,1-1.014-4.9c.011-.41.023-.856.021-1.355,0-.446.013-.892.027-1.324.036-1.261.075-2.565-.325-2.873a.5.5,0,0,0-.554-.079,1.069,1.069,0,0,0-.42,1.027,5.183,5.183,0,0,1-.791,2.955,3.843,3.843,0,0,0-.519,1.486.26.26,0,0,1-.282.25.268.268,0,0,1-.253-.281,4.28,4.28,0,0,1,.59-1.72,4.708,4.708,0,0,0,.72-2.675,1.572,1.572,0,0,1,.712-1.52,1.031,1.031,0,0,1,1.125.133c.617.475.58,1.727.533,3.314-.012.426-.025.868-.024,1.308,0,.5-.012.955-.024,1.37a7.382,7.382,0,0,0,.947,4.624.267.267,0,0,1-.234.4Z" transform="translate(-448.012 -69.551)"/>
          </g>
          <g id="Group_951" data-name="Group 951" transform="translate(77.644 95.254)">
            <path id="Path_1518" data-name="Path 1518" d="M480.841,117.2a.269.269,0,0,1-.163-.481,23.28,23.28,0,0,0,6.6-8.771.26.26,0,0,1,.347-.15.268.268,0,0,1,.153.347,23.9,23.9,0,0,1-6.776,9A.259.259,0,0,1,480.841,117.2Z" transform="translate(-480.573 -107.776)"/>
          </g>
          <g id="Group_952" data-name="Group 952" transform="translate(59.318 115.683)">
            <path id="Path_1519" data-name="Path 1519" d="M469.531,124.588h-.019a4.163,4.163,0,0,1-2.552-1.1.267.267,0,0,1,.383-.374,3.691,3.691,0,0,0,2.206.939.268.268,0,0,1-.019.536Z" transform="translate(-466.885 -123.035)"/>
          </g>
          <g id="Group_953" data-name="Group 953" transform="translate(77.059 59.761)">
            <path id="Path_1520" data-name="Path 1520" d="M482.985,84.246a.27.27,0,0,1-.264-.224A2.892,2.892,0,0,0,480.36,81.8a.269.269,0,0,1-.221-.307.259.259,0,0,1,.307-.222,3.487,3.487,0,0,1,2.8,2.662.267.267,0,0,1-.22.309A.235.235,0,0,1,482.985,84.246Z" transform="translate(-480.136 -81.266)"/>
          </g>
          <g id="Group_954" data-name="Group 954" transform="translate(49.681 204.067)">
            <path id="Path_1521" data-name="Path 1521" d="M480.58,189.587H459.955a.268.268,0,0,1,0-.537H480.58a.268.268,0,0,1,0,.537Z" transform="translate(-459.687 -189.05)"/>
          </g>
        </g>
        <g id="Group_1014" data-name="Group 1014" transform="translate(320.452 45.468)">
          <g id="Group_963" data-name="Group 963" transform="translate(7.686 76.054)">
            <g id="Group_956" data-name="Group 956">
              <path id="Path_1522" data-name="Path 1522" d="M326.863,220.477a.662.662,0,0,1-.339-.092.671.671,0,0,1-.24-.916l69.808-119.1a.67.67,0,1,1,1.155.677l-69.806,119.1A.672.672,0,0,1,326.863,220.477Z" transform="translate(-326.193 -100.037)" fill="#fff"/>
            </g>
            <g id="Group_957" data-name="Group 957" transform="translate(28.827 0.065)">
              <path id="Path_1523" data-name="Path 1523" d="M348.393,220.525a.668.668,0,0,1-.577-1.007l69.806-119.1a.67.67,0,0,1,1.155.677l-69.806,119.1A.671.671,0,0,1,348.393,220.525Z" transform="translate(-347.724 -100.086)" fill="#fff"/>
            </g>
            <g id="Group_958" data-name="Group 958" transform="translate(9.388 104.443)">
              <path id="Path_1524" data-name="Path 1524" d="M361.289,178.647h0l-27.816-.066a.268.268,0,1,1,0-.536h0l27.816.064a.268.268,0,0,1,0,.537Z" transform="translate(-333.205 -178.046)" fill="#fff"/>
            </g>
            <g id="Group_959" data-name="Group 959" transform="translate(21.397 84.178)">
              <path id="Path_1525" data-name="Path 1525" d="M370.258,163.51h0l-27.815-.064a.268.268,0,1,1,0-.536h0l27.815.063a.268.268,0,0,1,0,.537Z" transform="translate(-342.174 -162.91)" fill="#fff"/>
            </g>
            <g id="Group_960" data-name="Group 960" transform="translate(34.749 61.404)">
              <path id="Path_1526" data-name="Path 1526" d="M380.232,146.5h0l-27.817-.064a.268.268,0,0,1,0-.536h0l27.817.064a.268.268,0,0,1,0,.536Z" transform="translate(-352.147 -145.9)" fill="#fff"/>
            </g>
            <g id="Group_961" data-name="Group 961" transform="translate(47.753 39.76)">
              <path id="Path_1527" data-name="Path 1527" d="M389.944,130.335h0l-27.816-.066a.268.268,0,1,1,0-.536h0l27.816.064a.268.268,0,1,1,0,.537Z" transform="translate(-361.86 -129.734)" fill="#fff"/>
            </g>
            <g id="Group_962" data-name="Group 962" transform="translate(60.348 18.629)">
              <path id="Path_1528" data-name="Path 1528" d="M399.351,114.551h0l-27.816-.064a.268.268,0,1,1,0-.536h0l27.816.064a.268.268,0,0,1,0,.536Z" transform="translate(-371.267 -113.951)" fill="#fff"/>
            </g>
          </g>
          <path id="Path_1529" data-name="Path 1529" d="M378.473,58.086s5.721,0,5.954-3.951a4.849,4.849,0,0,0-6.927-4.881c-3.609,1.473-5.084,4.595-6.323,5.758s-7.555.179-9.526,3.694c-2.654,4.731,1.584,6.969,1.042,9.525-.8,3.751-7.3,4.592-9.114,9.855-2.639,7.664,4.006,11.285,11.712,8.743C381.513,81.474,378.473,58.086,378.473,58.086Z" transform="translate(-309.427 -41.339)" fill="#f5bd22"/>
          <g id="Group_969" data-name="Group 969" transform="translate(85.303 11.211)">
            <g id="Group_964" data-name="Group 964">
              <path id="Path_1530" data-name="Path 1530" d="M386.136,78.473l-1.771-9.736s4.768-1.558,7.362-2.312c4.354-1.455,14.326-7.481,16.077-8.4,1.948-1.026,1.706-1.478,3.255-2.682,1.6-1.24,3.563-3.892,4.437-3.492.778.356.067,1.26.067,1.26s1.09-.683,1.457-.087c.4.649-.4,1.435-.4,1.435s.932-.632,1.324-.082c.407.57-.481,1.39-.481,1.39s.837-.459,1.091.245c.305.845-2.387,3.3-4.671,4.75a68.174,68.174,0,0,0-6.163,4.22c-4.025,3.1-9.854,7.728-11.786,8.952C393.776,75.3,386.136,78.473,386.136,78.473Z" transform="translate(-384.098 -51.536)" fill="#fff"/>
              <path id="Path_1531" data-name="Path 1531" d="M386.2,78.809a.26.26,0,0,1-.128-.033.264.264,0,0,1-.134-.187l-1.771-9.736a.264.264,0,0,1,.178-.3c.048-.016,4.8-1.568,7.372-2.314,3.362-1.125,10.165-5.034,13.818-7.135,1.058-.607,1.821-1.046,2.209-1.25a5.89,5.89,0,0,0,1.933-1.463,9.548,9.548,0,0,1,1.281-1.192,19.8,19.8,0,0,0,1.71-1.592c1.263-1.268,2.268-2.277,3-1.932a.82.82,0,0,1,.5.561.935.935,0,0,1,0,.408,1.35,1.35,0,0,1,.656-.042.765.765,0,0,1,.485.345,1.107,1.107,0,0,1,.059,1.015.841.841,0,0,1,.858.324,1.04,1.04,0,0,1-.036,1.138.931.931,0,0,1,.2.048.821.821,0,0,1,.479.514c.423,1.173-2.905,3.88-4.78,5.069l-.581.364a63.694,63.694,0,0,0-5.562,3.84c-.964.743-2.03,1.574-3.124,2.423-3.54,2.755-7.2,5.606-8.681,6.543-2.157,1.366-9.529,4.433-9.842,4.563A.279.279,0,0,1,386.2,78.809Zm-1.466-9.822,1.67,9.178c1.445-.606,7.581-3.208,9.454-4.393,1.458-.924,5.109-3.765,8.641-6.512,1.093-.852,2.16-1.682,3.125-2.426a63.318,63.318,0,0,1,5.6-3.867l.577-.366c2.584-1.637,4.762-3.887,4.563-4.434a.282.282,0,0,0-.163-.194.811.811,0,0,0-.548.1.268.268,0,0,1-.309-.432c.183-.171.664-.732.445-1.04s-.949.145-.956.15a.27.27,0,0,1-.357-.054.267.267,0,0,1,.019-.359c.007-.007.637-.653.359-1.1a.221.221,0,0,0-.15-.106,1.659,1.659,0,0,0-.936.28.268.268,0,0,1-.353-.392,1,1,0,0,0,.232-.652c-.013-.052-.047-.13-.2-.2-.4-.194-1.557.973-2.4,1.822a20.423,20.423,0,0,1-1.759,1.636,9.029,9.029,0,0,0-1.217,1.134A6.425,6.425,0,0,1,408,58.325c-.38.2-1.178.661-2.19,1.242-3.672,2.11-10.5,6.036-13.927,7.18C389.629,67.4,385.709,68.671,384.738,68.987Z" transform="translate(-384.165 -51.605)"/>
            </g>
            <g id="Group_968" data-name="Group 968" transform="translate(28.408 1.322)">
              <g id="Group_965" data-name="Group 965" transform="translate(1.84 2.638)">
                <path id="Path_1532" data-name="Path 1532" d="M409.81,54.762s-1.08,1.149-1.818,1.824a9.375,9.375,0,0,1-1.034.861Z" transform="translate(-406.69 -54.495)" fill="#fff"/>
                <path id="Path_1533" data-name="Path 1533" d="M407.026,57.782a.268.268,0,0,1-.145-.493,9.479,9.479,0,0,0,1-.834c.723-.66,1.794-1.8,1.8-1.809a.268.268,0,0,1,.39.367c-.044.048-1.1,1.165-1.833,1.837a9.35,9.35,0,0,1-1.07.89A.266.266,0,0,1,407.026,57.782Z" transform="translate(-406.758 -54.562)"/>
              </g>
              <g id="Group_966" data-name="Group 966" transform="translate(1.113 1.297)">
                <path id="Path_1534" data-name="Path 1534" d="M409.219,53.761s-1.08,1.149-1.818,1.822a8.842,8.842,0,0,1-.985.827Z" transform="translate(-406.146 -53.492)" fill="#fff"/>
                <path id="Path_1535" data-name="Path 1535" d="M406.483,56.746a.268.268,0,0,1-.142-.5,9,9,0,0,0,.947-.8c.723-.659,1.794-1.8,1.8-1.809a.268.268,0,0,1,.39.368c-.044.047-1.1,1.163-1.833,1.837a8.929,8.929,0,0,1-1.026.857A.258.258,0,0,1,406.483,56.746Z" transform="translate(-406.214 -53.56)"/>
              </g>
              <g id="Group_967" data-name="Group 967">
                <path id="Path_1536" data-name="Path 1536" d="M408.37,52.793s-1.079,1.147-1.818,1.822a8.424,8.424,0,0,1-.969.814Z" transform="translate(-405.316 -52.524)" fill="#fff"/>
                <path id="Path_1537" data-name="Path 1537" d="M405.652,55.766a.268.268,0,0,1-.141-.5,8.957,8.957,0,0,0,.928-.785c.723-.659,1.794-1.8,1.8-1.809a.268.268,0,0,1,.39.368c-.044.047-1.1,1.163-1.833,1.837a8.854,8.854,0,0,1-1.009.846A.277.277,0,0,1,405.652,55.766Z" transform="translate(-405.383 -52.592)"/>
              </g>
            </g>
          </g>
          <path id="Path_1538" data-name="Path 1538" d="M375.3,64.766s16.433-1,18.206-1.655,4.128-1.473,4.128-1.473l2.447,15.93s-18.388-.277-23.092-2.426S375.3,64.766,375.3,64.766Z" transform="translate(-302.189 -36.994)" fill="#da1c25"/>
          <g id="Group_975" data-name="Group 975" transform="translate(48.101 120.076)">
            <g id="Group_970" data-name="Group 970" transform="translate(0.689)">
              <path id="Path_1539" data-name="Path 1539" d="M358.89,134.529s-2.046,13.754-1.786,14.248,14.679-.072,14.679-.072a2.981,2.981,0,0,0-.813-2.243c-.959-.991-7.144-2.174-7.943-2.853s2.178-10.493,2.178-10.493Z" transform="translate(-356.83 -132.849)" fill="#fff"/>
              <path id="Path_1540" data-name="Path 1540" d="M361.071,149.318c-3.96,0-4.084-.234-4.142-.347-.261-.5.991-9.245,1.759-14.413a.269.269,0,0,1,.206-.222l6.315-1.414a.278.278,0,0,1,.254.079.268.268,0,0,1,.06.261c-1.4,4.6-2.62,9.68-2.251,10.221a16.58,16.58,0,0,0,3.193,1.072c2.052.582,4.175,1.185,4.758,1.789a3.228,3.228,0,0,1,.886,2.459.265.265,0,0,1-.254.237C366.649,149.246,363.27,149.318,361.071,149.318Zm-3.662-.653c1.082.249,9.06.047,14.176-.149a2.736,2.736,0,0,0-.744-1.8c-.485-.5-2.722-1.135-4.52-1.647a13.376,13.376,0,0,1-3.4-1.19c-.8-.681,1-7.137,1.964-10.335l-5.689,1.272C358.455,139.78,357.373,147.567,357.41,148.665Zm.008.094h0Z" transform="translate(-356.894 -132.917)"/>
            </g>
            <path id="Path_1541" data-name="Path 1541" d="M356.426,140.964l.261,6.843h18.057s1.1-2.263-1.874-3.5c-3.181-1.324-3.691-2.2-5.288-2.972-3.5-1.7-2.887-2.616-4.079-2.528s-1.445,1.576-1.445,1.576Z" transform="translate(-356.363 -130.923)" fill="#17afb0"/>
            <g id="Group_971" data-name="Group 971" transform="translate(0 15.181)">
              <path id="Path_1542" data-name="Path 1542" d="M356.58,144.456l18.309.6Z" transform="translate(-356.311 -144.188)" fill="#fff"/>
              <path id="Path_1543" data-name="Path 1543" d="M374.957,145.387h-.008l-18.31-.594a.268.268,0,0,1,.009-.536h.008l18.31.594a.267.267,0,0,1,.26.276A.27.27,0,0,1,374.957,145.387Z" transform="translate(-356.379 -144.256)"/>
            </g>
            <g id="Group_972" data-name="Group 972" transform="translate(11.543 11.352)">
              <path id="Path_1544" data-name="Path 1544" d="M365.269,144.383a.266.266,0,0,1-.268-.257,2.869,2.869,0,0,1,.593-1.438,3.263,3.263,0,0,1,1.607-1.28.268.268,0,0,1,.163.51,2.763,2.763,0,0,0-1.317,1.059,2.707,2.707,0,0,0-.51,1.141.273.273,0,0,1-.266.265Z" transform="translate(-365.001 -141.396)"/>
            </g>
            <g id="Group_973" data-name="Group 973" transform="translate(8.874 10.11)">
              <path id="Path_1545" data-name="Path 1545" d="M363.276,143.455a.265.265,0,0,1-.269-.254,2.865,2.865,0,0,1,.593-1.438,3.268,3.268,0,0,1,1.608-1.283.268.268,0,0,1,.163.51,2.771,2.771,0,0,0-1.319,1.06,2.7,2.7,0,0,0-.509,1.139.272.272,0,0,1-.266.265Z" transform="translate(-363.007 -140.468)"/>
            </g>
            <g id="Group_974" data-name="Group 974" transform="translate(8.258 12.233)">
              <path id="Path_1546" data-name="Path 1546" d="M362.88,142.438a.539.539,0,1,0,.76-.051A.539.539,0,0,0,362.88,142.438Z" transform="translate(-362.479 -141.987)" fill="#fff"/>
              <path id="Path_1547" data-name="Path 1547" d="M363.353,143.666a.8.8,0,0,1-.8-.752.808.808,0,1,1,.8.752Zm0-1.076a.269.269,0,0,0-.2.092h0a.271.271,0,1,0,.382-.025A.263.263,0,0,0,363.354,142.589Zm-.407-.083h0Z" transform="translate(-362.547 -142.054)"/>
            </g>
          </g>
          <g id="Group_981" data-name="Group 981" transform="translate(5.755 102.528)">
            <g id="Group_976" data-name="Group 976" transform="translate(0.905)">
              <path id="Path_1548" data-name="Path 1548" d="M336.188,120.011s-10.2,6.789-10.564,7.208,4.731,13.318,4.731,13.318a2.983,2.983,0,0,0,1.8-1.564c.58-1.25-.537-7.448-.19-8.437s7.807-5.137,7.807-5.137Z" transform="translate(-325.365 -119.743)" fill="#fff"/>
              <path id="Path_1549" data-name="Path 1549" d="M330.419,140.873a.268.268,0,0,1-.249-.169c-5.16-13.05-4.815-13.445-4.686-13.592.374-.426,8.911-6.12,10.617-7.257a.279.279,0,0,1,.2-.04.268.268,0,0,1,.17.115l3.587,5.388a.263.263,0,0,1,.037.212.26.26,0,0,1-.13.17c-3.623,2.015-7.488,4.433-7.685,4.993a16.172,16.172,0,0,0,.141,3.378c.193,2.125.395,4.322.04,5.084a3.231,3.231,0,0,1-1.976,1.711A.3.3,0,0,1,330.419,140.873Zm-4.484-13.45c.062.953,2.813,8.218,4.636,12.842a2.716,2.716,0,0,0,1.4-1.336c.295-.632.082-2.949-.088-4.811a13.379,13.379,0,0,1-.111-3.6c.341-.977,5.99-4.2,7.677-5.143l-3.278-4.923C332.265,123.055,326.6,126.869,325.935,127.422Z" transform="translate(-325.426 -119.811)"/>
            </g>
            <path id="Path_1550" data-name="Path 1550" d="M330.253,122.592l-5.5,2.9,5.883,17.053s2.544.25,2.631-2.966c.094-3.445.726-4.235.876-6,.328-3.88,1.406-3.634.893-4.715s-1.988-.782-1.988-.782Z" transform="translate(-324.75 -118.868)" fill="#17afb0"/>
            <g id="Group_977" data-name="Group 977" transform="translate(0.487 6.034)">
              <path id="Path_1551" data-name="Path 1551" d="M325.314,124.517l6.021,17.3Z" transform="translate(-325.046 -124.25)" fill="#fff"/>
              <path id="Path_1552" data-name="Path 1552" d="M331.4,142.154a.265.265,0,0,1-.252-.181l-6.021-17.3a.267.267,0,1,1,.5-.177l6.022,17.3a.267.267,0,0,1-.165.341A.258.258,0,0,1,331.4,142.154Z" transform="translate(-325.114 -124.317)"/>
            </g>
            <g id="Group_978" data-name="Group 978" transform="translate(5.92 16.255)">
              <path id="Path_1553" data-name="Path 1553" d="M332.452,133.541a.269.269,0,0,1-.209-.1,2.77,2.77,0,0,0-1.463-.852,2.718,2.718,0,0,0-1.246-.066.269.269,0,0,1-.343-.154.263.263,0,0,1,.142-.341,2.847,2.847,0,0,1,1.554.037,3.266,3.266,0,0,1,1.774,1.039.269.269,0,0,1-.04.375A.271.271,0,0,1,332.452,133.541Z" transform="translate(-329.172 -131.952)"/>
            </g>
            <g id="Group_979" data-name="Group 979" transform="translate(6.119 13.318)">
              <path id="Path_1554" data-name="Path 1554" d="M332.6,131.347a.266.266,0,0,1-.208-.1,3.132,3.132,0,0,0-2.711-.917.269.269,0,0,1-.341-.154.262.262,0,0,1,.141-.341,2.875,2.875,0,0,1,1.556.037,3.252,3.252,0,0,1,1.773,1.039.266.266,0,0,1-.042.375A.262.262,0,0,1,332.6,131.347Z" transform="translate(-329.32 -129.758)"/>
            </g>
            <g id="Group_980" data-name="Group 980" transform="translate(5.358 12.837)">
              <path id="Path_1555" data-name="Path 1555" d="M329.675,129.632a.538.538,0,1,0,.321.691A.538.538,0,0,0,329.675,129.632Z" transform="translate(-328.684 -129.331)" fill="#fff"/>
              <path id="Path_1556" data-name="Path 1556" d="M329.558,131.012a.8.8,0,0,1-.277-.05.807.807,0,0,1,.553-1.516h0a.808.808,0,0,1,.063,1.49A.816.816,0,0,1,329.558,131.012Zm0-1.078a.272.272,0,0,0-.254.178.271.271,0,0,0,.368.339.263.263,0,0,0,.141-.153.271.271,0,0,0-.163-.348A.261.261,0,0,0,329.558,129.935Z" transform="translate(-328.752 -129.399)"/>
            </g>
          </g>
          <path id="Path_1557" data-name="Path 1557" d="M381.334,66.561s3.09,3.221,2.841,6.058-3.427,14.944-3.745,19.508a60.993,60.993,0,0,0-.163,7.109s-7.151.906-12.623-.91a11.985,11.985,0,0,1-7.223-6.673s4.338-16.143,8.57-23.024,5.808-5.106,5.808-5.106S376.38,66.122,381.334,66.561Z" transform="translate(-306.908 -36.425)" fill="#da1c25"/>
          <path id="Path_1558" data-name="Path 1558" d="M378.518,156.572s6.255-25.124,8.08-38.175,3.237-25.478,3.237-25.478l-19.147-8.437s-1.925,1.206-5.145,9.341-6.44,20-6.44,20a153.062,153.062,0,0,0-15.424,8.135,56,56,0,0,0-13.559,12.372l5.594,11.016s32.709-18.135,34.234-19.321-5.382,30.939-5.382,30.939Z" transform="translate(-317.175 -29.254)" fill="#00baaa"/>
          <g id="Group_982" data-name="Group 982" transform="translate(52.506 65.735)">
            <path id="Path_1559" data-name="Path 1559" d="M359.938,123.634a.274.274,0,0,1-.046,0,.27.27,0,0,1-.22-.309c1.277-7.6.5-30.479.487-30.709a.269.269,0,0,1,.258-.277c.141-.032.272.111.277.258.008.232.791,23.165-.494,30.818A.269.269,0,0,1,359.938,123.634Z" transform="translate(-359.669 -92.33)"/>
          </g>
          <g id="Group_983" data-name="Group 983" transform="translate(69.857 45.806)">
            <path id="Path_1560" data-name="Path 1560" d="M376.477,77.645l20.073,12.848-.94,4.537S378.586,90.455,374.3,87.8,376.477,77.645,376.477,77.645Z" transform="translate(-372.561 -77.376)" fill="#fff"/>
            <path id="Path_1561" data-name="Path 1561" d="M395.679,95.366a.234.234,0,0,1-.068-.009c-.7-.187-17.113-4.615-21.387-7.261a3.177,3.177,0,0,1-1.549-2.3c-.517-3.361,3.5-8.061,3.668-8.259a.262.262,0,0,1,.347-.051l20.072,12.848a.27.27,0,0,1,.119.28l-.939,4.536a.274.274,0,0,1-.123.174A.26.26,0,0,1,395.679,95.366ZM376.6,78.066c-.723.886-3.822,4.88-3.4,7.652a2.63,2.63,0,0,0,1.3,1.923c3.911,2.421,18.76,6.522,20.969,7.124l.844-4.078Z" transform="translate(-372.629 -77.444)"/>
          </g>
          <path id="Path_1562" data-name="Path 1562" d="M388.107,87.957l-7.781,18.066s-10.084-13.316-11.165-17.641-5.425-23.612,3.219-23.964c6.318-.257,6.05,15.059,8.352,18.093C381.947,84.115,388.107,87.957,388.107,87.957Z" transform="translate(-304.641 -36.053)" fill="#da1c25"/>
          <g id="Group_990" data-name="Group 990" transform="translate(92.073 54.865)">
            <g id="Group_984" data-name="Group 984" transform="translate(0.76)">
              <path id="Path_1563" data-name="Path 1563" d="M389.99,87.191c.557-.27.972-1.372,1.854-1.734a16.828,16.828,0,0,0,1.775-.787c.6-.316,1.031-.363,1.292-.031.908,1.153-1.894,2.64-1.894,2.64Z" transform="translate(-389.722 -84.143)" fill="#fff"/>
              <path id="Path_1564" data-name="Path 1564" d="M393.086,87.615h-.008l-3.028-.09a.266.266,0,0,1-.254-.21.269.269,0,0,1,.146-.3,2.287,2.287,0,0,0,.6-.613,3.306,3.306,0,0,1,1.271-1.127l.2-.082a14.888,14.888,0,0,0,1.554-.695c.278-.147,1.127-.593,1.627.04a1.056,1.056,0,0,1,.213.893c-.228,1.079-1.992,2.043-2.193,2.15A.272.272,0,0,1,393.086,87.615Zm-2.348-.6,2.284.067c.522-.289,1.715-1.075,1.857-1.754a.513.513,0,0,0-.11-.451c-.06-.078-.222-.284-.956.1a15,15,0,0,1-1.6.716l-.2.082a2.849,2.849,0,0,0-1.052.963C390.885,86.83,390.812,86.922,390.738,87.011Z" transform="translate(-389.79 -84.21)"/>
            </g>
            <g id="Group_985" data-name="Group 985" transform="translate(0 1.117)">
              <path id="Path_1565" data-name="Path 1565" d="M389.683,87.114s4.636-1.945,5.294-1.866,1.194,2.006,1.1,3.722-.033,2.5-.628,2.9c-2.157,1.441-5.459.668-6.029.434Z" transform="translate(-389.155 -84.977)" fill="#fff"/>
              <path id="Path_1566" data-name="Path 1566" d="M392.252,93.051a9.169,9.169,0,0,1-2.865-.436.268.268,0,0,1,.2-.5c.418.171,3.68.992,5.777-.408.378-.252.418-.712.477-2.006l.033-.681c.1-1.815-.513-3.4-.866-3.442h-.028a33.29,33.29,0,0,0-5.13,1.849.269.269,0,0,1-.351-.145.266.266,0,0,1,.145-.349c.785-.329,4.729-1.983,5.428-1.886.959.115,1.425,2.41,1.336,4l-.032.677c-.059,1.3-.091,2.012-.712,2.427A6.159,6.159,0,0,1,392.252,93.051Z" transform="translate(-389.222 -85.045)"/>
            </g>
            <g id="Group_986" data-name="Group 986" transform="translate(5.555 1.12)">
              <path id="Path_1567" data-name="Path 1567" d="M393.571,85.247a11.258,11.258,0,0,1,2.315.617,9.839,9.839,0,0,1,1.657,1.079c.248.28.675.632.718.9s-.639.641-1.015.4-1.289-.323-1.508-.546-1.348-.288-1.348-.288Z" transform="translate(-393.303 -84.979)" fill="#fff"/>
              <path id="Path_1568" data-name="Path 1568" d="M397.6,88.651a.786.786,0,0,1-.434-.122,3.007,3.007,0,0,0-.7-.237,1.937,1.937,0,0,1-.852-.347,3.646,3.646,0,0,0-1.172-.206.267.267,0,0,1-.25-.282.258.258,0,0,1,.282-.253,3.027,3.027,0,0,1,1.524.368,2.436,2.436,0,0,0,.6.2,3.111,3.111,0,0,1,.858.307.4.4,0,0,0,.308.009.554.554,0,0,0,.3-.189,3.524,3.524,0,0,0-.418-.465c-.086-.086-.167-.17-.238-.249a9.724,9.724,0,0,0-1.583-1.019,11.116,11.116,0,0,0-2.224-.589.265.265,0,0,1-.23-.3.255.255,0,0,1,.3-.232,11.232,11.232,0,0,1,2.407.647,10.53,10.53,0,0,1,1.732,1.137c.064.072.141.15.218.229a1.751,1.751,0,0,1,.562.8.615.615,0,0,1-.343.586A1.218,1.218,0,0,1,397.6,88.651Z" transform="translate(-393.371 -85.047)"/>
            </g>
            <g id="Group_987" data-name="Group 987" transform="translate(5.603 2.579)">
              <path id="Path_1569" data-name="Path 1569" d="M393.607,86.338a11.229,11.229,0,0,1,2.315.619,5.918,5.918,0,0,1,1.346,1.92c.076.366.274.884.182,1.133s-.872.244-1.079-.153a5.306,5.306,0,0,0-.6-1.074c-.218-.224-1.348-.288-1.348-.288Z" transform="translate(-393.34 -86.069)" fill="#fff"/>
              <path id="Path_1570" data-name="Path 1570" d="M397.1,90.515a1.008,1.008,0,0,1-.9-.466c-.062-.118-.12-.241-.177-.361a2.854,2.854,0,0,0-.372-.648,3.583,3.583,0,0,0-1.173-.209.268.268,0,0,1,.031-.536,1.617,1.617,0,0,1,2,1.163c.054.114.108.23.167.341a.392.392,0,0,0,.262.159.555.555,0,0,0,.355-.015,3.644,3.644,0,0,0-.135-.611c-.032-.116-.063-.232-.084-.335a6.167,6.167,0,0,0-1.209-1.739,11.226,11.226,0,0,0-2.223-.588.267.267,0,0,1-.232-.3.255.255,0,0,1,.3-.232,11.31,11.31,0,0,1,2.407.647,5.912,5.912,0,0,1,1.481,2.1c.02.094.048.2.076.305a1.761,1.761,0,0,1,.1.976.616.616,0,0,1-.586.341Z" transform="translate(-393.407 -86.137)"/>
            </g>
            <g id="Group_988" data-name="Group 988" transform="translate(5.494 3.982)">
              <path id="Path_1571" data-name="Path 1571" d="M393.525,87.386A11.213,11.213,0,0,1,395.84,88a5.132,5.132,0,0,1,1.177,2.036,2.923,2.923,0,0,1,.008,1.147c-.13.233-.9.108-1.043-.315s-.07-.818-.288-1.042-1.348-.288-1.348-.288Z" transform="translate(-393.257 -87.117)" fill="#fff"/>
              <path id="Path_1572" data-name="Path 1572" d="M396.8,91.639a.871.871,0,0,1-.1-.005,1.034,1.034,0,0,1-.9-.606,2.969,2.969,0,0,1-.114-.544.775.775,0,0,0-.111-.4,3.612,3.612,0,0,0-1.173-.209.268.268,0,1,1,.031-.534,3.008,3.008,0,0,1,1.525.368,1.152,1.152,0,0,1,.26.7,2.268,2.268,0,0,0,.09.442.4.4,0,0,0,.236.2.576.576,0,0,0,.352.039,3.71,3.71,0,0,0-.04-.628c-.013-.119-.027-.236-.032-.34a5.5,5.5,0,0,0-1.036-1.815,11.2,11.2,0,0,0-2.222-.588.266.266,0,0,1-.232-.3.251.251,0,0,1,.3-.23,11.245,11.245,0,0,1,2.409.647,5,5,0,0,1,1.317,2.257c.005.1.017.2.029.311a1.789,1.789,0,0,1-.055.983A.573.573,0,0,1,396.8,91.639Z" transform="translate(-393.325 -87.185)"/>
            </g>
            <g id="Group_989" data-name="Group 989" transform="translate(5.208 5.58)">
              <path id="Path_1573" data-name="Path 1573" d="M393.312,88.58a9.651,9.651,0,0,1,2.64.791,2.969,2.969,0,0,1,.3,3.18c-.388.42-.936.012-.912-.6.019-.447.133-.653-.087-.876a2.993,2.993,0,0,0-1.126-.34Z" transform="translate(-393.044 -88.31)" fill="#fff"/>
              <path id="Path_1574" data-name="Path 1574" d="M395.972,93.06A.711.711,0,0,1,395.7,93a1.01,1.01,0,0,1-.558-.995c.005-.127.019-.236.029-.332.028-.248.024-.28-.039-.345a2.765,2.765,0,0,0-.969-.262.269.269,0,0,1-.232-.3.257.257,0,0,1,.3-.232,2.829,2.829,0,0,1,1.284.419.841.841,0,0,1,.187.782c-.008.084-.02.179-.024.292a.489.489,0,0,0,.228.479c.028.012.11.044.218-.072a1.8,1.8,0,0,0,.26-1.193,2.534,2.534,0,0,0-.545-1.607,10.056,10.056,0,0,0-2.5-.726.266.266,0,0,1-.232-.3.256.256,0,0,1,.3-.232,9.558,9.558,0,0,1,2.786.858,3.065,3.065,0,0,1,.723,1.981,2.233,2.233,0,0,1-.4,1.58A.744.744,0,0,1,395.972,93.06Z" transform="translate(-393.112 -88.378)"/>
            </g>
          </g>
          <g id="Group_991" data-name="Group 991" transform="translate(105.993 11.562)">
            <path id="Path_1575" data-name="Path 1575" d="M399.819,59.494c2.287-1.317,2.285-2.082,3.778-4.162,1.1-1.529,2.007-3.235,2.817-3.264.754-.027,1.153.794.453,1.722a4.807,4.807,0,0,0-1,2.658,3.891,3.891,0,0,1-.469,1.583Z" transform="translate(-399.551 -51.799)" fill="#fff"/>
            <path id="Path_1576" data-name="Path 1576" d="M399.887,59.829a.268.268,0,0,1-.134-.5,6.535,6.535,0,0,0,2.779-2.719c.25-.391.534-.835.916-1.367.249-.348.487-.7.719-1.05.862-1.284,1.544-2.3,2.305-2.326a1,1,0,0,1,.971.536,1.534,1.534,0,0,1-.3,1.613,4.571,4.571,0,0,0-.943,2.524,4.174,4.174,0,0,1-.509,1.7.268.268,0,1,1-.453-.287,3.706,3.706,0,0,0,.427-1.466,5.072,5.072,0,0,1,1.05-2.793,1.038,1.038,0,0,0,.249-1.043.507.507,0,0,0-.478-.249c-.489.017-1.2,1.071-1.88,2.091-.234.348-.477.71-.73,1.062-.374.521-.652.959-.9,1.344a7.041,7.041,0,0,1-2.963,2.895A.27.27,0,0,1,399.887,59.829Z" transform="translate(-399.619 -51.867)"/>
          </g>
          <g id="Group_992" data-name="Group 992" transform="translate(66.871 21.83)">
            <path id="Path_1577" data-name="Path 1577" d="M371.112,59.737a16.28,16.28,0,0,1-.479,4.788c-.629,1.979,7.394,4.683,7.394,4.683s-2.621-5.195-2.127-6.678S371.112,59.737,371.112,59.737Z" transform="translate(-370.331 -59.468)" fill="#fff"/>
            <path id="Path_1578" data-name="Path 1578" d="M378.095,69.545a.26.26,0,0,1-.084-.015c-1.383-.466-8.241-2.9-7.566-5.018a16.045,16.045,0,0,0,.467-4.694.269.269,0,0,1,.332-.274c.424.106,4.172,1.067,4.892,2.375a.937.937,0,0,1,.086.763c-.378,1.131,1.4,5.057,2.113,6.473a.27.27,0,0,1-.24.39Zm-6.635-9.391a15.44,15.44,0,0,1-.5,4.52c-.355,1.117,3.473,3.007,6.613,4.134-.7-1.458-2.284-5.007-1.853-6.3a.41.41,0,0,0-.045-.336C375.2,61.327,372.728,60.5,371.46,60.154Z" transform="translate(-370.398 -59.536)"/>
          </g>
          <g id="Group_993" data-name="Group 993" transform="translate(65.892 12.189)">
            <path id="Path_1579" data-name="Path 1579" d="M370.226,60.046c.987,3.385,4.889,5.224,7.265,4.532s2.323-3.654,1.336-7.038-3.711-5.568-6.086-4.876S369.239,56.661,370.226,60.046Z" transform="translate(-369.599 -52.268)" fill="#fff"/>
            <path id="Path_1580" data-name="Path 1580" d="M376.475,65.059a7.121,7.121,0,0,1-6.439-4.869h0a8.184,8.184,0,0,1,0-4.863,4.18,4.18,0,0,1,2.7-2.853c2.505-.735,5.392,1.537,6.42,5.058,1.232,4.237.723,6.717-1.52,7.37A4.124,4.124,0,0,1,376.475,65.059Zm-5.923-5.021c.92,3.162,4.572,5.037,6.931,4.35,1.9-.554,2.288-2.81,1.154-6.706-.943-3.237-3.521-5.338-5.756-4.694a3.667,3.667,0,0,0-2.338,2.512,7.619,7.619,0,0,0,.008,4.539Z" transform="translate(-369.667 -52.336)"/>
          </g>
          <path id="Path_1581" data-name="Path 1581" d="M378.714,56.457s3.581-2.589,1.008-5.671c-3.66-4.383-8.156-.8-8.156-.8s.5,1.619-1.518,4.893a15.369,15.369,0,0,0-1.522,4.669s-3.146.572-.669,2.2a10.527,10.527,0,0,0,4.563,1.781s-1.414-1.6-.274-2.259c2.263-1.313,2.466-4.4,2.466-4.4A15.007,15.007,0,0,0,378.714,56.457Z" transform="translate(-304.711 -41.41)" fill="#f5bd22"/>
          <g id="Group_994" data-name="Group 994" transform="translate(65.893 19.812)">
            <path id="Path_1582" data-name="Path 1582" d="M371.255,58.229s-1.64-.088-1.354,1.323c.225,1.1,1.708,1.011,1.991.692Z" transform="translate(-369.6 -57.962)" fill="#fff"/>
            <path id="Path_1583" data-name="Path 1583" d="M371.241,60.791a1.968,1.968,0,0,1-.507-.064,1.342,1.342,0,0,1-1.027-1.054,1.283,1.283,0,0,1,.233-1.146,1.935,1.935,0,0,1,1.4-.5.268.268,0,0,1-.015.536c-.024,0-.04,0-.064,0a1.316,1.316,0,0,0-.914.316.778.778,0,0,0-.112.688.8.8,0,0,0,.631.64,1.175,1.175,0,0,0,.9-.072.268.268,0,0,1,.378-.02.265.265,0,0,1,.023.375A1.278,1.278,0,0,1,371.241,60.791Z" transform="translate(-369.668 -58.029)"/>
          </g>
          <g id="Group_995" data-name="Group 995" transform="translate(72.309 16.649)">
            <path id="Path_1584" data-name="Path 1584" d="M374.66,55.867s1.828,2.36,1.849,2.513-.928.649-.928.649Z" transform="translate(-374.392 -55.599)" fill="#fff"/>
            <path id="Path_1585" data-name="Path 1585" d="M375.649,59.366a.267.267,0,0,1-.237-.145.27.27,0,0,1,.112-.361,6.02,6.02,0,0,0,.739-.446c-.208-.3-1.008-1.36-1.747-2.315a.268.268,0,1,1,.423-.328c1.87,2.417,1.89,2.557,1.9,2.642.019.143.046.339-1.068.922A.276.276,0,0,1,375.649,59.366Zm.661-.881h0Z" transform="translate(-374.46 -55.667)"/>
          </g>
          <path id="Path_1586" data-name="Path 1586" d="M373.333,56.946a.282.282,0,1,0,.11-.415A.305.305,0,0,0,373.333,56.946Z" transform="translate(-302.545 -38.733)"/>
          <path id="Path_1587" data-name="Path 1587" d="M375.529,56.1a.242.242,0,1,0,.094-.357A.262.262,0,0,0,375.529,56.1Z" transform="translate(-301.8 -39)"/>
          <g id="Group_996" data-name="Group 996" transform="translate(72.825 21.032)">
            <path id="Path_1588" data-name="Path 1588" d="M376.751,59.14a1.811,1.811,0,0,1-.73.525,1.692,1.692,0,0,1-.976.037Z" transform="translate(-374.778 -58.873)" fill="#fff"/>
            <path id="Path_1589" data-name="Path 1589" d="M375.557,60.093a2.015,2.015,0,0,1-.518-.066.268.268,0,0,1,.149-.514,1.413,1.413,0,0,0,.8-.031,1.55,1.55,0,0,0,.613-.436.267.267,0,0,1,.426.324,2.07,2.07,0,0,1-.846.612A1.74,1.74,0,0,1,375.557,60.093Z" transform="translate(-374.846 -58.941)"/>
          </g>
          <g id="Group_997" data-name="Group 997" transform="translate(63.057 37.232)">
            <path id="Path_1590" data-name="Path 1590" d="M376.935,99.614a.267.267,0,0,1-.228-.127c-.032-.054-3.314-5.366-5.311-8.981-2.02-3.656-3.772-18.535-3.845-19.167a.268.268,0,1,1,.532-.062c.017.154,1.811,15.4,3.782,18.969,1.991,3.6,5.266,8.906,5.3,8.96a.267.267,0,0,1-.086.368A.278.278,0,0,1,376.935,99.614Z" transform="translate(-367.55 -71.04)"/>
          </g>
          <g id="Group_998" data-name="Group 998" transform="translate(69.36 31.157)">
            <path id="Path_1591" data-name="Path 1591" d="M378.54,80.578a.269.269,0,0,1-.258-.2c-.056-.2-.124-.459-.206-.771-.7-2.646-2.553-9.669-5.733-12.645a.268.268,0,1,1,.365-.391c3.292,3.081,5.109,9.961,5.886,12.9.08.308.149.566.2.763a.266.266,0,0,1-.186.329A.218.218,0,0,1,378.54,80.578Z" transform="translate(-372.257 -66.503)"/>
          </g>
          <g id="Group_999" data-name="Group 999" transform="translate(73.431 27.503)">
            <path id="Path_1592" data-name="Path 1592" d="M379.021,75.41a.329.329,0,0,1-.052-.005.27.27,0,0,1-.212-.316,11.722,11.722,0,0,0,.126-3.257,13.744,13.744,0,0,0-3.5-7.6.268.268,0,1,1,.374-.384,14.062,14.062,0,0,1,3.662,7.918,12.189,12.189,0,0,1-.131,3.427A.27.27,0,0,1,379.021,75.41Z" transform="translate(-375.298 -63.774)"/>
          </g>
          <g id="Group_1000" data-name="Group 1000" transform="translate(45.579 8.938)">
            <path id="Path_1593" data-name="Path 1593" d="M355.368,84.547a.268.268,0,0,1-.228-.126c-.058-.092-1.4-2.319-.025-6.319.73-2.114,2.849-3.7,4.9-5.236,1.856-1.39,3.61-2.7,4.168-4.268a7.2,7.2,0,0,0-.028-4.378,5.734,5.734,0,0,1,.038-3.958c.984-2.15,3.64-2.858,5.774-3.427.627-.167,1.217-.325,1.683-.5.839-.316,1.383-1.546,1.959-2.85.706-1.6,1.437-3.252,2.885-3.569a.265.265,0,0,1,.32.2.268.268,0,0,1-.2.319c-1.185.26-1.857,1.787-2.51,3.264-.623,1.408-1.209,2.739-2.26,3.134-.49.185-1.1.345-1.732.515-2.027.541-4.548,1.213-5.428,3.133a5.254,5.254,0,0,0,0,3.614,7.737,7.737,0,0,1,.012,4.681c-.613,1.716-2.429,3.077-4.353,4.517-1.984,1.486-4.038,3.023-4.714,4.982-1.289,3.739-.039,5.84-.025,5.861a.266.266,0,0,1-.087.367A.26.26,0,0,1,355.368,84.547Z" transform="translate(-354.496 -49.908)" fill="#fff"/>
          </g>
          <g id="Group_1001" data-name="Group 1001" transform="translate(49.954 6.851)">
            <path id="Path_1594" data-name="Path 1594" d="M358.031,59.569a.236.236,0,0,1-.074-.012.268.268,0,0,1-.183-.332c1.524-5.226,6.771-5.377,9.588-5.458a2.839,2.839,0,0,0,2.583-1.427A9.627,9.627,0,0,1,374.3,49.11c5.234-2.184,7.858,1.022,7.882,1.054a.265.265,0,0,1-.042.375.27.27,0,0,1-.376-.042c-.1-.12-2.417-2.913-7.258-.893a9.049,9.049,0,0,0-4.146,3.07,3.364,3.364,0,0,1-2.984,1.628c-3.714.107-7.784.6-9.088,5.073A.27.27,0,0,1,358.031,59.569Z" transform="translate(-357.763 -48.348)"/>
          </g>
          <g id="Group_1007" data-name="Group 1007" transform="translate(21.643)">
            <rect id="Rectangle_927" data-name="Rectangle 927" width="17.315" height="9.131" transform="translate(2.639 0) rotate(16.802)" fill="#17afb0"/>
            <g id="Group_1002" data-name="Group 1002" transform="translate(7.892 3.81)">
              <path id="Path_1595" data-name="Path 1595" d="M343.268,51.746l.212-.7a2.116,2.116,0,0,1-.968-.624l.305-.414a1.935,1.935,0,0,0,.909.6.758.758,0,0,0,1.027-.43c.115-.382-.083-.7-.532-1.06-.624-.49-.964-.941-.782-1.542a1.188,1.188,0,0,1,1.383-.8l.21-.7.428.129-.2.672a1.94,1.94,0,0,1,.827.514l-.311.4a1.758,1.758,0,0,0-.8-.5c-.532-.161-.83.1-.913.374-.11.36.1.617.62,1.048.627.506.878.976.691,1.592a1.256,1.256,0,0,1-1.449.846l-.217.72Z" transform="translate(-342.512 -46.077)" fill="#fff"/>
            </g>
            <g id="Group_1003" data-name="Group 1003" transform="translate(1.586 0.589)">
              <path id="Path_1596" data-name="Path 1596" d="M338.486,45.974a3.3,3.3,0,0,1-.458-.027.269.269,0,0,1-.224-.305.271.271,0,0,1,.305-.224,3.356,3.356,0,0,0,3.348-1.608.268.268,0,0,1,.47.258A3.8,3.8,0,0,1,338.486,45.974Z" transform="translate(-337.802 -43.671)" fill="#fff"/>
            </g>
            <g id="Group_1004" data-name="Group 1004" transform="translate(16.286 3.811)">
              <path id="Path_1597" data-name="Path 1597" d="M350.815,50.238a.274.274,0,0,1-.127-.033,3.948,3.948,0,0,1-1.88-3.9.259.259,0,0,1,.305-.224.268.268,0,0,1,.224.305,3.352,3.352,0,0,0,1.607,3.348.267.267,0,0,1,.107.364A.27.27,0,0,1,350.815,50.238Z" transform="translate(-348.781 -46.078)" fill="#fff"/>
            </g>
            <g id="Group_1005" data-name="Group 1005" transform="translate(13.431 10.714)">
              <path id="Path_1598" data-name="Path 1598" d="M346.917,53.536a.283.283,0,0,1-.129-.033.27.27,0,0,1-.107-.364,3.954,3.954,0,0,1,3.9-1.878.267.267,0,0,1,.224.305.273.273,0,0,1-.3.224,3.343,3.343,0,0,0-3.347,1.608A.272.272,0,0,1,346.917,53.536Z" transform="translate(-346.649 -51.234)" fill="#fff"/>
            </g>
            <g id="Group_1006" data-name="Group 1006" transform="translate(0.589 5.635)">
              <path id="Path_1599" data-name="Path 1599" d="M339.068,51.6a.21.21,0,0,1-.04,0,.266.266,0,0,1-.224-.305,3.355,3.355,0,0,0-1.607-3.348.267.267,0,1,1,.256-.469,3.947,3.947,0,0,1,1.878,3.9A.264.264,0,0,1,339.068,51.6Z" transform="translate(-337.057 -47.44)" fill="#fff"/>
            </g>
          </g>
          <path id="Path_1600" data-name="Path 1600" d="M356.829,184.814s-2.546-9.349,4.517-13.739c3.422-2.127,9.633-2.679,13.241-4.678s2.947-4.9,5.4-7.344,8.721-.58,11.852-1.347,5.544-4.551,7.961-3.235,3.411,6.046-.624,9.388-2.477,5.649-4.138,9.442-11.388,2.093-13.233,5.626-.182,9.466-3,11.865S361.934,196.15,356.829,184.814Z" transform="translate(-326.845 103.482) rotate(-17)" fill="#17afb0"/>
          <g id="Group_1008" data-name="Group 1008" transform="translate(49.678 154.372) rotate(-17)">
            <path id="Path_1601" data-name="Path 1601" d="M348.292,200.637a.236.236,0,0,1-.074-.012.267.267,0,0,1-.183-.332c.035-.119,3.642-12.079,17.215-22.082a83.344,83.344,0,0,1,18.03-10.487,68.483,68.483,0,0,0,7.285-3.6c7.342-4.29,8.449-6.361,8.46-6.382a.268.268,0,0,1,.482.234c-.042.088-1.115,2.194-8.672,6.61a68.992,68.992,0,0,1-7.338,3.624,82.848,82.848,0,0,0-17.93,10.428c-13.43,9.9-16.983,21.683-17.017,21.8A.272.272,0,0,1,348.292,200.637Z" transform="translate(-348.024 -157.598)" fill="#fff"/>
          </g>
          <path id="Path_1602" data-name="Path 1602" d="M347.311,179.749a10.61,10.61,0,0,1-9.573,1.182c-5.465-1.956-5.745-10.266-7.53-12.08s-7.83-2.968-9.318-6.787,1.312-6.946,1.163-8.148-2.355-5.341.21-7.083,5.442,1.77,6.741,5.137,3.154,1.917,5.532,3.049,2.312,7.515,4.794,8.5,11.41.762,11.552,6.85S346.781,175.867,347.311,179.749Z" transform="translate(-294.843 -7.983)" fill="#17afb0"/>
          <g id="Group_1009" data-name="Group 1009" transform="translate(29.675 144.715)">
            <path id="Path_1603" data-name="Path 1603" d="M356.6,203.342a.364.364,0,0,1-.052-.005.268.268,0,0,1-.213-.3c.04-.968-2.256-16.52-9.881-24.327a93.053,93.053,0,0,0-8.91-8.083,50.991,50.991,0,0,1-6.86-6.4,36.927,36.927,0,0,1-7.187-12.793.266.266,0,0,1,.183-.329.262.262,0,0,1,.331.185,36.389,36.389,0,0,0,7.073,12.583,50.616,50.616,0,0,0,6.8,6.337,93.41,93.41,0,0,1,8.957,8.123c7.922,8.113,10.143,24.193,10.025,24.789A.27.27,0,0,1,356.6,203.342Z" transform="translate(-323.489 -151.097)" fill="#fff"/>
          </g>
          <g id="Group_1010" data-name="Group 1010" transform="translate(85.079 154.175) rotate(-17)">
            <path id="Path_1604" data-name="Path 1604" d="M383.942,166.657a.268.268,0,0,1-.13-.033c-3.062-1.7-10.072-.447-10.143-.435a.267.267,0,0,1-.1-.526c.295-.054,7.269-1.305,10.5.493a.268.268,0,0,1-.131.5Z" transform="translate(-373.353 -165.188)" fill="#fff"/>
          </g>
          <g id="Group_1011" data-name="Group 1011" transform="translate(48.267 161.909)">
            <path id="Path_1605" data-name="Path 1605" d="M338.352,170.926a.267.267,0,0,1-.23-.131,7.713,7.713,0,0,1-.017-6.692.268.268,0,0,1,.5.206,7.326,7.326,0,0,0-.017,6.212.268.268,0,0,1-.094.367A.273.273,0,0,1,338.352,170.926Z" transform="translate(-337.376 -163.939)" fill="#fff"/>
          </g>
          <g id="Group_1012" data-name="Group 1012" transform="translate(28.876 152.407)">
            <path id="Path_1606" data-name="Path 1606" d="M328.76,159.4a.273.273,0,0,1-.178-.067c-2.974-2.646-5.232-1.856-5.329-1.821a.268.268,0,0,1-.19-.5c.106-.039,2.639-.959,5.875,1.921a.268.268,0,0,1-.178.467Z" transform="translate(-322.892 -156.842)" fill="#fff"/>
          </g>
          <g id="Group_1013" data-name="Group 1013" transform="translate(69.438 171.168) rotate(-17)">
            <path id="Path_1607" data-name="Path 1607" d="M370.153,176.409a.27.27,0,0,1-.147-.044c-.058-.039-5.891-3.766-11.133-.728a.268.268,0,0,1-.269-.463c5.54-3.209,11.635.7,11.695.743a.268.268,0,0,1-.146.493Z" transform="translate(-358.47 -173.911)" fill="#fff"/>
          </g>
        </g>
      </g>
      <g id="Group_1329" data-name="Group 1329" transform="translate(48 316.807)">
        <g id="Group_1284" data-name="Group 1284" transform="translate(85.212 16.21)">
          <path id="Path_2019" data-name="Path 2019" d="M195.212,345.808h-13.83a.225.225,0,0,1,0-.451h13.83a.225.225,0,0,1,0,.451Z" transform="translate(-181.156 -345.357)" fill="#fff"/>
        </g>
        <g id="Group_1285" data-name="Group 1285" transform="translate(191.869 12.109)">
          <path id="Path_2020" data-name="Path 2020" d="M372.759,338.982H358.928a.225.225,0,1,1,0-.451h13.831a.225.225,0,1,1,0,.451Z" transform="translate(-358.703 -338.531)" fill="#fff"/>
        </g>
        <g id="Group_1286" data-name="Group 1286" transform="translate(280.216 12.164)">
          <path id="Path_2021" data-name="Path 2021" d="M519.826,339.074H506a.225.225,0,0,1,0-.451h13.83a.225.225,0,1,1,0,.451Z" transform="translate(-505.77 -338.623)" fill="#fff"/>
        </g>
        <g id="Group_1287" data-name="Group 1287" transform="translate(248.835 16.49)">
          <path id="Path_2022" data-name="Path 2022" d="M467.587,346.274H453.756a.225.225,0,0,1,0-.451h13.831a.225.225,0,0,1,0,.451Z" transform="translate(-453.531 -345.823)" fill="#fff"/>
        </g>
        <g id="Group_1288" data-name="Group 1288" transform="translate(91.536 13.593)">
          <path id="Path_2023" data-name="Path 2023" d="M200.037,341.453h-8.13a.225.225,0,0,1,0-.451h8.13a.225.225,0,0,1,0,.451Z" transform="translate(-191.682 -341.002)" fill="#fff"/>
        </g>
        <g id="Group_1289" data-name="Group 1289" transform="translate(158.608 12.164)">
          <path id="Path_2024" data-name="Path 2024" d="M311.689,339.074H303.56a.225.225,0,0,1,0-.451h8.129a.225.225,0,1,1,0,.451Z" transform="translate(-303.335 -338.623)" fill="#fff"/>
        </g>
        <g id="Group_1290" data-name="Group 1290" transform="translate(43.007 13.371)">
          <path id="Path_2025" data-name="Path 2025" d="M119.254,341.083h-8.13a.225.225,0,0,1,0-.451h8.13a.225.225,0,1,1,0,.451Z" transform="translate(-110.899 -340.632)" fill="#fff"/>
        </g>
        <g id="Group_1291" data-name="Group 1291" transform="translate(208.255 15.07)">
          <path id="Path_2026" data-name="Path 2026" d="M394.335,343.911H386.2a.225.225,0,0,1,0-.451h8.13a.225.225,0,0,1,0,.451Z" transform="translate(-385.979 -343.46)" fill="#fff"/>
        </g>
        <g id="Group_1292" data-name="Group 1292" transform="translate(241.235 10.693)">
          <path id="Path_2027" data-name="Path 2027" d="M449.233,336.624H441.1a.225.225,0,1,1,0-.451h8.129a.225.225,0,1,1,0,.451Z" transform="translate(-440.879 -336.173)" fill="#fff"/>
        </g>
        <g id="Group_1293" data-name="Group 1293" transform="translate(80.512 13.371)">
          <path id="Path_2028" data-name="Path 2028" d="M175.984,341.083h-2.428a.225.225,0,0,1,0-.451h2.428a.225.225,0,1,1,0,.451Z" transform="translate(-173.331 -340.632)" fill="#fff"/>
        </g>
        <g id="Group_1294" data-name="Group 1294" transform="translate(124.626 15.07)">
          <path id="Path_2029" data-name="Path 2029" d="M249.419,343.911h-2.428a.225.225,0,1,1,0-.451h2.428a.225.225,0,1,1,0,.451Z" transform="translate(-246.766 -343.46)" fill="#fff"/>
        </g>
        <g id="Group_1295" data-name="Group 1295" transform="translate(86.182 11.099)">
          <path id="Path_2030" data-name="Path 2030" d="M185.423,337.3H183a.225.225,0,1,1,0-.451h2.428a.225.225,0,1,1,0,.451Z" transform="translate(-182.77 -336.85)"/>
        </g>
        <g id="Group_1296" data-name="Group 1296" transform="translate(103.567 12.164)">
          <path id="Path_2031" data-name="Path 2031" d="M214.363,339.074h-2.428a.225.225,0,0,1,0-.451h2.428a.225.225,0,1,1,0,.451Z" transform="translate(-211.71 -338.623)" fill="#fff"/>
        </g>
        <g id="Group_1297" data-name="Group 1297" transform="translate(186.672 17.021)">
          <path id="Path_2032" data-name="Path 2032" d="M352.705,347.159h-2.428a.225.225,0,0,1,0-.451h2.428a.225.225,0,0,1,0,.451Z" transform="translate(-350.052 -346.708)" fill="#fff"/>
        </g>
        <g id="Group_1298" data-name="Group 1298" transform="translate(63.025 14.522)">
          <path id="Path_2033" data-name="Path 2033" d="M146.874,343h-2.428a.225.225,0,1,1,0-.451h2.428a.225.225,0,1,1,0,.451Z" transform="translate(-144.221 -342.547)" fill="#fff"/>
        </g>
        <g id="Group_1299" data-name="Group 1299" transform="translate(11.77 14.972)">
          <path id="Path_2034" data-name="Path 2034" d="M61.553,343.747H59.125a.225.225,0,0,1,0-.451h2.428a.225.225,0,0,1,0,.451Z" transform="translate(-58.9 -343.296)" fill="#fff"/>
        </g>
        <g id="Group_1300" data-name="Group 1300" transform="translate(315.442 13.371)">
          <path id="Path_2035" data-name="Path 2035" d="M567.062,341.083h-2.428a.225.225,0,1,1,0-.451h2.428a.225.225,0,0,1,0,.451Z" transform="translate(-564.409 -340.632)" fill="#fff"/>
        </g>
        <g id="Group_1301" data-name="Group 1301" transform="translate(238.885 14.162)">
          <path id="Path_2036" data-name="Path 2036" d="M439.621,342.4h-2.428a.225.225,0,1,1,0-.451h2.428a.225.225,0,0,1,0,.451Z" transform="translate(-436.968 -341.948)" fill="#fff"/>
        </g>
        <g id="Group_1302" data-name="Group 1302" transform="translate(141.583 10.89)">
          <path id="Path_2037" data-name="Path 2037" d="M277.647,336.953h-2.428a.225.225,0,1,1,0-.451h2.428a.225.225,0,1,1,0,.451Z" transform="translate(-274.994 -336.502)" fill="#fff"/>
        </g>
        <g id="Group_1303" data-name="Group 1303" transform="translate(32.216 14.162)">
          <path id="Path_2038" data-name="Path 2038" d="M95.588,342.4H93.16a.225.225,0,0,1,0-.451h2.428a.225.225,0,1,1,0,.451Z" transform="translate(-92.935 -341.948)" fill="#fff"/>
        </g>
        <g id="Group_1304" data-name="Group 1304" transform="translate(58.674 10.163)">
          <path id="Path_2039" data-name="Path 2039" d="M139.632,335.743H137.2a.225.225,0,0,1,0-.451h2.428a.225.225,0,1,1,0,.451Z" transform="translate(-136.979 -335.292)" fill="#fff"/>
        </g>
        <g id="Group_1305" data-name="Group 1305" transform="translate(179.97 11.26)">
          <path id="Path_2040" data-name="Path 2040" d="M341.547,337.569h-2.428a.225.225,0,1,1,0-.451h2.428a.225.225,0,1,1,0,.451Z" transform="translate(-338.894 -337.118)" fill="#fff"/>
        </g>
        <g id="Group_1306" data-name="Group 1306" transform="translate(301.525 13.726)">
          <path id="Path_2041" data-name="Path 2041" d="M543.9,341.674h-2.428a.225.225,0,1,1,0-.451H543.9a.225.225,0,0,1,0,.451Z" transform="translate(-541.242 -341.223)" fill="#fff"/>
        </g>
        <g id="Group_1307" data-name="Group 1307" transform="translate(262.252 14.162)">
          <path id="Path_2042" data-name="Path 2042" d="M478.519,342.4h-2.428a.225.225,0,0,1,0-.451h2.428a.225.225,0,0,1,0,.451Z" transform="translate(-475.866 -341.948)" fill="#fff"/>
        </g>
        <g id="Group_1308" data-name="Group 1308" transform="translate(154.589 14.162)">
          <path id="Path_2043" data-name="Path 2043" d="M299.3,342.4h-2.428a.225.225,0,1,1,0-.451H299.3a.225.225,0,1,1,0,.451Z" transform="translate(-296.644 -341.948)" fill="#fff"/>
        </g>
        <g id="Group_1309" data-name="Group 1309" transform="translate(253.021 11.099)">
          <path id="Path_2044" data-name="Path 2044" d="M463.152,337.3h-2.428a.225.225,0,0,1,0-.451h2.428a.225.225,0,1,1,0,.451Z" transform="translate(-460.499 -336.85)" fill="#fff"/>
        </g>
        <g id="Group_1310" data-name="Group 1310" transform="translate(0 11.503)">
          <path id="Path_2045" data-name="Path 2045" d="M47.661,337.973H39.532a.225.225,0,0,1,0-.451h8.129a.225.225,0,0,1,0,.451Z" transform="translate(-39.307 -337.522)" fill="#fff"/>
        </g>
      </g>
    </g>
  </g>
</svg>
