<svg xmlns="http://www.w3.org/2000/svg" width="385" height="246" viewBox="0 0 385 246">
  <g id="Group_11841" data-name="Group 11841" transform="translate(-1149 -1164)">
    <rect id="Rectangle_959" data-name="Rectangle 959" width="385" height="246" transform="translate(1149 1164)" fill="none"/>
    <g id="Group_11837" data-name="Group 11837" transform="translate(1134 1058.273)">
      <g id="Group_1098" data-name="Group 1098" transform="translate(50 138.088)">
        <g id="Group_1034" data-name="Group 1034" transform="translate(84.917 3.835)">
          <g id="Group_1021" data-name="Group 1021" transform="translate(84.029 91.513)">
            <path id="Path_1608" data-name="Path 1608" d="M174.531,205.687c11.113,3.362,17.257-1.294,17.122-10.295s.911-13.45,8.49-17.1,12.434-8.068,10.66-16.185c-.843-3.853-2.865-8.433-2.5-12.6.408-4.613,3.848-7.365,5.668-11.822,3.466-8.486-1.288-17.892-7.56-19.214s-14.365-.413-14.761,8.671-11.9,13.157-17.122,20.79-2.15,17.986-5.517,25.615-10.425,8.057-9.64,15.683S167.476,203.551,174.531,205.687Z" transform="translate(-159.314 -117.976)" fill="#17afb0"/>
            <g id="Group_1016" data-name="Group 1016" transform="translate(8.443 11.533)">
              <path id="Path_1609" data-name="Path 1609" d="M165.7,200.272a.218.218,0,0,1-.059-.007.277.277,0,0,1-.211-.329c5.806-26.757,34.056-73.02,34.342-73.484a.276.276,0,1,1,.47.289c-.283.463-28.485,46.646-34.272,73.312A.276.276,0,0,1,165.7,200.272Z" transform="translate(-165.424 -126.321)"/>
            </g>
            <g id="Group_1017" data-name="Group 1017" transform="translate(21.502 44.629)">
              <path id="Path_1610" data-name="Path 1610" d="M175.149,156.8a.277.277,0,0,1-.2-.471c7.1-7.2,21.325-5.988,21.47-5.973a.276.276,0,1,1-.05.55c-.141-.011-14.109-1.2-21.026,5.811A.272.272,0,0,1,175.149,156.8Z" transform="translate(-174.873 -150.268)"/>
            </g>
            <g id="Group_1018" data-name="Group 1018" transform="translate(35.036 18.568)">
              <path id="Path_1611" data-name="Path 1611" d="M184.943,138.171a.279.279,0,0,1-.242-.412c2.858-5.147,8.989-6.3,9.249-6.342a.272.272,0,0,1,.321.224.278.278,0,0,1-.224.321c-.061.01-6.133,1.154-8.862,6.067A.277.277,0,0,1,184.943,138.171Z" transform="translate(-184.666 -131.411)"/>
            </g>
            <g id="Group_1019" data-name="Group 1019" transform="translate(10.508 75.162)">
              <path id="Path_1612" data-name="Path 1612" d="M167.193,175.064a.272.272,0,0,1-.185-.072.276.276,0,0,1-.018-.391c3.8-4.154,10.126-1.263,10.19-1.233a.277.277,0,0,1-.235.5c-.059-.028-6.026-2.747-9.547,1.1A.277.277,0,0,1,167.193,175.064Z" transform="translate(-166.917 -172.361)"/>
            </g>
            <g id="Group_1020" data-name="Group 1020" transform="translate(21.331 24.184)">
              <path id="Path_1613" data-name="Path 1613" d="M178.139,156.465a.317.317,0,0,1-.05,0,.275.275,0,0,1-.221-.322,31.665,31.665,0,0,0-3.081-20.247.276.276,0,0,1,.474-.285,32.244,32.244,0,0,1,3.15,20.631A.278.278,0,0,1,178.139,156.465Z" transform="translate(-174.748 -135.474)"/>
            </g>
          </g>
          <g id="Group_1024" data-name="Group 1024" transform="translate(7.28)">
            <rect id="Rectangle_928" data-name="Rectangle 928" width="95.218" height="183.026" rx="7.512" fill="#f51619"/>
            <g id="Group_1022" data-name="Group 1022" transform="translate(4.499 4.795)">
              <rect id="Rectangle_929" data-name="Rectangle 929" width="85.92" height="159.446" rx="5.584" transform="translate(0.277 0.277)" fill="#fff"/>
              <path id="Path_1614" data-name="Path 1614" d="M185.516,215.228H115.03a8,8,0,0,1-7.994-7.994V63.223a8,8,0,0,1,7.994-7.994h70.486a8,8,0,0,1,7.994,7.994V207.234A8,8,0,0,1,185.516,215.228ZM115.03,55.782a7.449,7.449,0,0,0-7.439,7.441V207.234a7.449,7.449,0,0,0,7.439,7.441h70.486a7.449,7.449,0,0,0,7.441-7.441V63.223a7.449,7.449,0,0,0-7.441-7.441Z" transform="translate(-107.036 -55.229)"/>
            </g>
            <g id="Group_1023" data-name="Group 1023" transform="translate(35.802 168.834)">
              <path id="Path_1615" data-name="Path 1615" d="M153.7,183.078H132.031a2.349,2.349,0,0,1-2.345-2.345V176.27a2.35,2.35,0,0,1,2.345-2.347H153.7a2.35,2.35,0,0,1,2.345,2.347v4.463A2.349,2.349,0,0,1,153.7,183.078Zm-21.665-8.6a1.793,1.793,0,0,0-1.791,1.792v4.463a1.792,1.792,0,0,0,1.791,1.791H153.7a1.794,1.794,0,0,0,1.792-1.791V176.27a1.794,1.794,0,0,0-1.792-1.792Z" transform="translate(-129.686 -173.923)" fill="#fff"/>
            </g>
          </g>
          <g id="Group_1033" data-name="Group 1033" transform="translate(0 119.149)">
            <path id="Path_1623" data-name="Path 1623" d="M128.757,182.411s3.387-10.629,1.5-14.1-7.531-6.276-9.952-9.515-.661-5.567-1.873-8.741-7.561-4.031-10.05-5.977-3.123-6.3-5.813-6.1-5.485,4.03-3.224,8.645-.061,6.046-.1,10.105,9.337,6.458,9.562,10.358-3.65,8.535-2.1,11.815S119.629,190.489,128.757,182.411Z" transform="translate(-98.513 -137.972)" fill="#17afb0"/>
            <g id="Group_1030" data-name="Group 1030" transform="translate(4.958 5.151)">
              <path id="Path_1624" data-name="Path 1624" d="M129.813,200.55a.291.291,0,0,1-.061-.007.276.276,0,0,1-.209-.33c.026-.117,2.576-11.856-5.426-26.084a81.2,81.2,0,0,0-11.825-16.54,67.667,67.667,0,0,1-5.1-6.2c-4.979-6.994-5.089-9.313-5.091-9.409a.275.275,0,0,1,.269-.282h.007a.278.278,0,0,1,.276.271c0,.019.159,2.316,4.989,9.1a66.94,66.94,0,0,0,5.062,6.149,81.732,81.732,0,0,1,11.9,16.638c8.113,14.424,5.51,26.359,5.482,26.478A.277.277,0,0,1,129.813,200.55Z" transform="translate(-102.101 -141.699)"/>
            </g>
            <g id="Group_1031" data-name="Group 1031" transform="translate(14.894 35.798)">
              <path id="Path_1625" data-name="Path 1625" d="M122.141,166.764a.274.274,0,0,1-.209-.1c-3.592-4.154-12.188-1.215-12.275-1.183a.277.277,0,1,1-.182-.522c.369-.126,9.041-3.092,12.875,1.345a.276.276,0,0,1-.209.457Z" transform="translate(-109.29 -163.875)"/>
            </g>
            <g id="Group_1032" data-name="Group 1032" transform="translate(13.702 12.658)">
              <path id="Path_1626" data-name="Path 1626" d="M109.575,155.037a.275.275,0,0,1-.252-.163A10.223,10.223,0,0,1,109,147.3a.276.276,0,1,1,.511.209,9.856,9.856,0,0,0,.315,7.135.276.276,0,0,1-.14.365A.251.251,0,0,1,109.575,155.037Z" transform="translate(-108.428 -147.131)"/>
            </g>
          </g>
        </g>
        <g id="Group_1067" data-name="Group 1067" transform="translate(0 0)">
          <g id="Group_1035" data-name="Group 1035" transform="translate(57.208 26.241)">
            <path id="Path_1627" data-name="Path 1627" d="M114.055,71.29c-.506-.621-1.189.14-1.189.14s.607-1.142-.007-1.574c-.59-.416-1.307.551-1.307.551s.528-1.075-.106-1.589c-.582-.471-1.44.6-1.44.6s.4-1.165-.513-1.248c-1.025-.1-2.072,3.278-3.244,5.1-1.139,1.765-.734,2.135-2.336,3.86S90.931,91.36,90.124,91.765c-1.249.629-8.9,3.665-8.9,3.665l-2.558,13.245s14.943-7.029,17.651-9.87A90.055,90.055,0,0,0,106.3,84.183c1.62-3.191,3.241-4.562,4.727-6.443C112.816,75.471,114.662,72.035,114.055,71.29Z" transform="translate(-78.387 -67.895)" fill="#fff"/>
            <path id="Path_1628" data-name="Path 1628" d="M78.739,109.028a.28.28,0,0,1-.169-.058.276.276,0,0,1-.1-.271l2.558-13.245a.275.275,0,0,1,.17-.2c.076-.03,7.655-3.039,8.88-3.654.68-.376,8.962-9.4,12.08-12.8.771-.84,1.35-1.473,1.631-1.775a6.335,6.335,0,0,0,1.436-2.164,10.018,10.018,0,0,1,.871-1.657,21.5,21.5,0,0,0,1.161-2.213c.793-1.657,1.5-3.079,2.34-3.01a.873.873,0,0,1,.692.387.989.989,0,0,1,.148.424,1.435,1.435,0,0,1,.656-.282.819.819,0,0,1,.6.176,1.18,1.18,0,0,1,.415,1.012.891.891,0,0,1,.985.017,1.1,1.1,0,0,1,.359,1.165.932.932,0,0,1,.234-.025.86.86,0,0,1,.658.346h0c.84,1.03-1.56,4.934-3.031,6.8-.4.506-.8.965-1.226,1.451a22.107,22.107,0,0,0-3.472,4.944A89.612,89.612,0,0,1,96.591,99.072c-2.713,2.847-17.122,9.642-17.734,9.93A.27.27,0,0,1,78.739,109.028Zm2.8-13.32-2.425,12.56c2.6-1.244,14.709-7.094,17.076-9.579a90.7,90.7,0,0,0,9.934-14.556,22.521,22.521,0,0,1,3.548-5.057c.41-.47.814-.933,1.208-1.43,2.032-2.571,3.433-5.618,3.036-6.1h0c-.105-.13-.188-.155-.249-.142a.91.91,0,0,0-.52.292.277.277,0,0,1-.451-.314c.127-.242.415-.983.079-1.219-.354-.249-.92.482-.926.489a.277.277,0,0,1-.471-.286c0-.008.423-.886-.033-1.254a.243.243,0,0,0-.2-.055,1.782,1.782,0,0,0-.853.616.272.272,0,0,1-.348.07.279.279,0,0,1-.13-.332,1.064,1.064,0,0,0,0-.748.327.327,0,0,0-.278-.135h-.019c-.48,0-1.226,1.556-1.772,2.7a21.683,21.683,0,0,1-1.2,2.273,9.65,9.65,0,0,0-.828,1.577,6.882,6.882,0,0,1-1.538,2.32c-.279.3-.858.933-1.628,1.772-5.988,6.526-11.613,12.61-12.239,12.923C89.157,92.676,82.62,95.278,81.541,95.708Z" transform="translate(-78.463 -67.971)"/>
          </g>
          <path id="Path_1629" data-name="Path 1629" d="M76.254,177.728l.35,8.618,26.473.6s1.679-3.328-2.613-4.465-7.133-1.971-8.874-3.694-4.32-5.658-5.969-5.557-1.582,3.8-1.582,3.8Z" transform="translate(-22.1 -1.521)" fill="#f51619"/>
          <g id="Group_1036" data-name="Group 1036" transform="translate(54.24 184.276)">
            <path id="Path_1630" data-name="Path 1630" d="M76.516,182.525a4.27,4.27,0,0,0,.13,1.082c.122.245,1.124.732,2.927.767s2.043-.569,3.192-.561c1.218.008,1.765.668,3.555.685s2.1-.658,3.509-.594,1.436.63,3.633.73,2.282-.692,3.646-.679,2.226.681,3.592.652c2.145-.046,2.276-1.219,2.276-1.219Z" transform="translate(-76.24 -182.243)" fill="#fff"/>
            <path id="Path_1631" data-name="Path 1631" d="M93.915,185c-.123,0-.252,0-.388-.01a6.884,6.884,0,0,1-2.344-.448,3.861,3.861,0,0,0-1.291-.282,3.582,3.582,0,0,0-1.453.249,5.568,5.568,0,0,1-2.045.346,6.54,6.54,0,0,1-2.218-.408,4.1,4.1,0,0,0-1.335-.278,3.217,3.217,0,0,0-1.106.223,5.26,5.26,0,0,1-2.091.34c-1.78-.036-2.962-.5-3.169-.923a3.9,3.9,0,0,1-.159-1.2.287.287,0,0,1,.083-.2.206.206,0,0,1,.2-.077l26.46.862a.275.275,0,0,1,.265.307c-.007.058-.185,1.415-2.544,1.465a6.219,6.219,0,0,1-1.925-.334,5.85,5.85,0,0,0-1.676-.316,2.413,2.413,0,0,0-1.215.274A4.694,4.694,0,0,1,93.915,185Zm-4.2-1.3c.065,0,.133,0,.2.006a4.339,4.339,0,0,1,1.453.314,6.386,6.386,0,0,0,2.181.416,4.348,4.348,0,0,0,2.206-.363,3.3,3.3,0,0,1,1.43-.316,6.375,6.375,0,0,1,1.827.341,5.655,5.655,0,0,0,1.757.311c1.179-.025,1.668-.4,1.87-.68l-25.762-.84a2.649,2.649,0,0,0,.093.673,4.638,4.638,0,0,0,2.684.614,4.413,4.413,0,0,0,1.9-.308,3.491,3.491,0,0,1,1.267-.253h.025a4.54,4.54,0,0,1,1.505.307,6.006,6.006,0,0,0,2.05.379,4.464,4.464,0,0,0,1.864-.318A4.154,4.154,0,0,1,89.716,183.7Z" transform="translate(-76.316 -182.321)"/>
          </g>
          <g id="Group_1037" data-name="Group 1037" transform="translate(64.633 175.616)">
            <path id="Path_1632" data-name="Path 1632" d="M84.112,179.044a.277.277,0,0,1-.163-.5l3.35-2.435a.276.276,0,0,1,.325.446l-3.35,2.435A.27.27,0,0,1,84.112,179.044Z" transform="translate(-83.836 -176.055)" fill="#fff"/>
          </g>
          <g id="Group_1038" data-name="Group 1038" transform="translate(65.776 176.741)">
            <path id="Path_1633" data-name="Path 1633" d="M84.939,179.857a.277.277,0,0,1-.162-.5l3.349-2.434a.276.276,0,1,1,.325.446L85.1,179.8A.276.276,0,0,1,84.939,179.857Z" transform="translate(-84.663 -176.869)" fill="#fff"/>
          </g>
          <path id="Path_1634" data-name="Path 1634" d="M47.244,179.341,46,187.645l26.216.643s1.672-3.317-2.6-4.449-7.105-1.962-8.841-3.68,1.28-4.34-.362-4.24S55,178.643,55,178.643Z" transform="translate(-33.657 -0.493)" fill="#f51619"/>
          <g id="Group_1039" data-name="Group 1039" transform="translate(12.069 186.876)">
            <path id="Path_1635" data-name="Path 1635" d="M46,184.4a4.342,4.342,0,0,0,.131,1.1c.123.247.466.742,2.3.778s2.072-.578,3.238-.569c1.236.008,1.79.676,3.606.7s2.132-.668,3.559-.6,1.457.639,3.686.741,2.314-.7,3.7-.688,2.258.69,3.643.661c2.177-.046,2.309-1.616,2.309-1.616Z" transform="translate(-45.726 -184.127)" fill="#fff"/>
            <path id="Path_1636" data-name="Path 1636" d="M62.974,186.9c-.123,0-.254,0-.392-.01a6.953,6.953,0,0,1-2.377-.453,3.859,3.859,0,0,0-1.309-.286,3.6,3.6,0,0,0-1.476.251,5.648,5.648,0,0,1-2.073.351,6.618,6.618,0,0,1-2.249-.413,4.109,4.109,0,0,0-1.357-.282,2.9,2.9,0,0,0-1.121.225,5.291,5.291,0,0,1-2.12.344c-1.88-.036-2.348-.549-2.537-.932a3.983,3.983,0,0,1-.16-1.218.276.276,0,0,1,.082-.2.362.362,0,0,1,.2-.08l26.166.5a.283.283,0,0,1,.2.091.275.275,0,0,1,.069.209c0,.018-.181,1.819-2.577,1.868a6.231,6.231,0,0,1-1.951-.339,5.968,5.968,0,0,0-1.7-.322,2.621,2.621,0,0,0-1.233.278A4.768,4.768,0,0,1,62.974,186.9ZM58.717,185.6q.1,0,.2,0a4.423,4.423,0,0,1,1.472.318,6.462,6.462,0,0,0,2.214.423,4.407,4.407,0,0,0,2.24-.369,3.349,3.349,0,0,1,1.448-.321,6.483,6.483,0,0,1,1.852.346,5.276,5.276,0,0,0,1.783.316c1.338-.028,1.8-.676,1.96-1.07l-25.525-.484a2.666,2.666,0,0,0,.094.692c.193.392.885.6,2.052.625a4.72,4.72,0,0,0,1.927-.312,3.884,3.884,0,0,1,1.307-.258,4.624,4.624,0,0,1,1.527.311,6.054,6.054,0,0,0,2.08.386,4.62,4.62,0,0,0,1.892-.323A4.235,4.235,0,0,1,58.717,185.6Z" transform="translate(-45.802 -184.203)"/>
          </g>
          <g id="Group_1040" data-name="Group 1040" transform="translate(24.219 179.56)">
            <path id="Path_1637" data-name="Path 1637" d="M54.87,181.887a.276.276,0,0,1-.163-.5l3.336-2.425a.276.276,0,1,1,.326.446l-3.338,2.425A.269.269,0,0,1,54.87,181.887Z" transform="translate(-54.594 -178.909)" fill="#fff"/>
          </g>
          <g id="Group_1041" data-name="Group 1041" transform="translate(25.358 180.68)">
            <path id="Path_1638" data-name="Path 1638" d="M55.694,182.7a.277.277,0,0,1-.163-.5l3.338-2.425a.277.277,0,0,1,.325.448l-3.338,2.424A.27.27,0,0,1,55.694,182.7Z" transform="translate(-55.418 -179.72)" fill="#fff"/>
          </g>
          <path id="Path_1639" data-name="Path 1639" d="M60.719,125.33,45.287,200.485l16.2-1.379L77.255,145.72l6.833,12.17-2.665,38.234,19.091-.242s1.321-37.772,1.522-41.968-12.723-33.921-12.723-33.921S73.739,120.757,60.719,125.33Z" transform="translate(-33.93 -21.856)" fill="#17afb0"/>
          <path id="Path_1640" data-name="Path 1640" d="M50.6,107.12s7.264,3.762,7.236,6.172c-.077,7.021.85,24.509.85,24.509s12.829-2.763,19.687-4.192,8.907-1.144,8.907-1.144L90.4,103.179l6.24-4.07L93.08,87.351,78.555,90.91H67.5a20.835,20.835,0,0,0-9.634,6.3A67.756,67.756,0,0,0,50.6,107.12Z" transform="translate(-31.9 -34.327)" fill="#f51619"/>
          <g id="Group_1042" data-name="Group 1042" transform="translate(13.903 72.692)">
            <path id="Path_1641" data-name="Path 1641" d="M52.368,101.781s-6.567,10.147-4.706,15.292S62.591,123.316,66.625,123a63.7,63.7,0,0,0,7.759-1.144v-3.5s-7.1-3.292-11.482-4.816l-3.55-1.234.446-4.8Z" transform="translate(-47.052 -101.506)" fill="#fff"/>
            <path id="Path_1642" data-name="Path 1642" d="M65.278,123.4c-4.856,0-16-1.189-17.8-6.153-1.886-5.214,4.463-15.117,4.733-15.537a.284.284,0,0,1,.187-.122.29.29,0,0,1,.214.053l7.43,5.717a.276.276,0,0,1,.106.245l-.427,4.584,3.346,1.164c4.345,1.512,11.438,4.794,11.508,4.826a.279.279,0,0,1,.16.252v3.506a.277.277,0,0,1-.217.269,64.593,64.593,0,0,1-7.8,1.148C66.349,123.379,65.858,123.4,65.278,123.4ZM52.516,102.262c-.987,1.6-6.151,10.28-4.518,14.793,1.758,4.856,14.229,6.085,18.682,5.744a64.823,64.823,0,0,0,7.5-1.092V118.6c-1.079-.5-7.341-3.357-11.3-4.732l-3.55-1.234a.278.278,0,0,1-.185-.287l.434-4.648Z" transform="translate(-47.129 -101.582)"/>
          </g>
          <ellipse id="Ellipse_246" data-name="Ellipse 246" cx="18.253" cy="18.253" rx="18.253" ry="18.253" transform="translate(80.903)" fill="#f5bd22"/>
          <g id="Group_1043" data-name="Group 1043" transform="translate(83.813 2.909)">
            <path id="Path_1643" data-name="Path 1643" d="M113.057,81.777A15.344,15.344,0,1,1,128.4,66.434,15.36,15.36,0,0,1,113.057,81.777Zm0-30.134a14.79,14.79,0,1,0,14.792,14.79A14.807,14.807,0,0,0,113.057,51.643Z" transform="translate(-97.714 -51.089)"/>
          </g>
          <g id="Group_1045" data-name="Group 1045" transform="translate(94.88 8.44)">
            <g id="Group_1044" data-name="Group 1044">
              <path id="Path_1644" data-name="Path 1644" d="M106.624,72.014c0-.377.253-.568.756-.568a4.115,4.115,0,0,1,1,.16,3.89,3.89,0,0,0,.887.16,3.174,3.174,0,0,0,.525-.041q-.081-1.673-.361-7.455l-.542-.47c-.307-.265-.561-.486-.764-.666s-.5-.462-.879-.847a7.1,7.1,0,0,1-.838-.97,3.581,3.581,0,0,1-.69-1.915,2.387,2.387,0,0,1,.871-1.7,5.792,5.792,0,0,1,2.463-1.291,5.665,5.665,0,0,0-.033-.7.689.689,0,0,1,.133-.5.336.336,0,0,1,.279-.123.9.9,0,0,1,.344.082.705.705,0,0,1,.427.713v.279a12.586,12.586,0,0,1,1.848-.156,4.037,4.037,0,0,1,1.389.213,1.6,1.6,0,0,1,.8.553l-.575.453c-.229,0-.586-.022-1.067-.066s-.871-.075-1.166-.088h-.164a8.172,8.172,0,0,0-1,.073l.477,6.628a10.43,10.43,0,0,1,3.154,3.552,4.4,4.4,0,0,1,.263,1.58,3.564,3.564,0,0,1-.681,1.931,3.987,3.987,0,0,1-2.014,1.529V74q0,.929-.969.929-.591,0-.59-.65V74.11l-.066-1.4c-.131.014-.34.021-.625.021s-.607-.018-.969-.053a5.046,5.046,0,0,1-1.084-.227C106.806,72.33,106.624,72.187,106.624,72.014Zm2.727-9.427q-.064-1.115-.246-5.122a3.272,3.272,0,0,0-1.314.857,1.686,1.686,0,0,0-.444,1.157Q107.347,60.76,109.351,62.587Zm1.922,8.508a3.461,3.461,0,0,0,.994-1.2,2.79,2.79,0,0,0,.354-1.2,4.753,4.753,0,0,0-1.741-3.118Z" transform="translate(-105.722 -55.091)"/>
            </g>
          </g>
          <g id="Group_1046" data-name="Group 1046" transform="translate(14.235 102.38)">
            <path id="Path_1645" data-name="Path 1645" d="M47.647,199.391a.283.283,0,0,1-.058-.006.277.277,0,0,1-.213-.328l16.077-75.774a.277.277,0,1,1,.542.115L47.917,199.173A.276.276,0,0,1,47.647,199.391Z" transform="translate(-47.37 -123.064)" fill="#fff"/>
          </g>
          <g id="Group_1053" data-name="Group 1053" transform="translate(35.424 87.98)">
            <g id="Group_1047" data-name="Group 1047" transform="translate(3.644)">
              <path id="Path_1646" data-name="Path 1646" d="M65.538,113.275c.724.135,1.9-.648,3-.368a19.657,19.657,0,0,0,2.258.5c.8.122,1.242.386,1.26.9.059,1.784-3.675,1.23-3.675,1.23Z" transform="translate(-65.261 -112.568)" fill="#fff"/>
              <path id="Path_1647" data-name="Path 1647" d="M69.661,115.976a9.251,9.251,0,0,1-1.245-.084.274.274,0,0,1-.133-.058l-2.841-2.265a.277.277,0,0,1,.222-.489,2.682,2.682,0,0,0,1.02-.173,3.8,3.8,0,0,1,2-.191l.257.065a16.584,16.584,0,0,0,1.975.434c.362.055,1.464.224,1.494,1.164a1.228,1.228,0,0,1-.42,1A3.706,3.706,0,0,1,69.661,115.976Zm-1.092-.622c.7.091,2.41.182,3.047-.386a.68.68,0,0,0,.238-.571c-.006-.145-.017-.482-1.027-.636a17.887,17.887,0,0,1-2.029-.445l-.256-.066a3.412,3.412,0,0,0-1.707.188c-.171.048-.34.1-.5.134Z" transform="translate(-65.338 -112.645)"/>
            </g>
            <g id="Group_1048" data-name="Group 1048" transform="translate(0 0.275)">
              <path id="Path_1648" data-name="Path 1648" d="M65.921,113.043s5.816,1.426,6.391,1.976-.264,2.829-1.56,4.447-1.79,2.431-2.638,2.392c-3.082-.137-4.829-2.806-5.212-3.447Z" transform="translate(-62.625 -112.767)" fill="#fff"/>
              <path id="Path_1649" data-name="Path 1649" d="M68.247,122.213h-.07c-3.144-.141-4.956-2.776-5.437-3.581a.277.277,0,0,1,.475-.283c.444.745,2.117,3.184,4.986,3.313.55.01.965-.456,1.9-1.646.156-.2.325-.413.51-.644,1.35-1.686,1.945-3.733,1.585-4.076s-3.881-1.323-6.266-1.907a.276.276,0,0,1-.2-.334.28.28,0,0,1,.334-.2c.983.24,5.918,1.472,6.516,2.044.815.781-.346,3.333-1.537,4.821-.184.231-.351.444-.507.641C69.6,121.544,69.076,122.213,68.247,122.213Z" transform="translate(-62.701 -112.844)"/>
            </g>
            <g id="Group_1049" data-name="Group 1049" transform="translate(8.681 2.25)">
              <path id="Path_1650" data-name="Path 1650" d="M69.912,114.473a13.591,13.591,0,0,1,1.787,2.272A12.16,12.16,0,0,1,72.532,119a3.675,3.675,0,0,1,.058,1.394c-.145.289-1.064.171-1.254-.339s-1.01-1.244-1.063-1.62-1.092-1.254-1.092-1.254Z" transform="translate(-68.906 -114.197)" fill="#fff"/>
              <path id="Path_1651" data-name="Path 1651" d="M72.285,120.9h-.07a1.185,1.185,0,0,1-1.061-.67,3.571,3.571,0,0,0-.516-.756,2.332,2.332,0,0,1-.561-.923,4.153,4.153,0,0,0-1-1.081.277.277,0,1,1,.357-.423c.337.285,1.126.992,1.187,1.426a2.8,2.8,0,0,0,.445.656,3.818,3.818,0,0,1,.6.907.537.537,0,0,0,.357.272.6.6,0,0,0,.41.012,2.837,2.837,0,0,0-.054-.808c-.021-.145-.04-.287-.051-.413a12.176,12.176,0,0,0-.808-2.159,13.62,13.62,0,0,0-1.729-2.192.276.276,0,0,1,.386-.4,13.848,13.848,0,0,1,1.844,2.352,13.025,13.025,0,0,1,.858,2.345c.011.117.029.249.048.383a2.166,2.166,0,0,1-.019,1.161A.655.655,0,0,1,72.285,120.9Z" transform="translate(-68.982 -114.273)"/>
            </g>
            <g id="Group_1050" data-name="Group 1050" transform="translate(7.7 3.721)">
              <path id="Path_1652" data-name="Path 1652" d="M69.2,115.536a13.629,13.629,0,0,1,1.786,2.272,7.353,7.353,0,0,1-.058,2.854c-.184.415-.358,1.066-.622,1.244s-1.008-.387-.929-.926a6.628,6.628,0,0,0,.184-1.483c-.053-.376-1.09-1.253-1.09-1.253Z" transform="translate(-68.196 -115.261)" fill="#fff"/>
              <path id="Path_1653" data-name="Path 1653" d="M70.263,122.293a.9.9,0,0,1-.466-.155,1.231,1.231,0,0,1-.615-1.124c.023-.159.054-.322.084-.481a3.37,3.37,0,0,0,.1-.922,4.156,4.156,0,0,0-1-1.081.276.276,0,1,1,.357-.422c.336.283,1.125.991,1.187,1.425a3.728,3.728,0,0,1-.105,1.1c-.029.152-.058.308-.08.46a.563.563,0,0,0,.181.423.66.66,0,0,0,.35.221h0a2.96,2.96,0,0,0,.336-.727c.053-.137.1-.271.155-.387A7.475,7.475,0,0,0,70.815,118a13.593,13.593,0,0,0-1.729-2.191.277.277,0,1,1,.386-.4,13.9,13.9,0,0,1,1.845,2.354,7.248,7.248,0,0,1-.057,3.083c-.048.106-.1.231-.144.358a2.145,2.145,0,0,1-.576,1A.478.478,0,0,1,70.263,122.293Z" transform="translate(-68.273 -115.337)"/>
            </g>
            <g id="Group_1051" data-name="Group 1051" transform="translate(6.609 5.019)">
              <path id="Path_1654" data-name="Path 1654" d="M68.413,116.476a13.647,13.647,0,0,1,1.787,2.272,6.375,6.375,0,0,1-.3,2.847c-.242.381-.511,1-.8,1.132s-.938-.54-.779-1.06.509-.853.456-1.23-1.092-1.254-1.092-1.254Z" transform="translate(-67.407 -116.2)" fill="#fff"/>
              <path id="Path_1655" data-name="Path 1655" d="M69.092,123.1a.811.811,0,0,1-.518-.229,1.236,1.236,0,0,1-.444-1.205,3.316,3.316,0,0,1,.27-.605,1,1,0,0,0,.178-.506,4.153,4.153,0,0,0-1-1.081.277.277,0,1,1,.357-.423c.337.285,1.126.992,1.187,1.426a1.392,1.392,0,0,1-.238.843,2.785,2.785,0,0,0-.228.507.561.561,0,0,0,.116.445.646.646,0,0,0,.318.275,2.977,2.977,0,0,0,.438-.665c.072-.127.142-.252.21-.357a6.618,6.618,0,0,0,.285-2.582,13.5,13.5,0,0,0-1.729-2.191.277.277,0,0,1,.386-.4,13.892,13.892,0,0,1,1.844,2.355,6.305,6.305,0,0,1-.319,3.112c-.062.1-.127.213-.193.33a2.13,2.13,0,0,1-.721.9A.475.475,0,0,1,69.092,123.1Z" transform="translate(-67.483 -116.276)"/>
            </g>
            <g id="Group_1052" data-name="Group 1052" transform="translate(5.211 6.384)">
              <path id="Path_1656" data-name="Path 1656" d="M67.4,117.463a11.729,11.729,0,0,1,1.976,2.678c.22,1.074-.954,3.144-1.945,3.34-.668.133-.907-.662-.453-1.244.333-.426.586-.546.532-.923s-.84-1.144-.84-1.144Z" transform="translate(-66.395 -117.188)" fill="#fff"/>
              <path id="Path_1657" data-name="Path 1657" d="M67.368,123.848a.776.776,0,0,1-.681-.373,1.2,1.2,0,0,1,.152-1.331c.094-.12.182-.217.26-.3.2-.224.236-.275.217-.412a3.244,3.244,0,0,0-.76-.984.277.277,0,1,1,.386-.4,3.4,3.4,0,0,1,.923,1.3.982.982,0,0,1-.355.858c-.069.076-.149.164-.234.274a.653.653,0,0,0-.119.7.254.254,0,0,0,.3.1,2.123,2.123,0,0,0,1.09-.965,3.217,3.217,0,0,0,.637-2.05,12.1,12.1,0,0,0-1.9-2.535.276.276,0,1,1,.384-.4,11.6,11.6,0,0,1,2.055,2.821,3.753,3.753,0,0,1-.719,2.466,2.685,2.685,0,0,1-1.443,1.2A1.072,1.072,0,0,1,67.368,123.848Z" transform="translate(-66.471 -117.264)"/>
            </g>
          </g>
          <g id="Group_1054" data-name="Group 1054" transform="translate(22.015 82.502)">
            <path id="Path_1658" data-name="Path 1658" d="M53.2,108.9a8.842,8.842,0,0,1,3.444.516Z" transform="translate(-52.923 -108.604)" fill="#fff"/>
            <path id="Path_1659" data-name="Path 1659" d="M56.718,109.765a.3.3,0,0,1-.091-.015,8.64,8.64,0,0,0-3.325-.5A.273.273,0,0,1,53,109a.277.277,0,0,1,.246-.3,9.11,9.11,0,0,1,3.561.531.276.276,0,0,1-.09.538Z" transform="translate(-52.999 -108.68)"/>
          </g>
          <g id="Group_1055" data-name="Group 1055" transform="translate(34.224 46.635)">
            <path id="Path_1660" data-name="Path 1660" d="M62.032,92.816a7.756,7.756,0,0,0,1.657-4.026c.174-1.613-.035-5.863-.035-5.863l6.9.539a30.271,30.271,0,0,0,.615,5.568,7.534,7.534,0,0,0,2.461,3.635s-2.812,2.484-5.272,2.484S62.032,92.816,62.032,92.816Z" transform="translate(-61.756 -82.652)" fill="#fff"/>
            <path id="Path_1661" data-name="Path 1661" d="M68.431,95.508c-2.51,0-6.3-2.282-6.465-2.378a.277.277,0,0,1-.064-.42,7.547,7.547,0,0,0,1.588-3.872c.169-1.573-.035-5.775-.036-5.818a.272.272,0,0,1,.084-.211.268.268,0,0,1,.213-.077l6.9.538a.277.277,0,0,1,.256.271,30.01,30.01,0,0,0,.605,5.5,7.3,7.3,0,0,0,2.361,3.484.278.278,0,0,1,.015.427C73.767,93.057,70.967,95.508,68.431,95.508Zm-5.907-2.694c.914.521,3.919,2.139,5.907,2.139,1.917,0,4.113-1.624,4.841-2.208a7.592,7.592,0,0,1-2.3-3.566,28.791,28.791,0,0,1-.616-5.38L64.021,83.3A53.823,53.823,0,0,1,64.04,88.9,8.166,8.166,0,0,1,62.524,92.814Z" transform="translate(-61.833 -82.728)"/>
          </g>
          <path id="Path_1662" data-name="Path 1662" d="M63.556,74.882l-6.48-2.347-2.132,5.532,6.513,3.01Z" transform="translate(-30.241 -39.987)" fill="#da1c26"/>
          <g id="Group_1056" data-name="Group 1056" transform="translate(32.098 33.593)">
            <path id="Path_1663" data-name="Path 1663" d="M73.234,77.835c1.752,3.418,3.108,8.3-.31,10.054s-9.906-.473-11.66-3.89a6.956,6.956,0,0,1,3.016-9.363C67.7,72.882,70.524,72.552,73.234,77.835Z" transform="translate(-60.218 -73.218)" fill="#fff"/>
            <path id="Path_1664" data-name="Path 1664" d="M70.1,88.851a11.541,11.541,0,0,1-3.64-.633A9.31,9.31,0,0,1,61.1,84.2a7.228,7.228,0,0,1,3.134-9.735c3.622-1.859,6.6-2.007,9.326,3.32h0a16.213,16.213,0,0,1,1.815,5.758c.156,2.222-.621,3.837-2.243,4.668A6.671,6.671,0,0,1,70.1,88.851Zm-1.967-15.02a8.3,8.3,0,0,0-3.65,1.124,6.679,6.679,0,0,0-2.9,8.991,8.77,8.77,0,0,0,5.047,3.748,8.41,8.41,0,0,0,6.241.022c1.432-.734,2.085-2.126,1.945-4.138a15.2,15.2,0,0,0-1.755-5.545h0C71.5,74.973,69.929,73.831,68.133,73.831Z" transform="translate(-60.295 -73.291)"/>
          </g>
          <path id="Path_1665" data-name="Path 1665" d="M73.093,74.9s0,.985-1.549,2.363a15.8,15.8,0,0,1-7.488,3.291s1.856,3.289-.173,4.215c-2.537,1.157-.891,2.271-.891,2.271s-5.469-1.974-5.152-5.451a5.339,5.339,0,0,1,3.063-4.54A5.412,5.412,0,0,1,64.786,71.9C69.514,70.13,73.093,74.9,73.093,74.9Z" transform="translate(-29.14 -40.379)" fill="#f5bd22"/>
          <path id="Path_1666" data-name="Path 1666" d="M61.771,81.421s-9.833,2.261-16.593-.2-8.9-7.824-7.862-11.93,9.818-7.39,16.1-4.33S63.9,75.889,63.9,75.889Z" transform="translate(-37.069 -43.341)" fill="#f5bd22"/>
          <g id="Group_1057" data-name="Group 1057" transform="translate(41.557 39.902)">
            <path id="Path_1667" data-name="Path 1667" d="M67.339,78.057s2.278,2.714,2.159,2.962-.7.361-.7.361Z" transform="translate(-67.063 -77.78)" fill="#fff"/>
            <path id="Path_1668" data-name="Path 1668" d="M68.872,81.732a.277.277,0,0,1-.053-.549,1.524,1.524,0,0,0,.452-.163A26.275,26.275,0,0,0,67.2,78.31a.276.276,0,1,1,.423-.355c2.394,2.851,2.279,3.087,2.2,3.26-.166.345-.73.478-.9.511A.358.358,0,0,1,68.872,81.732Zm.434-.63h0Z" transform="translate(-67.139 -77.857)"/>
          </g>
          <g id="Group_1058" data-name="Group 1058" transform="translate(33.038 44.117)">
            <path id="Path_1669" data-name="Path 1669" d="M62.6,81.107s-1.761.278-1.372,1.873c.319,1.317,2.268,2.079,3.146.683Z" transform="translate(-60.898 -80.829)" fill="#fff"/>
            <path id="Path_1670" data-name="Path 1670" d="M63.16,84.762a2.051,2.051,0,0,1-.326-.028,2.24,2.24,0,0,1-1.8-1.611,1.67,1.67,0,0,1,.189-1.368,2.271,2.271,0,0,1,1.408-.844.272.272,0,0,1,.316.229.277.277,0,0,1-.229.316,1.733,1.733,0,0,0-1.037.608,1.123,1.123,0,0,0-.111.927,1.693,1.693,0,0,0,1.347,1.2,1.223,1.223,0,0,0,1.3-.6.277.277,0,0,1,.469.294A1.769,1.769,0,0,1,63.16,84.762Z" transform="translate(-60.975 -80.906)"/>
          </g>
          <path id="Path_1671" data-name="Path 1671" d="M65.725,79.764a.3.3,0,1,0,.1-.439A.319.319,0,0,0,65.725,79.764Z" transform="translate(-26.139 -37.404)"/>
          <path id="Path_1672" data-name="Path 1672" d="M68.532,78.291a.284.284,0,1,0,.1-.42A.308.308,0,0,0,68.532,78.291Z" transform="translate(-25.066 -37.959)"/>
          <g id="Group_1059" data-name="Group 1059" transform="translate(42.128 44.68)">
            <path id="Path_1673" data-name="Path 1673" d="M70.5,81.514a2.938,2.938,0,0,1-1.162.879,2.748,2.748,0,0,1-1.581.1Z" transform="translate(-67.476 -81.237)" fill="#fff"/>
            <path id="Path_1674" data-name="Path 1674" d="M68.478,82.92a3.061,3.061,0,0,1-.72-.082A.277.277,0,0,1,67.9,82.3a2.468,2.468,0,0,0,1.4-.088,2.672,2.672,0,0,0,1.045-.786.276.276,0,1,1,.449.322,3.221,3.221,0,0,1-1.281.974A2.709,2.709,0,0,1,68.478,82.92Z" transform="translate(-67.552 -81.314)"/>
          </g>
          <g id="Group_1060" data-name="Group 1060" transform="translate(9.45 16.07)">
            <path id="Path_1675" data-name="Path 1675" d="M61.01,77.512a.277.277,0,0,1-.276-.278,27.725,27.725,0,0,0-4.852-10.686c-3.81-5.025-10.509-5.481-11.67-5.365a.283.283,0,0,1-.3-.247.276.276,0,0,1,.247-.3c1.466-.149,8.22.379,12.166,5.579a27.246,27.246,0,0,1,4.952,11.1A.279.279,0,0,1,61.01,77.512Z" transform="translate(-43.907 -60.612)"/>
          </g>
          <g id="Group_1061" data-name="Group 1061" transform="translate(43.048 102.381)">
            <path id="Path_1676" data-name="Path 1676" d="M68.494,144.824a.282.282,0,0,1-.068-.008.277.277,0,0,1-.2-.336c.044-.171,4.338-17.144,4.887-21.177a.283.283,0,0,1,.311-.236.277.277,0,0,1,.238.311c-.554,4.063-4.856,21.066-4.9,21.238A.278.278,0,0,1,68.494,144.824Z" transform="translate(-68.218 -123.065)" fill="#fff"/>
          </g>
          <g id="Group_1062" data-name="Group 1062" transform="translate(79.834 27.848)">
            <path id="Path_1677" data-name="Path 1677" d="M95.035,79.542c1.991-1.965,1.971-3.217,2.741-5.847.567-1.931.88-3.976,1.689-4.293.752-.294,1.444.392,1.066,1.577a5.152,5.152,0,0,0-.064,3.036,4.176,4.176,0,0,1,.087,1.763Z" transform="translate(-94.758 -69.058)" fill="#fff"/>
            <path id="Path_1678" data-name="Path 1678" d="M95.111,79.894a.282.282,0,0,1-.2-.082.278.278,0,0,1,0-.391,7.7,7.7,0,0,0,2.294-4.352c.109-.417.228-.872.376-1.376.13-.441.246-.889.358-1.318.415-1.6.742-2.859,1.5-3.154a1.077,1.077,0,0,1,1.16.195,1.63,1.63,0,0,1,.271,1.723,4.9,4.9,0,0,0-.059,2.887,4.456,4.456,0,0,1,.088,1.892.277.277,0,0,1-.539-.124,4,4,0,0,0-.087-1.638,5.4,5.4,0,0,1,.07-3.186,1.116,1.116,0,0,0-.122-1.153.539.539,0,0,0-.58-.083c-.491.192-.832,1.506-1.162,2.778-.113.437-.231.889-.362,1.335-.145.5-.263.948-.372,1.361A8.221,8.221,0,0,1,95.3,79.816.275.275,0,0,1,95.111,79.894Z" transform="translate(-94.835 -69.134)"/>
          </g>
          <g id="Group_1063" data-name="Group 1063" transform="translate(50.985 68.845)">
            <path id="Path_1679" data-name="Path 1679" d="M74.238,111.867a.272.272,0,0,1-.171-.059.276.276,0,0,1-.046-.388,51.024,51.024,0,0,0,6.925-12.437.276.276,0,1,1,.52.188,51.658,51.658,0,0,1-7.011,12.592A.279.279,0,0,1,74.238,111.867Z" transform="translate(-73.961 -98.799)" fill="#fff"/>
          </g>
          <g id="Group_1064" data-name="Group 1064" transform="translate(27.43 79.156)">
            <path id="Path_1680" data-name="Path 1680" d="M66,110.98h-.015a13.818,13.818,0,0,1-9-4.261.277.277,0,0,1,.416-.365,13.5,13.5,0,0,0,8.618,4.073.277.277,0,0,1-.017.553Z" transform="translate(-56.917 -106.26)" fill="#fff"/>
          </g>
          <g id="Group_1065" data-name="Group 1065" transform="translate(46.146 110.897)">
            <path id="Path_1681" data-name="Path 1681" d="M79.059,191.739h-.033a.277.277,0,0,1-.242-.307c.039-.332,3.883-33.224,3.484-37.756-.4-4.5-11.657-23.837-11.771-24.032a.277.277,0,1,1,.478-.278c.466.8,11.436,19.64,11.843,24.262.4,4.588-3.327,36.512-3.484,37.869A.278.278,0,0,1,79.059,191.739Z" transform="translate(-70.46 -129.227)" fill="#fff"/>
          </g>
          <g id="Group_1066" data-name="Group 1066" transform="translate(1.523 32.416)">
            <path id="Path_1682" data-name="Path 1682" d="M50.711,80.318a15.119,15.119,0,0,1-6.2-1.234,12.133,12.133,0,0,1-6.326-6.272.276.276,0,0,1,.162-.355.279.279,0,0,1,.357.163,11.8,11.8,0,0,0,6.042,5.963C49,80.463,54.442,80.1,60.93,77.5a.277.277,0,0,1,.206.514A28.435,28.435,0,0,1,50.711,80.318Z" transform="translate(-38.171 -72.44)"/>
          </g>
        </g>
        <g id="Group_1097" data-name="Group 1097" transform="translate(169.631 20.977)">
          <g id="Group_1068" data-name="Group 1068" transform="translate(89.324 90.481)">
            <path id="Path_1683" data-name="Path 1683" d="M229.171,163.713a.276.276,0,0,1-.272-.231c-1.682-10.011-4.427-33.308-4.454-33.542a.275.275,0,0,1,.242-.307.279.279,0,0,1,.305.242c.029.234,2.771,23.518,4.452,33.516a.276.276,0,0,1-.227.318A.266.266,0,0,1,229.171,163.713Z" transform="translate(-224.442 -129.632)" fill="#fff"/>
          </g>
          <g id="Group_1069" data-name="Group 1069" transform="translate(66.044 91.177)">
            <path id="Path_1684" data-name="Path 1684" d="M211.514,132.861s1.484,16.562,3.231,24.716c1.992,9.3,10.375,38.941,8.747,43.908-.438,1.336-14.726,2.951-15.209,3.394s-.485,1.853-.485,1.853h23.358s1.095-37.543-2.414-51.16c-1.146-4.443,3.344-25.237,3.344-25.237Z" transform="translate(-207.522 -130.06)" fill="#fff"/>
            <path id="Path_1685" data-name="Path 1685" d="M231.232,207.086H207.874a.277.277,0,0,1-.276-.276c0-.156.017-1.545.574-2.056.209-.191,1.1-.352,4.539-.9,3.322-.533,10.238-1.645,10.6-2.377,1.191-3.628-3.3-21.6-6.272-33.485-1.06-4.246-1.976-7.914-2.482-10.275-1.73-8.078-3.223-24.585-3.238-24.749a.277.277,0,0,1,.25-.3.271.271,0,0,1,.3.252c.014.166,1.5,16.638,3.227,24.683.5,2.354,1.419,6.016,2.479,10.257,3.165,12.666,7.5,30.014,6.259,33.8-.287.875-3.787,1.582-11.034,2.746a43.155,43.155,0,0,0-4.276.784,2.551,2.551,0,0,0-.361,1.353h22.8c.087-3.407.89-37.992-2.414-50.813-1.15-4.456,3.159-24.512,3.342-25.364a.278.278,0,0,1,.329-.211.275.275,0,0,1,.211.328c-.044.209-4.463,20.78-3.347,25.11,3.48,13.5,2.435,50.861,2.424,51.237A.277.277,0,0,1,231.232,207.086Z" transform="translate(-207.598 -130.136)"/>
          </g>
          <g id="Group_1070" data-name="Group 1070" transform="translate(85.976 93.781)">
            <path id="Path_1686" data-name="Path 1686" d="M222.221,143.527s2.4,3.944,9.728,7.478c6.887,3.322,34.165,3.842,41.017,8.975,1.3.976,3.828,13.99,4.763,15.122a2.089,2.089,0,0,0,2.081.815l-1.023-22.95s-24.5-9.344-31.827-10.964c-3.929-.869-12.529-9.785-12.529-9.785Z" transform="translate(-221.943 -131.944)" fill="#fff"/>
            <path id="Path_1687" data-name="Path 1687" d="M279.5,176.311a2.432,2.432,0,0,1-1.91-.956c-.426-.518-1.024-2.783-1.964-6.437-.884-3.44-2.1-8.151-2.75-8.64-3.849-2.883-14.527-4.329-23.946-5.6-7.213-.976-14.026-1.9-17.025-3.344-7.315-3.528-9.745-7.42-9.846-7.583a.278.278,0,0,1,.093-.38.275.275,0,0,1,.38.093c.024.039,2.461,3.922,9.612,7.373,2.922,1.408,9.692,2.325,16.861,3.295,9.486,1.284,20.238,2.738,24.2,5.708.752.564,1.657,3.908,2.953,8.946.73,2.837,1.486,5.773,1.856,6.223a1.9,1.9,0,0,0,1.581.753l-1-22.52c-2.188-.832-24.715-9.359-31.618-10.886-3.965-.878-12.314-9.5-12.668-9.864a.276.276,0,1,1,.4-.383c.086.088,8.588,8.864,12.39,9.706,7.263,1.606,31.621,10.881,31.865,10.975a.277.277,0,0,1,.178.246l1.023,22.951a.275.275,0,0,1-.2.278A1.881,1.881,0,0,1,279.5,176.311Z" transform="translate(-222.02 -132.02)"/>
          </g>
          <path id="Path_1688" data-name="Path 1688" d="M208.589,117.3s.815,48.132,3.335,50.354,6.225-5.19,6.225-5.19,5.632,6.82,8.6,3.263a10.618,10.618,0,0,0,2.519-7.41s4.6,5.183,7.41,4.147,3.112-8.69,3.112-8.69a6.679,6.679,0,0,0,6.077,2.616c4-.445,2.659-8,2.659-8s5.55,3.675,7.7,1.068c4.313-5.228-23.59-30.117-26.723-37.713C228.206,108.6,208.589,117.3,208.589,117.3Z" transform="translate(-141.175 -46.248)" fill="#17afb0"/>
          <path id="Path_1689" data-name="Path 1689" d="M208.506,90.958s-4.055,4.225-3.727,7.947,5.274,27.591,5.274,27.591a55.021,55.021,0,0,0,13.838-2.605c7.178-2.384,7.073-2.952,7.073-2.952a171.179,171.179,0,0,1-6.609-27.086c-.858-5.039-7.278-6.88-7.278-6.88S215,90.381,208.506,90.958Z" transform="translate(-142.638 -55.448)" fill="#f5bd22"/>
          <g id="Group_1071" data-name="Group 1071" transform="translate(65.59 24.104)">
            <path id="Path_1690" data-name="Path 1690" d="M216.354,81.805a44.853,44.853,0,0,0,1.184,7.713c.826,2.6-10.068,5.27-10.068,5.27s3.362-5.842,1.842-9.717C208.563,83.159,216.354,81.805,216.354,81.805Z" transform="translate(-207.193 -81.527)" fill="#fff"/>
            <path id="Path_1691" data-name="Path 1691" d="M207.545,95.143a.277.277,0,0,1-.239-.415c.033-.057,3.278-5.774,1.826-9.479a1,1,0,0,1,.072-.872c.92-1.636,6.541-2.656,7.18-2.768a.271.271,0,0,1,.217.055.275.275,0,0,1,.105.2,45.038,45.038,0,0,0,1.172,7.65,1.3,1.3,0,0,1-.138,1.061c-1.332,2.377-9.768,4.472-10.128,4.561A.272.272,0,0,1,207.545,95.143Zm8.632-12.934c-1.842.347-5.858,1.313-6.491,2.439a.441.441,0,0,0-.04.4c1.288,3.285-.752,7.817-1.559,9.4,2.71-.719,8.238-2.475,9.171-4.139a.758.758,0,0,0,.093-.623A42.117,42.117,0,0,1,216.177,82.208Z" transform="translate(-207.269 -81.604)"/>
          </g>
          <path id="Path_1692" data-name="Path 1692" d="M210.382,183.782a4.02,4.02,0,0,1,1.176,1.629,5.01,5.01,0,0,1,.435,1.613l4.5-.195a13.345,13.345,0,0,0-.966-2.7,3.207,3.207,0,0,0-.934-1.042Z" transform="translate(-140.49 -18.728)" fill="#f5bd22"/>
          <path id="Path_1693" data-name="Path 1693" d="M261.706,162.835a4.132,4.132,0,0,1,1.886-1.143,6.571,6.571,0,0,1,1.928-.394l-.3-4.608a9.478,9.478,0,0,0-3.053.82,5.928,5.928,0,0,0-1.577,1.086Z" transform="translate(-121.308 -28.814)" fill="#f5bd22"/>
          <path id="Path_1694" data-name="Path 1694" d="M263.37,172.754l.657-27.911,1.389.043-.657,27.912Z" transform="translate(-120.247 -33.34)" fill="#f5bd22"/>
          <path id="Path_1695" data-name="Path 1695" d="M207.215,185.622l27.918-.3,0,1.39-27.918.3Z" transform="translate(-141.7 -17.874)" fill="#f5bd22"/>
          <g id="Group_1072" data-name="Group 1072" transform="translate(64.204 12.369)">
            <path id="Path_1696" data-name="Path 1696" d="M217.211,84.631c-3.049,3.955-6.364,5.122-9.34,3.389-2.258-1.316-1.386-5.119-.261-8.891,1.9-6.384,4.145-6.216,6.8-5.442S219.613,81.511,217.211,84.631Z" transform="translate(-206.192 -73.037)" fill="#fff"/>
            <path id="Path_1697" data-name="Path 1697" d="M210.712,89.157a5.724,5.724,0,0,1-2.905-.824c-2.464-1.436-1.491-5.506-.387-9.208,1.957-6.559,4.389-6.431,7.14-5.629,1.295.377,2.626,2.134,3.389,4.475.7,2.149.954,5.09-.444,6.9h0C215.325,87.7,212.988,89.157,210.712,89.157Zm1.7-15.493c-1.7,0-3.132,1.158-4.463,5.618-1.045,3.5-1.982,7.34.134,8.573,2.859,1.665,6.049.488,8.983-3.318h0c1.265-1.642,1.013-4.38.355-6.395-.7-2.139-1.911-3.794-3.02-4.117A7.263,7.263,0,0,0,212.413,73.665Zm4.873,11.041h0Z" transform="translate(-206.266 -73.112)"/>
          </g>
          <path id="Path_1698" data-name="Path 1698" d="M210.847,78.151c-3.443.086-6.765-4.239-3.8-7.94,3.772-4.7,9.338,2,9.338,2s3.132-.373,5.329,3.154c1.207,1.933,2.5,4.253,2.5,4.253a6.438,6.438,0,0,1-2.962,4.523A11.219,11.219,0,0,1,216.9,86.13s1.106-3.5-.409-4.089c-2.383-.937-2.707-4.722-2.707-4.722A6.84,6.84,0,0,1,210.847,78.151Z" transform="translate(-142.202 -62.491)" fill="#f51619"/>
          <path id="Path_1699" data-name="Path 1699" d="M216.086,73.868s9.177-9.894,18.9-4.608c11.371,6.185,2.034,16.59,5.35,22.859s7.8,4.41,10.539,9.763c3,5.849-.68,12.928-6.378,15.533-5.918,2.706-12.176.76-14.216-4.8-1.6-4.353,1.488-7.565,1.035-8.839s-3.226-.105-4.322-2.676c-1.295-3.035,1.466-4.36,1.128-5.438s-3.242-.955-4.275-4.095c-1.045-3.175,2.233-4.93.441-7.293-2.821-3.722-5.716-2.741-5.716-2.741Z" transform="translate(-138.311 -62.809)" fill="#f51619"/>
          <g id="Group_1073" data-name="Group 1073" transform="translate(73.845 22.007)">
            <path id="Path_1700" data-name="Path 1700" d="M214.259,80.288s2.1-.112,1.733,1.7c-.288,1.412-2.189,1.3-2.55.887Z" transform="translate(-213.166 -80.009)" fill="#fff"/>
            <path id="Path_1701" data-name="Path 1701" d="M214.435,83.5a1.556,1.556,0,0,1-1.122-.366.276.276,0,1,1,.412-.366,1.549,1.549,0,0,0,1.205.116,1.115,1.115,0,0,0,.867-.875,1.055,1.055,0,0,0-.159-.938,1.85,1.85,0,0,0-1.288-.426h-.014a.277.277,0,0,1-.015-.553,2.357,2.357,0,0,1,1.736.616,1.579,1.579,0,0,1,.283,1.411,1.656,1.656,0,0,1-1.267,1.3A2.494,2.494,0,0,1,214.435,83.5Z" transform="translate(-213.242 -80.086)"/>
          </g>
          <g id="Group_1074" data-name="Group 1074" transform="translate(66.746 17.958)">
            <path id="Path_1702" data-name="Path 1702" d="M210.677,77.357s-2.343,3.025-2.369,3.22,1.187.832,1.187.832Z" transform="translate(-208.029 -77.08)" fill="#fff"/>
            <path id="Path_1703" data-name="Path 1703" d="M209.572,81.762a.272.272,0,0,1-.129-.032c-1.386-.726-1.353-.959-1.332-1.114.011-.086.036-.27,2.424-3.353a.276.276,0,0,1,.437.339c-.947,1.223-1.989,2.606-2.262,3.032a7.252,7.252,0,0,0,.991.607.276.276,0,0,1-.129.521Z" transform="translate(-208.106 -77.156)"/>
          </g>
          <path id="Path_1704" data-name="Path 1704" d="M212.458,79.158a.361.361,0,1,1-.14-.532A.394.394,0,0,1,212.458,79.158Z" transform="translate(-139.961 -58.649)"/>
          <path id="Path_1705" data-name="Path 1705" d="M208.933,77.453a.311.311,0,1,1-.12-.457A.334.334,0,0,1,208.933,77.453Z" transform="translate(-141.27 -59.27)"/>
          <g id="Group_1075" data-name="Group 1075" transform="translate(66.158 23.687)">
            <path id="Path_1706" data-name="Path 1706" d="M207.881,81.5a2.314,2.314,0,0,0,.936.672,2.176,2.176,0,0,0,1.249.047Z" transform="translate(-207.604 -81.226)" fill="#fff"/>
            <path id="Path_1707" data-name="Path 1707" d="M209.572,82.643a2.16,2.16,0,0,1-.779-.137,2.6,2.6,0,0,1-1.056-.761.277.277,0,0,1,.439-.336,2.073,2.073,0,0,0,.818.582,1.909,1.909,0,0,0,1.072.04.279.279,0,0,1,.341.189.276.276,0,0,1-.188.341A2.5,2.5,0,0,1,209.572,82.643Z" transform="translate(-207.68 -81.302)"/>
          </g>
          <g id="Group_1076" data-name="Group 1076" transform="translate(77.499 10.783)">
            <path id="Path_1708" data-name="Path 1708" d="M219.989,80.089a.276.276,0,0,1-.275-.26,12.584,12.584,0,0,0-1.16-3.693,10.813,10.813,0,0,0-2.568-3.682.276.276,0,1,1,.352-.426,11.2,11.2,0,0,1,2.72,3.884,12.6,12.6,0,0,1,1.205,3.885.273.273,0,0,1-.258.29Z" transform="translate(-215.886 -71.965)"/>
          </g>
          <g id="Group_1077" data-name="Group 1077" transform="translate(82.244 7.322)">
            <path id="Path_1709" data-name="Path 1709" d="M247.913,105.733a.278.278,0,0,1-.275-.249c-.38-3.816-2.836-5.264-6.551-7.455-4.423-2.608-6.08-6.509-5.543-13.044.607-7.373.133-9.5-2.98-13.374-3.065-3.817-12.758.43-12.857.473a.276.276,0,0,1-.224-.5c.415-.184,10.179-4.465,13.512-.314,3.36,4.185,3.682,6.695,3.1,13.765-.524,6.375,1,10,5.272,12.521,3.861,2.278,6.413,3.781,6.822,7.876a.278.278,0,0,1-.249.3Z" transform="translate(-219.32 -69.46)" fill="#fff"/>
          </g>
          <g id="Group_1078" data-name="Group 1078" transform="translate(69.264 72.346)">
            <path id="Path_1710" data-name="Path 1710" d="M212.858,157.084a.277.277,0,0,1-.272-.232c-2.044-12.46-2.652-39.783-2.658-40.058a.276.276,0,1,1,.551-.011c.007.274.614,27.558,2.652,39.979a.277.277,0,0,1-.228.318A.254.254,0,0,1,212.858,157.084Z" transform="translate(-209.928 -116.51)" fill="#fff"/>
          </g>
          <g id="Group_1083" data-name="Group 1083" transform="translate(29.62 19.645)">
            <g id="Group_1079" data-name="Group 1079">
              <path id="Path_1711" data-name="Path 1711" d="M181.508,82.177c.412-.665,1.168-.014,1.168-.014s-.73-1.03-.189-1.524c.52-.478,1.335.37,1.335.37s-.647-.976-.1-1.553c.5-.529,1.469.4,1.469.4s-.531-1.078.341-1.273c.98-.22,2.416,2.915,3.778,4.529,1.323,1.566.977,1.975,2.745,3.445s14.354,12.155,15.186,12.447c1.289.452,7.7.209,7.7.209l4.659,10.774s-14.913-.115-17.892-2.529c-1.989-1.61-8-9.253-11.08-13.772-1.969-2.887-3.711-4.012-5.384-5.647C183.233,86.07,181.014,82.975,181.508,82.177Z" transform="translate(-181.168 -78.3)" fill="#fff"/>
              <path id="Path_1712" data-name="Path 1712" d="M219.684,110.345h0c-.614,0-15.045-.144-18.066-2.591-1.957-1.587-7.931-9.137-11.132-13.83a21.5,21.5,0,0,0-3.979-4.349c-.464-.412-.92-.815-1.371-1.256-1.658-1.62-4.474-5.1-3.787-6.209h0a.834.834,0,0,1,.82-.426,1.076,1.076,0,0,1,.207-1.172.872.872,0,0,1,.948-.144,1.156,1.156,0,0,1,.276-1.025.8.8,0,0,1,.569-.249,1.349,1.349,0,0,1,.665.188.991.991,0,0,1,.09-.423.864.864,0,0,1,.627-.464c.817-.176,1.631,1.053,2.649,2.623a20.666,20.666,0,0,0,1.4,2,9.883,9.883,0,0,1,1.05,1.5,6.171,6.171,0,0,0,1.661,1.915c.3.253.932.782,1.765,1.483,3.452,2.908,12.623,10.632,13.337,10.917,1.016.357,5.829.26,7.6.193a.253.253,0,0,1,.264.166l4.66,10.774a.277.277,0,0,1-.254.386ZM182.077,82.232l-.047,0a.3.3,0,0,0-.211.166h0c-.322.518,1.417,3.289,3.7,5.523.444.434.893.832,1.35,1.237a22,22,0,0,1,4.069,4.452c3.181,4.664,9.1,12.152,11.024,13.714,2.594,2.1,14.847,2.419,17.3,2.461l-4.416-10.209c-1.095.037-6.4.193-7.616-.231-.647-.227-6.874-5.429-13.507-11.013-.833-.7-1.459-1.23-1.763-1.483a6.69,6.69,0,0,1-1.781-2.056,9.393,9.393,0,0,0-1-1.422,21.167,21.167,0,0,1-1.443-2.054c-.68-1.049-1.6-2.492-2.065-2.384-.171.039-.224.111-.249.163a1.034,1.034,0,0,0,.1.717.277.277,0,0,1-.439.322,1.872,1.872,0,0,0-.9-.491.244.244,0,0,0-.178.077c-.387.406.122,1.2.127,1.209a.277.277,0,0,1-.43.344c-.007-.006-.645-.638-.949-.358s.1.987.228,1.162a.276.276,0,0,1-.4.369A.943.943,0,0,0,182.077,82.232Zm-.493.022h0Z" transform="translate(-181.242 -78.377)"/>
            </g>
            <g id="Group_1080" data-name="Group 1080" transform="translate(1.232 3.588)">
              <path id="Path_1713" data-name="Path 1713" d="M182.334,81.172s.855,1.408,1.464,2.257a9.882,9.882,0,0,0,.869,1.1Z" transform="translate(-182.058 -80.897)" fill="#fff"/>
              <path id="Path_1714" data-name="Path 1714" d="M184.743,84.885a.28.28,0,0,1-.193-.079,10.251,10.251,0,0,1-.9-1.142c-.608-.846-1.44-2.215-1.476-2.273a.277.277,0,0,1,.473-.287c.008.015.857,1.41,1.452,2.239a9.743,9.743,0,0,0,.839,1.068.278.278,0,0,1,0,.391A.275.275,0,0,1,184.743,84.885Z" transform="translate(-182.134 -80.973)"/>
            </g>
            <g id="Group_1081" data-name="Group 1081" transform="translate(2.315 2.386)">
              <path id="Path_1715" data-name="Path 1715" d="M183.117,80.3s.855,1.408,1.464,2.257a9.186,9.186,0,0,0,.829,1.059Z" transform="translate(-182.841 -80.027)" fill="#fff"/>
              <path id="Path_1716" data-name="Path 1716" d="M185.486,83.97a.272.272,0,0,1-.191-.076,9.026,9.026,0,0,1-.862-1.1c-.608-.847-1.44-2.215-1.476-2.273a.277.277,0,1,1,.473-.287c.01.014.857,1.41,1.453,2.239a10.2,10.2,0,0,0,.8,1.023.276.276,0,0,1-.192.474Z" transform="translate(-182.917 -80.103)"/>
            </g>
            <g id="Group_1082" data-name="Group 1082" transform="translate(3.75 1.305)">
              <path id="Path_1717" data-name="Path 1717" d="M184.156,79.52s.855,1.408,1.464,2.257a8.95,8.95,0,0,0,.814,1.043Z" transform="translate(-183.879 -79.245)" fill="#fff"/>
              <path id="Path_1718" data-name="Path 1718" d="M186.509,83.171a.278.278,0,0,1-.188-.075,8.8,8.8,0,0,1-.85-1.084c-.608-.846-1.44-2.215-1.475-2.273a.276.276,0,1,1,.471-.286c.01.014.857,1.408,1.454,2.238a9.04,9.04,0,0,0,.781,1,.277.277,0,0,1-.193.475Z" transform="translate(-183.955 -79.321)"/>
            </g>
          </g>
          <path id="Path_1719" data-name="Path 1719" d="M197.847,89.942l-5.2,8.118s1.672,6.5,8.62,4.374,9.877-9.33,9.877-9.33-6.888,1.4-8.332.9S197.847,89.942,197.847,89.942Z" transform="translate(-147.264 -54.314)" fill="#f5bd22"/>
          <g id="Group_1084" data-name="Group 1084" transform="translate(29.614 38.172)">
            <path id="Path_1720" data-name="Path 1720" d="M210.14,104.383l-24.733-12.4-3.969,3.629s14.67,14.271,19.864,16.975S210.14,104.383,210.14,104.383Z" transform="translate(-181.162 -91.706)" fill="#fff"/>
            <path id="Path_1721" data-name="Path 1721" d="M203.038,113.369a3.837,3.837,0,0,1-1.787-.462c-5.17-2.691-19.329-16.438-19.93-17.021a.281.281,0,0,1-.083-.2.274.274,0,0,1,.09-.2l3.969-3.631a.283.283,0,0,1,.311-.043l24.733,12.4a.278.278,0,0,1,.138.336c-.1.287-2.4,7.066-6.044,8.541A3.728,3.728,0,0,1,203.038,113.369Zm-21.12-17.676c1.817,1.755,14.826,14.246,19.587,16.724a3.085,3.085,0,0,0,2.723.159c3.057-1.236,5.214-6.787,5.647-7.978L185.529,92.39Z" transform="translate(-181.238 -91.783)"/>
          </g>
          <ellipse id="Ellipse_247" data-name="Ellipse 247" cx="17.371" cy="17.371" rx="17.371" ry="17.371" transform="translate(0 33.803) rotate(-76.644)" fill="#f5bd22"/>
          <g id="Group_1085" data-name="Group 1085" transform="translate(6.298 6.299)">
            <path id="Path_1722" data-name="Path 1722" d="M178.983,97.951A14.616,14.616,0,1,1,193.6,83.335,14.632,14.632,0,0,1,178.983,97.951Zm0-28.678a14.063,14.063,0,1,0,14.064,14.062A14.078,14.078,0,0,0,178.983,69.273Z" transform="translate(-164.367 -68.72)"/>
          </g>
          <g id="Group_1087" data-name="Group 1087" transform="translate(16.894 11.521)">
            <g id="Group_1086" data-name="Group 1086">
              <path id="Path_1723" data-name="Path 1723" d="M172.883,88.4q0-.533.709-.532a3.868,3.868,0,0,1,.941.149,3.7,3.7,0,0,0,.833.151,2.957,2.957,0,0,0,.495-.039q-.079-1.571-.34-7c-.051-.046-.221-.192-.509-.442s-.528-.457-.717-.625-.466-.434-.826-.795a6.617,6.617,0,0,1-.786-.914,3.361,3.361,0,0,1-.648-1.8,2.247,2.247,0,0,1,.818-1.6,5.429,5.429,0,0,1,2.313-1.212,5.623,5.623,0,0,0-.03-.659.639.639,0,0,1,.123-.466.318.318,0,0,1,.263-.117.882.882,0,0,1,.325.079.662.662,0,0,1,.4.669v.261a12.064,12.064,0,0,1,1.736-.145,3.779,3.779,0,0,1,1.3.2,1.5,1.5,0,0,1,.756.52l-.539.427q-.325,0-1-.064c-.453-.041-.818-.07-1.1-.083h-.155a8.143,8.143,0,0,0-.94.068l.446,6.227a9.79,9.79,0,0,1,2.963,3.336,4.115,4.115,0,0,1,.246,1.484,3.344,3.344,0,0,1-.64,1.815,3.752,3.752,0,0,1-1.889,1.435v1.533q0,.873-.911.872-.556,0-.556-.611v-.155l-.062-1.318c-.123.012-.319.019-.586.019s-.571-.017-.911-.048a4.781,4.781,0,0,1-1.019-.214Q172.883,88.64,172.883,88.4Zm2.561-8.855q-.062-1.047-.231-4.811a3.065,3.065,0,0,0-1.234.8,1.574,1.574,0,0,0-.417,1.086Q173.561,77.826,175.443,79.542Zm1.8,7.992a3.261,3.261,0,0,0,.934-1.125,2.611,2.611,0,0,0,.332-1.126,4.471,4.471,0,0,0-1.635-2.929Z" transform="translate(-172.034 -72.499)"/>
            </g>
          </g>
          <g id="Group_1094" data-name="Group 1094" transform="translate(23.858 29.373)">
            <g id="Group_1088" data-name="Group 1088" transform="translate(9.283 2.507)">
              <path id="Path_1724" data-name="Path 1724" d="M185.911,94.054a7.034,7.034,0,0,0,.6-3.068,19.9,19.9,0,0,1-.27-2.239c-.04-.788-.25-1.244-.735-1.307C183.818,87.219,184,90.9,184,90.9Z" transform="translate(-183.713 -87.154)" fill="#fff"/>
              <path id="Path_1725" data-name="Path 1725" d="M185.988,94.407a.276.276,0,0,1-.236-.134l-1.914-3.157a.265.265,0,0,1-.04-.129c-.012-.263-.1-2.58.832-3.437a1.19,1.19,0,0,1,.99-.308c.9.117.958,1.208.977,1.566a16.689,16.689,0,0,0,.227,1.945l.039.269a7.484,7.484,0,0,1-.621,3.219.277.277,0,0,1-.235.164Zm-1.64-3.516,1.584,2.613a5.857,5.857,0,0,0,.384-2.4l-.04-.268a17.393,17.393,0,0,1-.231-2c-.053-.991-.363-1.031-.5-1.049a.633.633,0,0,0-.545.167C184.4,88.515,184.324,90.2,184.347,90.891Z" transform="translate(-183.79 -87.23)"/>
            </g>
            <g id="Group_1089" data-name="Group 1089" transform="translate(3.095 2.929)">
              <path id="Path_1726" data-name="Path 1726" d="M187.684,94.368s-.811-5.78-1.28-6.389-2.712,0-4.369,1.111-2.474,1.517-2.517,2.345c-.156,3.007,2.438,5.712,3.01,6.14Z" transform="translate(-179.236 -87.459)" fill="#fff"/>
              <path id="Path_1727" data-name="Path 1727" d="M182.605,97.93a.277.277,0,0,1-.166-.057c-.547-.41-3.286-3.169-3.119-6.375.044-.85.732-1.3,1.983-2.126q.3-.2.655-.435c1.527-1.025,4.071-1.92,4.74-1.05.489.634,1.2,5.542,1.335,6.519a.276.276,0,0,1-.235.312.281.281,0,0,1-.312-.235,35.975,35.975,0,0,0-1.226-6.259c-.286-.376-2.273.017-3.994,1.172-.238.159-.457.3-.661.438-1.171.77-1.705,1.122-1.734,1.693-.152,2.926,2.42,5.545,2.9,5.9a.277.277,0,0,1-.166.5Z" transform="translate(-179.313 -87.536)"/>
            </g>
            <g id="Group_1090" data-name="Group 1090" transform="translate(4.43)">
              <path id="Path_1728" data-name="Path 1728" d="M186.035,88.789a13.061,13.061,0,0,0-1.99-1.942,11.449,11.449,0,0,0-2.061-1.014c-.426-.08-1.032-.3-1.32-.184s-.261,1.017.2,1.248,1.088,1.095,1.44,1.18,1.088,1.175,1.088,1.175Z" transform="translate(-180.202 -85.34)" fill="#fff"/>
              <path id="Path_1729" data-name="Path 1729" d="M183.473,89.6a.278.278,0,0,1-.229-.122,4.041,4.041,0,0,0-.926-1.061,2.235,2.235,0,0,1-.831-.633,3.46,3.46,0,0,0-.663-.567,1.162,1.162,0,0,1-.545-1.1.682.682,0,0,1,.361-.658,2.016,2.016,0,0,1,1.114.087c.126.03.249.061.358.082a11.967,11.967,0,0,1,2.152,1.05,13.392,13.392,0,0,1,2.065,2.008.276.276,0,0,1-.434.341,13.058,13.058,0,0,0-1.915-1.877,11.432,11.432,0,0,0-1.969-.98c-.119-.022-.252-.055-.387-.088a2.058,2.058,0,0,0-.779-.109,1.159,1.159,0,0,0,.01.392.5.5,0,0,0,.216.351,3.636,3.636,0,0,1,.808.67,2.665,2.665,0,0,0,.574.489c.412.1,1.013.934,1.252,1.288a.276.276,0,0,1-.229.431Z" transform="translate(-180.278 -85.416)"/>
            </g>
            <g id="Group_1091" data-name="Group 1091" transform="translate(2.512 1.787)">
              <path id="Path_1730" data-name="Path 1730" d="M185.078,89.115a13.014,13.014,0,0,0-1.99-1.943,6.847,6.847,0,0,0-2.714-.2c-.41.14-1.045.249-1.238.489s.274,1.016.793.987a6.215,6.215,0,0,1,1.424-.043c.352.086,1.088,1.173,1.088,1.173Z" transform="translate(-178.814 -86.633)" fill="#fff"/>
              <path id="Path_1731" data-name="Path 1731" d="M182.516,89.929a.274.274,0,0,1-.228-.122,4.051,4.051,0,0,0-.927-1.06,3.223,3.223,0,0,0-.873.012c-.155.015-.314.029-.469.039a1.168,1.168,0,0,1-1.012-.685.683.683,0,0,1-.011-.75,2.046,2.046,0,0,1,1.013-.474c.124-.035.246-.069.352-.105a6.771,6.771,0,0,1,2.945.228,13.289,13.289,0,0,1,2.066,2.009.277.277,0,0,1-.437.34,12.93,12.93,0,0,0-1.914-1.877,7.083,7.083,0,0,0-2.482-.177c-.115.039-.246.076-.381.115a2.11,2.11,0,0,0-.732.287,1.222,1.222,0,0,0,.2.337.563.563,0,0,0,.362.2c.148-.008.3-.022.445-.036a3.523,3.523,0,0,1,1.06,0c.41.1,1.012.934,1.251,1.288a.276.276,0,0,1-.229.431Z" transform="translate(-178.89 -86.709)"/>
            </g>
            <g id="Group_1092" data-name="Group 1092" transform="translate(1.269 2.849)">
              <path id="Path_1732" data-name="Path 1732" d="M184.088,89.763a13.208,13.208,0,0,0-1.99-1.943,5.981,5.981,0,0,0-2.731.035c-.384.2-1,.406-1.15.673s.426.962.934.854.857-.416,1.209-.33,1.089,1.175,1.089,1.175Z" transform="translate(-177.915 -87.402)" fill="#fff"/>
              <path id="Path_1733" data-name="Path 1733" d="M181.526,90.578a.279.279,0,0,1-.229-.123,4.028,4.028,0,0,0-.926-1.06.888.888,0,0,0-.484.127,3.225,3.225,0,0,1-.6.206,1.174,1.174,0,0,1-1.1-.522.683.683,0,0,1-.126-.741,2.045,2.045,0,0,1,.926-.621c.119-.054.235-.106.333-.159a5.93,5.93,0,0,1,3-.026,13.157,13.157,0,0,1,2.065,2.009.276.276,0,1,1-.435.34,13,13,0,0,0-1.915-1.877,6.264,6.264,0,0,0-2.46.043c-.108.057-.234.115-.361.173a2.109,2.109,0,0,0-.677.4,1.146,1.146,0,0,0,.252.3.509.509,0,0,0,.386.141,2.587,2.587,0,0,0,.5-.174,1.331,1.331,0,0,1,.832-.153c.412.1,1.013.933,1.251,1.288a.273.273,0,0,1-.073.383A.276.276,0,0,1,181.526,90.578Z" transform="translate(-177.991 -87.478)"/>
            </g>
            <g id="Group_1093" data-name="Group 1093" transform="translate(0 3.944)">
              <path id="Path_1734" data-name="Path 1734" d="M183.012,90.694a11.208,11.208,0,0,0-2.358-2.164c-1-.312-3.074.64-3.351,1.585-.188.636.543.94,1.137.553.435-.285.574-.518.926-.433s1.008.92,1.008.92Z" transform="translate(-176.996 -88.193)" fill="#fff"/>
              <path id="Path_1735" data-name="Path 1735" d="M180.451,91.51a.276.276,0,0,1-.217-.106,3.207,3.207,0,0,0-.855-.824c-.119-.026-.17,0-.4.171-.088.068-.189.144-.312.224a1.132,1.132,0,0,1-1.285.036.793.793,0,0,1-.27-.9,2.557,2.557,0,0,1,1.323-1.32,3.533,3.533,0,0,1,2.377-.451,10.994,10.994,0,0,1,2.493,2.257.277.277,0,1,1-.435.341,11.548,11.548,0,0,0-2.224-2.07,2.988,2.988,0,0,0-1.951.41,2.118,2.118,0,0,0-1.053.988c-.059.2.039.274.07.3a.6.6,0,0,0,.652-.054c.111-.073.2-.141.279-.2a.933.933,0,0,1,.864-.27c.412.1.991.806,1.158,1.02a.276.276,0,0,1-.217.448Z" transform="translate(-177.073 -88.27)"/>
            </g>
          </g>
          <path id="Path_1736" data-name="Path 1736" d="M193.987,97.437l-5.65,12.268s9.457,5.513,14.627,5.735c12.491.538,28.647-15.918,22.294-23.7-4.644-5.686-21.012,6.961-25.421,7.3C197.508,99.223,193.987,97.437,193.987,97.437Z" transform="translate(-148.912 -54.186)" fill="#f5bd22"/>
          <g id="Group_1095" data-name="Group 1095" transform="translate(36.548 20.774)">
            <path id="Path_1737" data-name="Path 1737" d="M193.043,88.688c-2.175-1.654-2.312-2.869-3.387-5.319-.789-1.8-1.35-3.74-2.173-3.946-.764-.191-1.349.561-.835,1.661a5.028,5.028,0,0,1,.444,2.931,4.088,4.088,0,0,0,.135,1.719Z" transform="translate(-186.179 -79.117)" fill="#fff"/>
            <path id="Path_1738" data-name="Path 1738" d="M193.12,89.041a.277.277,0,0,1-.167-.057,8.047,8.047,0,0,1-2.942-4.157c-.156-.387-.328-.807-.531-1.27-.182-.416-.352-.839-.517-1.247-.478-1.19-.973-2.419-1.469-2.543a.51.51,0,0,0-.546.151,1.085,1.085,0,0,0,.029,1.125,5.277,5.277,0,0,1,.466,3.079,3.872,3.872,0,0,0,.122,1.593.276.276,0,0,1-.518.192,4.341,4.341,0,0,1-.152-1.845,4.786,4.786,0,0,0-.419-2.785,1.6,1.6,0,0,1,.047-1.711,1.061,1.061,0,0,1,1.106-.336c.77.192,1.247,1.375,1.849,2.873.162.4.329.82.509,1.229.207.47.379.9.536,1.287a7.512,7.512,0,0,0,2.765,3.924.277.277,0,0,1-.167.5Z" transform="translate(-186.255 -79.194)"/>
          </g>
          <g id="Group_1096" data-name="Group 1096" transform="translate(44.798 38.009)">
            <path id="Path_1739" data-name="Path 1739" d="M199.319,98.912a18.317,18.317,0,0,1-6.939-1.757.276.276,0,1,1,.243-.5c.041.021,4.273,2.068,7.685,1.64,3.437-.424,13.806-6.536,13.911-6.6a.277.277,0,0,1,.281.477c-.43.254-10.574,6.232-14.124,6.671A8.67,8.67,0,0,1,199.319,98.912Z" transform="translate(-192.225 -91.665)" fill="#fff"/>
          </g>
        </g>
      </g>
      <g id="Group_1099" data-name="Group 1099" transform="translate(161.329 199.374)">
        <g id="Group_867" data-name="Group 867" transform="translate(0 2.098)">
          <path id="Path_1411" data-name="Path 1411" d="M436.722,95.961l-5.255-7.778a4.845,4.845,0,0,1-.831-2.714V78.482H385.784v6.986a4.845,4.845,0,0,1-.831,2.714L379.7,95.961a4.847,4.847,0,0,0-.831,2.714v53.134a12.3,12.3,0,0,0,12.3,12.3h34.1a12.3,12.3,0,0,0,12.3-12.3V98.675A4.847,4.847,0,0,0,436.722,95.961Z" transform="translate(-378.464 -78.079)" fill="#fff"/>
          <path id="Path_1412" data-name="Path 1412" d="M425.162,164.41h-34.1a12.713,12.713,0,0,1-12.7-12.7V98.578a5.229,5.229,0,0,1,.9-2.94l5.255-7.778a4.435,4.435,0,0,0,.761-2.488V78.385a.4.4,0,0,1,.4-.4H430.54a.4.4,0,0,1,.4.4v6.987a4.425,4.425,0,0,0,.761,2.488l5.255,7.778a5.231,5.231,0,0,1,.9,2.94v53.134A12.713,12.713,0,0,1,425.162,164.41ZM386.09,78.788v6.583a5.237,5.237,0,0,1-.9,2.94l-5.255,7.778a4.43,4.43,0,0,0-.762,2.488v53.134A11.905,11.905,0,0,0,391.065,163.6h34.1a11.9,11.9,0,0,0,11.891-11.892V98.578a4.427,4.427,0,0,0-.761-2.488h0l-5.255-7.778a5.231,5.231,0,0,1-.9-2.94V78.788Z" transform="translate(-378.367 -77.982)"/>
        </g>
        <rect id="Rectangle_926" data-name="Rectangle 926" width="47.154" height="6.349" rx="0.91" transform="translate(5.905 0.161)" fill="#17afb0"/>
        <g id="Group_912" data-name="Group 912" transform="translate(5.65 64.516)">
          <g id="Group_876" data-name="Group 876" transform="translate(8.057 3.191)">
            <path id="Path_1413" data-name="Path 1413" d="M417.492,163.808a44.094,44.094,0,0,0-16.143,0h-5.783v3.211c0,2.184,6.2,3.956,13.854,3.956s13.854-1.771,13.854-3.956v-3.211Z" transform="translate(-395.406 -160.072)" fill="#f5bd22"/>
            <path id="Path_1414" data-name="Path 1414" d="M423.275,163.039c0,2-6.2,3.619-13.854,3.619s-13.854-1.62-13.854-3.619,6.2-3.619,13.854-3.619S423.275,161.041,423.275,163.039Z" transform="translate(-395.406 -159.366)" fill="#f5bd22"/>
            <g id="Group_868" data-name="Group 868" transform="translate(4.139 1.144)">
              <path id="Path_1415" data-name="Path 1415" d="M410.377,167.081a40.986,40.986,0,0,1-9.755-1.044.162.162,0,0,1,.081-.313,40.6,40.6,0,0,0,9.675,1.034c8.19,0,13.692-1.788,13.692-3.457,0-.782-1.19-1.588-3.264-2.214a.161.161,0,0,1,.093-.309c2.286.689,3.494,1.562,3.494,2.523C424.392,165.421,418.236,167.081,410.377,167.081Z" transform="translate(-400.5 -160.771)"/>
            </g>
            <g id="Group_869" data-name="Group 869" transform="translate(0.9 4.797)">
              <path id="Path_1416" data-name="Path 1416" d="M396.644,168.445a.162.162,0,0,1-.161-.162v-2.82a.161.161,0,1,1,.322,0v2.82A.161.161,0,0,1,396.644,168.445Z" transform="translate(-396.483 -165.302)"/>
            </g>
            <g id="Group_870" data-name="Group 870" transform="translate(0 3.765)">
              <path id="Path_1417" data-name="Path 1417" d="M395.528,167.165a.161.161,0,0,1-.161-.161v-2.82a.161.161,0,1,1,.323,0V167A.161.161,0,0,1,395.528,167.165Z" transform="translate(-395.367 -164.023)"/>
            </g>
            <g id="Group_871" data-name="Group 871" transform="translate(2.982 5.829)">
              <path id="Path_1418" data-name="Path 1418" d="M399.227,169.725a.161.161,0,0,1-.161-.161v-2.82a.161.161,0,1,1,.323,0v2.82A.161.161,0,0,1,399.227,169.725Z" transform="translate(-399.066 -166.583)"/>
            </g>
            <g id="Group_872" data-name="Group 872" transform="translate(5.954 6.585)">
              <path id="Path_1419" data-name="Path 1419" d="M402.913,170.662a.161.161,0,0,1-.161-.161v-2.82a.161.161,0,1,1,.323,0v2.82A.161.161,0,0,1,402.913,170.662Z" transform="translate(-402.752 -167.52)"/>
            </g>
            <g id="Group_873" data-name="Group 873" transform="translate(10.766 7.24)">
              <path id="Path_1420" data-name="Path 1420" d="M408.88,171.474a.162.162,0,0,1-.161-.161v-2.82a.162.162,0,0,1,.323,0v2.82A.162.162,0,0,1,408.88,171.474Z" transform="translate(-408.719 -168.332)"/>
            </g>
            <g id="Group_874" data-name="Group 874" transform="translate(25.778 5.288)">
              <path id="Path_1421" data-name="Path 1421" d="M427.5,169.054a.162.162,0,0,1-.162-.161v-2.82a.162.162,0,0,1,.323,0v2.82A.162.162,0,0,1,427.5,169.054Z" transform="translate(-427.338 -165.912)"/>
            </g>
            <g id="Group_875" data-name="Group 875" transform="translate(2.343)">
              <path id="Path_1422" data-name="Path 1422" d="M398.434,161.174a.162.162,0,0,1-.058-.312,35.073,35.073,0,0,1,8.214-1.509.157.157,0,0,1,.171.152.16.16,0,0,1-.15.17,34.714,34.714,0,0,0-8.119,1.488A.162.162,0,0,1,398.434,161.174Z" transform="translate(-398.273 -159.353)"/>
            </g>
          </g>
          <g id="Group_888" data-name="Group 888" transform="translate(8.057)">
            <path id="Path_1423" data-name="Path 1423" d="M417.492,159.788a48.095,48.095,0,0,0-16.143,0h-5.783v2.937c0,2,6.2,3.619,13.854,3.619s13.854-1.621,13.854-3.619v-2.937Z" transform="translate(-395.406 -156.115)" fill="#f5bd22"/>
            <ellipse id="Ellipse_243" data-name="Ellipse 243" cx="13.854" cy="3.619" rx="13.854" ry="3.619" transform="translate(0.162 0.055)" fill="#f5bd22"/>
            <g id="Group_877" data-name="Group 877" transform="translate(4.139 1.144)">
              <path id="Path_1424" data-name="Path 1424" d="M410.377,163.124a40.987,40.987,0,0,1-9.755-1.044.162.162,0,0,1,.081-.313,40.6,40.6,0,0,0,9.675,1.034c8.19,0,13.692-1.788,13.692-3.457,0-.782-1.19-1.588-3.264-2.214a.161.161,0,0,1,.093-.309c2.286.689,3.494,1.562,3.494,2.523C424.392,161.464,418.236,163.124,410.377,163.124Z" transform="translate(-400.5 -156.815)"/>
            </g>
            <g id="Group_878" data-name="Group 878" transform="translate(0.9 4.797)">
              <path id="Path_1425" data-name="Path 1425" d="M396.644,164.488a.162.162,0,0,1-.161-.162v-2.82a.161.161,0,1,1,.322,0v2.82A.161.161,0,0,1,396.644,164.488Z" transform="translate(-396.483 -161.345)"/>
            </g>
            <g id="Group_879" data-name="Group 879" transform="translate(0 3.766)">
              <path id="Path_1426" data-name="Path 1426" d="M395.528,163.208a.162.162,0,0,1-.161-.161v-2.82a.161.161,0,1,1,.323,0v2.82A.162.162,0,0,1,395.528,163.208Z" transform="translate(-395.367 -160.066)"/>
            </g>
            <g id="Group_880" data-name="Group 880" transform="translate(2.982 5.83)">
              <path id="Path_1427" data-name="Path 1427" d="M399.227,165.768a.161.161,0,0,1-.161-.161v-2.82a.161.161,0,0,1,.323,0v2.82A.161.161,0,0,1,399.227,165.768Z" transform="translate(-399.066 -162.626)"/>
            </g>
            <g id="Group_881" data-name="Group 881" transform="translate(5.954 6.585)">
              <path id="Path_1428" data-name="Path 1428" d="M402.913,166.705a.161.161,0,0,1-.161-.161v-2.82a.161.161,0,0,1,.323,0v2.82A.161.161,0,0,1,402.913,166.705Z" transform="translate(-402.752 -163.563)"/>
            </g>
            <g id="Group_882" data-name="Group 882" transform="translate(10.766 7.239)">
              <path id="Path_1429" data-name="Path 1429" d="M408.88,167.517a.162.162,0,0,1-.161-.161v-2.82a.162.162,0,1,1,.323,0v2.82A.162.162,0,0,1,408.88,167.517Z" transform="translate(-408.719 -164.374)"/>
            </g>
            <g id="Group_883" data-name="Group 883" transform="translate(16.483 7.239)">
              <path id="Path_1430" data-name="Path 1430" d="M415.971,166.74a.162.162,0,0,1-.161-.162v-2.042a.161.161,0,1,1,.323,0v2.042A.161.161,0,0,1,415.971,166.74Z" transform="translate(-415.81 -164.374)"/>
            </g>
            <g id="Group_884" data-name="Group 884" transform="translate(26.684 4.872)">
              <path id="Path_1431" data-name="Path 1431" d="M428.624,163.655a.162.162,0,0,1-.162-.162V161.6a.162.162,0,0,1,.323,0v1.894A.162.162,0,0,1,428.624,163.655Z" transform="translate(-428.462 -161.438)"/>
            </g>
            <g id="Group_885" data-name="Group 885" transform="translate(23.814 6.131)">
              <path id="Path_1432" data-name="Path 1432" d="M425.063,166.142a.161.161,0,0,1-.161-.161v-2.82a.161.161,0,1,1,.322,0v2.82A.161.161,0,0,1,425.063,166.142Z" transform="translate(-424.902 -163)"/>
            </g>
            <g id="Group_886" data-name="Group 886" transform="translate(27.708 4.137)">
              <path id="Path_1433" data-name="Path 1433" d="M429.893,163.669a.162.162,0,0,1-.161-.161v-2.82a.161.161,0,1,1,.322,0v2.82A.161.161,0,0,1,429.893,163.669Z" transform="translate(-429.732 -160.527)"/>
            </g>
            <g id="Group_887" data-name="Group 887" transform="translate(2.343)">
              <path id="Path_1434" data-name="Path 1434" d="M398.434,157.217a.162.162,0,0,1-.058-.312,35.029,35.029,0,0,1,8.214-1.509.154.154,0,0,1,.171.151.16.16,0,0,1-.15.171,34.713,34.713,0,0,0-8.119,1.488A.162.162,0,0,1,398.434,157.217Z" transform="translate(-398.273 -155.396)"/>
            </g>
          </g>
          <g id="Group_899" data-name="Group 899" transform="translate(0 9.377)">
            <path id="Path_1435" data-name="Path 1435" d="M404.875,170.949a40.149,40.149,0,0,0-14.211,0h-5.09v2.732c0,1.859,5.46,3.365,12.2,3.365s12.2-1.507,12.2-3.365v-2.732Z" transform="translate(-385.413 -167.662)" fill="#f5bd22"/>
            <ellipse id="Ellipse_244" data-name="Ellipse 244" cx="12.196" cy="3.186" rx="12.196" ry="3.186" transform="translate(0.161 0.067)" fill="#f5bd22"/>
            <g id="Group_889" data-name="Group 889" transform="translate(3.643 1.008)">
              <path id="Path_1436" data-name="Path 1436" d="M398.607,173.867a36.082,36.082,0,0,1-8.593-.92.161.161,0,1,1,.08-.312,35.8,35.8,0,0,0,8.513.909c7.2,0,12.035-1.563,12.035-3.024,0-.679-1.042-1.383-2.859-1.93a.161.161,0,1,1,.093-.309c2.021.609,3.089,1.383,3.089,2.239C410.964,172.4,405.536,173.867,398.607,173.867Z" transform="translate(-389.892 -168.275)"/>
            </g>
            <g id="Group_890" data-name="Group 890" transform="translate(0.792 4.223)">
              <path id="Path_1437" data-name="Path 1437" d="M386.517,175.067a.162.162,0,0,1-.161-.161v-2.483a.161.161,0,1,1,.323,0v2.483A.161.161,0,0,1,386.517,175.067Z" transform="translate(-386.356 -172.262)"/>
            </g>
            <g id="Group_891" data-name="Group 891" transform="translate(0 3.315)">
              <path id="Path_1438" data-name="Path 1438" d="M385.535,173.941a.161.161,0,0,1-.161-.161V171.3a.161.161,0,1,1,.323,0v2.483A.162.162,0,0,1,385.535,173.941Z" transform="translate(-385.374 -171.136)"/>
            </g>
            <g id="Group_892" data-name="Group 892" transform="translate(2.624 5.132)">
              <path id="Path_1439" data-name="Path 1439" d="M388.791,176.2a.162.162,0,0,1-.162-.162v-2.482a.162.162,0,0,1,.323,0v2.482A.162.162,0,0,1,388.791,176.2Z" transform="translate(-388.629 -173.39)"/>
            </g>
            <g id="Group_893" data-name="Group 893" transform="translate(5.242 5.797)">
              <path id="Path_1440" data-name="Path 1440" d="M392.036,177.02a.161.161,0,0,1-.161-.161v-2.483a.161.161,0,0,1,.323,0v2.483A.162.162,0,0,1,392.036,177.02Z" transform="translate(-391.875 -174.215)"/>
            </g>
            <g id="Group_894" data-name="Group 894" transform="translate(9.476 6.373)">
              <path id="Path_1441" data-name="Path 1441" d="M397.289,177.734a.162.162,0,0,1-.162-.161V175.09a.162.162,0,0,1,.323,0v2.483A.162.162,0,0,1,397.289,177.734Z" transform="translate(-397.127 -174.929)"/>
            </g>
            <g id="Group_895" data-name="Group 895" transform="translate(14.51 6.373)">
              <path id="Path_1442" data-name="Path 1442" d="M403.531,177.734a.162.162,0,0,1-.161-.161V175.09a.161.161,0,0,1,.323,0v2.483A.162.162,0,0,1,403.531,177.734Z" transform="translate(-403.37 -174.929)"/>
            </g>
            <g id="Group_896" data-name="Group 896" transform="translate(20.963 5.397)">
              <path id="Path_1443" data-name="Path 1443" d="M411.534,176.524a.161.161,0,0,1-.161-.162V173.88a.161.161,0,0,1,.323,0v2.482A.162.162,0,0,1,411.534,176.524Z" transform="translate(-411.373 -173.719)"/>
            </g>
            <g id="Group_897" data-name="Group 897" transform="translate(24.391 3.642)">
              <path id="Path_1444" data-name="Path 1444" d="M415.786,174.347a.161.161,0,0,1-.161-.161V171.7a.161.161,0,0,1,.323,0v2.483A.162.162,0,0,1,415.786,174.347Z" transform="translate(-415.625 -171.542)"/>
            </g>
            <g id="Group_898" data-name="Group 898" transform="translate(2.063)">
              <path id="Path_1445" data-name="Path 1445" d="M388.093,168.667a.162.162,0,0,1-.058-.312,30.906,30.906,0,0,1,7.237-1.33.155.155,0,0,1,.171.152.162.162,0,0,1-.151.171,30.471,30.471,0,0,0-7.141,1.308A.153.153,0,0,1,388.093,168.667Z" transform="translate(-387.933 -167.025)"/>
            </g>
          </g>
          <g id="Group_911" data-name="Group 911" transform="translate(24.056 11.101)">
            <path id="Path_1446" data-name="Path 1446" d="M434.255,173.117a38.768,38.768,0,0,0-13.874,0h-4.97v2.694c0,1.834,5.331,3.32,11.906,3.32s11.906-1.486,11.906-3.32v-2.694Z" transform="translate(-415.249 -169.808)" fill="#f5bd22"/>
            <path id="Path_1447" data-name="Path 1447" d="M439.224,172.471c0,1.717-5.33,3.11-11.906,3.11s-11.906-1.392-11.906-3.11,5.331-3.111,11.906-3.111S439.224,170.752,439.224,172.471Z" transform="translate(-415.249 -169.202)" fill="#f5bd22"/>
            <g id="Group_900" data-name="Group 900" transform="translate(3.558 1.072)">
              <path id="Path_1448" data-name="Path 1448" d="M428.133,175.961a35.25,35.25,0,0,1-8.389-.9.162.162,0,0,1,.081-.313,34.911,34.911,0,0,0,8.309.888c7.026,0,11.746-1.525,11.746-2.949,0-.661-1.017-1.346-2.789-1.881a.161.161,0,0,1,.093-.309c1.975.6,3.019,1.353,3.019,2.19C440.2,174.525,434.9,175.961,428.133,175.961Z" transform="translate(-419.623 -170.493)"/>
            </g>
            <g id="Group_901" data-name="Group 901" transform="translate(0.774 4.211)">
              <path id="Path_1449" data-name="Path 1449" d="M416.332,177.133a.162.162,0,0,1-.162-.161v-2.424a.162.162,0,0,1,.323,0v2.424A.162.162,0,0,1,416.332,177.133Z" transform="translate(-416.17 -174.387)"/>
            </g>
            <g id="Group_902" data-name="Group 902" transform="translate(0 3.325)">
              <path id="Path_1450" data-name="Path 1450" d="M415.372,176.034a.162.162,0,0,1-.162-.161v-2.424a.162.162,0,0,1,.323,0v2.424A.162.162,0,0,1,415.372,176.034Z" transform="translate(-415.21 -173.288)"/>
            </g>
            <g id="Group_903" data-name="Group 903" transform="translate(2.563 5.099)">
              <path id="Path_1451" data-name="Path 1451" d="M418.55,178.234a.162.162,0,0,1-.161-.161V175.65a.162.162,0,1,1,.323,0v2.423A.162.162,0,0,1,418.55,178.234Z" transform="translate(-418.389 -175.488)"/>
            </g>
            <g id="Group_904" data-name="Group 904" transform="translate(5.118 5.748)">
              <path id="Path_1452" data-name="Path 1452" d="M421.719,179.039a.162.162,0,0,1-.161-.161v-2.423a.162.162,0,1,1,.323,0v2.423A.162.162,0,0,1,421.719,179.039Z" transform="translate(-421.558 -176.293)"/>
            </g>
            <g id="Group_905" data-name="Group 905" transform="translate(9.253 6.311)">
              <path id="Path_1453" data-name="Path 1453" d="M426.847,179.737a.162.162,0,0,1-.161-.161v-2.424a.161.161,0,0,1,.323,0v2.424A.161.161,0,0,1,426.847,179.737Z" transform="translate(-426.686 -176.991)"/>
            </g>
            <g id="Group_906" data-name="Group 906" transform="translate(14.167 6.311)">
              <path id="Path_1454" data-name="Path 1454" d="M432.942,179.737a.162.162,0,0,1-.161-.161v-2.424a.161.161,0,1,1,.322,0v2.424A.162.162,0,0,1,432.942,179.737Z" transform="translate(-432.781 -176.991)"/>
            </g>
            <g id="Group_907" data-name="Group 907" transform="translate(22.935 4.276)">
              <path id="Path_1455" data-name="Path 1455" d="M443.816,177.213a.162.162,0,0,1-.161-.161v-2.424a.161.161,0,1,1,.323,0v2.424A.162.162,0,0,1,443.816,177.213Z" transform="translate(-443.655 -174.467)"/>
            </g>
            <g id="Group_908" data-name="Group 908" transform="translate(20.467 5.359)">
              <path id="Path_1456" data-name="Path 1456" d="M440.755,178.555a.161.161,0,0,1-.161-.161v-2.423a.162.162,0,0,1,.323,0v2.423A.161.161,0,0,1,440.755,178.555Z" transform="translate(-440.594 -175.81)"/>
            </g>
            <g id="Group_909" data-name="Group 909" transform="translate(23.815 3.644)">
              <path id="Path_1457" data-name="Path 1457" d="M444.907,176.43a.161.161,0,0,1-.161-.161v-2.424a.161.161,0,1,1,.323,0v2.424A.162.162,0,0,1,444.907,176.43Z" transform="translate(-444.746 -173.684)"/>
            </g>
            <g id="Group_910" data-name="Group 910" transform="translate(2.014)">
              <path id="Path_1458" data-name="Path 1458" d="M417.87,170.863a.161.161,0,0,1-.062-.31c3.1-1.288,9.21-1.385,9.469-1.388h0a.161.161,0,0,1,0,.323c-.064,0-6.311.1-9.35,1.363A.159.159,0,0,1,417.87,170.863Z" transform="translate(-417.708 -169.164)"/>
            </g>
          </g>
        </g>
        <path id="Path_1459" data-name="Path 1459" d="M424.637,114.264c-2.566-2.76-8.02-3.865-13.016,1.929-5-5.794-10.45-4.689-13.017-1.929-2.675,2.876-3.188,7.8.561,11.937,3.814,4.21,12.456,13.2,12.456,13.2s8.641-8.993,12.455-13.2C427.825,122.063,427.313,117.14,424.637,114.264Z" transform="translate(-381.875 -82.476)" fill="#f51619"/>
        <g id="Group_913" data-name="Group 913" transform="translate(7.591)">
          <path id="Path_1460" data-name="Path 1460" d="M387.943,82.052a.162.162,0,0,1-.161-.161v-6.35a.161.161,0,0,1,.323,0v6.35A.162.162,0,0,1,387.943,82.052Z" transform="translate(-387.782 -75.38)" fill="#fff"/>
        </g>
        <g id="Group_914" data-name="Group 914" transform="translate(11.232)">
          <path id="Path_1461" data-name="Path 1461" d="M392.459,82.052a.162.162,0,0,1-.162-.161v-6.35a.162.162,0,0,1,.323,0v6.35A.162.162,0,0,1,392.459,82.052Z" transform="translate(-392.297 -75.38)" fill="#fff"/>
        </g>
        <g id="Group_915" data-name="Group 915" transform="translate(14.873)">
          <path id="Path_1462" data-name="Path 1462" d="M396.974,82.052a.162.162,0,0,1-.161-.161v-6.35a.161.161,0,0,1,.323,0v6.35A.161.161,0,0,1,396.974,82.052Z" transform="translate(-396.813 -75.38)" fill="#fff"/>
        </g>
        <g id="Group_916" data-name="Group 916" transform="translate(18.513)">
          <path id="Path_1463" data-name="Path 1463" d="M401.489,82.052a.162.162,0,0,1-.161-.161v-6.35a.161.161,0,1,1,.323,0v6.35A.162.162,0,0,1,401.489,82.052Z" transform="translate(-401.328 -75.38)" fill="#fff"/>
        </g>
        <g id="Group_917" data-name="Group 917" transform="translate(22.154)">
          <path id="Path_1464" data-name="Path 1464" d="M406.005,82.052a.162.162,0,0,1-.162-.161v-6.35a.162.162,0,0,1,.323,0v6.35A.162.162,0,0,1,406.005,82.052Z" transform="translate(-405.843 -75.38)" fill="#fff"/>
        </g>
        <g id="Group_918" data-name="Group 918" transform="translate(25.795)">
          <path id="Path_1465" data-name="Path 1465" d="M410.52,82.052a.162.162,0,0,1-.161-.161v-6.35a.161.161,0,1,1,.323,0v6.35A.162.162,0,0,1,410.52,82.052Z" transform="translate(-410.359 -75.38)" fill="#fff"/>
        </g>
        <g id="Group_919" data-name="Group 919" transform="translate(29.436)">
          <path id="Path_1466" data-name="Path 1466" d="M415.036,82.052a.161.161,0,0,1-.161-.161v-6.35a.161.161,0,1,1,.322,0v6.35A.162.162,0,0,1,415.036,82.052Z" transform="translate(-414.875 -75.38)" fill="#fff"/>
        </g>
        <g id="Group_920" data-name="Group 920" transform="translate(33.076)">
          <path id="Path_1467" data-name="Path 1467" d="M419.55,82.052a.162.162,0,0,1-.161-.161v-6.35a.162.162,0,0,1,.323,0v6.35A.162.162,0,0,1,419.55,82.052Z" transform="translate(-419.389 -75.38)" fill="#fff"/>
        </g>
        <g id="Group_921" data-name="Group 921" transform="translate(36.717)">
          <path id="Path_1468" data-name="Path 1468" d="M424.066,82.052a.162.162,0,0,1-.161-.161v-6.35a.161.161,0,1,1,.323,0v6.35A.162.162,0,0,1,424.066,82.052Z" transform="translate(-423.905 -75.38)" fill="#fff"/>
        </g>
        <g id="Group_922" data-name="Group 922" transform="translate(40.357)">
          <path id="Path_1469" data-name="Path 1469" d="M428.582,82.052a.162.162,0,0,1-.162-.161v-6.35a.162.162,0,0,1,.323,0v6.35A.162.162,0,0,1,428.582,82.052Z" transform="translate(-428.42 -75.38)" fill="#fff"/>
        </g>
        <g id="Group_923" data-name="Group 923" transform="translate(43.998)">
          <path id="Path_1470" data-name="Path 1470" d="M433.1,82.052a.162.162,0,0,1-.161-.161v-6.35a.161.161,0,1,1,.323,0v6.35A.161.161,0,0,1,433.1,82.052Z" transform="translate(-432.935 -75.38)" fill="#fff"/>
        </g>
        <g id="Group_924" data-name="Group 924" transform="translate(47.639)">
          <path id="Path_1471" data-name="Path 1471" d="M437.612,82.052a.162.162,0,0,1-.161-.161v-6.35a.161.161,0,1,1,.323,0v6.35A.162.162,0,0,1,437.612,82.052Z" transform="translate(-437.451 -75.38)" fill="#fff"/>
        </g>
        <g id="Group_925" data-name="Group 925" transform="translate(51.279)">
          <path id="Path_1472" data-name="Path 1472" d="M442.128,82.052a.162.162,0,0,1-.162-.161v-6.35a.162.162,0,0,1,.323,0v6.35A.162.162,0,0,1,442.128,82.052Z" transform="translate(-441.966 -75.38)" fill="#fff"/>
        </g>
      </g>
      <g id="Group_1330" data-name="Group 1330" transform="translate(48 322.807)">
        <g id="Group_1284" data-name="Group 1284" transform="translate(85.212 16.21)">
          <path id="Path_2019" data-name="Path 2019" d="M195.212,345.808h-13.83a.225.225,0,0,1,0-.451h13.83a.225.225,0,0,1,0,.451Z" transform="translate(-181.156 -345.357)" fill="#fff"/>
        </g>
        <g id="Group_1285" data-name="Group 1285" transform="translate(191.869 12.109)">
          <path id="Path_2020" data-name="Path 2020" d="M372.759,338.982H358.928a.225.225,0,1,1,0-.451h13.831a.225.225,0,1,1,0,.451Z" transform="translate(-358.703 -338.531)" fill="#fff"/>
        </g>
        <g id="Group_1286" data-name="Group 1286" transform="translate(280.216 12.164)">
          <path id="Path_2021" data-name="Path 2021" d="M519.826,339.074H506a.225.225,0,0,1,0-.451h13.83a.225.225,0,1,1,0,.451Z" transform="translate(-505.77 -338.623)" fill="#fff"/>
        </g>
        <g id="Group_1287" data-name="Group 1287" transform="translate(248.835 16.49)">
          <path id="Path_2022" data-name="Path 2022" d="M467.587,346.274H453.756a.225.225,0,0,1,0-.451h13.831a.225.225,0,0,1,0,.451Z" transform="translate(-453.531 -345.823)" fill="#fff"/>
        </g>
        <g id="Group_1288" data-name="Group 1288" transform="translate(91.536 13.593)">
          <path id="Path_2023" data-name="Path 2023" d="M200.037,341.453h-8.13a.225.225,0,0,1,0-.451h8.13a.225.225,0,0,1,0,.451Z" transform="translate(-191.682 -341.002)" fill="#fff"/>
        </g>
        <g id="Group_1289" data-name="Group 1289" transform="translate(158.608 12.164)">
          <path id="Path_2024" data-name="Path 2024" d="M311.689,339.074H303.56a.225.225,0,0,1,0-.451h8.129a.225.225,0,1,1,0,.451Z" transform="translate(-303.335 -338.623)" fill="#fff"/>
        </g>
        <g id="Group_1290" data-name="Group 1290" transform="translate(43.007 13.371)">
          <path id="Path_2025" data-name="Path 2025" d="M119.254,341.083h-8.13a.225.225,0,0,1,0-.451h8.13a.225.225,0,1,1,0,.451Z" transform="translate(-110.899 -340.632)" fill="#fff"/>
        </g>
        <g id="Group_1291" data-name="Group 1291" transform="translate(208.255 15.07)">
          <path id="Path_2026" data-name="Path 2026" d="M394.335,343.911H386.2a.225.225,0,0,1,0-.451h8.13a.225.225,0,0,1,0,.451Z" transform="translate(-385.979 -343.46)" fill="#fff"/>
        </g>
        <g id="Group_1292" data-name="Group 1292" transform="translate(241.235 10.693)">
          <path id="Path_2027" data-name="Path 2027" d="M449.233,336.624H441.1a.225.225,0,1,1,0-.451h8.129a.225.225,0,1,1,0,.451Z" transform="translate(-440.879 -336.173)" fill="#fff"/>
        </g>
        <g id="Group_1293" data-name="Group 1293" transform="translate(80.512 13.371)">
          <path id="Path_2028" data-name="Path 2028" d="M175.984,341.083h-2.428a.225.225,0,0,1,0-.451h2.428a.225.225,0,1,1,0,.451Z" transform="translate(-173.331 -340.632)" fill="#fff"/>
        </g>
        <g id="Group_1294" data-name="Group 1294" transform="translate(124.626 15.07)">
          <path id="Path_2029" data-name="Path 2029" d="M249.419,343.911h-2.428a.225.225,0,1,1,0-.451h2.428a.225.225,0,1,1,0,.451Z" transform="translate(-246.766 -343.46)" fill="#fff"/>
        </g>
        <g id="Group_1295" data-name="Group 1295" transform="translate(86.182 11.099)">
          <path id="Path_2030" data-name="Path 2030" d="M185.423,337.3H183a.225.225,0,1,1,0-.451h2.428a.225.225,0,1,1,0,.451Z" transform="translate(-182.77 -336.85)"/>
        </g>
        <g id="Group_1296" data-name="Group 1296" transform="translate(103.567 12.164)">
          <path id="Path_2031" data-name="Path 2031" d="M214.363,339.074h-2.428a.225.225,0,0,1,0-.451h2.428a.225.225,0,1,1,0,.451Z" transform="translate(-211.71 -338.623)" fill="#fff"/>
        </g>
        <g id="Group_1297" data-name="Group 1297" transform="translate(186.672 17.021)">
          <path id="Path_2032" data-name="Path 2032" d="M352.705,347.159h-2.428a.225.225,0,0,1,0-.451h2.428a.225.225,0,0,1,0,.451Z" transform="translate(-350.052 -346.708)" fill="#fff"/>
        </g>
        <g id="Group_1298" data-name="Group 1298" transform="translate(63.025 14.522)">
          <path id="Path_2033" data-name="Path 2033" d="M146.874,343h-2.428a.225.225,0,1,1,0-.451h2.428a.225.225,0,1,1,0,.451Z" transform="translate(-144.221 -342.547)" fill="#fff"/>
        </g>
        <g id="Group_1299" data-name="Group 1299" transform="translate(11.77 14.972)">
          <path id="Path_2034" data-name="Path 2034" d="M61.553,343.747H59.125a.225.225,0,0,1,0-.451h2.428a.225.225,0,0,1,0,.451Z" transform="translate(-58.9 -343.296)" fill="#fff"/>
        </g>
        <g id="Group_1300" data-name="Group 1300" transform="translate(315.442 13.371)">
          <path id="Path_2035" data-name="Path 2035" d="M567.062,341.083h-2.428a.225.225,0,1,1,0-.451h2.428a.225.225,0,0,1,0,.451Z" transform="translate(-564.409 -340.632)" fill="#fff"/>
        </g>
        <g id="Group_1301" data-name="Group 1301" transform="translate(238.885 14.162)">
          <path id="Path_2036" data-name="Path 2036" d="M439.621,342.4h-2.428a.225.225,0,1,1,0-.451h2.428a.225.225,0,0,1,0,.451Z" transform="translate(-436.968 -341.948)" fill="#fff"/>
        </g>
        <g id="Group_1302" data-name="Group 1302" transform="translate(141.583 10.89)">
          <path id="Path_2037" data-name="Path 2037" d="M277.647,336.953h-2.428a.225.225,0,1,1,0-.451h2.428a.225.225,0,1,1,0,.451Z" transform="translate(-274.994 -336.502)" fill="#fff"/>
        </g>
        <g id="Group_1303" data-name="Group 1303" transform="translate(32.216 14.162)">
          <path id="Path_2038" data-name="Path 2038" d="M95.588,342.4H93.16a.225.225,0,0,1,0-.451h2.428a.225.225,0,1,1,0,.451Z" transform="translate(-92.935 -341.948)" fill="#fff"/>
        </g>
        <g id="Group_1304" data-name="Group 1304" transform="translate(58.674 10.163)">
          <path id="Path_2039" data-name="Path 2039" d="M139.632,335.743H137.2a.225.225,0,0,1,0-.451h2.428a.225.225,0,1,1,0,.451Z" transform="translate(-136.979 -335.292)" fill="#fff"/>
        </g>
        <g id="Group_1305" data-name="Group 1305" transform="translate(179.97 11.26)">
          <path id="Path_2040" data-name="Path 2040" d="M341.547,337.569h-2.428a.225.225,0,1,1,0-.451h2.428a.225.225,0,1,1,0,.451Z" transform="translate(-338.894 -337.118)" fill="#fff"/>
        </g>
        <g id="Group_1306" data-name="Group 1306" transform="translate(301.525 13.726)">
          <path id="Path_2041" data-name="Path 2041" d="M543.9,341.674h-2.428a.225.225,0,1,1,0-.451H543.9a.225.225,0,0,1,0,.451Z" transform="translate(-541.242 -341.223)" fill="#fff"/>
        </g>
        <g id="Group_1307" data-name="Group 1307" transform="translate(262.252 14.162)">
          <path id="Path_2042" data-name="Path 2042" d="M478.519,342.4h-2.428a.225.225,0,0,1,0-.451h2.428a.225.225,0,0,1,0,.451Z" transform="translate(-475.866 -341.948)" fill="#fff"/>
        </g>
        <g id="Group_1308" data-name="Group 1308" transform="translate(154.589 14.162)">
          <path id="Path_2043" data-name="Path 2043" d="M299.3,342.4h-2.428a.225.225,0,1,1,0-.451H299.3a.225.225,0,1,1,0,.451Z" transform="translate(-296.644 -341.948)" fill="#fff"/>
        </g>
        <g id="Group_1309" data-name="Group 1309" transform="translate(253.021 11.099)">
          <path id="Path_2044" data-name="Path 2044" d="M463.152,337.3h-2.428a.225.225,0,0,1,0-.451h2.428a.225.225,0,1,1,0,.451Z" transform="translate(-460.499 -336.85)" fill="#fff"/>
        </g>
        <g id="Group_1310" data-name="Group 1310" transform="translate(0 11.503)">
          <path id="Path_2045" data-name="Path 2045" d="M47.661,337.973H39.532a.225.225,0,0,1,0-.451h8.129a.225.225,0,0,1,0,.451Z" transform="translate(-39.307 -337.522)" fill="#fff"/>
        </g>
      </g>
    </g>
  </g>
</svg>
