<svg xmlns="http://www.w3.org/2000/svg" width="385" height="246" viewBox="0 0 385 246">
  <g id="Group_11839" data-name="Group 11839" transform="translate(-1149 -606)">
    <rect id="Rectangle_957" data-name="Rectangle 957" width="385" height="246" transform="translate(1149 606)" fill="none"/>
    <g id="Group_11833" data-name="Group 11833" transform="translate(1134 502)">
      <g id="Group_866" data-name="Group 866" transform="translate(-5.941 -34.544)">
        <g id="Group_858" data-name="Group 858" transform="translate(262.867 258.317)">
          <circle id="Ellipse_238" data-name="Ellipse 238" cx="33.65" cy="33.65" r="33.65" transform="translate(0 26.158) rotate(-22.872)" fill="#da1c26"/>
          <circle id="Ellipse_239" data-name="Ellipse 239" cx="25.505" cy="25.505" r="25.505" transform="translate(10.691 30.443) rotate(-22.781)" fill="#ebebeb"/>
          <circle id="Ellipse_240" data-name="Ellipse 240" cx="18.218" cy="18.218" r="18.218" transform="translate(23.192 59.162) rotate(-80.822)" fill="#da1c26"/>
          <circle id="Ellipse_241" data-name="Ellipse 241" cx="12.538" cy="12.538" r="12.538" transform="matrix(0.923, -0.385, 0.385, 0.923, 27.684, 37.336)" fill="#ebebeb"/>
          <circle id="Ellipse_242" data-name="Ellipse 242" cx="5.787" cy="5.787" r="5.787" transform="translate(38.296 38.296)" fill="#da1c26"/>
          <g id="Group_857" data-name="Group 857" transform="translate(44.082 16.603)">
            <path id="Path_1398" data-name="Path 1398" d="M322.521,271.731c-.518-.576-2.082-2.611-5.56.535-3.313,3-7.332,7.273-7.332,7.273s5.682-1.474,9.9-2.944C323.955,275.053,322.945,272.4,322.521,271.731Z" transform="translate(-279.4 -266.492)" fill="#da1c26"/>
            <path id="Path_1399" data-name="Path 1399" d="M325.01,272.463l-5.838,2.23a31.48,31.48,0,0,0-5.068,2.478l-27.3,16.536,27.471-11.294a31.409,31.409,0,0,0,8.517-5.217l3.121-2.677A5.265,5.265,0,0,1,325.01,272.463Z" transform="translate(-286.806 -265.871)" fill="#17afb0"/>
            <path id="Path_1400" data-name="Path 1400" d="M309.018,280.534s.787-8.644,5.5-12.287,3.715,7,3.715,7Z" transform="translate(-279.598 -267.486)" fill="#da1c26"/>
            <path id="Path_1401" data-name="Path 1401" d="M309.018,278.6s7.878,3.645,13.392,1.385-4.2-6.719-4.2-6.719Z" transform="translate(-279.598 -265.61)" fill="#da1c26"/>
          </g>
        </g>
        <path id="Path_1402" data-name="Path 1402" d="M299.715,322.418c-.265-8.694,3.992-18.392.619-26.6-3.228-7.853-8.772-18.25-15.471-23.708-3.11-2.535-6.928-2.9-10.5-3.9A33.645,33.645,0,0,0,300,328.016C299.838,326.083,299.768,324.181,299.715,322.418Z" transform="translate(11.9 7.667)" fill="#21b1b2" opacity="0.15" style="mix-blend-mode: multiply;isolation: isolate"/>
        <path id="Path_1403" data-name="Path 1403" d="M262.513,258.783s-10.287,2.572-18,8.287S228.792,290.5,227.22,302.936s-4.715,22.147,0,28.506,20,7.644,33.15,8.93,31.285-1.857,34.931-6.429,3.362-39.183-3.5-52.241S272.514,258.5,262.513,258.783Z" transform="translate(0 4.608)" fill="#00baaa"/>
        <path id="Path_1404" data-name="Path 1404" d="M280.35,301.276c-6.613-.061-11.834,1.36-15.629,7.1-2.513,3.8-5.861,9.719-3.95,14.477a26.779,26.779,0,0,0,1.913,3.674c9.638-.869,18.652-3.3,21.1-6.372,1.519-1.9,2.352-9.021,2.317-17.617A19.123,19.123,0,0,0,280.35,301.276Z" transform="translate(11.512 18.398)" fill="#078278"/>
        <path id="Path_1405" data-name="Path 1405" d="M280.033,332.149a22.9,22.9,0,0,1-7.542-3.636c-4.679-3.857-7.534-5-13.358-4.943-5.328.053-10.477.038-15.052-2.985-4.078-2.7-6.356-8.713-5.372-13.441a21.106,21.106,0,0,1,3.873-9c3-3.979,3.571-6.838,2.5-11.813-1.275-5.944-1.466-11.025.279-16.916.9-3.044,3.025-5.254,5.416-7.245a43.528,43.528,0,0,0-6.274,3.807c-7.715,5.715-15.716,23.433-17.289,35.865s-4.715,22.147,0,28.506,20,7.644,33.15,8.93,31.285-1.857,34.931-6.43c.709-.886,1.266-2.914,1.658-5.686C292.395,331.667,286.477,334.289,280.033,332.149Z" transform="translate(0 5.707)" fill="none"/>
        <path id="Path_1406" data-name="Path 1406" d="M255.323,265.963s-11.037-2.679-12.538-11.038,2.893-11.252,6.269-9.323,3.911.889,6.269-.573,5.787.9,7.5,3.36,2.036-.429,6.109-.75,5.465,3.429,3.322,8.359S268.075,266.178,255.323,265.963Z" transform="translate(5.761)" fill="#00baaa"/>
        <g id="Group_859" data-name="Group 859" transform="translate(248.243 245.987)">
          <path id="Path_1407" data-name="Path 1407" d="M267.287,260.917c-2.86.738-1.167-2.959-1.632-4.242-.748.037-1.026,1.278-1.275,1.817a3.354,3.354,0,0,1-3.04,1.928c-1.781-.021-2.029-1.967-2.791-3.162-.319-.5-.469-.485-.668.118-.22.665-.009,1.441-.628,1.96-1.142.958-3.04-.13-3.926-.9-.967-.84-1.37-2.221-2.4-3.037a1.416,1.416,0,0,0-.322.718c-.256,1.2-.181,3.493-2.14,3.073-1.661-.356-2.776-3.072-3.31-4.453a15.12,15.12,0,0,1-1.191-5.207,16.152,16.152,0,0,1,.148-2.2,6.309,6.309,0,0,1,.408-1.686l-.012-.005c-1.591,1.4-2.548,4.342-1.723,8.938,1.276,7.11,9.452,10.111,11.868,10.849a4.523,4.523,0,0,0,1.3.2c10.045.026,13.169-3.474,15.138-7.419-.007,0-.011.013-.017.017S268.31,260.654,267.287,260.917Z" transform="translate(-242.483 -245.642)" fill="#0f9f93"/>
        </g>
        <g id="Group_861" data-name="Group 861" transform="translate(249.789 284.014)">
          <g id="Group_860" data-name="Group 860">
            <path id="Path_1408" data-name="Path 1408" d="M259.593,281.133c5.409.534,10.3,2.966,10.205,8.384l-9.034-.162c-.012-2.049-2.1-2.526-3.424-2.548-.829-.015-3.514-.062-3.544,1.6-.065,3.711,16.653.15,16.466,10.646-.111,6.3-5.083,8.555-11.146,8.886l.273,6.7-5.517-.1.46-6.734c-5.6-.685-10.783-3.413-10.681-9.078l9.032.16,0,.195c.005,2.491,2.779,3.029,4.195,3.054,1.37.024,4.056-.024,4.086-1.832.069-3.858-16.642-.636-16.464-10.792.106-5.858,4.687-8.026,10.31-8.413l-.221-6.744,5.517.1Z" transform="translate(-243.65 -274.352)" fill="#f5bd22" stroke="#000" stroke-width="0.5"/>
          </g>
        </g>
        <path id="Path_1410" data-name="Path 1410" d="M246.352,257.724l-1,5.261s2.82,2.714,10.5,2.714,11.824-2.715,11.824-2.715l-.5-4.751S256.674,260.895,246.352,257.724Z" transform="translate(6.693 4.266)" fill="#f5bd22"/>
      </g>
      <g id="Group_856" data-name="Group 856" transform="translate(15.901 -129.806)">
        <path id="Path_1146" data-name="Path 1146" d="M39.416,446.395s60.728-6.024,107.242-43.479c44.2-35.591,49.592-98.112,49.592-98.112l-14.054-.816,25.791-32.181,26.136,34.613-12.72-.812s-8.74,66.735-57.595,104.949C114.386,449.213,39.416,446.395,39.416,446.395Z" transform="translate(1.193)" fill="#00baaa"/>
        <g id="Group_733" data-name="Group 733" transform="translate(35.099 288.054)">
          <path id="Path_1147" data-name="Path 1147" d="M150.039,352.318a4.267,4.267,0,1,1-3.265-5.075A4.267,4.267,0,0,1,150.039,352.318Z" transform="translate(-5.654 -267.225)" fill="#0b0704"/>
          <g id="Group_703" data-name="Group 703" transform="translate(76.082)">
            <g id="Group_697" data-name="Group 697">
              <path id="Path_1148" data-name="Path 1148" d="M95.817,316.922,94.9,306.083s4.651-2.064,7.147-3.186c3.074-2.107,13.22-9.695,14.847-10.868,1.807-1.3,1.5-1.723,2.885-3.149,1.426-1.469,3.024-4.405,3.957-4.128.831.248.245,1.255.245,1.255s1-.839,1.449-.294c.493.595-.2,1.5-.2,1.5s.845-.766,1.316-.269c.489.516-.286,1.463-.286,1.463s.775-.58,1.128.091c.425.8-1.927,3.651-4.013,5.424a69.108,69.108,0,0,0-5.585,5.1c-3.6,3.68-8.582,9.431-10.346,10.929C105.476,311.624,95.817,316.922,95.817,316.922Z" transform="translate(-94.647 -284.479)" fill="#fff"/>
              <path id="Path_1149" data-name="Path 1149" d="M95.872,317.232a.255.255,0,0,1-.121-.031.251.251,0,0,1-.133-.2L94.7,306.159a.254.254,0,0,1,.151-.254s4.651-2.063,7.147-3.186c2.106-1.449,7.727-5.611,11.446-8.366,1.607-1.19,2.866-2.123,3.356-2.475a6,6,0,0,0,1.736-1.745,9.7,9.7,0,0,1,1.116-1.376,20.024,20.024,0,0,0,1.49-1.838c1.044-1.388,1.939-2.586,2.723-2.355a.823.823,0,0,1,.568.484.958.958,0,0,1,.056.429,1.362,1.362,0,0,1,.669-.143.75.75,0,0,1,.525.272,1.115,1.115,0,0,1,.191,1.021.841.841,0,0,1,.917.193,1.042,1.042,0,0,1,.111,1.151.845.845,0,0,1,.231.02.8.8,0,0,1,.541.438c.586,1.111-2.365,4.285-4.075,5.739l-.545.461a64.281,64.281,0,0,0-5.022,4.622c-1.541,1.576-3.312,3.508-5.027,5.375-2.22,2.419-4.317,4.705-5.337,5.571-1.971,1.676-11.28,6.788-11.676,7.005A.277.277,0,0,1,95.872,317.232ZM95.228,306.3l.865,10.265c1.739-.961,9.525-5.292,11.247-6.755.994-.846,3.083-3.121,5.292-5.528,1.716-1.87,3.491-3.8,5.037-5.385a64.322,64.322,0,0,1,5.057-4.655l.544-.461c2.365-2.01,4.233-4.584,3.955-5.11a.3.3,0,0,0-.2-.181.892.892,0,0,0-.549.175.255.255,0,0,1-.35-.365c.163-.2.569-.841.3-1.127-.285-.3-.954.277-.961.283a.256.256,0,0,1-.374-.345c.006-.008.56-.748.2-1.177a.238.238,0,0,0-.177-.091,1.684,1.684,0,0,0-.91.416.253.253,0,0,1-.328,0,.256.256,0,0,1-.057-.323,1.027,1.027,0,0,0,.142-.7c-.022-.055-.07-.133-.239-.183-.439-.131-1.4,1.146-2.169,2.173a20.916,20.916,0,0,1-1.532,1.889,9.168,9.168,0,0,0-1.062,1.31,6.483,6.483,0,0,1-1.857,1.867c-.489.352-1.746,1.284-3.351,2.471-3.722,2.758-9.348,6.924-11.5,8.4C100,304.179,96.078,305.92,95.228,306.3Z" transform="translate(-94.702 -284.535)"/>
            </g>
            <g id="Group_702" data-name="Group 702" transform="translate(19.028 0.854)">
              <g id="Group_698" data-name="Group 698" transform="translate(9.855 2.812)">
                <path id="Path_1150" data-name="Path 1150" d="M120.01,287.608s-.922,1.3-1.566,2.083a9.545,9.545,0,0,1-.914,1.011Z" transform="translate(-117.274 -287.351)" fill="#fff"/>
                <path id="Path_1151" data-name="Path 1151" d="M117.585,291.013a.255.255,0,0,1-.167-.449,9.787,9.787,0,0,0,.885-.979c.632-.763,1.545-2.056,1.553-2.068a.25.25,0,0,1,.356-.061.254.254,0,0,1,.061.355c-.037.054-.934,1.321-1.578,2.1a9.585,9.585,0,0,1-.946,1.042A.251.251,0,0,1,117.585,291.013Z" transform="translate(-117.33 -287.406)"/>
              </g>
              <g id="Group_699" data-name="Group 699" transform="translate(8.932 1.577)">
                <path id="Path_1152" data-name="Path 1152" d="M119.244,286.64s-.922,1.3-1.566,2.084a8.83,8.83,0,0,1-.872.969Z" transform="translate(-116.551 -286.383)" fill="#fff"/>
                <path id="Path_1153" data-name="Path 1153" d="M116.861,290a.255.255,0,0,1-.2-.092.258.258,0,0,1,.032-.36,9.16,9.16,0,0,0,.84-.936c.632-.763,1.546-2.055,1.553-2.068a.251.251,0,0,1,.356-.061.254.254,0,0,1,.063.355c-.038.054-.934,1.321-1.579,2.1a9.133,9.133,0,0,1-.905,1A.256.256,0,0,1,116.861,290Z" transform="translate(-116.606 -286.439)"/>
              </g>
              <g id="Group_700" data-name="Group 700" transform="translate(7.63 0.437)">
                <path id="Path_1154" data-name="Path 1154" d="M118.21,285.746s-.92,1.3-1.566,2.084a8.728,8.728,0,0,1-.857.955Z" transform="translate(-115.531 -285.49)" fill="#fff"/>
                <path id="Path_1155" data-name="Path 1155" d="M115.842,289.1a.258.258,0,0,1-.2-.094.254.254,0,0,1,.036-.359,9.252,9.252,0,0,0,.822-.919c.632-.763,1.546-2.056,1.555-2.069a.251.251,0,0,1,.355-.06.254.254,0,0,1,.063.355c-.038.054-.934,1.321-1.579,2.1a8.872,8.872,0,0,1-.891.989A.259.259,0,0,1,115.842,289.1Z" transform="translate(-115.587 -285.546)"/>
              </g>
              <g id="Group_701" data-name="Group 701">
                <path id="Path_1156" data-name="Path 1156" d="M109.809,294.007c2.213-1.454,2.428-2.621,3.632-4.918.883-1.687,1.556-3.527,2.364-3.67.753-.134,1.268.633.7,1.662a4.869,4.869,0,0,0-.624,2.806,3.953,3.953,0,0,1-.246,1.653Z" transform="translate(-109.554 -285.148)" fill="#fff"/>
                <path id="Path_1157" data-name="Path 1157" d="M109.864,294.318a.256.256,0,0,1-.14-.469,7.292,7.292,0,0,0,2.941-3.616c.179-.368.374-.767.6-1.206.2-.385.393-.78.577-1.159.682-1.4,1.219-2.512,1.97-2.646a1.017,1.017,0,0,1,1.034.394,1.538,1.538,0,0,1-.07,1.643,4.664,4.664,0,0,0-.592,2.673,4.168,4.168,0,0,1-.269,1.768.251.251,0,0,1-.337.126.255.255,0,0,1-.128-.337,3.771,3.771,0,0,0,.225-1.538,5.1,5.1,0,0,1,.656-2.938,1.066,1.066,0,0,0,.1-1.1.508.508,0,0,0-.53-.186c-.5.087-1.056,1.245-1.6,2.364-.186.384-.379.784-.583,1.173-.228.435-.421.831-.6,1.195A7.771,7.771,0,0,1,110,294.276.248.248,0,0,1,109.864,294.318Z" transform="translate(-109.609 -285.203)"/>
              </g>
            </g>
          </g>
          <g id="Group_710" data-name="Group 710" transform="translate(0 37.356)">
            <g id="Group_704" data-name="Group 704">
              <path id="Path_1158" data-name="Path 1158" d="M78.324,322.187,71.165,314s-4.717,1.911-7.258,2.926c-3.651.747-16.159,2.771-18.132,3.125-2.194.394-2.282-.117-4.269-.112-2.047,0-5.269-.887-5.719-.023-.4.768.731,1.048.731,1.048s-1.294.133-1.216.837c.084.768,1.211.9,1.211.9s-1.137.077-1.108.759c.032.71,1.251.812,1.251.812s-.955.153-.719.874c.282.864,3.963,1.15,6.689.882a69.053,69.053,0,0,1,7.548-.471c5.148-.031,12.746.38,15.05.153C67.8,325.455,78.324,322.187,78.324,322.187Z" transform="translate(-35.044 -313.744)" fill="#fff"/>
              <path id="Path_1159" data-name="Path 1159" d="M40.585,326.431c-2.143,0-4.548-.278-4.834-1.153a.806.806,0,0,1,.06-.7.857.857,0,0,1,.146-.177,1.043,1.043,0,0,1-.751-.881.847.847,0,0,1,.5-.794,1.109,1.109,0,0,1-.6-.848.751.751,0,0,1,.168-.565,1.361,1.361,0,0,1,.567-.382.945.945,0,0,1-.269-.34.817.817,0,0,1,.047-.743c.373-.725,1.864-.537,3.587-.322a20.272,20.272,0,0,0,2.345.207h.042a9.7,9.7,0,0,1,1.735.153,6,6,0,0,0,2.458-.038c.592-.1,2.128-.361,4.089-.688,4.574-.761,11.486-1.913,14.039-2.436,2.5-1,7.212-2.912,7.212-2.912a.256.256,0,0,1,.288.069l7.158,8.189a.252.252,0,0,1,.054.237.256.256,0,0,1-.17.175c-.43.133-10.576,3.275-13.149,3.531-1.33.129-4.427.05-7.7-.034-2.538-.066-5.161-.138-7.37-.119a63.6,63.6,0,0,0-6.827.4l-.7.07C42.112,326.394,41.365,326.431,40.585,326.431ZM37,319.848c-.48,0-.839.061-.932.24a.325.325,0,0,0-.034.3c.1.213.476.352.6.383a.256.256,0,0,1-.034.5,1.635,1.635,0,0,0-.932.366.231.231,0,0,0-.057.188c.06.558.978.673.987.674a.254.254,0,0,1-.011.507c-.009,0-.888.082-.871.5.02.463,1.007.565,1.017.567a.256.256,0,0,1,.02.507.84.84,0,0,0-.508.274.3.3,0,0,0-.011.268c.186.568,3.334,1.017,6.423.708l.7-.07a64.653,64.653,0,0,1,6.875-.4c2.211-.018,4.844.055,7.386.121,3.261.083,6.342.163,7.641.034,2.248-.222,10.775-2.811,12.673-3.394l-6.781-7.755c-.863.348-4.834,1.956-7.091,2.857-2.607.537-9.524,1.689-14.1,2.452-1.958.327-3.491.582-4.082.688a6.511,6.511,0,0,1-2.632.038,9.17,9.17,0,0,0-1.653-.147h-.041a20.729,20.729,0,0,1-2.407-.211A19.239,19.239,0,0,0,37,319.848Z" transform="translate(-35.099 -313.799)"/>
            </g>
            <g id="Group_709" data-name="Group 709" transform="translate(1.14 3.617)">
              <g id="Group_705" data-name="Group 705" transform="translate(0.217 6.652)">
                <path id="Path_1160" data-name="Path 1160" d="M36.363,322.044s1.578.244,2.587.323a9.347,9.347,0,0,0,1.361.043Z" transform="translate(-36.107 -321.789)" fill="#fff"/>
                <path id="Path_1161" data-name="Path 1161" d="M40.111,322.729c-.218,0-.578-.01-1.126-.052-1.007-.078-2.541-.315-2.607-.324a.257.257,0,0,1-.213-.291.253.253,0,0,1,.292-.213c.015,0,1.579.244,2.567.319a9.812,9.812,0,0,0,1.319.045.256.256,0,0,1,.047.509C40.384,322.721,40.3,322.729,40.111,322.729Z" transform="translate(-36.163 -321.844)"/>
              </g>
              <g id="Group_706" data-name="Group 706" transform="translate(0 5.099)">
                <path id="Path_1162" data-name="Path 1162" d="M36.193,320.828s1.578.244,2.587.322a8.88,8.88,0,0,0,1.3.046Z" transform="translate(-35.937 -320.572)" fill="#fff"/>
                <path id="Path_1163" data-name="Path 1163" d="M39.918,321.513c-.2,0-.546-.01-1.1-.054-1.007-.078-2.541-.314-2.607-.324a.255.255,0,0,1-.213-.291.25.25,0,0,1,.291-.213c.015,0,1.58.244,2.568.319a8.813,8.813,0,0,0,1.256.046.273.273,0,0,1,.28.229.256.256,0,0,1-.225.281C40.152,321.506,40.08,321.513,39.918,321.513Z" transform="translate(-35.993 -320.627)"/>
              </g>
              <g id="Group_707" data-name="Group 707" transform="translate(0.094 3.359)">
                <path id="Path_1164" data-name="Path 1164" d="M36.266,319.466s1.578.243,2.587.322a8.576,8.576,0,0,0,1.282.046Z" transform="translate(-36.011 -319.209)" fill="#fff"/>
                <path id="Path_1165" data-name="Path 1165" d="M39.99,320.152c-.2,0-.536-.012-1.1-.056-1.006-.077-2.541-.314-2.607-.323a.256.256,0,0,1-.212-.291.248.248,0,0,1,.291-.213c.015,0,1.58.244,2.567.319a9.366,9.366,0,0,0,1.237.047.266.266,0,0,1,.28.229.255.255,0,0,1-.225.28A1.77,1.77,0,0,1,39.99,320.152Z" transform="translate(-36.067 -319.264)"/>
              </g>
              <g id="Group_708" data-name="Group 708" transform="translate(2.264)">
                <path id="Path_1166" data-name="Path 1166" d="M48.655,318.638c-2.584.582-3.572-.075-6.059-.807-1.828-.536-3.618-1.331-4.283-.849-.619.448-.426,1.35.711,1.654a4.875,4.875,0,0,1,2.451,1.5,3.951,3.951,0,0,0,1.361.971Z" transform="translate(-37.711 -316.577)" fill="#fff"/>
                <path id="Path_1167" data-name="Path 1167" d="M42.891,321.42a.28.28,0,0,1-.086-.014,4.2,4.2,0,0,1-1.459-1.035,4.638,4.638,0,0,0-2.333-1.431,1.544,1.544,0,0,1-1.231-1.091,1.017,1.017,0,0,1,.437-1.017c.617-.447,1.79-.065,3.272.422.4.13.816.267,1.232.389.477.14.9.277,1.289.4a7.288,7.288,0,0,0,4.643.4.256.256,0,1,1,.111.5,7.8,7.8,0,0,1-4.912-.41c-.384-.125-.8-.262-1.274-.4-.423-.125-.842-.262-1.247-.4-1.183-.387-2.409-.788-2.813-.493a.511.511,0,0,0-.235.511c.056.3.378.563.862.691a5.116,5.116,0,0,1,2.57,1.571,3.773,3.773,0,0,0,1.261.908.256.256,0,0,1,.154.327A.253.253,0,0,1,42.891,321.42Z" transform="translate(-37.766 -316.633)"/>
              </g>
            </g>
          </g>
          <g id="Group_711" data-name="Group 711" transform="translate(70.202 58.107)">
            <path id="Path_1168" data-name="Path 1168" d="M146.733,334.4c1.981-4.069,7.215-5.578,10.177-2.538,4.373,4.489,5.265,15.517-.794,24.542-8.024,11.953-16.607,18.511-26.191,25.452-8.483,6.144-25.013,13.931-25.013,13.931l-14.617-4.4A103.566,103.566,0,0,0,131.3,365.455C146.359,349.91,143.882,340.258,146.733,334.4Z" transform="translate(-90.041 -330.001)" fill="#fff"/>
            <path id="Path_1169" data-name="Path 1169" d="M104.968,396.1a.287.287,0,0,1-.073-.01l-14.618-4.4a.255.255,0,0,1,0-.489,104.249,104.249,0,0,0,40.894-25.87c10.911-11.265,12.558-19.356,13.762-25.267a24.23,24.23,0,0,1,1.624-5.722h0a7.648,7.648,0,0,1,5.528-4.2,5.629,5.629,0,0,1,5.06,1.6c4.554,4.674,5.333,15.78-.765,24.861-7.873,11.729-16.195,18.233-26.252,25.517-8.407,6.088-24.889,13.877-25.053,13.954A.251.251,0,0,1,104.968,396.1Zm-13.751-4.657,13.731,4.128c1.317-.624,16.835-8.035,24.884-13.864,10.017-7.254,18.3-13.728,26.128-25.388,5.87-8.744,5.145-19.783.823-24.22a5.111,5.111,0,0,0-4.613-1.455,7.135,7.135,0,0,0-5.152,3.925h0a23.961,23.961,0,0,0-1.583,5.6c-1.214,5.971-2.878,14.147-13.894,25.518A105.9,105.9,0,0,1,91.217,391.442Z" transform="translate(-90.096 -330.056)"/>
          </g>
          <path id="Path_1170" data-name="Path 1170" d="M96.89,367.092s-1,5.535.18,6.593,15.278-4.263,15.761-5.563-4.473-1.22-4.473-1.22Z" transform="translate(-18.124 -261.762)" fill="#17afb0"/>
          <path id="Path_1171" data-name="Path 1171" d="M120.605,349.516s4.14,3.42,6.1,3.2,10.682-13.818,11.073-14.506-2.59-.608-2.59-.608-8.153,5.95-10.559,6.16a8.227,8.227,0,0,1-3.621-.3Z" transform="translate(-11.459 -269.864)" fill="#17afb0"/>
          <path id="Path_1172" data-name="Path 1172" d="M114.139,382.92a4.267,4.267,0,1,1-3.265-5.074A4.268,4.268,0,0,1,114.139,382.92Z" transform="translate(-15.58 -258.763)" fill="#0b0704"/>
          <path id="Path_1173" data-name="Path 1173" d="M110.814,381.727a1.483,1.483,0,1,1-1.135-1.764A1.483,1.483,0,0,1,110.814,381.727Z" transform="translate(-14.977 -258.16)" fill="#fff"/>
          <path id="Path_1174" data-name="Path 1174" d="M146.714,351.123a1.483,1.483,0,1,1-1.135-1.764A1.482,1.482,0,0,1,146.714,351.123Z" transform="translate(-5.051 -266.621)" fill="#fff"/>
          <g id="Group_712" data-name="Group 712" transform="translate(103.575 67.092)">
            <path id="Path_1175" data-name="Path 1175" d="M116.44,349.106s17.049,7.632,17.848,7.614,9.257-18.846,9.257-18.846a4.265,4.265,0,0,0-3.39-.387c-1.879.6-7.335,7.762-8.713,8.355s-12.786-5.724-12.786-5.724Z" transform="translate(-116.185 -337.04)" fill="#fff"/>
            <path id="Path_1176" data-name="Path 1176" d="M134.344,357.031c-.849,0-15.1-6.359-17.952-7.636a.257.257,0,0,1-.144-.294l2.215-8.989a.256.256,0,0,1,.146-.174.265.265,0,0,1,.226.012c5.477,3.032,11.75,6.067,12.562,5.712a22.669,22.669,0,0,0,3.472-3.443c2.041-2.245,4.151-4.566,5.265-4.921a4.505,4.505,0,0,1,3.606.417.256.256,0,0,1,.094.319c-3.889,8.656-8.692,18.977-9.486,19ZM116.8,349.016c6.607,2.955,16.437,7.267,17.5,7.5.857-.816,5.89-11.6,8.98-18.472a4.048,4.048,0,0,0-2.983-.254c-.983.313-3.233,2.789-5.042,4.777-1.6,1.763-2.987,3.287-3.648,3.569-1.365.6-10.267-4.224-12.719-5.574Z" transform="translate(-116.24 -337.095)"/>
          </g>
          <path id="Path_1177" data-name="Path 1177" d="M123.1,355.043l8.506,2.924,12.147-23.838s-2.355-3.064-5.345.435-5.043,5.777-7.435,6.629-7.226,1.495-7.873,3.079,2.841,3.187,2.841,3.187Z" transform="translate(-10.791 -271.166)" fill="#da1c26"/>
          <g id="Group_713" data-name="Group 713" transform="translate(120.562 62.708)">
            <path id="Path_1178" data-name="Path 1178" d="M129.749,357.7a14.509,14.509,0,0,0,1.9.809c.466.1,1.316.445,2.122-1.245s0-2.687.486-3.776c.518-1.154,1.745-.857,2.517-2.547s-.129-2.821.563-4.105,1.545-.577,2.626-2.584-.115-3.023.475-4.311,1.959-1.284,2.475-2.61a3.093,3.093,0,0,0-1.012-3.471Z" transform="translate(-129.493 -333.605)" fill="#fff"/>
            <path id="Path_1179" data-name="Path 1179" d="M132.3,358.916a2.325,2.325,0,0,1-.551-.08l-.1-.022a13.767,13.767,0,0,1-1.959-.834.245.245,0,0,1-.128-.148.253.253,0,0,1,.014-.2L141.724,333.8a.249.249,0,0,1,.17-.133.261.261,0,0,1,.212.046,3.373,3.373,0,0,1,1.1,3.766,3.072,3.072,0,0,1-1.34,1.462,2.853,2.853,0,0,0-1.142,1.164,2.43,2.43,0,0,0-.073,1.464,4.062,4.062,0,0,1-.408,2.859,3.585,3.585,0,0,1-1.708,1.744,1.8,1.8,0,0,0-.918.841,2.88,2.88,0,0,0-.223,1.693,4.54,4.54,0,0,1-.332,2.4,3.427,3.427,0,0,1-1.587,1.663,1.913,1.913,0,0,0-.929.881,2.584,2.584,0,0,0-.119,1.322,4.349,4.349,0,0,1-.37,2.46C133.463,358.662,132.816,358.916,132.3,358.916Zm-2.156-1.278a11.406,11.406,0,0,0,1.6.674l.116.027c.448.1,1.065.248,1.722-1.13a3.845,3.845,0,0,0,.323-2.2,3.034,3.034,0,0,1,.161-1.571,2.417,2.417,0,0,1,1.137-1.111,2.913,2.913,0,0,0,1.381-1.436,4.064,4.064,0,0,0,.286-2.153,3.371,3.371,0,0,1,.283-1.968,2.3,2.3,0,0,1,1.131-1.051,3.069,3.069,0,0,0,1.495-1.533,3.544,3.544,0,0,0,.355-2.541,2.856,2.856,0,0,1,.114-1.754,3.282,3.282,0,0,1,1.32-1.373,2.637,2.637,0,0,0,1.15-1.224,2.72,2.72,0,0,0-.7-2.967Z" transform="translate(-129.549 -333.661)"/>
          </g>
          <g id="Group_714" data-name="Group 714" transform="translate(119.92 63.731)">
            <path id="Path_1180" data-name="Path 1180" d="M129.246,356.233l11.616-21.57Z" transform="translate(-128.99 -334.406)" fill="#fff"/>
            <path id="Path_1181" data-name="Path 1181" d="M129.3,356.544a.259.259,0,0,1-.121-.031.256.256,0,0,1-.1-.346l11.617-21.57a.251.251,0,0,1,.346-.1.255.255,0,0,1,.1.345L129.526,356.41A.255.255,0,0,1,129.3,356.544Z" transform="translate(-129.045 -334.462)"/>
          </g>
          <g id="Group_715" data-name="Group 715" transform="translate(127.468 61.342)">
            <path id="Path_1182" data-name="Path 1182" d="M137.979,338.91s-3.337-3.431-2.757-4.5a3.031,3.031,0,0,1,5.18-.252Z" transform="translate(-134.905 -332.535)" fill="#fff"/>
            <path id="Path_1183" data-name="Path 1183" d="M138.033,339.221a.257.257,0,0,1-.184-.078c-.578-.6-3.435-3.625-2.8-4.8a3.687,3.687,0,0,1,2.7-1.739,3.273,3.273,0,0,1,2.905,1.449.255.255,0,0,1,.028.276l-2.423,4.754a.25.25,0,0,1-.189.137A.2.2,0,0,1,138.033,339.221Zm-.024-6.119c-.07,0-.143,0-.214.009a3.186,3.186,0,0,0-2.294,1.474c-.318.587,1.182,2.57,2.469,3.944l2.183-4.285A2.815,2.815,0,0,0,138.009,333.1Z" transform="translate(-134.959 -332.591)"/>
          </g>
          <g id="Group_716" data-name="Group 716" transform="translate(75.465 95.201)">
            <path id="Path_1184" data-name="Path 1184" d="M94.42,366.85s-.02,6.268.61,6.759,22.255-1.935,22.255-1.935a4.265,4.265,0,0,0-2.382-2.443c-1.833-.725-10.591,1.38-12.033.968s-.2-10.882-.2-10.882Z" transform="translate(-94.163 -359.061)" fill="#fff"/>
            <path id="Path_1185" data-name="Path 1185" d="M95.843,373.959a2.345,2.345,0,0,1-.914-.093c-.659-.513-.715-5.04-.71-6.962a.255.255,0,0,1,.084-.186l8.254-7.535a.255.255,0,0,1,.425.218c-.586,4.932-.747,10.388.014,10.606a23.024,23.024,0,0,0,4.87-.474c3-.451,6.1-.914,7.188-.484a4.486,4.486,0,0,1,2.531,2.6.257.257,0,0,1-.214.332C111.672,372.621,99.333,373.959,95.843,373.959Zm-1.113-6.94c0,2.871.19,6.122.516,6.447.774.25,13.292-1.011,21.728-1.953a4.029,4.029,0,0,0-2.107-1.99c-.96-.375-4.267.116-6.924.514-2.359.354-4.4.657-5.087.461-1.413-.406-.8-7.427-.458-10.479Z" transform="translate(-94.219 -359.116)"/>
          </g>
          <path id="Path_1186" data-name="Path 1186" d="M93.717,370.865l4,8.079,24.479-10.8s.112-3.863-4.417-3.039-7.559,1.288-9.951.437-6.544-3.408-8.047-2.589.186,4.265.186,4.265Z" transform="translate(-18.893 -262.897)" fill="#da1c26"/>
          <g id="Group_717" data-name="Group 717" transform="translate(78.564 104.994)">
            <path id="Path_1187" data-name="Path 1187" d="M96.847,377.784a14.429,14.429,0,0,0,.957,1.825c.3.369.738,1.177,2.43.377s1.7-2.084,2.764-2.619c1.131-.567,1.893.44,3.56-.382s1.682-2.268,3.03-2.826,1.562.53,3.669-.343,1.82-2.414,3.092-3.039,2.331.243,3.569-.46a3.092,3.092,0,0,0,1.408-3.329Z" transform="translate(-96.592 -366.732)" fill="#fff"/>
            <path id="Path_1188" data-name="Path 1188" d="M99.038,380.639a1.546,1.546,0,0,1-1.31-.728l-.066-.086a13.6,13.6,0,0,1-.992-1.882.254.254,0,0,1,.129-.338l24.48-10.8a.254.254,0,0,1,.351.174,3.375,3.375,0,0,1-1.532,3.611,3.059,3.059,0,0,1-1.961.287,2.864,2.864,0,0,0-1.621.18,2.409,2.409,0,0,0-.982,1.088,4.068,4.068,0,0,1-2.125,1.958,3.583,3.583,0,0,1-2.425.272,1.814,1.814,0,0,0-1.242.07,2.89,2.89,0,0,0-1.243,1.172,4.529,4.529,0,0,1-1.772,1.648,3.452,3.452,0,0,1-2.282.289,1.915,1.915,0,0,0-1.276.093,2.62,2.62,0,0,0-.928.95,4.328,4.328,0,0,1-1.841,1.672A3.234,3.234,0,0,1,99.038,380.639Zm-1.8-2.672a11.54,11.54,0,0,0,.816,1.538l.074.093c.283.366.671.865,2.05.213a3.866,3.866,0,0,0,1.64-1.5,3.021,3.021,0,0,1,1.117-1.116,2.4,2.4,0,0,1,1.583-.142,2.933,2.933,0,0,0,1.98-.242,4.053,4.053,0,0,0,1.582-1.486,3.381,3.381,0,0,1,1.464-1.347,2.3,2.3,0,0,1,1.539-.1,3.076,3.076,0,0,0,2.128-.242,3.541,3.541,0,0,0,1.88-1.746,2.848,2.848,0,0,1,1.2-1.287,3.3,3.3,0,0,1,1.892-.231,2.629,2.629,0,0,0,1.665-.222,2.738,2.738,0,0,0,1.331-2.738Z" transform="translate(-96.647 -366.788)"/>
          </g>
          <g id="Group_718" data-name="Group 718" transform="translate(78.853 105.047)">
            <path id="Path_1189" data-name="Path 1189" d="M97.073,376.4l22.633-9.374Z" transform="translate(-96.817 -366.774)" fill="#fff"/>
            <path id="Path_1190" data-name="Path 1190" d="M97.128,376.715a.256.256,0,0,1-.1-.491l22.634-9.374a.255.255,0,0,1,.2.471l-22.633,9.374A.252.252,0,0,1,97.128,376.715Z" transform="translate(-96.873 -366.829)"/>
          </g>
          <g id="Group_719" data-name="Group 719" transform="translate(98.078 101.726)">
            <path id="Path_1191" data-name="Path 1191" d="M112.215,369.849s-.417-4.768.71-5.231A3.03,3.03,0,0,1,117.1,367.7Z" transform="translate(-111.878 -364.172)" fill="#fff"/>
            <path id="Path_1192" data-name="Path 1192" d="M112.272,370.161a.247.247,0,0,1-.129-.037.253.253,0,0,1-.125-.2c-.071-.828-.371-4.982.867-5.49a3.693,3.693,0,0,1,3.189.356,3.287,3.287,0,0,1,1.338,2.96.254.254,0,0,1-.153.23l-4.883,2.155A.244.244,0,0,1,112.272,370.161Zm1.822-5.424a2.8,2.8,0,0,0-1.015.171c-.618.254-.708,2.741-.58,4.617l4.4-1.94a2.742,2.742,0,0,0-1.112-2.368A3.048,3.048,0,0,0,114.094,364.738Z" transform="translate(-111.934 -364.227)"/>
          </g>
          <path id="Path_1193" data-name="Path 1193" d="M71.64,345.231s1.015,11.368,9.72,11.953,20.26-3.94,20.26-3.94l-4.27,23.7a70.669,70.669,0,0,0,10.407-1.979,79.275,79.275,0,0,0,9.171-3.278s7.035-28.342,1.919-35.505c-7.875-11.026-26.3-2.17-26.3-2.17Z" transform="translate(-24.997 -271.786)" fill="#da1c26"/>
          <path id="Path_1194" data-name="Path 1194" d="M89.342,333.621s14.29-10.35,20.763-9.648,25.306,18.653,25.306,18.653a52.124,52.124,0,0,1-3.058,9.262,58.89,58.89,0,0,1-3.424,5.928S118.451,354.893,113,350.4s-21.03-1.151-21.03-1.151Z" transform="translate(-20.102 -273.64)" fill="#da1c26"/>
          <path id="Path_1195" data-name="Path 1195" d="M62.657,317.552s13.137-7.286,14.438-8.343,18.229-5.68,18.229-5.68l11.629-3.632,2.127,11.168-6.557,3.738,2.483,20.193s-4.678,6.536-9.331,10.088-21.551,8.649-21.551,8.649L72.4,328.767l-5.951,1.519Z" transform="translate(-27.48 -280.287)" fill="#00baaa"/>
          <g id="Group_720" data-name="Group 720" transform="translate(111.958 67.607)">
            <path id="Path_1196" data-name="Path 1196" d="M125.948,346.129s5.867-1.984,7.919-4.193a3.2,3.2,0,0,0,.435-4.237s-10.637,3.438-11.2,5.242S124.443,345.974,125.948,346.129Z" transform="translate(-122.753 -337.443)" fill="#fff"/>
            <path id="Path_1197" data-name="Path 1197" d="M126,346.44h-.027a3.964,3.964,0,0,1-2.783-1.559,2.238,2.238,0,0,1-.274-1.958c.58-1.878,10.259-5.054,11.361-5.411a.256.256,0,0,1,.278.084,3.479,3.479,0,0,1-.448,4.57c-2.073,2.231-7.783,4.179-8.025,4.262A.3.3,0,0,1,126,346.44Zm8.254-8.384c-4.074,1.329-10.477,3.812-10.85,5.017a1.726,1.726,0,0,0,.212,1.525,3.421,3.421,0,0,0,2.355,1.326c.59-.2,5.879-2.081,7.762-4.106A2.944,2.944,0,0,0,134.257,338.056Z" transform="translate(-122.808 -337.498)"/>
          </g>
          <g id="Group_721" data-name="Group 721" transform="translate(79.704 99.642)">
            <path id="Path_1198" data-name="Path 1198" d="M98.851,367.223s5.8,2.17,8.789,1.756a3.2,3.2,0,0,0,3.015-3.009s-10.417-4.059-11.99-3.013S97.782,366.152,98.851,367.223Z" transform="translate(-97.484 -362.542)" fill="#fff"/>
            <path id="Path_1199" data-name="Path 1199" d="M106.853,369.34c-3.118,0-7.818-1.744-8.037-1.824a.27.27,0,0,1-.091-.059,3.976,3.976,0,0,1-1.173-2.968,2.245,2.245,0,0,1,1.025-1.691c1.64-1.094,11.146,2.567,12.224,2.987a.258.258,0,0,1,.163.241,3.48,3.48,0,0,1-3.236,3.259A6.336,6.336,0,0,1,106.853,369.34Zm-7.8-2.284c.585.212,5.863,2.1,8.61,1.723a2.934,2.934,0,0,0,2.783-2.586c-4-1.546-10.528-3.671-11.581-2.97a1.73,1.73,0,0,0-.8,1.316A3.425,3.425,0,0,0,99.049,367.056Z" transform="translate(-97.54 -362.595)"/>
          </g>
          <g id="Group_722" data-name="Group 722" transform="translate(76.368 75.708)">
            <path id="Path_1200" data-name="Path 1200" d="M95.182,349.85a.267.267,0,0,1-.07-.01.255.255,0,0,1-.176-.315l1.548-5.494a.255.255,0,0,1,.491.139l-1.548,5.5A.255.255,0,0,1,95.182,349.85Z" transform="translate(-94.926 -343.845)" fill="#fff"/>
          </g>
          <g id="Group_723" data-name="Group 723" transform="translate(76.876 77.013)">
            <path id="Path_1201" data-name="Path 1201" d="M95.579,349.532a.256.256,0,0,1-.166-.451c.156-.137,2.451-2.548,3.956-4.136a.256.256,0,1,1,.37.352c-.634.669-3.808,4.016-4,4.173A.251.251,0,0,1,95.579,349.532Z" transform="translate(-95.324 -344.867)" fill="#fff"/>
          </g>
          <g id="Group_724" data-name="Group 724" transform="translate(71.254 59.287)">
            <path id="Path_1202" data-name="Path 1202" d="M115.163,350.666a.256.256,0,0,1-.255-.251c0-.156-.3-15.606-3.408-18.107s-20.1,1.421-20.265,1.462a.255.255,0,1,1-.116-.5c.71-.166,17.4-4.014,20.7-1.363s3.587,17.85,3.6,18.5a.256.256,0,0,1-.251.259Z" transform="translate(-90.92 -330.98)" fill="#fff"/>
          </g>
          <g id="Group_725" data-name="Group 725" transform="translate(53.596 20.226)">
            <path id="Path_1203" data-name="Path 1203" d="M83.937,310.22a10.377,10.377,0,0,1-6.507-2.667,5.45,5.45,0,0,0,2.259-2.2c.512-1.13-.221-3.718-.523-4.678l5.961-.093a5.73,5.73,0,0,0,1.463,2.881,3.042,3.042,0,0,0,2.045.744,3.584,3.584,0,0,0,.36-.018c.033,1.144-.107,5.4-3.933,5.95A7.729,7.729,0,0,1,83.937,310.22Z" transform="translate(-76.992 -300.324)" fill="#fff"/>
            <path id="Path_1204" data-name="Path 1204" d="M85.02,300.9a5.793,5.793,0,0,0,1.495,2.813,3.3,3.3,0,0,0,2.213.809h.111c0,1.37-.342,4.939-3.718,5.425a7.745,7.745,0,0,1-1.088.078,10,10,0,0,1-6.072-2.375,5.4,5.4,0,0,0,2.056-2.132c.494-1.091-.071-3.378-.414-4.533l5.416-.084Zm.41-.518-6.519.1s1.214,3.556.641,4.821a5.664,5.664,0,0,1-2.465,2.249,10.735,10.735,0,0,0,6.947,2.981,8.263,8.263,0,0,0,1.16-.083c4.626-.668,4.137-6.5,4.137-6.5a2.692,2.692,0,0,1-.6.061,2.793,2.793,0,0,1-1.875-.682,5.85,5.85,0,0,1-1.423-2.949Z" transform="translate(-77.087 -300.38)"/>
          </g>
          <g id="Group_726" data-name="Group 726" transform="translate(50.616 7.297)">
            <path id="Path_1205" data-name="Path 1205" d="M84.227,305.616c-2.026,0-4.648-1.941-6.1-4.516A51.645,51.645,0,0,1,75,294.3l6.121-3.778c.894,1.167,5.762,7.562,6.458,9.078.678,1.479.664,2.87-1.5,5.231A2.408,2.408,0,0,1,84.227,305.616Z" transform="translate(-74.685 -290.177)" fill="#fff"/>
            <path id="Path_1206" data-name="Path 1206" d="M81.123,290.929a101.8,101.8,0,0,1,6.287,8.847c.651,1.419.622,2.684-1.453,4.951a2.162,2.162,0,0,1-1.662.708c-1.908,0-4.489-1.927-5.874-4.387a51.522,51.522,0,0,1-3.044-6.573l5.747-3.547Zm.124-.678-6.495,4.011a51.217,51.217,0,0,0,3.224,7.037c1.442,2.564,4.15,4.648,6.319,4.648a2.662,2.662,0,0,0,2.039-.874c2.107-2.3,2.323-3.8,1.541-5.508s-6.627-9.313-6.627-9.313Z" transform="translate(-74.752 -290.251)"/>
          </g>
          <path id="Path_1207" data-name="Path 1207" d="M82.121,290.8c.931,1.021,1.118,2.021-.47,3.265s-4.52,1.388-4.242,2.21,2.187,3.878,1.14,5.131-6.719-3.584-6.2-7.01S78.567,286.9,82.121,290.8Z" transform="translate(-24.809 -283.242)"/>
          <g id="Group_727" data-name="Group 727" transform="translate(52.421 17.912)">
            <path id="Path_1208" data-name="Path 1208" d="M77.43,298.767s-1.4-.047-.987,1.192a1.09,1.09,0,0,0,1.947.273C78.415,299.816,77.43,298.767,77.43,298.767Z" transform="translate(-76.11 -298.511)" fill="#fff"/>
            <path id="Path_1209" data-name="Path 1209" d="M77.505,301.031a1.272,1.272,0,0,1-1.248-.936,1.119,1.119,0,0,1,.088-1.068,1.476,1.476,0,0,1,1.15-.46.258.258,0,0,1,.177.08c.318.34,1.056,1.179,1.029,1.654-.023.383-.521.655-.979.716A1.8,1.8,0,0,1,77.505,301.031Zm-.129-1.95a.889.889,0,0,0-.622.253.655.655,0,0,0-.014.6.766.766,0,0,0,.743.587.967.967,0,0,0,.711-.263A3.714,3.714,0,0,0,77.376,299.08Z" transform="translate(-76.166 -298.567)"/>
          </g>
          <path id="Path_1210" data-name="Path 1210" d="M84.7,295.086s7.327,6.7,3.173,10.246-7.933-.244-9.049-1.617a16.56,16.56,0,0,1-1.459-1.991l1-.628s2.014,1.5,3.157.666c.747-.544.675-1.913,1.9-2.886,1.123-.895,1.716-.151,2.388-.586C86.975,297.529,84.7,295.086,84.7,295.086Z" transform="translate(-23.415 -281.617)"/>
          <g id="Group_728" data-name="Group 728" transform="translate(57.04 12.895)">
            <path id="Path_1211" data-name="Path 1211" d="M79.985,294.835s2.744,2.605,2.8,2.793-1.035.991-1.035.991Z" transform="translate(-79.729 -294.581)" fill="#fff"/>
            <path id="Path_1212" data-name="Path 1212" d="M81.8,298.929a.255.255,0,0,1-.151-.461,7.072,7.072,0,0,0,.9-.763c-.264-.3-1.538-1.538-2.687-2.628a.256.256,0,1,1,.351-.371c2.794,2.651,2.847,2.83,2.87,2.905.042.143.106.359-1.13,1.269A.249.249,0,0,1,81.8,298.929Zm.791-1.173h0Z" transform="translate(-79.784 -294.636)"/>
          </g>
          <path id="Path_1213" data-name="Path 1213" d="M81.825,294.471a.272.272,0,1,1-.4-.092A.295.295,0,0,1,81.825,294.471Z" transform="translate(-22.319 -281.826)" fill="#0b0704"/>
          <path id="Path_1214" data-name="Path 1214" d="M79.274,296.371a.234.234,0,1,1-.348-.079A.253.253,0,0,1,79.274,296.371Z" transform="translate(-23.006 -281.295)" fill="#0b0704"/>
          <g id="Group_729" data-name="Group 729" transform="translate(59.491 17.335)">
            <path id="Path_1215" data-name="Path 1215" d="M81.983,300.461h-.028a.257.257,0,0,1-.25-.262.236.236,0,0,1,.26-.25,3.41,3.41,0,0,0,1.552-.371,1.181,1.181,0,0,0,.475-1.163.255.255,0,1,1,.5-.089,1.68,1.68,0,0,1-.719,1.694A3.876,3.876,0,0,1,81.983,300.461Z" transform="translate(-81.705 -298.115)" fill="#fff"/>
          </g>
          <path id="Path_1216" data-name="Path 1216" d="M73.948,298.718s-4.2-4.136-.165-8.242c4.614-4.694,8.764.24,8.764.24Z" transform="translate(-24.888 -283.452)" fill="#f51619"/>
          <path id="Path_1217" data-name="Path 1217" d="M87.443,286.884,74.1,298.751a.371.371,0,0,1-.522-.029h0a.371.371,0,0,1,.031-.522l13.342-11.869a.369.369,0,0,1,.521.031h0A.371.371,0,0,1,87.443,286.884Z" transform="translate(-24.486 -284.064)" fill="#f51619"/>
          <g id="Group_730" data-name="Group 730" transform="translate(57.912 109.709)">
            <path id="Path_1218" data-name="Path 1218" d="M83.851,380.016c8.159-4.852,16.823-4.557,32.721-2.739,4.653.532,7.427-1.033,16.015-6.6,0,0-17.843,12.942-30.745,16.081C86.512,390.489,74.767,385.418,83.851,380.016Z" transform="translate(-80.412 -370.426)" fill="#fff"/>
            <path id="Path_1219" data-name="Path 1219" d="M91.766,388.352c-5.961,0-10.241-1.506-11.121-3.658-.447-1.094-.264-2.821,3.131-4.84h0c7.937-4.722,16.193-4.685,32.881-2.774,4.643.528,7.5-1.153,15.847-6.557a.255.255,0,0,1,.288.421c-.179.13-18.031,13.009-30.836,16.122A43.614,43.614,0,0,1,91.766,388.352Zm-7.859-8.279.13.218c-2.4,1.432-3.443,2.927-2.919,4.209,1.246,3.051,10.37,4.586,20.718,2.07,6.938-1.687,15.384-6.275,21.654-10.113a12.127,12.127,0,0,1-6.892,1.128c-16.566-1.892-24.752-1.935-32.562,2.706Z" transform="translate(-80.468 -370.481)"/>
          </g>
          <g id="Group_731" data-name="Group 731" transform="translate(45.348 21.814)">
            <path id="Path_1220" data-name="Path 1220" d="M94.081,302.631a79.281,79.281,0,0,1-3.9,17.114c-3.229,9.367-19.3,19.423-19.3,19.423l.154,2.25s6.066-4.285,7.975-5.788c1.926-1.515,7.37-6.283,7.37-6.283s6.675,1.349,9.967-3.666-1.628-13-1.628-13l1.44-10.706Z" transform="translate(-70.553 -301.526)" fill="#f5bd22"/>
            <path id="Path_1221" data-name="Path 1221" d="M70.832,342.1l-.207-3.007.162-.1c.16-.1,16.011-10.1,19.166-19.256A79.844,79.844,0,0,0,93.835,302.7l.018-.213,2.766-.864-1.491,11.091c.585.983,4.766,8.36,1.562,13.238-3.083,4.7-9.082,4-10.138,3.832-.8.7-5.513,4.814-7.27,6.193-1.894,1.491-7.927,5.754-7.988,5.8Zm.456-2.669.1,1.493c1.454-1.033,5.924-4.211,7.5-5.451,1.9-1.492,7.3-6.224,7.358-6.273l.119-.1.154.031c.066.015,6.5,1.246,9.637-3.527,3.144-4.791-1.584-12.576-1.631-12.655l-.06-.1,1.388-10.323-1.4.439a81.551,81.551,0,0,1-3.893,16.976C87.464,328.915,73.081,338.292,71.287,339.434Z" transform="translate(-70.625 -301.624)"/>
          </g>
          <g id="Group_732" data-name="Group 732" transform="translate(63.769 36.578)">
            <path id="Path_1222" data-name="Path 1222" d="M85.311,323.328a.255.255,0,0,1-.2-.41c.036-.047,3.552-4.7,4.18-9.5a.255.255,0,1,1,.505.064c-.645,4.948-4.133,9.557-4.281,9.75A.251.251,0,0,1,85.311,323.328Z" transform="translate(-85.057 -313.19)"/>
          </g>
        </g>
        <g id="Group_814" data-name="Group 814" transform="translate(157.803 402.469)">
          <g id="Group_742" data-name="Group 742" transform="translate(9.766 21.966)">
            <path id="Path_1223" data-name="Path 1223" d="M165.651,395.17a53.476,53.476,0,0,0-19.566,0h-7.008v3.892c0,2.649,7.517,4.794,16.791,4.794s16.792-2.146,16.792-4.794V395.17Z" transform="translate(-138.822 -390.577)" fill="#f5bd22"/>
            <path id="Path_1224" data-name="Path 1224" d="M172.66,395.865c0,2.423-7.518,4.386-16.792,4.386s-16.791-1.963-16.791-4.386,7.517-4.386,16.791-4.386S172.66,393.442,172.66,395.865Z" transform="translate(-138.822 -391.348)" fill="#f5bd22"/>
            <g id="Group_734" data-name="Group 734" transform="translate(5.016 1.392)">
              <path id="Path_1225" data-name="Path 1225" d="M154.837,400.233A49.668,49.668,0,0,1,143,398.966a.255.255,0,0,1,.126-.494,49.216,49.216,0,0,0,11.712,1.251c9.891,0,16.535-2.136,16.535-4.131,0-.919-1.426-1.876-3.912-2.626a.255.255,0,1,1,.147-.489c2.8.842,4.277,1.921,4.277,3.115C171.884,398.5,163.217,400.233,154.837,400.233Z" transform="translate(-142.807 -392.466)"/>
            </g>
            <g id="Group_735" data-name="Group 735" transform="translate(1.09 5.819)">
              <path id="Path_1226" data-name="Path 1226" d="M139.986,399.863a.256.256,0,0,1-.255-.255V396.19a.255.255,0,1,1,.511,0v3.417A.255.255,0,0,1,139.986,399.863Z" transform="translate(-139.731 -395.935)"/>
            </g>
            <g id="Group_736" data-name="Group 736" transform="translate(0 4.57)">
              <path id="Path_1227" data-name="Path 1227" d="M139.132,398.885a.255.255,0,0,1-.255-.255v-3.418a.255.255,0,1,1,.511,0v3.418A.256.256,0,0,1,139.132,398.885Z" transform="translate(-138.877 -394.956)"/>
            </g>
            <g id="Group_737" data-name="Group 737" transform="translate(3.614 7.07)">
              <path id="Path_1228" data-name="Path 1228" d="M141.963,400.845a.256.256,0,0,1-.255-.257v-3.417a.256.256,0,1,1,.512,0v3.417A.257.257,0,0,1,141.963,400.845Z" transform="translate(-141.708 -396.915)"/>
            </g>
            <g id="Group_738" data-name="Group 738" transform="translate(7.216 7.987)">
              <path id="Path_1229" data-name="Path 1229" d="M144.787,401.561a.255.255,0,0,1-.257-.255V397.89a.256.256,0,1,1,.512,0v3.416A.255.255,0,0,1,144.787,401.561Z" transform="translate(-144.53 -397.633)"/>
            </g>
            <g id="Group_739" data-name="Group 739" transform="translate(13.047 8.779)">
              <path id="Path_1230" data-name="Path 1230" d="M149.353,402.183a.256.256,0,0,1-.255-.257v-3.416a.256.256,0,1,1,.512,0v3.416A.257.257,0,0,1,149.353,402.183Z" transform="translate(-149.098 -398.254)"/>
            </g>
            <g id="Group_740" data-name="Group 740" transform="translate(31.243 6.415)">
              <path id="Path_1231" data-name="Path 1231" d="M163.608,400.33a.256.256,0,0,1-.255-.255v-3.417a.256.256,0,0,1,.512,0v3.417A.256.256,0,0,1,163.608,400.33Z" transform="translate(-163.353 -396.402)"/>
            </g>
            <g id="Group_741" data-name="Group 741" transform="translate(2.84)">
              <path id="Path_1232" data-name="Path 1232" d="M141.356,393.708a.255.255,0,0,1-.091-.494c3.707-1.43,9.719-1.816,9.974-1.832.128-.037.26.1.271.239a.257.257,0,0,1-.24.271c-.061,0-6.188.4-9.822,1.8A.255.255,0,0,1,141.356,393.708Z" transform="translate(-141.102 -391.376)"/>
            </g>
          </g>
          <g id="Group_754" data-name="Group 754" transform="translate(9.766 18.103)">
            <path id="Path_1233" data-name="Path 1233" d="M165.651,392.065a58.268,58.268,0,0,0-19.566,0h-7.008v3.56c0,2.421,7.517,4.386,16.791,4.386s16.792-1.965,16.792-4.386v-3.56Z" transform="translate(-138.822 -387.552)" fill="#f5bd22"/>
            <path id="Path_1234" data-name="Path 1234" d="M172.66,392.836c0,2.421-7.518,4.386-16.792,4.386s-16.791-1.965-16.791-4.386,7.517-4.386,16.791-4.386S172.66,390.413,172.66,392.836Z" transform="translate(-138.822 -388.322)" fill="#f5bd22"/>
            <g id="Group_743" data-name="Group 743" transform="translate(5.016 1.388)">
              <path id="Path_1235" data-name="Path 1235" d="M154.837,397.2A49.733,49.733,0,0,1,143,395.937a.254.254,0,0,1-.184-.31.25.25,0,0,1,.31-.184,49.22,49.22,0,0,0,11.712,1.251c9.891,0,16.535-2.136,16.535-4.132,0-.919-1.426-1.876-3.912-2.624a.255.255,0,1,1,.147-.489c2.8.842,4.277,1.92,4.277,3.113C171.884,395.468,163.217,397.2,154.837,397.2Z" transform="translate(-142.807 -389.438)"/>
            </g>
            <g id="Group_744" data-name="Group 744" transform="translate(1.09 5.816)">
              <path id="Path_1236" data-name="Path 1236" d="M139.986,396.834a.256.256,0,0,1-.255-.255v-3.417a.255.255,0,0,1,.511,0v3.417A.255.255,0,0,1,139.986,396.834Z" transform="translate(-139.731 -392.906)"/>
            </g>
            <g id="Group_745" data-name="Group 745" transform="translate(0 4.565)">
              <path id="Path_1237" data-name="Path 1237" d="M139.132,395.855a.254.254,0,0,1-.255-.255v-3.417a.255.255,0,1,1,.511,0V395.6A.255.255,0,0,1,139.132,395.855Z" transform="translate(-138.877 -391.926)"/>
            </g>
            <g id="Group_746" data-name="Group 746" transform="translate(3.614 7.067)">
              <path id="Path_1238" data-name="Path 1238" d="M141.963,397.814a.256.256,0,0,1-.255-.255v-3.417a.256.256,0,0,1,.512,0v3.417A.256.256,0,0,1,141.963,397.814Z" transform="translate(-141.708 -393.886)"/>
            </g>
            <g id="Group_747" data-name="Group 747" transform="translate(7.216 7.983)">
              <path id="Path_1239" data-name="Path 1239" d="M144.787,398.532a.256.256,0,0,1-.257-.255v-3.417a.256.256,0,0,1,.512,0v3.417A.256.256,0,0,1,144.787,398.532Z" transform="translate(-144.53 -394.604)"/>
            </g>
            <g id="Group_748" data-name="Group 748" transform="translate(13.047 8.776)">
              <path id="Path_1240" data-name="Path 1240" d="M149.353,399.153a.256.256,0,0,1-.255-.255V395.48a.256.256,0,0,1,.512,0V398.9A.256.256,0,0,1,149.353,399.153Z" transform="translate(-149.098 -395.225)"/>
            </g>
            <g id="Group_749" data-name="Group 749" transform="translate(19.977 8.776)">
              <path id="Path_1241" data-name="Path 1241" d="M154.784,398.212a.256.256,0,0,1-.257-.255V395.48a.256.256,0,0,1,.512,0v2.476A.256.256,0,0,1,154.784,398.212Z" transform="translate(-154.527 -395.225)"/>
            </g>
            <g id="Group_750" data-name="Group 750" transform="translate(32.342 5.905)">
              <path id="Path_1242" data-name="Path 1242" d="M164.469,395.783a.256.256,0,0,1-.255-.255v-2.3a.255.255,0,0,1,.511,0v2.3A.255.255,0,0,1,164.469,395.783Z" transform="translate(-164.214 -392.976)"/>
            </g>
            <g id="Group_751" data-name="Group 751" transform="translate(28.861 7.432)">
              <path id="Path_1243" data-name="Path 1243" d="M161.744,398.1a.257.257,0,0,1-.257-.257v-3.418a.256.256,0,0,1,.512,0v3.418A.256.256,0,0,1,161.744,398.1Z" transform="translate(-161.487 -394.172)"/>
            </g>
            <g id="Group_752" data-name="Group 752" transform="translate(33.582 5.015)">
              <path id="Path_1244" data-name="Path 1244" d="M165.44,396.208a.256.256,0,0,1-.255-.255v-3.418a.256.256,0,0,1,.512,0v3.418A.256.256,0,0,1,165.44,396.208Z" transform="translate(-165.185 -392.279)"/>
            </g>
            <g id="Group_753" data-name="Group 753" transform="translate(2.84)">
              <path id="Path_1245" data-name="Path 1245" d="M141.356,390.677a.255.255,0,0,1-.091-.493c3.707-1.431,9.719-1.818,9.974-1.833h.015a.255.255,0,0,1,.015.509c-.061,0-6.188.4-9.822,1.8A.285.285,0,0,1,141.356,390.677Z" transform="translate(-141.102 -388.35)"/>
            </g>
          </g>
          <g id="Group_765" data-name="Group 765" transform="translate(0 29.467)">
            <path id="Path_1246" data-name="Path 1246" d="M154.82,400.588a48.647,48.647,0,0,0-17.225,0h-6.169v3.31c0,2.253,6.617,4.08,14.782,4.08s14.782-1.827,14.782-4.08v-3.31Z" transform="translate(-131.171 -396.543)" fill="#f5bd22"/>
            <ellipse id="Ellipse_225" data-name="Ellipse 225" cx="14.781" cy="3.861" rx="14.781" ry="3.861" transform="translate(0.255 0.143)" fill="#f5bd22"/>
            <g id="Group_755" data-name="Group 755" transform="translate(4.416 1.222)">
              <path id="Path_1247" data-name="Path 1247" d="M145.306,405.109a43.8,43.8,0,0,1-10.429-1.117.254.254,0,0,1-.184-.31.25.25,0,0,1,.31-.184,43.3,43.3,0,0,0,10.3,1.1c8.689,0,14.525-1.864,14.525-3.6,0-.8-1.247-1.626-3.422-2.282a.255.255,0,0,1,.147-.489c2.478.747,3.787,1.705,3.787,2.771C160.343,403.57,152.7,405.109,145.306,405.109Z" transform="translate(-134.686 -398.21)"/>
            </g>
            <g id="Group_756" data-name="Group 756" transform="translate(0.96 5.119)">
              <path id="Path_1248" data-name="Path 1248" d="M132.233,404.784a.256.256,0,0,1-.255-.255v-3.01a.255.255,0,1,1,.511,0v3.01A.256.256,0,0,1,132.233,404.784Z" transform="translate(-131.978 -401.263)"/>
            </g>
            <g id="Group_757" data-name="Group 757" transform="translate(0 4.02)">
              <path id="Path_1249" data-name="Path 1249" d="M131.481,403.921a.256.256,0,0,1-.255-.255v-3.009a.255.255,0,0,1,.511,0v3.009A.256.256,0,0,1,131.481,403.921Z" transform="translate(-131.226 -400.402)"/>
            </g>
            <g id="Group_758" data-name="Group 758" transform="translate(3.181 6.222)">
              <path id="Path_1250" data-name="Path 1250" d="M133.975,405.646a.256.256,0,0,1-.257-.255v-3.009a.256.256,0,0,1,.512,0v3.009A.256.256,0,0,1,133.975,405.646Z" transform="translate(-133.718 -402.127)"/>
            </g>
            <g id="Group_759" data-name="Group 759" transform="translate(6.353 7.027)">
              <path id="Path_1251" data-name="Path 1251" d="M136.458,406.279a.256.256,0,0,1-.255-.255v-3.009a.255.255,0,1,1,.511,0v3.009A.256.256,0,0,1,136.458,406.279Z" transform="translate(-136.203 -402.758)"/>
            </g>
            <g id="Group_760" data-name="Group 760" transform="translate(11.486 7.725)">
              <path id="Path_1252" data-name="Path 1252" d="M140.479,406.824a.256.256,0,0,1-.255-.255V403.56a.256.256,0,0,1,.512,0v3.009A.256.256,0,0,1,140.479,406.824Z" transform="translate(-140.224 -403.305)"/>
            </g>
            <g id="Group_761" data-name="Group 761" transform="translate(17.587 7.725)">
              <path id="Path_1253" data-name="Path 1253" d="M145.259,406.824a.255.255,0,0,1-.255-.255V403.56a.255.255,0,1,1,.511,0v3.009A.256.256,0,0,1,145.259,406.824Z" transform="translate(-145.004 -403.305)"/>
            </g>
            <g id="Group_762" data-name="Group 762" transform="translate(25.407 6.542)">
              <path id="Path_1254" data-name="Path 1254" d="M151.385,405.9a.256.256,0,0,1-.255-.255v-3.009a.255.255,0,1,1,.511,0v3.009A.255.255,0,0,1,151.385,405.9Z" transform="translate(-151.13 -402.378)"/>
            </g>
            <g id="Group_763" data-name="Group 763" transform="translate(29.562 4.415)">
              <path id="Path_1255" data-name="Path 1255" d="M154.642,404.231a.256.256,0,0,1-.257-.255v-3.007a.256.256,0,1,1,.512,0v3.007A.256.256,0,0,1,154.642,404.231Z" transform="translate(-154.385 -400.712)"/>
            </g>
            <g id="Group_764" data-name="Group 764" transform="translate(2.5)">
              <path id="Path_1256" data-name="Path 1256" d="M133.439,399.364a.256.256,0,0,1-.091-.494,36.649,36.649,0,0,1,8.789-1.616h.017a.256.256,0,0,1,.015.511,36.926,36.926,0,0,0-8.638,1.583A.256.256,0,0,1,133.439,399.364Z" transform="translate(-133.184 -397.253)"/>
            </g>
          </g>
          <g id="Group_777" data-name="Group 777" transform="translate(29.159 31.558)">
            <path id="Path_1257" data-name="Path 1257" d="M177.108,402.243a47.069,47.069,0,0,0-16.815,0h-6.024v3.266c0,2.221,6.46,4.022,14.431,4.022s14.432-1.8,14.432-4.022v-3.266Z" transform="translate(-154.014 -398.174)" fill="#f5bd22"/>
            <path id="Path_1258" data-name="Path 1258" d="M183.131,402.858c0,2.082-6.462,3.769-14.432,3.769s-14.431-1.687-14.431-3.769,6.46-3.769,14.431-3.769S183.131,400.777,183.131,402.858Z" transform="translate(-154.014 -398.836)" fill="#f5bd22"/>
            <g id="Group_766" data-name="Group 766" transform="translate(4.31 1.299)">
              <path id="Path_1259" data-name="Path 1259" d="M167.821,406.658a42.725,42.725,0,0,1-10.184-1.093.254.254,0,0,1-.184-.31.25.25,0,0,1,.311-.182,42.285,42.285,0,0,0,10.056,1.074c8.48,0,14.175-1.816,14.175-3.515,0-.771-1.215-1.582-3.337-2.222a.255.255,0,1,1,.147-.489c2.421.731,3.7,1.668,3.7,2.711C182.508,405.152,175.041,406.658,167.821,406.658Z" transform="translate(-157.446 -399.909)"/>
            </g>
            <g id="Group_767" data-name="Group 767" transform="translate(0.937 5.105)">
              <path id="Path_1260" data-name="Path 1260" d="M155.058,406.338a.255.255,0,0,1-.255-.255v-2.937a.255.255,0,0,1,.511,0v2.937A.255.255,0,0,1,155.058,406.338Z" transform="translate(-154.803 -402.89)"/>
            </g>
            <g id="Group_768" data-name="Group 768" transform="translate(0 4.03)">
              <path id="Path_1261" data-name="Path 1261" d="M154.324,405.5a.256.256,0,0,1-.255-.257V402.3a.255.255,0,1,1,.511,0v2.938A.256.256,0,0,1,154.324,405.5Z" transform="translate(-154.069 -402.048)"/>
            </g>
            <g id="Group_769" data-name="Group 769" transform="translate(3.106 6.181)">
              <path id="Path_1262" data-name="Path 1262" d="M156.757,407.181a.256.256,0,0,1-.255-.255v-2.937a.255.255,0,1,1,.511,0v2.937A.255.255,0,0,1,156.757,407.181Z" transform="translate(-156.502 -403.733)"/>
            </g>
            <g id="Group_770" data-name="Group 770" transform="translate(6.201 6.968)">
              <path id="Path_1263" data-name="Path 1263" d="M159.184,407.8a.256.256,0,0,1-.257-.255v-2.937a.256.256,0,0,1,.512,0v2.937A.256.256,0,0,1,159.184,407.8Z" transform="translate(-158.927 -404.35)"/>
            </g>
            <g id="Group_771" data-name="Group 771" transform="translate(11.214 7.649)">
              <path id="Path_1264" data-name="Path 1264" d="M163.109,408.332a.256.256,0,0,1-.255-.257V405.14a.255.255,0,1,1,.511,0v2.936A.256.256,0,0,1,163.109,408.332Z" transform="translate(-162.854 -404.883)"/>
            </g>
            <g id="Group_772" data-name="Group 772" transform="translate(17.17 7.649)">
              <path id="Path_1265" data-name="Path 1265" d="M167.775,408.332a.256.256,0,0,1-.255-.257V405.14a.255.255,0,1,1,.511,0v2.936A.256.256,0,0,1,167.775,408.332Z" transform="translate(-167.52 -404.883)"/>
            </g>
            <g id="Group_773" data-name="Group 773" transform="translate(27.795 5.184)">
              <path id="Path_1266" data-name="Path 1266" d="M176.1,406.4a.256.256,0,0,1-.257-.255v-2.937a.256.256,0,0,1,.512,0v2.937A.256.256,0,0,1,176.1,406.4Z" transform="translate(-175.844 -402.952)"/>
            </g>
            <g id="Group_774" data-name="Group 774" transform="translate(24.804 6.495)">
              <path id="Path_1267" data-name="Path 1267" d="M173.756,407.427a.256.256,0,0,1-.255-.255v-2.937a.256.256,0,0,1,.512,0v2.937A.256.256,0,0,1,173.756,407.427Z" transform="translate(-173.501 -403.979)"/>
            </g>
            <g id="Group_775" data-name="Group 775" transform="translate(28.861 4.418)">
              <path id="Path_1268" data-name="Path 1268" d="M176.936,405.8a.256.256,0,0,1-.257-.255v-2.937a.256.256,0,0,1,.512,0v2.937A.256.256,0,0,1,176.936,405.8Z" transform="translate(-176.679 -402.352)"/>
            </g>
            <g id="Group_776" data-name="Group 776" transform="translate(2.44)">
              <path id="Path_1269" data-name="Path 1269" d="M156.236,401.07a.255.255,0,0,1-.1-.491c3.763-1.565,11.184-1.682,11.5-1.687h0a.255.255,0,0,1,0,.511c-.077,0-7.637.121-11.311,1.649A.253.253,0,0,1,156.236,401.07Z" transform="translate(-155.981 -398.891)"/>
            </g>
          </g>
          <g id="Group_789" data-name="Group 789" transform="translate(13.38 12.545)">
            <path id="Path_1270" data-name="Path 1270" d="M166.711,387.618a51.117,51.117,0,0,0-18.261,0h-6.542v3.546c0,2.414,7.017,4.369,15.673,4.369s15.671-1.956,15.671-4.369v-3.546Z" transform="translate(-141.653 -383.222)" fill="#f5bd22"/>
            <ellipse id="Ellipse_226" data-name="Ellipse 226" cx="15.672" cy="4.094" rx="15.672" ry="4.094" transform="translate(0.256 0.251)" fill="#f5bd22"/>
            <g id="Group_778" data-name="Group 778" transform="translate(4.682 1.411)">
              <path id="Path_1271" data-name="Path 1271" d="M156.622,392.384a46.363,46.363,0,0,1-11.053-1.185.255.255,0,0,1-.185-.31.251.251,0,0,1,.311-.182,45.928,45.928,0,0,0,10.927,1.167c9.221,0,15.416-1.985,15.416-3.838,0-.849-1.326-1.736-3.639-2.434a.255.255,0,0,1,.147-.489c2.619.79,4,1.8,4,2.923C172.55,390.758,164.45,392.384,156.622,392.384Z" transform="translate(-145.376 -385.102)"/>
            </g>
            <g id="Group_779" data-name="Group 779" transform="translate(1.019 5.542)">
              <path id="Path_1272" data-name="Path 1272" d="M142.761,392.04a.255.255,0,0,1-.255-.255v-3.19a.255.255,0,1,1,.511,0v3.19A.256.256,0,0,1,142.761,392.04Z" transform="translate(-142.506 -388.338)"/>
            </g>
            <g id="Group_780" data-name="Group 780" transform="translate(0 4.376)">
              <path id="Path_1273" data-name="Path 1273" d="M141.963,391.126a.256.256,0,0,1-.255-.257v-3.19a.256.256,0,0,1,.512,0v3.19A.257.257,0,0,1,141.963,391.126Z" transform="translate(-141.708 -387.424)"/>
            </g>
            <g id="Group_781" data-name="Group 781" transform="translate(3.374 6.71)">
              <path id="Path_1274" data-name="Path 1274" d="M144.606,392.955a.256.256,0,0,1-.255-.255v-3.19a.255.255,0,1,1,.511,0v3.19A.256.256,0,0,1,144.606,392.955Z" transform="translate(-144.351 -389.253)"/>
            </g>
            <g id="Group_782" data-name="Group 782" transform="translate(6.736 7.566)">
              <path id="Path_1275" data-name="Path 1275" d="M147.24,393.625a.256.256,0,0,1-.255-.257v-3.19a.255.255,0,0,1,.511,0v3.19A.255.255,0,0,1,147.24,393.625Z" transform="translate(-146.985 -389.923)"/>
            </g>
            <g id="Group_783" data-name="Group 783" transform="translate(12.179 8.305)">
              <path id="Path_1276" data-name="Path 1276" d="M151.5,394.2a.256.256,0,0,1-.255-.255v-3.19a.255.255,0,1,1,.511,0v3.19A.256.256,0,0,1,151.5,394.2Z" transform="translate(-151.249 -390.502)"/>
            </g>
            <g id="Group_784" data-name="Group 784" transform="translate(18.647 8.305)">
              <path id="Path_1277" data-name="Path 1277" d="M156.571,394.2a.255.255,0,0,1-.255-.255v-3.19a.255.255,0,1,1,.511,0v3.19A.256.256,0,0,1,156.571,394.2Z" transform="translate(-156.316 -390.502)"/>
            </g>
            <g id="Group_785" data-name="Group 785" transform="translate(30.187 5.628)">
              <path id="Path_1278" data-name="Path 1278" d="M165.612,392.1a.255.255,0,0,1-.255-.255V388.66a.255.255,0,1,1,.511,0v3.189A.256.256,0,0,1,165.612,392.1Z" transform="translate(-165.357 -388.405)"/>
            </g>
            <g id="Group_786" data-name="Group 786" transform="translate(26.939 7.053)">
              <path id="Path_1279" data-name="Path 1279" d="M163.067,393.22a.255.255,0,0,1-.255-.255v-3.189a.255.255,0,1,1,.511,0v3.189A.255.255,0,0,1,163.067,393.22Z" transform="translate(-162.812 -389.521)"/>
            </g>
            <g id="Group_787" data-name="Group 787" transform="translate(31.344 4.796)">
              <path id="Path_1280" data-name="Path 1280" d="M166.518,391.455a.256.256,0,0,1-.255-.255v-3.19a.255.255,0,1,1,.511,0v3.19A.256.256,0,0,1,166.518,391.455Z" transform="translate(-166.263 -387.753)"/>
            </g>
            <g id="Group_788" data-name="Group 788" transform="translate(2.651)">
              <path id="Path_1281" data-name="Path 1281" d="M144.04,386.318a.255.255,0,0,1-.1-.491c4.083-1.7,12.139-1.827,12.48-1.83h0a.255.255,0,0,1,0,.511c-.083,0-8.3.129-12.29,1.791A.242.242,0,0,1,144.04,386.318Z" transform="translate(-143.785 -383.996)"/>
            </g>
          </g>
          <g id="Group_801" data-name="Group 801" transform="translate(12.005 6.03)">
            <path id="Path_1282" data-name="Path 1282" d="M165.633,382.515a51.117,51.117,0,0,0-18.261,0H140.83v3.546c0,2.414,7.017,4.369,15.673,4.369s15.671-1.956,15.671-4.369v-3.546Z" transform="translate(-140.576 -378.118)" fill="#f5bd22"/>
            <ellipse id="Ellipse_227" data-name="Ellipse 227" cx="15.672" cy="4.094" rx="15.672" ry="4.094" transform="translate(0.255 0.252)" fill="#f5bd22"/>
            <g id="Group_790" data-name="Group 790" transform="translate(4.681 1.411)">
              <path id="Path_1283" data-name="Path 1283" d="M155.544,387.283a46.363,46.363,0,0,1-11.053-1.185.255.255,0,1,1,.126-.494,45.928,45.928,0,0,0,10.927,1.167c9.221,0,15.416-1.985,15.416-3.84,0-.85-1.326-1.736-3.639-2.434a.255.255,0,0,1,.147-.489c2.619.789,4,1.8,4,2.923C171.471,385.654,163.372,387.283,155.544,387.283Z" transform="translate(-144.298 -379.997)"/>
            </g>
            <g id="Group_791" data-name="Group 791" transform="translate(1.017 5.544)">
              <path id="Path_1284" data-name="Path 1284" d="M141.683,386.936a.256.256,0,0,1-.255-.255v-3.19a.255.255,0,1,1,.511,0v3.19A.256.256,0,0,1,141.683,386.936Z" transform="translate(-141.428 -383.235)"/>
            </g>
            <g id="Group_792" data-name="Group 792" transform="translate(0 4.378)">
              <path id="Path_1285" data-name="Path 1285" d="M140.886,386.021a.255.255,0,0,1-.255-.255v-3.189a.255.255,0,1,1,.511,0v3.189A.256.256,0,0,1,140.886,386.021Z" transform="translate(-140.631 -382.322)"/>
            </g>
            <g id="Group_793" data-name="Group 793" transform="translate(3.372 6.713)">
              <path id="Path_1286" data-name="Path 1286" d="M143.528,387.85a.255.255,0,0,1-.255-.255v-3.189a.255.255,0,1,1,.511,0v3.189A.254.254,0,0,1,143.528,387.85Z" transform="translate(-143.273 -384.151)"/>
            </g>
            <g id="Group_794" data-name="Group 794" transform="translate(6.735 7.567)">
              <path id="Path_1287" data-name="Path 1287" d="M146.164,388.52a.256.256,0,0,1-.257-.255v-3.19a.256.256,0,0,1,.512,0v3.19A.256.256,0,0,1,146.164,388.52Z" transform="translate(-145.907 -384.82)"/>
            </g>
            <g id="Group_795" data-name="Group 795" transform="translate(12.178 8.307)">
              <path id="Path_1288" data-name="Path 1288" d="M150.426,389.1a.254.254,0,0,1-.255-.255v-3.19a.255.255,0,1,1,.511,0v3.19A.255.255,0,0,1,150.426,389.1Z" transform="translate(-150.171 -385.4)"/>
            </g>
            <g id="Group_796" data-name="Group 796" transform="translate(18.645 8.307)">
              <path id="Path_1289" data-name="Path 1289" d="M155.493,389.1a.255.255,0,0,1-.255-.255v-3.19a.255.255,0,1,1,.511,0v3.19A.255.255,0,0,1,155.493,389.1Z" transform="translate(-155.238 -385.4)"/>
            </g>
            <g id="Group_797" data-name="Group 797" transform="translate(30.185 5.628)">
              <path id="Path_1290" data-name="Path 1290" d="M164.535,387a.256.256,0,0,1-.257-.255v-3.19a.256.256,0,1,1,.512,0v3.19A.256.256,0,0,1,164.535,387Z" transform="translate(-164.278 -383.301)"/>
            </g>
            <g id="Group_798" data-name="Group 798" transform="translate(26.937 7.053)">
              <path id="Path_1291" data-name="Path 1291" d="M161.989,388.119a.256.256,0,0,1-.255-.255v-3.19a.255.255,0,1,1,.511,0v3.19A.255.255,0,0,1,161.989,388.119Z" transform="translate(-161.734 -384.417)"/>
            </g>
            <g id="Group_799" data-name="Group 799" transform="translate(31.343 4.798)">
              <path id="Path_1292" data-name="Path 1292" d="M165.44,386.351a.256.256,0,0,1-.255-.255v-3.19a.256.256,0,0,1,.512,0v3.19A.256.256,0,0,1,165.44,386.351Z" transform="translate(-165.185 -382.651)"/>
            </g>
            <g id="Group_800" data-name="Group 800" transform="translate(2.65)">
              <path id="Path_1293" data-name="Path 1293" d="M142.962,381.215a.258.258,0,0,1-.236-.157.255.255,0,0,1,.138-.333c4.083-1.7,12.139-1.828,12.48-1.833h0a.255.255,0,0,1,0,.511c-.082,0-8.3.131-12.29,1.793A.24.24,0,0,1,142.962,381.215Z" transform="translate(-142.707 -378.892)"/>
            </g>
          </g>
          <g id="Group_813" data-name="Group 813" transform="translate(12.744)">
            <path id="Path_1294" data-name="Path 1294" d="M166.212,377.791a51.038,51.038,0,0,0-18.261,0H141.41v3.546c0,2.414,7.016,4.369,15.671,4.369s15.673-1.956,15.673-4.369v-3.546Z" transform="translate(-141.155 -373.394)" fill="#f5bd22"/>
            <ellipse id="Ellipse_228" data-name="Ellipse 228" cx="15.672" cy="4.094" rx="15.672" ry="4.094" transform="translate(0.255 0.252)" fill="#f5bd22"/>
            <g id="Group_802" data-name="Group 802" transform="translate(4.682 1.412)">
              <path id="Path_1295" data-name="Path 1295" d="M156.123,382.557a46.363,46.363,0,0,1-11.053-1.185.255.255,0,0,1-.184-.31.251.251,0,0,1,.311-.184,45.9,45.9,0,0,0,10.925,1.168c9.221,0,15.416-1.985,15.416-3.838,0-.85-1.326-1.737-3.639-2.435a.255.255,0,1,1,.147-.488c2.619.789,4,1.8,4,2.923C172.05,380.931,163.951,382.557,156.123,382.557Z" transform="translate(-144.878 -375.274)"/>
            </g>
            <g id="Group_803" data-name="Group 803" transform="translate(1.017 5.544)">
              <path id="Path_1296" data-name="Path 1296" d="M142.262,382.213a.256.256,0,0,1-.255-.257v-3.19a.255.255,0,1,1,.511,0v3.19A.256.256,0,0,1,142.262,382.213Z" transform="translate(-142.007 -378.511)"/>
            </g>
            <g id="Group_804" data-name="Group 804" transform="translate(0 4.377)">
              <path id="Path_1297" data-name="Path 1297" d="M141.465,381.3a.256.256,0,0,1-.255-.257v-3.19a.255.255,0,1,1,.511,0v3.19A.256.256,0,0,1,141.465,381.3Z" transform="translate(-141.21 -377.597)"/>
            </g>
            <g id="Group_805" data-name="Group 805" transform="translate(3.372 6.712)">
              <path id="Path_1298" data-name="Path 1298" d="M144.107,383.128a.256.256,0,0,1-.255-.255v-3.19a.256.256,0,1,1,.512,0v3.19A.256.256,0,0,1,144.107,383.128Z" transform="translate(-143.852 -379.426)"/>
            </g>
            <g id="Group_806" data-name="Group 806" transform="translate(6.735 7.567)">
              <path id="Path_1299" data-name="Path 1299" d="M146.743,383.8a.257.257,0,0,1-.257-.257v-3.189a.256.256,0,0,1,.512,0v3.189A.256.256,0,0,1,146.743,383.8Z" transform="translate(-146.486 -380.096)"/>
            </g>
            <g id="Group_807" data-name="Group 807" transform="translate(12.178 8.306)">
              <path id="Path_1300" data-name="Path 1300" d="M151.005,384.377a.256.256,0,0,1-.255-.257v-3.189a.256.256,0,1,1,.512,0v3.189A.257.257,0,0,1,151.005,384.377Z" transform="translate(-150.75 -380.675)"/>
            </g>
            <g id="Group_808" data-name="Group 808" transform="translate(18.645 8.306)">
              <path id="Path_1301" data-name="Path 1301" d="M156.072,384.377a.256.256,0,0,1-.255-.257v-3.189a.255.255,0,1,1,.511,0v3.189A.256.256,0,0,1,156.072,384.377Z" transform="translate(-155.817 -380.675)"/>
            </g>
            <g id="Group_809" data-name="Group 809" transform="translate(30.186 5.629)">
              <path id="Path_1302" data-name="Path 1302" d="M165.113,382.277a.256.256,0,0,1-.255-.255v-3.189a.255.255,0,1,1,.511,0v3.189A.255.255,0,0,1,165.113,382.277Z" transform="translate(-164.858 -378.578)"/>
            </g>
            <g id="Group_810" data-name="Group 810" transform="translate(26.937 7.054)">
              <path id="Path_1303" data-name="Path 1303" d="M162.568,383.393a.256.256,0,0,1-.255-.255v-3.189a.256.256,0,0,1,.512,0v3.189A.256.256,0,0,1,162.568,383.393Z" transform="translate(-162.313 -379.694)"/>
            </g>
            <g id="Group_811" data-name="Group 811" transform="translate(31.343 4.797)">
              <path id="Path_1304" data-name="Path 1304" d="M166.019,381.628a.256.256,0,0,1-.255-.255v-3.19a.256.256,0,1,1,.512,0v3.19A.256.256,0,0,1,166.019,381.628Z" transform="translate(-165.764 -377.926)"/>
            </g>
            <g id="Group_812" data-name="Group 812" transform="translate(2.65)">
              <path id="Path_1305" data-name="Path 1305" d="M143.541,376.491a.255.255,0,0,1-.1-.491c4.085-1.7,12.139-1.827,12.48-1.832h0a.256.256,0,0,1,0,.512c-.082,0-8.3.129-12.29,1.791A.243.243,0,0,1,143.541,376.491Z" transform="translate(-143.286 -374.168)"/>
            </g>
          </g>
        </g>
        <g id="Group_855" data-name="Group 855" transform="translate(201.682 326.342)">
          <g id="Group_819" data-name="Group 819" transform="translate(21.548 74.366)">
            <g id="Group_816" data-name="Group 816" transform="translate(1.998 2.603)">
              <path id="Path_1308" data-name="Path 1308" d="M184.247,377s1.445-.707,2.326-1.224a9.454,9.454,0,0,0,1.151-.747Z" transform="translate(-183.992 -374.772)" fill="#fff"/>
              <path id="Path_1309" data-name="Path 1309" d="M184.3,377.311a.255.255,0,0,1-.112-.485c.014-.008,1.448-.71,2.308-1.215a9.367,9.367,0,0,0,1.117-.724.255.255,0,0,1,.329.391,9.631,9.631,0,0,1-1.187.775c-.878.514-2.284,1.2-2.342,1.232A.255.255,0,0,1,184.3,377.311Z" transform="translate(-184.047 -374.828)"/>
            </g>
            <g id="Group_817" data-name="Group 817" transform="translate(0.923 1.48)">
              <path id="Path_1310" data-name="Path 1310" d="M183.4,376.083s1.446-.707,2.326-1.224a9.005,9.005,0,0,0,1.1-.712Z" transform="translate(-183.15 -373.893)" fill="#fff"/>
              <path id="Path_1311" data-name="Path 1311" d="M183.46,376.394a.255.255,0,0,1-.111-.485c.014-.008,1.446-.708,2.308-1.215a9.639,9.639,0,0,0,1.067-.684.254.254,0,0,1,.333.384,8.481,8.481,0,0,1-1.142.74c-.878.517-2.282,1.205-2.342,1.233A.251.251,0,0,1,183.46,376.394Z" transform="translate(-183.205 -373.948)"/>
            </g>
            <g id="Group_818" data-name="Group 818">
              <path id="Path_1312" data-name="Path 1312" d="M182.682,374.912s1.445-.707,2.324-1.224a8.7,8.7,0,0,0,1.088-.7Z" transform="translate(-182.427 -372.734)" fill="#fff"/>
              <path id="Path_1313" data-name="Path 1313" d="M182.737,375.222a.255.255,0,0,1-.112-.485c.014-.008,1.446-.708,2.308-1.215a8.481,8.481,0,0,0,1.048-.673.259.259,0,0,1,.36.027.254.254,0,0,1-.023.357,8.455,8.455,0,0,1-1.127.73c-.877.516-2.282,1.2-2.341,1.232A.255.255,0,0,1,182.737,375.222Z" transform="translate(-182.482 -372.789)"/>
            </g>
          </g>
          <g id="Group_846" data-name="Group 846" transform="translate(60.822)">
            <path id="Path_1372" data-name="Path 1372" d="M214.124,329.189a.248.248,0,0,1-.182-.078,16.768,16.768,0,0,1-.442-7.8,9.921,9.921,0,0,1,5.323-6.761.258.258,0,0,1,.332.146.255.255,0,0,1-.146.331A9.528,9.528,0,0,0,214,321.4a17.6,17.6,0,0,0,.351,7.423.256.256,0,0,1-.052.3A.25.25,0,0,1,214.124,329.189Z" transform="translate(-213.25 -314.53)"/>
          </g>
          <path id="Path_1378" data-name="Path 1378" d="M190.417,371.3a12.961,12.961,0,1,1-17.1-6.606A12.961,12.961,0,0,1,190.417,371.3Z" transform="translate(-112.779 -270.969)" fill="#f5bd22"/>
          <g id="Group_851" data-name="Group 851" transform="translate(54.832 94.622)">
            <path id="Path_1379" data-name="Path 1379" d="M178.146,387.062a10.94,10.94,0,1,1,4.418-.937A10.97,10.97,0,0,1,178.146,387.062Zm-.032-21.4a10.443,10.443,0,1,0,4.243,19.992h0a10.443,10.443,0,0,0-4.243-19.992Z" transform="translate(-167.176 -365.155)"/>
          </g>
          <g id="Group_853" data-name="Group 853" transform="translate(61.324 98.917)">
            <g id="Group_852" data-name="Group 852">
              <path id="Path_1380" data-name="Path 1380" d="M176.525,380.579c-.107-.243,0-.435.323-.58a2.867,2.867,0,0,1,.687-.181,2.665,2.665,0,0,0,.614-.149,2.3,2.3,0,0,0,.326-.175l-2.346-4.674-.48-.148c-.272-.082-.5-.153-.68-.211s-.447-.154-.8-.292a4.9,4.9,0,0,1-.813-.387,2.5,2.5,0,0,1-.985-1.03,1.673,1.673,0,0,1,.077-1.335,4.038,4.038,0,0,1,1.213-1.527,4.265,4.265,0,0,0-.221-.442.476.476,0,0,1-.056-.354.233.233,0,0,1,.144-.158.642.642,0,0,1,.244-.046.5.5,0,0,1,.477.337l.079.177a8.814,8.814,0,0,1,1.139-.622,2.813,2.813,0,0,1,.951-.259,1.119,1.119,0,0,1,.673.125l-.24.454c-.148.066-.383.152-.7.259s-.578.2-.771.276c-.036.015-.07.029-.106.046a5.953,5.953,0,0,0-.622.331l2.185,4.114a7.281,7.281,0,0,1,3.029,1.381,3.065,3.065,0,0,1,.617.937,2.5,2.5,0,0,1,.111,1.431,2.8,2.8,0,0,1-.857,1.551l.425.96c.014.029.027.059.038.084a.589.589,0,0,1-.357.872c-.251.111-.44.028-.563-.249l-.047-.106-.44-.882c-.08.046-.212.109-.394.19s-.394.162-.636.243a3.771,3.771,0,0,1-.76.162C176.73,380.73,176.574,380.687,176.525,380.579Zm-.927-6.816q-.358-.7-1.611-3.212a2.269,2.269,0,0,0-.6.923,1.167,1.167,0,0,0,.043.865Q173.794,373.161,175.6,373.763Zm3.644,4.908a2.434,2.434,0,0,0,.3-1.049,1.939,1.939,0,0,0-.114-.868,3.331,3.331,0,0,0-2-1.5Z" transform="translate(-172.262 -368.52)"/>
            </g>
          </g>
        </g>
      </g>
      <g id="Group_1328" data-name="Group 1328" transform="translate(48 311.807)">
        <g id="Group_1284" data-name="Group 1284" transform="translate(85.212 16.21)">
          <path id="Path_2019" data-name="Path 2019" d="M195.212,345.808h-13.83a.225.225,0,0,1,0-.451h13.83a.225.225,0,0,1,0,.451Z" transform="translate(-181.156 -345.357)" fill="#fff"/>
        </g>
        <g id="Group_1285" data-name="Group 1285" transform="translate(191.869 12.109)">
          <path id="Path_2020" data-name="Path 2020" d="M372.759,338.982H358.928a.225.225,0,1,1,0-.451h13.831a.225.225,0,1,1,0,.451Z" transform="translate(-358.703 -338.531)" fill="#fff"/>
        </g>
        <g id="Group_1286" data-name="Group 1286" transform="translate(280.216 12.164)">
          <path id="Path_2021" data-name="Path 2021" d="M519.826,339.074H506a.225.225,0,0,1,0-.451h13.83a.225.225,0,1,1,0,.451Z" transform="translate(-505.77 -338.623)" fill="#fff"/>
        </g>
        <g id="Group_1287" data-name="Group 1287" transform="translate(248.835 16.49)">
          <path id="Path_2022" data-name="Path 2022" d="M467.587,346.274H453.756a.225.225,0,0,1,0-.451h13.831a.225.225,0,0,1,0,.451Z" transform="translate(-453.531 -345.823)" fill="#fff"/>
        </g>
        <g id="Group_1288" data-name="Group 1288" transform="translate(91.536 13.593)">
          <path id="Path_2023" data-name="Path 2023" d="M200.037,341.453h-8.13a.225.225,0,0,1,0-.451h8.13a.225.225,0,0,1,0,.451Z" transform="translate(-191.682 -341.002)" fill="#fff"/>
        </g>
        <g id="Group_1289" data-name="Group 1289" transform="translate(158.608 12.164)">
          <path id="Path_2024" data-name="Path 2024" d="M311.689,339.074H303.56a.225.225,0,0,1,0-.451h8.129a.225.225,0,1,1,0,.451Z" transform="translate(-303.335 -338.623)" fill="#fff"/>
        </g>
        <g id="Group_1290" data-name="Group 1290" transform="translate(43.007 13.371)">
          <path id="Path_2025" data-name="Path 2025" d="M119.254,341.083h-8.13a.225.225,0,0,1,0-.451h8.13a.225.225,0,1,1,0,.451Z" transform="translate(-110.899 -340.632)" fill="#fff"/>
        </g>
        <g id="Group_1291" data-name="Group 1291" transform="translate(208.255 15.07)">
          <path id="Path_2026" data-name="Path 2026" d="M394.335,343.911H386.2a.225.225,0,0,1,0-.451h8.13a.225.225,0,0,1,0,.451Z" transform="translate(-385.979 -343.46)" fill="#fff"/>
        </g>
        <g id="Group_1292" data-name="Group 1292" transform="translate(241.235 10.693)">
          <path id="Path_2027" data-name="Path 2027" d="M449.233,336.624H441.1a.225.225,0,1,1,0-.451h8.129a.225.225,0,1,1,0,.451Z" transform="translate(-440.879 -336.173)" fill="#fff"/>
        </g>
        <g id="Group_1293" data-name="Group 1293" transform="translate(80.512 13.371)">
          <path id="Path_2028" data-name="Path 2028" d="M175.984,341.083h-2.428a.225.225,0,0,1,0-.451h2.428a.225.225,0,1,1,0,.451Z" transform="translate(-173.331 -340.632)" fill="#fff"/>
        </g>
        <g id="Group_1294" data-name="Group 1294" transform="translate(124.626 15.07)">
          <path id="Path_2029" data-name="Path 2029" d="M249.419,343.911h-2.428a.225.225,0,1,1,0-.451h2.428a.225.225,0,1,1,0,.451Z" transform="translate(-246.766 -343.46)" fill="#fff"/>
        </g>
        <g id="Group_1295" data-name="Group 1295" transform="translate(86.182 11.099)">
          <path id="Path_2030" data-name="Path 2030" d="M185.423,337.3H183a.225.225,0,1,1,0-.451h2.428a.225.225,0,1,1,0,.451Z" transform="translate(-182.77 -336.85)"/>
        </g>
        <g id="Group_1296" data-name="Group 1296" transform="translate(103.567 12.164)">
          <path id="Path_2031" data-name="Path 2031" d="M214.363,339.074h-2.428a.225.225,0,0,1,0-.451h2.428a.225.225,0,1,1,0,.451Z" transform="translate(-211.71 -338.623)" fill="#fff"/>
        </g>
        <g id="Group_1297" data-name="Group 1297" transform="translate(186.672 17.021)">
          <path id="Path_2032" data-name="Path 2032" d="M352.705,347.159h-2.428a.225.225,0,0,1,0-.451h2.428a.225.225,0,0,1,0,.451Z" transform="translate(-350.052 -346.708)" fill="#fff"/>
        </g>
        <g id="Group_1298" data-name="Group 1298" transform="translate(63.025 14.522)">
          <path id="Path_2033" data-name="Path 2033" d="M146.874,343h-2.428a.225.225,0,1,1,0-.451h2.428a.225.225,0,1,1,0,.451Z" transform="translate(-144.221 -342.547)" fill="#fff"/>
        </g>
        <g id="Group_1299" data-name="Group 1299" transform="translate(11.77 14.972)">
          <path id="Path_2034" data-name="Path 2034" d="M61.553,343.747H59.125a.225.225,0,0,1,0-.451h2.428a.225.225,0,0,1,0,.451Z" transform="translate(-58.9 -343.296)" fill="#fff"/>
        </g>
        <g id="Group_1300" data-name="Group 1300" transform="translate(315.442 13.371)">
          <path id="Path_2035" data-name="Path 2035" d="M567.062,341.083h-2.428a.225.225,0,1,1,0-.451h2.428a.225.225,0,0,1,0,.451Z" transform="translate(-564.409 -340.632)" fill="#fff"/>
        </g>
        <g id="Group_1301" data-name="Group 1301" transform="translate(238.885 14.162)">
          <path id="Path_2036" data-name="Path 2036" d="M439.621,342.4h-2.428a.225.225,0,1,1,0-.451h2.428a.225.225,0,0,1,0,.451Z" transform="translate(-436.968 -341.948)" fill="#fff"/>
        </g>
        <g id="Group_1302" data-name="Group 1302" transform="translate(141.583 10.89)">
          <path id="Path_2037" data-name="Path 2037" d="M277.647,336.953h-2.428a.225.225,0,1,1,0-.451h2.428a.225.225,0,1,1,0,.451Z" transform="translate(-274.994 -336.502)" fill="#fff"/>
        </g>
        <g id="Group_1303" data-name="Group 1303" transform="translate(32.216 14.162)">
          <path id="Path_2038" data-name="Path 2038" d="M95.588,342.4H93.16a.225.225,0,0,1,0-.451h2.428a.225.225,0,1,1,0,.451Z" transform="translate(-92.935 -341.948)" fill="#fff"/>
        </g>
        <g id="Group_1304" data-name="Group 1304" transform="translate(58.674 10.163)">
          <path id="Path_2039" data-name="Path 2039" d="M139.632,335.743H137.2a.225.225,0,0,1,0-.451h2.428a.225.225,0,1,1,0,.451Z" transform="translate(-136.979 -335.292)" fill="#fff"/>
        </g>
        <g id="Group_1305" data-name="Group 1305" transform="translate(179.97 11.26)">
          <path id="Path_2040" data-name="Path 2040" d="M341.547,337.569h-2.428a.225.225,0,1,1,0-.451h2.428a.225.225,0,1,1,0,.451Z" transform="translate(-338.894 -337.118)" fill="#fff"/>
        </g>
        <g id="Group_1306" data-name="Group 1306" transform="translate(301.525 13.726)">
          <path id="Path_2041" data-name="Path 2041" d="M543.9,341.674h-2.428a.225.225,0,1,1,0-.451H543.9a.225.225,0,0,1,0,.451Z" transform="translate(-541.242 -341.223)" fill="#fff"/>
        </g>
        <g id="Group_1307" data-name="Group 1307" transform="translate(262.252 14.162)">
          <path id="Path_2042" data-name="Path 2042" d="M478.519,342.4h-2.428a.225.225,0,0,1,0-.451h2.428a.225.225,0,0,1,0,.451Z" transform="translate(-475.866 -341.948)" fill="#fff"/>
        </g>
        <g id="Group_1308" data-name="Group 1308" transform="translate(154.589 14.162)">
          <path id="Path_2043" data-name="Path 2043" d="M299.3,342.4h-2.428a.225.225,0,1,1,0-.451H299.3a.225.225,0,1,1,0,.451Z" transform="translate(-296.644 -341.948)" fill="#fff"/>
        </g>
        <g id="Group_1309" data-name="Group 1309" transform="translate(253.021 11.099)">
          <path id="Path_2044" data-name="Path 2044" d="M463.152,337.3h-2.428a.225.225,0,0,1,0-.451h2.428a.225.225,0,1,1,0,.451Z" transform="translate(-460.499 -336.85)" fill="#fff"/>
        </g>
        <g id="Group_1310" data-name="Group 1310" transform="translate(0 11.503)">
          <path id="Path_2045" data-name="Path 2045" d="M47.661,337.973H39.532a.225.225,0,0,1,0-.451h8.129a.225.225,0,0,1,0,.451Z" transform="translate(-39.307 -337.522)" fill="#fff"/>
        </g>
      </g>
    </g>
  </g>
</svg>
