<svg width="38" height="38" viewBox="0 0 38 38" fill="none" xmlns="http://www.w3.org/2000/svg">
<g filter="url(#filter0_d_780_796)">
<circle cx="19" cy="15" r="15" fill="#FFBB33"/>
</g>
<path d="M13.2088 9.86945L15.9779 12.3055L18.445 9.26845C18.5141 9.18354 18.6014 9.11531 18.7005 9.06884C18.7996 9.02237 18.908 8.99885 19.0174 9.00004C19.1269 9.00123 19.2347 9.0271 19.3328 9.07571C19.4308 9.12432 19.5167 9.19443 19.5839 9.28082L21.9382 12.3047L24.7968 9.8338C24.9091 9.73696 25.0483 9.67671 25.1957 9.66112C25.3431 9.64553 25.4918 9.67534 25.6219 9.74655C25.7519 9.81777 25.8571 9.927 25.9233 10.0596C25.9896 10.1922 26.0137 10.3419 25.9925 10.4886L24.9009 18.0172H13.1163L12.008 10.5228C11.986 10.3753 12.0098 10.2246 12.0763 10.0911C12.1429 9.95754 12.2488 9.84769 12.3799 9.77638C12.5109 9.70507 12.6607 9.67576 12.809 9.69241C12.9572 9.70905 13.0968 9.77086 13.2088 9.86945ZM13.1731 18.7448H24.8172V19.4724C24.8172 19.6654 24.7405 19.8504 24.6041 19.9869C24.4676 20.1233 24.2825 20.2 24.0895 20.2H13.9009C13.7078 20.2 13.5227 20.1233 13.3863 19.9869C13.2498 19.8504 13.1731 19.6654 13.1731 19.4724V18.7448Z" fill="black"/>
<defs>
<filter id="filter0_d_780_796" x="0" y="0" width="38" height="38" filterUnits="userSpaceOnUse" color-interpolation-filters="sRGB">
<feFlood flood-opacity="0" result="BackgroundImageFix"/>
<feColorMatrix in="SourceAlpha" type="matrix" values="0 0 0 0 0 0 0 0 0 0 0 0 0 0 0 0 0 0 127 0" result="hardAlpha"/>
<feOffset dy="4"/>
<feGaussianBlur stdDeviation="2"/>
<feComposite in2="hardAlpha" operator="out"/>
<feColorMatrix type="matrix" values="0 0 0 0 0 0 0 0 0 0 0 0 0 0 0 0 0 0 0.14 0"/>
<feBlend mode="normal" in2="BackgroundImageFix" result="effect1_dropShadow_780_796"/>
<feBlend mode="normal" in="SourceGraphic" in2="effect1_dropShadow_780_796" result="shape"/>
</filter>
</defs>
</svg>
