<svg width="24" height="24" viewBox="0 0 24 24" fill="none" xmlns="http://www.w3.org/2000/svg">
<g clip-path="url(#clip0_806_805)">
<path d="M18.7484 19.1989H5.24115H4.99957V21.5454H7.23677H16.7633H19.0004V19.1989H18.7484Z" fill="black"/>
<path d="M22.4665 6.56852L15.839 12.6782L12.0053 5.27087L8.17158 12.6782L1.53351 6.56852L4.99959 17.6309H7.23679H16.7633H19.0005L22.4665 6.56852Z" fill="black"/>
<path d="M12.0053 5.78993C12.7536 5.78993 13.3602 5.16538 13.3602 4.39496C13.3602 3.62455 12.7536 3 12.0053 3C11.2569 3 10.6503 3.62455 10.6503 4.39496C10.6503 5.16538 11.2569 5.78993 12.0053 5.78993Z" fill="black"/>
<path d="M1.87813 7.50873C2.56851 7.21158 2.8942 6.39448 2.60558 5.6837C2.31696 4.97291 1.52332 4.63759 0.832938 4.93474C0.142553 5.23189 -0.183141 6.04899 0.10548 6.75977C0.3941 7.47056 1.18774 7.80588 1.87813 7.50873Z" fill="black"/>
<path d="M23.6058 7.21209C24.135 6.66732 24.135 5.78409 23.6058 5.23933C23.0767 4.69457 22.2188 4.69457 21.6897 5.23933C21.1606 5.78409 21.1606 6.66733 21.6897 7.21209C22.2188 7.75685 23.0767 7.75685 23.6058 7.21209Z" fill="black"/>
</g>
<defs>
<clipPath id="clip0_806_805">
<rect width="24" height="18.5455" fill="white" transform="translate(0 3)"/>
</clipPath>
</defs>
</svg>
