<svg width="38" height="38" viewBox="0 0 38 38" fill="none" xmlns="http://www.w3.org/2000/svg">
<g filter="url(#filter0_d_780_797)">
<circle cx="19" cy="15" r="15" fill="#2850E7"/>
</g>
<path d="M16.6667 13.8184C16.4191 13.8184 16.1817 13.9189 16.0067 14.0979C15.8317 14.277 15.7333 14.5197 15.7333 14.7729V15.7275H17.6V14.7729C17.6 14.5197 17.5017 14.277 17.3266 14.0979C17.1516 13.9189 16.9142 13.8184 16.6667 13.8184ZM22.2667 15.7275H20.8667C20.7429 15.7275 20.6242 15.7777 20.5367 15.8672C20.4492 15.9567 20.4 16.0781 20.4 16.2047C20.4 16.3313 20.4492 16.4527 20.5367 16.5422C20.6242 16.6317 20.7429 16.682 20.8667 16.682H22.2667V15.7275Z" fill="white"/>
<path fill-rule="evenodd" clip-rule="evenodd" d="M12 12.3864C12 11.7535 12.2458 11.1465 12.6834 10.6989C13.121 10.2514 13.7145 10 14.3333 10H23.6667C24.2855 10 24.879 10.2514 25.3166 10.6989C25.7542 11.1465 26 11.7535 26 12.3864V18.1136C26 18.7465 25.7542 19.3535 25.3166 19.8011C24.879 20.2486 24.2855 20.5 23.6667 20.5H14.3333C13.7145 20.5 13.121 20.2486 12.6834 19.8011C12.2458 19.3535 12 18.7465 12 18.1136V12.3864ZM15.7333 17.6364V16.6818H17.6V17.6364H18.5333V14.7727C18.5333 14.2664 18.3367 13.7808 17.9866 13.4228C17.6365 13.0648 17.1617 12.8636 16.6667 12.8636C16.1716 12.8636 15.6968 13.0648 15.3467 13.4228C14.9967 13.7808 14.8 14.2664 14.8 14.7727V17.6364H15.7333ZM22.2667 14.7727H20.8667C20.4954 14.7727 20.1393 14.9236 19.8767 15.1921C19.6142 15.4606 19.4667 15.8248 19.4667 16.2045C19.4667 16.5843 19.6142 16.9485 19.8767 17.217C20.1393 17.4855 20.4954 17.6364 20.8667 17.6364H23.2V12.8636H22.2667V14.7727Z" fill="white"/>
<defs>
<filter id="filter0_d_780_797" x="0" y="0" width="38" height="38" filterUnits="userSpaceOnUse" color-interpolation-filters="sRGB">
<feFlood flood-opacity="0" result="BackgroundImageFix"/>
<feColorMatrix in="SourceAlpha" type="matrix" values="0 0 0 0 0 0 0 0 0 0 0 0 0 0 0 0 0 0 127 0" result="hardAlpha"/>
<feOffset dy="4"/>
<feGaussianBlur stdDeviation="2"/>
<feComposite in2="hardAlpha" operator="out"/>
<feColorMatrix type="matrix" values="0 0 0 0 0 0 0 0 0 0 0 0 0 0 0 0 0 0 0.14 0"/>
<feBlend mode="normal" in2="BackgroundImageFix" result="effect1_dropShadow_780_797"/>
<feBlend mode="normal" in="SourceGraphic" in2="effect1_dropShadow_780_797" result="shape"/>
</filter>
</defs>
</svg>
