<svg xmlns="http://www.w3.org/2000/svg" width="38" height="38" viewBox="0 0 38 38">
  <g id="your_goal_icon" transform="translate(-1237 -760)">
    <rect id="Rectangle_885" data-name="Rectangle 885" width="38" height="38" rx="16" transform="translate(1237 760)" fill="#da1c26"/>
    <g id="Group_11735" data-name="Group 11735" transform="translate(1245 768)">
      <g id="Group_11734" data-name="Group 11734" transform="translate(0 0)">
        <g id="Group_11723" data-name="Group 11723" transform="translate(0 0)">
          <g id="Group_11722" data-name="Group 11722">
            <path id="Path_893" data-name="Path 893" d="M976.737,285.792a8.686,8.686,0,1,1-3.394.684,8.663,8.663,0,0,1,3.394-.684m0-2.363a11.084,11.084,0,1,0,11.084,11.084,11.084,11.084,0,0,0-11.084-11.084Z" transform="translate(-965.653 -283.429)" fill="#fff"/>
          </g>
        </g>
        <g id="Group_11728" data-name="Group 11728" transform="translate(4.67 4.67)">
          <g id="Group_11727" data-name="Group 11727">
            <g id="Group_11726" data-name="Group 11726">
              <path id="Path_895" data-name="Path 895" d="M1214.016,527.234a4.558,4.558,0,1,1-3.223,1.335,4.527,4.527,0,0,1,3.223-1.335m0-1.857a6.414,6.414,0,1,0,6.414,6.414,6.414,6.414,0,0,0-6.414-6.414Z" transform="translate(-1207.602 -525.377)" fill="#fff"/>
            </g>
          </g>
        </g>
        <g id="Group_11733" data-name="Group 11733" transform="translate(7.424 7.424)">
          <g id="Group_11732" data-name="Group 11732" transform="translate(0 0)">
            <circle id="Ellipse_232" data-name="Ellipse 232" cx="2.588" cy="2.588" r="2.588" transform="translate(0 3.66) rotate(-45)" fill="#fff"/>
          </g>
        </g>
      </g>
    </g>
  </g>
</svg>
